<svg id="Windscribe" xmlns="http://www.w3.org/2000/svg" xmlns:xlink="http://www.w3.org/1999/xlink" viewBox="0 0 1200 1200"><defs><style>.cls-1{fill:none;}.cls-2{fill:url(#linear-gradient);}.cls-3{fill:url(#linear-gradient-2);}.cls-4{fill:url(#linear-gradient-3);}.cls-5{fill:url(#linear-gradient-4);}.cls-6{fill:#43567f;}.cls-7{fill:url(#linear-gradient-5);}.cls-8{fill:url(#linear-gradient-6);}.cls-9{fill:url(#linear-gradient-7);}.cls-10{fill:url(#linear-gradient-8);}.cls-11{fill:url(#linear-gradient-9);}.cls-12{fill:url(#linear-gradient-10);}.cls-13{fill:url(#linear-gradient-11);}.cls-14{fill:url(#linear-gradient-12);}.cls-15{fill:url(#linear-gradient-13);}.cls-16{fill:url(#linear-gradient-14);}.cls-17{fill:#fff;}.cls-18{fill:url(#linear-gradient-15);}</style><linearGradient id="linear-gradient" x1="431.27" y1="715.43" x2="594.86" y2="715.43" gradientUnits="userSpaceOnUse"><stop offset="0" stop-color="#54d2ed" stop-opacity="0.25"/><stop offset="0.03" stop-color="#54d2ed" stop-opacity="0.3"/><stop offset="0.14" stop-color="#54d2ed" stop-opacity="0.48"/><stop offset="0.26" stop-color="#54d2ed" stop-opacity="0.64"/><stop offset="0.39" stop-color="#54d2ed" stop-opacity="0.77"/><stop offset="0.52" stop-color="#54d2ed" stop-opacity="0.87"/><stop offset="0.66" stop-color="#54d2ed" stop-opacity="0.94"/><stop offset="0.81" stop-color="#54d2ed" stop-opacity="0.99"/><stop offset="1" stop-color="#54d2ed"/></linearGradient><linearGradient id="linear-gradient-2" x1="431.27" y1="710.32" x2="594.86" y2="710.32" gradientUnits="userSpaceOnUse"><stop offset="0" stop-color="#fff"/><stop offset="0.09" stop-color="#eef7e1"/><stop offset="0.26" stop-color="#d0e9ac"/><stop offset="0.43" stop-color="#b7dd80"/><stop offset="0.59" stop-color="#a3d45d"/><stop offset="0.74" stop-color="#95cd45"/><stop offset="0.88" stop-color="#8dc936"/><stop offset="1" stop-color="#8ac831"/></linearGradient><linearGradient id="linear-gradient-3" x1="96.15" y1="710.32" x2="772.52" y2="710.32" xlink:href="#linear-gradient"/><linearGradient id="linear-gradient-4" x1="390.37" y1="592.73" x2="799.36" y2="592.73" xlink:href="#linear-gradient"/><linearGradient id="linear-gradient-5" x1="799.41" y1="592.73" x2="865.87" y2="592.73" gradientUnits="userSpaceOnUse"><stop offset="0" stop-color="#4ec8e3" stop-opacity="0"/><stop offset="0.09" stop-color="#4ec8e3" stop-opacity="0.14"/><stop offset="0.27" stop-color="#4ec8e3" stop-opacity="0.4"/><stop offset="0.45" stop-color="#4ec8e3" stop-opacity="0.62"/><stop offset="0.61" stop-color="#4ec8e3" stop-opacity="0.78"/><stop offset="0.76" stop-color="#4ec8e3" stop-opacity="0.9"/><stop offset="0.9" stop-color="#4ec8e3" stop-opacity="0.97"/><stop offset="1" stop-color="#4ec8e3"/></linearGradient><linearGradient id="linear-gradient-6" x1="910.26" y1="592.73" x2="992.05" y2="592.73" gradientUnits="userSpaceOnUse"><stop offset="0" stop-color="#4ec8e3"/><stop offset="0.1" stop-color="#4ec8e3" stop-opacity="0.97"/><stop offset="0.24" stop-color="#4ec8e3" stop-opacity="0.9"/><stop offset="0.39" stop-color="#4ec8e3" stop-opacity="0.78"/><stop offset="0.55" stop-color="#4ec8e3" stop-opacity="0.62"/><stop offset="0.73" stop-color="#4ec8e3" stop-opacity="0.4"/><stop offset="0.91" stop-color="#4ec8e3" stop-opacity="0.14"/><stop offset="1" stop-color="#4ec8e3" stop-opacity="0"/></linearGradient><linearGradient id="linear-gradient-7" x1="890.01" y1="666.84" x2="950.91" y2="666.84" xlink:href="#linear-gradient-6"/><linearGradient id="linear-gradient-8" x1="890.01" y1="518.62" x2="950.91" y2="518.62" xlink:href="#linear-gradient-6"/><linearGradient id="linear-gradient-9" x1="461.94" y1="814.39" x2="564.19" y2="814.39" xlink:href="#linear-gradient"/><linearGradient id="linear-gradient-10" x1="461.94" y1="819.5" x2="564.19" y2="819.5" xlink:href="#linear-gradient"/><linearGradient id="linear-gradient-11" x1="474.89" y1="819.5" x2="553.96" y2="819.5" xlink:href="#linear-gradient"/><linearGradient id="linear-gradient-12" x1="564.19" y1="812.56" x2="583.03" y2="812.56" xlink:href="#linear-gradient-6"/><linearGradient id="linear-gradient-13" x1="13929.19" y1="597.84" x2="14051.89" y2="597.84" gradientTransform="matrix(-1, 0, 0, 1, 14493.38, 0)" xlink:href="#linear-gradient-6"/><linearGradient id="linear-gradient-14" x1="348.4" y1="592.73" x2="390.37" y2="592.73" gradientUnits="userSpaceOnUse"><stop offset="0" stop-color="#54d2ed"/><stop offset="0.19" stop-color="#54d2ed" stop-opacity="0.99"/><stop offset="0.34" stop-color="#54d2ed" stop-opacity="0.94"/><stop offset="0.48" stop-color="#54d2ed" stop-opacity="0.87"/><stop offset="0.61" stop-color="#54d2ed" stop-opacity="0.77"/><stop offset="0.74" stop-color="#54d2ed" stop-opacity="0.64"/><stop offset="0.86" stop-color="#54d2ed" stop-opacity="0.48"/><stop offset="0.97" stop-color="#54d2ed" stop-opacity="0.3"/><stop offset="1" stop-color="#54d2ed" stop-opacity="0.25"/></linearGradient><linearGradient id="linear-gradient-15" x1="278.11" y1="609.34" x2="946.57" y2="609.34" gradientUnits="userSpaceOnUse"><stop offset="0" stop-color="#8ac831" stop-opacity="0.25"/><stop offset="0.03" stop-color="#8ac831" stop-opacity="0.29"/><stop offset="0.16" stop-color="#8ac831" stop-opacity="0.48"/><stop offset="0.31" stop-color="#8ac831" stop-opacity="0.63"/><stop offset="0.46" stop-color="#8ac831" stop-opacity="0.75"/><stop offset="0.61" stop-color="#8ac831" stop-opacity="0.83"/><stop offset="0.79" stop-color="#8ac831" stop-opacity="0.88"/><stop offset="1" stop-color="#8ac831" stop-opacity="0.9"/></linearGradient></defs><title>Artboard 138</title><path class="cls-1" d="M891.48,540.37l50.73-50.73a5,5,0,0,1,7.11,0l.12.12a5,5,0,0,1,0,7.11L898.71,547.6a5,5,0,0,1-7.11,0l-.12-.12A5,5,0,0,1,891.48,540.37ZM799.36,741a10.23,10.23,0,0,1-10.22,10.22H758.46L625.54,700.09H594.86v20.45a10.22,10.22,0,0,1-10.22,10.22H441.49a10.22,10.22,0,0,1-10.22-10.22V700.09H400.59a10.23,10.23,0,0,1-10.22-10.22v-36H369.85a21.45,21.45,0,0,1-21.46-21.46V553.09a21.46,21.46,0,0,1,21.46-21.46h20.52v-36a10.23,10.23,0,0,1,10.22-10.22H625.54l132.92-51.12h30.67a10.23,10.23,0,0,1,10.22,10.22Zm0-81.8V526.27a66.46,66.46,0,0,1,0,132.92Zm150,36.51-.12.12a5,5,0,0,1-7.11,0l-50.73-50.73a5,5,0,0,1,0-7.11l.12-.12a5,5,0,0,1,7.11,0l50.73,50.73A5,5,0,0,1,949.44,695.7Zm42.62-102.88a5,5,0,0,1-5,5H915.28a5,5,0,0,1-5-5v-.17a5,5,0,0,1,5-5H987a5,5,0,0,1,5,5Z"/><path class="cls-2" d="M584.64,715.43a5.11,5.11,0,0,1-5.11,5.11H446.61a5.11,5.11,0,0,1-5.11-5.11V700.09H431.27v20.45a10.22,10.22,0,0,0,10.22,10.22H584.64a10.22,10.22,0,0,0,10.22-10.22V700.09H584.64Z"/><path class="cls-3" d="M446.61,720.54H579.53a5.11,5.11,0,0,0,5.11-5.11V700.09H441.49v15.34A5.11,5.11,0,0,0,446.61,720.54Z"/><path class="cls-4" d="M446.61,720.54H579.53a5.11,5.11,0,0,0,5.11-5.11V700.09H441.49v15.34A5.11,5.11,0,0,0,446.61,720.54Z"/><path class="cls-5" d="M789.13,434.25H758.46L625.54,485.37H400.59a10.23,10.23,0,0,0-10.22,10.22V689.87a10.23,10.23,0,0,0,10.22,10.22H625.54l132.92,51.12h30.67A10.23,10.23,0,0,0,799.36,741V444.47A10.23,10.23,0,0,0,789.13,434.25Z"/><path class="cls-6" d="M799.41,526.27V659.19a66.46,66.46,0,0,0,0-132.92Z"/><path class="cls-7" d="M799.41,526.27V659.19a66.46,66.46,0,0,0,0-132.92Z"/><rect class="cls-8" x="910.26" y="587.62" width="81.8" height="10.22" rx="5.03" ry="5.03"/><path class="cls-9" d="M898.71,637.86a5,5,0,0,0-7.11,0l-.12.12a5,5,0,0,0,0,7.11l50.73,50.73a5,5,0,0,0,7.11,0l.12-.12a5,5,0,0,0,0-7.11Z"/><path class="cls-10" d="M891.6,547.6a5,5,0,0,0,7.11,0l50.73-50.73a5,5,0,0,0,0-7.11l-.12-.12a5,5,0,0,0-7.11,0l-50.73,50.73a5,5,0,0,0,0,7.11Z"/><polygon class="cls-11" points="564.18 751.22 564.18 877.57 553.96 877.57 553.96 761.44 474.89 761.44 507.71 877.57 497.27 877.57 461.94 751.22 564.18 751.22"/><polygon class="cls-12" points="553.96 761.44 553.96 877.57 507.71 877.57 474.89 761.44 553.96 761.44"/><polygon class="cls-13" points="553.96 761.44 553.96 877.57 507.71 877.57 474.89 761.44 553.96 761.44"/><path class="cls-6" d="M572.3,833A10.73,10.73,0,0,0,583,822.29V802.84a10.73,10.73,0,0,0-10.73-10.73h-8.12V833Z"/><path class="cls-14" d="M572.3,833A10.73,10.73,0,0,0,583,822.29V802.84a10.73,10.73,0,0,0-10.73-10.73h-8.12V833Z"/><rect class="cls-6" x="441.49" y="546.72" width="122.7" height="102.25" rx="10.22" ry="10.22"/><rect class="cls-15" x="441.49" y="546.72" width="122.7" height="102.25" rx="10.22" ry="10.22"/><path class="cls-16" d="M369.85,531.63a21.46,21.46,0,0,0-21.46,21.46v79.28a21.45,21.45,0,0,0,21.46,21.46h20.52V531.63Z"/><rect class="cls-17" x="461.94" y="607.79" width="20.45" height="17.29" rx="8.65" ry="8.65"/><rect class="cls-17" x="492.62" y="607.79" width="20.45" height="17.29" rx="8.65" ry="8.65"/><rect class="cls-17" x="523.29" y="607.79" width="20.45" height="17.29" rx="8.65" ry="8.65"/><rect class="cls-17" x="461.94" y="570.92" width="81.8" height="17.29" rx="8.65" ry="8.65"/><path class="cls-18" d="M612.48,943.63a335.5,335.5,0,0,1-205.08-70.2L390.2,860l-28.53-28.53-13.41-17.23c-103.2-132.64-91.31-322.38,27.66-441.35A332,332,0,0,1,612.2,275.05a335.46,335.46,0,0,1,205.07,70.2l17.23,13.41L863,387.18l13.4,17.23C979.63,537,967.74,726.79,848.76,845.76a331.92,331.92,0,0,1-236.25,97.86ZM412.36,834.18l26.63,19A299.23,299.23,0,0,0,823.9,820.9C927.61,717.19,941.18,555.31,856.17,436l-19-26.64Zm199.89-524a297.09,297.09,0,0,0-211.47,87.6C297.07,501.5,283.5,663.37,368.52,782.69l19,26.63L812.32,384.5l-26.63-19A297.16,297.16,0,0,0,612.25,310.18Z"/></svg>