<svg id="Windscribe" xmlns="http://www.w3.org/2000/svg" xmlns:xlink="http://www.w3.org/1999/xlink" viewBox="0 0 1280 1280"><defs><style>.cls-1{fill:none;}.cls-2{fill:url(#linear-gradient);}.cls-3{fill:url(#linear-gradient-2);}.cls-4{fill:url(#linear-gradient-3);}.cls-5{fill:url(#linear-gradient-4);}.cls-6{fill:#43567f;}.cls-7{fill:url(#linear-gradient-5);}.cls-8{fill:url(#linear-gradient-6);}.cls-9{fill:url(#linear-gradient-7);}.cls-10{fill:url(#linear-gradient-8);}.cls-11{fill:url(#linear-gradient-9);}.cls-12{fill:url(#linear-gradient-10);}.cls-13{fill:url(#linear-gradient-11);}.cls-14{fill:url(#linear-gradient-12);}.cls-15{fill:url(#linear-gradient-13);}.cls-16{fill:url(#linear-gradient-14);}.cls-17{fill:#fff;}.cls-18{fill:url(#linear-gradient-15);}.cls-19{fill:url(#linear-gradient-16);}.cls-20{fill:url(#linear-gradient-17);}.cls-21{fill:url(#linear-gradient-18);}.cls-22{fill:url(#linear-gradient-19);}.cls-23{fill:url(#linear-gradient-20);}.cls-24{fill:url(#linear-gradient-21);}.cls-25{fill:url(#linear-gradient-22);}.cls-26{fill:url(#linear-gradient-23);}.cls-27{fill:url(#linear-gradient-24);}.cls-28{fill:url(#linear-gradient-25);}.cls-29{fill:url(#linear-gradient-26);}.cls-30{fill:url(#linear-gradient-27);}.cls-31{fill:url(#linear-gradient-28);}</style><linearGradient id="linear-gradient" x1="456.07" y1="755.88" x2="619.67" y2="755.88" gradientUnits="userSpaceOnUse"><stop offset="0" stop-color="#54d2ed" stop-opacity="0.25"/><stop offset="0.03" stop-color="#54d2ed" stop-opacity="0.3"/><stop offset="0.14" stop-color="#54d2ed" stop-opacity="0.48"/><stop offset="0.26" stop-color="#54d2ed" stop-opacity="0.64"/><stop offset="0.39" stop-color="#54d2ed" stop-opacity="0.77"/><stop offset="0.52" stop-color="#54d2ed" stop-opacity="0.87"/><stop offset="0.66" stop-color="#54d2ed" stop-opacity="0.94"/><stop offset="0.81" stop-color="#54d2ed" stop-opacity="0.99"/><stop offset="1" stop-color="#54d2ed"/></linearGradient><linearGradient id="linear-gradient-2" x1="456.07" y1="750.77" x2="619.67" y2="750.77" gradientUnits="userSpaceOnUse"><stop offset="0" stop-color="#fff"/><stop offset="0.09" stop-color="#eef7e1"/><stop offset="0.26" stop-color="#d0e9ac"/><stop offset="0.43" stop-color="#b7dd80"/><stop offset="0.59" stop-color="#a3d45d"/><stop offset="0.74" stop-color="#95cd45"/><stop offset="0.88" stop-color="#8dc936"/><stop offset="1" stop-color="#8ac831"/></linearGradient><linearGradient id="linear-gradient-3" x1="120.96" y1="750.77" x2="797.32" y2="750.77" xlink:href="#linear-gradient"/><linearGradient id="linear-gradient-4" x1="415.18" y1="633.19" x2="824.16" y2="633.19" xlink:href="#linear-gradient"/><linearGradient id="linear-gradient-5" x1="824.21" y1="633.19" x2="890.68" y2="633.19" gradientUnits="userSpaceOnUse"><stop offset="0" stop-color="#4ec8e3" stop-opacity="0"/><stop offset="0.09" stop-color="#4ec8e3" stop-opacity="0.14"/><stop offset="0.27" stop-color="#4ec8e3" stop-opacity="0.4"/><stop offset="0.45" stop-color="#4ec8e3" stop-opacity="0.62"/><stop offset="0.61" stop-color="#4ec8e3" stop-opacity="0.78"/><stop offset="0.76" stop-color="#4ec8e3" stop-opacity="0.9"/><stop offset="0.9" stop-color="#4ec8e3" stop-opacity="0.97"/><stop offset="1" stop-color="#4ec8e3"/></linearGradient><linearGradient id="linear-gradient-6" x1="935.06" y1="633.19" x2="1016.86" y2="633.19" gradientUnits="userSpaceOnUse"><stop offset="0" stop-color="#4ec8e3"/><stop offset="0.1" stop-color="#4ec8e3" stop-opacity="0.97"/><stop offset="0.24" stop-color="#4ec8e3" stop-opacity="0.9"/><stop offset="0.39" stop-color="#4ec8e3" stop-opacity="0.78"/><stop offset="0.55" stop-color="#4ec8e3" stop-opacity="0.62"/><stop offset="0.73" stop-color="#4ec8e3" stop-opacity="0.4"/><stop offset="0.91" stop-color="#4ec8e3" stop-opacity="0.14"/><stop offset="1" stop-color="#4ec8e3" stop-opacity="0"/></linearGradient><linearGradient id="linear-gradient-7" x1="914.81" y1="707.29" x2="975.72" y2="707.29" xlink:href="#linear-gradient-6"/><linearGradient id="linear-gradient-8" x1="914.81" y1="559.08" x2="975.72" y2="559.08" xlink:href="#linear-gradient-6"/><linearGradient id="linear-gradient-9" x1="486.75" y1="854.84" x2="588.99" y2="854.84" xlink:href="#linear-gradient"/><linearGradient id="linear-gradient-10" x1="486.75" y1="859.96" x2="588.99" y2="859.96" xlink:href="#linear-gradient"/><linearGradient id="linear-gradient-11" x1="499.69" y1="859.96" x2="578.77" y2="859.96" xlink:href="#linear-gradient"/><linearGradient id="linear-gradient-12" x1="588.99" y1="853.02" x2="607.83" y2="853.02" xlink:href="#linear-gradient-6"/><linearGradient id="linear-gradient-13" x1="14438.51" y1="638.3" x2="14561.2" y2="638.3" gradientTransform="matrix(-1, 0, 0, 1, 15027.5, 0)" xlink:href="#linear-gradient-6"/><linearGradient id="linear-gradient-14" x1="373.2" y1="633.19" x2="415.18" y2="633.19" gradientUnits="userSpaceOnUse"><stop offset="0" stop-color="#54d2ed"/><stop offset="0.19" stop-color="#54d2ed" stop-opacity="0.99"/><stop offset="0.34" stop-color="#54d2ed" stop-opacity="0.94"/><stop offset="0.48" stop-color="#54d2ed" stop-opacity="0.87"/><stop offset="0.61" stop-color="#54d2ed" stop-opacity="0.77"/><stop offset="0.74" stop-color="#54d2ed" stop-opacity="0.64"/><stop offset="0.86" stop-color="#54d2ed" stop-opacity="0.48"/><stop offset="0.97" stop-color="#54d2ed" stop-opacity="0.3"/><stop offset="1" stop-color="#54d2ed" stop-opacity="0.25"/></linearGradient><linearGradient id="linear-gradient-15" x1="302.92" y1="649.79" x2="971.38" y2="649.79" gradientUnits="userSpaceOnUse"><stop offset="0" stop-color="#8ac831" stop-opacity="0.25"/><stop offset="0.03" stop-color="#8ac831" stop-opacity="0.29"/><stop offset="0.16" stop-color="#8ac831" stop-opacity="0.48"/><stop offset="0.31" stop-color="#8ac831" stop-opacity="0.63"/><stop offset="0.46" stop-color="#8ac831" stop-opacity="0.75"/><stop offset="0.61" stop-color="#8ac831" stop-opacity="0.83"/><stop offset="0.79" stop-color="#8ac831" stop-opacity="0.88"/><stop offset="1" stop-color="#8ac831" stop-opacity="0.9"/></linearGradient><linearGradient id="linear-gradient-16" x1="826.86" y1="14321.02" x2="848.86" y2="14321.02" gradientTransform="matrix(1, 0, 0, -1, 0, 14637.26)" gradientUnits="userSpaceOnUse"><stop offset="0" stop-color="#54d2ed" stop-opacity="0.5"/><stop offset="0.13" stop-color="#54d2ed" stop-opacity="0.64"/><stop offset="0.28" stop-color="#54d2ed" stop-opacity="0.77"/><stop offset="0.43" stop-color="#54d2ed" stop-opacity="0.87"/><stop offset="0.6" stop-color="#54d2ed" stop-opacity="0.94"/><stop offset="0.78" stop-color="#54d2ed" stop-opacity="0.99"/><stop offset="1" stop-color="#54d2ed"/></linearGradient><linearGradient id="linear-gradient-17" x1="273.6" y1="14152.84" x2="295.6" y2="14152.84" xlink:href="#linear-gradient-16"/><linearGradient id="linear-gradient-18" x1="252.14" y1="13787.49" x2="274.14" y2="13787.49" xlink:href="#linear-gradient-16"/><linearGradient id="linear-gradient-19" x1="802.44" y1="13629.86" x2="824.44" y2="13629.86" xlink:href="#linear-gradient-16"/><linearGradient id="linear-gradient-20" x1="625.55" y1="14209.11" x2="705.36" y2="14209.11" xlink:href="#linear-gradient-16"/><linearGradient id="linear-gradient-21" x1="339.44" y1="13673.18" x2="406.97" y2="13673.18" xlink:href="#linear-gradient-16"/><linearGradient id="linear-gradient-22" x1="909.01" y1="13719.24" x2="961.11" y2="13719.24" xlink:href="#linear-gradient-16"/><linearGradient id="linear-gradient-23" x1="963.15" y1="14248.97" x2="1022.52" y2="14248.97" xlink:href="#linear-gradient-16"/><linearGradient id="linear-gradient-24" x1="517.13" y1="14172.84" x2="539.13" y2="14172.84" gradientTransform="matrix(1, 0, 0, -1, 0, 14637.26)" gradientUnits="userSpaceOnUse"><stop offset="0" stop-color="#8ac831" stop-opacity="0.5"/><stop offset="0.07" stop-color="#8ac831" stop-opacity="0.58"/><stop offset="0.23" stop-color="#8ac831" stop-opacity="0.73"/><stop offset="0.39" stop-color="#8ac831" stop-opacity="0.85"/><stop offset="0.57" stop-color="#8ac831" stop-opacity="0.93"/><stop offset="0.76" stop-color="#8ac831" stop-opacity="0.98"/><stop offset="1" stop-color="#8ac831"/></linearGradient><linearGradient id="linear-gradient-25" x1="1016.59" y1="13855.31" x2="1038.59" y2="13855.31" xlink:href="#linear-gradient-24"/><linearGradient id="linear-gradient-26" x1="1008.82" y1="14084.33" x2="1030.82" y2="14084.33" xlink:href="#linear-gradient-24"/><linearGradient id="linear-gradient-27" x1="669.48" y1="13787.49" x2="735.48" y2="13787.49" xlink:href="#linear-gradient-24"/><linearGradient id="linear-gradient-28" x1="404.17" y1="14343.2" x2="470.17" y2="14343.2" xlink:href="#linear-gradient-24"/></defs><title>Artboard 153</title><path class="cls-1" d="M916.28,580.83,967,530.1a5,5,0,0,1,7.11,0l.12.12a5,5,0,0,1,0,7.11l-50.73,50.73a5,5,0,0,1-7.11,0l-.12-.12A5,5,0,0,1,916.28,580.83ZM824.16,781.44a10.23,10.23,0,0,1-10.22,10.22H783.27L650.34,740.55H619.67V761a10.22,10.22,0,0,1-10.22,10.22H466.3A10.22,10.22,0,0,1,456.07,761V740.55H425.4a10.23,10.23,0,0,1-10.22-10.22v-36H394.66a21.45,21.45,0,0,1-21.46-21.46V593.54a21.46,21.46,0,0,1,21.46-21.46h20.52v-36a10.23,10.23,0,0,1,10.22-10.22H650.34L783.27,474.7h30.67a10.23,10.23,0,0,1,10.22,10.22Zm0-81.8V566.72a66.46,66.46,0,0,1,0,132.92Zm150,36.51-.12.12a5,5,0,0,1-7.11,0l-50.73-50.73a5,5,0,0,1,0-7.11l.12-.12a5,5,0,0,1,7.11,0L974.24,729A5,5,0,0,1,974.24,736.15Zm42.62-102.88a5,5,0,0,1-5,5H940.09a5,5,0,0,1-5-5v-.17a5,5,0,0,1,5-5h71.74a5,5,0,0,1,5,5Z"/><path class="cls-2" d="M609.45,755.88a5.11,5.11,0,0,1-5.11,5.11H471.41a5.11,5.11,0,0,1-5.11-5.11V740.55H456.07V761a10.22,10.22,0,0,0,10.22,10.22H609.45A10.22,10.22,0,0,0,619.67,761V740.55H609.45Z"/><path class="cls-3" d="M471.41,761H604.33a5.11,5.11,0,0,0,5.11-5.11V740.55H466.3v15.34A5.11,5.11,0,0,0,471.41,761Z"/><path class="cls-4" d="M471.41,761H604.33a5.11,5.11,0,0,0,5.11-5.11V740.55H466.3v15.34A5.11,5.11,0,0,0,471.41,761Z"/><path class="cls-5" d="M813.94,474.7H783.27L650.34,525.83H425.4a10.23,10.23,0,0,0-10.22,10.22V730.32a10.23,10.23,0,0,0,10.22,10.22H650.34l132.92,51.12h30.67a10.23,10.23,0,0,0,10.22-10.22V484.93A10.23,10.23,0,0,0,813.94,474.7Z"/><path class="cls-6" d="M824.21,566.72V699.65a66.46,66.46,0,0,0,0-132.92Z"/><path class="cls-7" d="M824.21,566.72V699.65a66.46,66.46,0,0,0,0-132.92Z"/><rect class="cls-8" x="935.06" y="628.07" width="81.8" height="10.22" rx="5.03" ry="5.03"/><path class="cls-9" d="M923.51,678.31a5,5,0,0,0-7.11,0l-.12.12a5,5,0,0,0,0,7.11L967,736.27a5,5,0,0,0,7.11,0l.12-.12a5,5,0,0,0,0-7.11Z"/><path class="cls-10" d="M916.4,588.06a5,5,0,0,0,7.11,0l50.73-50.73a5,5,0,0,0,0-7.11l-.12-.12a5,5,0,0,0-7.11,0l-50.73,50.73a5,5,0,0,0,0,7.11Z"/><polygon class="cls-11" points="588.99 791.67 588.99 918.02 578.77 918.02 578.77 801.89 499.69 801.89 532.52 918.02 522.07 918.02 486.75 791.67 588.99 791.67"/><polygon class="cls-12" points="578.77 801.89 578.77 918.02 532.52 918.02 499.69 801.89 578.77 801.89"/><polygon class="cls-13" points="578.77 801.89 578.77 918.02 532.52 918.02 499.69 801.89 578.77 801.89"/><path class="cls-6" d="M597.11,873.47a10.73,10.73,0,0,0,10.73-10.73V843.3a10.73,10.73,0,0,0-10.73-10.73H589v40.9Z"/><path class="cls-14" d="M597.11,873.47a10.73,10.73,0,0,0,10.73-10.73V843.3a10.73,10.73,0,0,0-10.73-10.73H589v40.9Z"/><rect class="cls-6" x="466.3" y="587.17" width="122.7" height="102.25" rx="10.22" ry="10.22"/><rect class="cls-15" x="466.3" y="587.17" width="122.7" height="102.25" rx="10.22" ry="10.22"/><path class="cls-16" d="M394.66,572.09a21.46,21.46,0,0,0-21.46,21.46v79.28a21.45,21.45,0,0,0,21.46,21.46h20.52V572.09Z"/><rect class="cls-17" x="486.75" y="648.24" width="20.45" height="17.29" rx="8.65" ry="8.65"/><rect class="cls-17" x="517.42" y="648.24" width="20.45" height="17.29" rx="8.65" ry="8.65"/><rect class="cls-17" x="548.1" y="648.24" width="20.45" height="17.29" rx="8.65" ry="8.65"/><rect class="cls-17" x="486.75" y="611.37" width="81.8" height="17.29" rx="8.65" ry="8.65"/><path class="cls-18" d="M637.29,984.08a335.5,335.5,0,0,1-205.08-70.2L415,900.49,386.47,872l-13.41-17.23c-103.2-132.64-91.31-322.38,27.66-441.35A332,332,0,0,1,637,315.51a335.46,335.46,0,0,1,205.07,70.2l17.23,13.41,28.52,28.52,13.4,17.23c103.21,132.64,91.31,322.38-27.66,441.35a331.92,331.92,0,0,1-236.25,97.86ZM437.17,874.63l26.63,19a299.23,299.23,0,0,0,384.91-32.26C952.42,757.64,966,595.76,881,476.45l-19-26.64Zm199.89-524a297.09,297.09,0,0,0-211.47,87.6C321.87,542,308.3,703.83,393.33,823.14l19,26.63L837.13,425,810.5,406A297.16,297.16,0,0,0,637.06,350.63Z"/><circle class="cls-19" cx="837.86" cy="316.24" r="11"/><circle class="cls-20" cx="284.6" cy="484.42" r="11"/><circle class="cls-21" cx="263.14" cy="849.77" r="11"/><circle class="cls-22" cx="813.44" cy="1007.4" r="11"/><polygon class="cls-23" points="625.55 428.14 655.48 438.12 665.46 468.05 675.43 438.12 705.36 428.14 675.43 418.17 665.46 388.24 655.48 418.17 625.55 428.14"/><polygon class="cls-24" points="339.44 964.08 364.76 972.52 373.2 997.84 381.64 972.52 406.97 964.08 381.64 955.64 373.2 930.31 364.76 955.64 339.44 964.08"/><polygon class="cls-25" points="909.01 918.02 928.55 924.53 935.06 944.07 941.57 924.53 961.11 918.02 941.57 911.51 935.06 891.97 928.55 911.51 909.01 918.02"/><polygon class="cls-26" points="963.15 388.29 985.41 395.71 992.83 417.97 1000.25 395.71 1022.51 388.29 1000.25 380.87 992.83 358.61 985.41 380.87 963.15 388.29"/><circle class="cls-27" cx="528.13" cy="464.42" r="11"/><circle class="cls-28" cx="1027.59" cy="781.95" r="11"/><circle class="cls-29" cx="1019.82" cy="552.93" r="11"/><polygon class="cls-30" points="669.48 849.77 694.23 858.02 702.48 882.77 710.73 858.02 735.48 849.77 710.73 841.52 702.48 816.77 694.23 841.52 669.48 849.77"/><polygon class="cls-31" points="404.17 294.05 428.92 302.3 437.17 327.05 445.42 302.3 470.17 294.05 445.42 285.8 437.17 261.05 428.92 285.8 404.17 294.05"/></svg>