<svg id="Windscribe" xmlns="http://www.w3.org/2000/svg" xmlns:xlink="http://www.w3.org/1999/xlink" viewBox="0 0 1344.54 1344.54"><defs><style>.cls-1{fill:#43567f;}.cls-2{fill:url(#linear-gradient);}.cls-3{fill:#fff;}.cls-4{fill:url(#linear-gradient-2);}.cls-5{opacity:0.5;fill:url(#linear-gradient-3);}.cls-6{fill:url(#linear-gradient-4);}.cls-7{fill:url(#linear-gradient-5);}.cls-8{fill:url(#linear-gradient-6);}</style><linearGradient id="linear-gradient" x1="994.63" y1="492.22" x2="376.92" y2="911.38" gradientUnits="userSpaceOnUse"><stop offset="0" stop-color="#4ec8e3" stop-opacity="0"/><stop offset="0.09" stop-color="#4ec8e3" stop-opacity="0.14"/><stop offset="0.27" stop-color="#4ec8e3" stop-opacity="0.4"/><stop offset="0.45" stop-color="#4ec8e3" stop-opacity="0.62"/><stop offset="0.61" stop-color="#4ec8e3" stop-opacity="0.78"/><stop offset="0.76" stop-color="#4ec8e3" stop-opacity="0.9"/><stop offset="0.9" stop-color="#4ec8e3" stop-opacity="0.97"/><stop offset="1" stop-color="#4ec8e3"/></linearGradient><linearGradient id="linear-gradient-2" x1="398.22" y1="717.08" x2="946.32" y2="717.08" gradientUnits="userSpaceOnUse"><stop offset="0" stop-color="#54d2ed" stop-opacity="0.5"/><stop offset="0.13" stop-color="#54d2ed" stop-opacity="0.64"/><stop offset="0.28" stop-color="#54d2ed" stop-opacity="0.77"/><stop offset="0.43" stop-color="#54d2ed" stop-opacity="0.87"/><stop offset="0.6" stop-color="#54d2ed" stop-opacity="0.94"/><stop offset="0.78" stop-color="#54d2ed" stop-opacity="0.99"/><stop offset="1" stop-color="#54d2ed"/></linearGradient><linearGradient id="linear-gradient-3" x1="3555.19" y1="2121.1" x2="3813.4" y2="2121.1" gradientTransform="translate(-3527.45 57.19) rotate(-21)" gradientUnits="userSpaceOnUse"><stop offset="0" stop-color="#4ec8e3" stop-opacity="0"/><stop offset="0.13" stop-color="#4ec8e3" stop-opacity="0.16"/><stop offset="0.34" stop-color="#4ec8e3" stop-opacity="0.37"/><stop offset="0.54" stop-color="#4ec8e3" stop-opacity="0.53"/><stop offset="0.72" stop-color="#4ec8e3" stop-opacity="0.65"/><stop offset="0.88" stop-color="#4ec8e3" stop-opacity="0.72"/><stop offset="1" stop-color="#4ec8e3" stop-opacity="0.75"/></linearGradient><linearGradient id="linear-gradient-4" x1="718.45" y1="28.81" x2="869.67" y2="28.81" gradientTransform="translate(-121.79 688.22)" gradientUnits="userSpaceOnUse"><stop offset="0" stop-color="#54d2ed" stop-opacity="0.25"/><stop offset="0.03" stop-color="#54d2ed" stop-opacity="0.3"/><stop offset="0.14" stop-color="#54d2ed" stop-opacity="0.48"/><stop offset="0.26" stop-color="#54d2ed" stop-opacity="0.64"/><stop offset="0.39" stop-color="#54d2ed" stop-opacity="0.77"/><stop offset="0.52" stop-color="#54d2ed" stop-opacity="0.87"/><stop offset="0.66" stop-color="#54d2ed" stop-opacity="0.94"/><stop offset="0.81" stop-color="#54d2ed" stop-opacity="0.99"/><stop offset="1" stop-color="#54d2ed"/></linearGradient><linearGradient id="linear-gradient-5" x1="762.45" y1="28.81" x2="825.67" y2="28.81" xlink:href="#linear-gradient-4"/><linearGradient id="linear-gradient-6" x1="-4316.41" y1="465.17" x2="-3709.5" y2="465.17" gradientTransform="matrix(1, 0, 0, -1, 4685.22, 930.34)" gradientUnits="userSpaceOnUse"><stop offset="0" stop-color="#b9e84f"/><stop offset="0.03" stop-color="#b6e64d"/><stop offset="0.39" stop-color="#9ed63e"/><stop offset="0.73" stop-color="#8fcb34"/><stop offset="1" stop-color="#8ac831"/></linearGradient></defs><title>config-generators</title><path class="cls-1" d="M394.83,522H949.71a26,26,0,0,1,26,26V912.15a0,0,0,0,1,0,0H368.82a0,0,0,0,1,0,0V548a26,26,0,0,1,26-26Z" transform="translate(1344.54 1434.15) rotate(180)"/><path class="cls-2" d="M368.82,522H975.72a0,0,0,0,1,0,0V886.14a26,26,0,0,1-26,26H394.83a26,26,0,0,1-26-26V522a0,0,0,0,1,0,0Z"/><rect class="cls-3" x="398.22" y="551.41" width="548.09" height="331.34" rx="13.01" ry="13.01"/><rect class="cls-4" x="398.22" y="551.41" width="548.09" height="331.34" rx="13.01" ry="13.01"/><path class="cls-3" d="M802.81,737.28V696.89h0a33.16,33.16,0,0,1-30.61-20.81l-.24-.58a33.26,33.26,0,0,1,6.9-36.45h0L750.3,610.5h0a33.26,33.26,0,0,1-36.45,6.89l-.58-.24a33.16,33.16,0,0,1-20.8-30.61H652.08a33.16,33.16,0,0,1-20.81,30.6l-.58.24a33.26,33.26,0,0,1-36.45-6.9h0L565.69,639h0a33.26,33.26,0,0,1,6.89,36.45l-.24.58a33.16,33.16,0,0,1-30.61,20.8h0v40.38h0a33.16,33.16,0,0,1,30.61,20.81l.24.58a33.26,33.26,0,0,1-6.9,36.45h0l28.55,28.56h0a33.26,33.26,0,0,1,36.45-6.89l.58.24a33.16,33.16,0,0,1,20.8,30.61h40.38A33.16,33.16,0,0,1,713.26,817l.58-.24a33.26,33.26,0,0,1,36.45,6.9h0l28.56-28.55h0A33.26,33.26,0,0,1,772,758.66l.24-.58a33.16,33.16,0,0,1,30.61-20.8Z"/><path class="cls-5" d="M802.81,737.28V696.89h0a33.16,33.16,0,0,1-30.61-20.81l-.24-.58a33.26,33.26,0,0,1,6.9-36.45h0L750.3,610.5h0a33.26,33.26,0,0,1-36.45,6.89l-.58-.24a33.16,33.16,0,0,1-20.8-30.61H652.08a33.16,33.16,0,0,1-20.81,30.6l-.58.24a33.26,33.26,0,0,1-36.45-6.9h0L565.69,639h0a33.26,33.26,0,0,1,6.89,36.45l-.24.58a33.16,33.16,0,0,1-30.61,20.8h0v40.38h0a33.16,33.16,0,0,1,30.61,20.81l.24.58a33.26,33.26,0,0,1-6.9,36.45h0l28.55,28.56h0a33.26,33.26,0,0,1,36.45-6.89l.58.24a33.16,33.16,0,0,1,20.8,30.61h40.38A33.16,33.16,0,0,1,713.26,817l.58-.24a33.26,33.26,0,0,1,36.45,6.9h0l28.56-28.55h0A33.26,33.26,0,0,1,772,758.66l.24-.58a33.16,33.16,0,0,1,30.61-20.8Z"/><path class="cls-6" d="M672.27,641.47a75.61,75.61,0,1,0,75.61,75.62A75.61,75.61,0,0,0,672.27,641.47Z"/><path class="cls-3" d="M672.27,655.33A61.74,61.74,0,1,0,734,717.08,61.74,61.74,0,0,0,672.27,655.33Z"/><path class="cls-7" d="M672.27,685.47a31.61,31.61,0,1,0,31.61,31.61A31.61,31.61,0,0,0,672.27,685.47Z"/><path class="cls-8" d="M368.82,432.38H975.72a0,0,0,0,1,0,0v39.69A25.88,25.88,0,0,1,949.84,498H394.7a25.88,25.88,0,0,1-25.88-25.88V432.38a0,0,0,0,1,0,0Z" transform="translate(1344.54 930.34) rotate(180)"/><circle class="cls-3" cx="419.02" cy="465.17" r="11.06"/><circle class="cls-3" cx="463.16" cy="465.17" r="11.06"/><circle class="cls-3" cx="507.3" cy="465.17" r="11.06"/></svg>