<svg id="Windscribe" xmlns="http://www.w3.org/2000/svg" xmlns:xlink="http://www.w3.org/1999/xlink" viewBox="0 0 1344.54 1344.54"><defs><style>.cls-1{fill:url(#linear-gradient);}.cls-2{fill:url(#linear-gradient-2);}.cls-3{fill:url(#linear-gradient-3);}.cls-4{fill:url(#linear-gradient-4);}.cls-5{fill:url(#linear-gradient-5);}.cls-6{fill:url(#linear-gradient-6);}.cls-7{fill:url(#linear-gradient-7);}.cls-8{fill:url(#linear-gradient-8);}.cls-9{fill:url(#linear-gradient-9);}.cls-10{fill:url(#linear-gradient-10);}.cls-11{fill:url(#linear-gradient-11);}.cls-12{fill:url(#linear-gradient-12);}.cls-13{fill:url(#linear-gradient-13);}.cls-14{fill:#43567f;}.cls-15{fill:url(#linear-gradient-14);}.cls-16{fill:#fff;}.cls-17{fill:url(#linear-gradient-15);}.cls-18{opacity:0.5;fill:url(#linear-gradient-16);}.cls-19{fill:url(#linear-gradient-17);}.cls-20{fill:url(#linear-gradient-18);}.cls-21{fill:url(#linear-gradient-19);}</style><linearGradient id="linear-gradient" x1="1024.67" y1="730.48" x2="1044.67" y2="730.48" gradientUnits="userSpaceOnUse"><stop offset="0" stop-color="#54d2ed" stop-opacity="0.5"/><stop offset="0.13" stop-color="#54d2ed" stop-opacity="0.64"/><stop offset="0.28" stop-color="#54d2ed" stop-opacity="0.77"/><stop offset="0.43" stop-color="#54d2ed" stop-opacity="0.87"/><stop offset="0.6" stop-color="#54d2ed" stop-opacity="0.94"/><stop offset="0.78" stop-color="#54d2ed" stop-opacity="0.99"/><stop offset="1" stop-color="#54d2ed"/></linearGradient><linearGradient id="linear-gradient-2" x1="788.15" y1="313.58" x2="828.15" y2="313.58" gradientUnits="userSpaceOnUse"><stop offset="0" stop-color="#8ac831" stop-opacity="0.5"/><stop offset="0.07" stop-color="#8ac831" stop-opacity="0.58"/><stop offset="0.23" stop-color="#8ac831" stop-opacity="0.73"/><stop offset="0.39" stop-color="#8ac831" stop-opacity="0.85"/><stop offset="0.57" stop-color="#8ac831" stop-opacity="0.93"/><stop offset="0.76" stop-color="#8ac831" stop-opacity="0.98"/><stop offset="1" stop-color="#8ac831"/></linearGradient><linearGradient id="linear-gradient-3" x1="1004.66" y1="394.48" x2="1072.67" y2="394.48" xlink:href="#linear-gradient"/><linearGradient id="linear-gradient-4" x1="689.41" y1="990.48" x2="755.92" y2="990.48" xlink:href="#linear-gradient-2"/><linearGradient id="linear-gradient-5" x1="938.67" y1="1006.48" x2="958.67" y2="1006.48" xlink:href="#linear-gradient"/><linearGradient id="linear-gradient-6" x1="1061.1" y1="865.77" x2="1128.37" y2="865.77" xlink:href="#linear-gradient-2"/><linearGradient id="linear-gradient-7" x1="1064.36" y1="562.38" x2="1113.18" y2="562.38" xlink:href="#linear-gradient-2"/><linearGradient id="linear-gradient-8" x1="644.67" y1="360.48" x2="664.67" y2="360.48" xlink:href="#linear-gradient-2"/><linearGradient id="linear-gradient-9" x1="407.17" y1="331.98" x2="467.17" y2="331.98" xlink:href="#linear-gradient"/><linearGradient id="linear-gradient-10" x1="304.98" y1="929.64" x2="324.98" y2="929.64" xlink:href="#linear-gradient-2"/><linearGradient id="linear-gradient-11" x1="244.67" y1="460.48" x2="264.67" y2="460.48" xlink:href="#linear-gradient"/><linearGradient id="linear-gradient-12" x1="216.17" y1="730.16" x2="264.99" y2="730.16" xlink:href="#linear-gradient-2"/><linearGradient id="linear-gradient-13" x1="437.68" y1="1026.55" x2="486.5" y2="1026.55" xlink:href="#linear-gradient"/><linearGradient id="linear-gradient-14" x1="991.02" y1="491.7" x2="373.31" y2="910.86" gradientUnits="userSpaceOnUse"><stop offset="0" stop-color="#4ec8e3" stop-opacity="0"/><stop offset="0.09" stop-color="#4ec8e3" stop-opacity="0.14"/><stop offset="0.27" stop-color="#4ec8e3" stop-opacity="0.4"/><stop offset="0.45" stop-color="#4ec8e3" stop-opacity="0.62"/><stop offset="0.61" stop-color="#4ec8e3" stop-opacity="0.78"/><stop offset="0.76" stop-color="#4ec8e3" stop-opacity="0.9"/><stop offset="0.9" stop-color="#4ec8e3" stop-opacity="0.97"/><stop offset="1" stop-color="#4ec8e3"/></linearGradient><linearGradient id="linear-gradient-15" x1="394.61" y1="716.56" x2="942.7" y2="716.56" xlink:href="#linear-gradient"/><linearGradient id="linear-gradient-16" x1="2176.97" y1="1864.48" x2="2435.18" y2="1864.48" gradientTransform="translate(-2152.42 -197.66) rotate(-21)" gradientUnits="userSpaceOnUse"><stop offset="0" stop-color="#4ec8e3" stop-opacity="0"/><stop offset="0.13" stop-color="#4ec8e3" stop-opacity="0.16"/><stop offset="0.34" stop-color="#4ec8e3" stop-opacity="0.37"/><stop offset="0.54" stop-color="#4ec8e3" stop-opacity="0.53"/><stop offset="0.72" stop-color="#4ec8e3" stop-opacity="0.65"/><stop offset="0.88" stop-color="#4ec8e3" stop-opacity="0.72"/><stop offset="1" stop-color="#4ec8e3" stop-opacity="0.75"/></linearGradient><linearGradient id="linear-gradient-17" x1="715.05" y1="28.3" x2="866.27" y2="28.3" gradientTransform="translate(-122 688.22)" gradientUnits="userSpaceOnUse"><stop offset="0" stop-color="#54d2ed" stop-opacity="0.25"/><stop offset="0.03" stop-color="#54d2ed" stop-opacity="0.3"/><stop offset="0.14" stop-color="#54d2ed" stop-opacity="0.48"/><stop offset="0.26" stop-color="#54d2ed" stop-opacity="0.64"/><stop offset="0.39" stop-color="#54d2ed" stop-opacity="0.77"/><stop offset="0.52" stop-color="#54d2ed" stop-opacity="0.87"/><stop offset="0.66" stop-color="#54d2ed" stop-opacity="0.94"/><stop offset="0.81" stop-color="#54d2ed" stop-opacity="0.99"/><stop offset="1" stop-color="#54d2ed"/></linearGradient><linearGradient id="linear-gradient-18" x1="759.05" y1="28.3" x2="822.27" y2="28.3" xlink:href="#linear-gradient-17"/><linearGradient id="linear-gradient-19" x1="-4312.8" y1="464.66" x2="-3705.89" y2="464.66" gradientTransform="matrix(1, 0, 0, -1, 4678, 929.32)" gradientUnits="userSpaceOnUse"><stop offset="0" stop-color="#b9e84f"/><stop offset="0.03" stop-color="#b6e64d"/><stop offset="0.39" stop-color="#9ed63e"/><stop offset="0.73" stop-color="#8fcb34"/><stop offset="1" stop-color="#8ac831"/></linearGradient></defs><title>config-generators-stars</title><circle class="cls-1" cx="1034.67" cy="730.48" r="10"/><polygon class="cls-2" points="788.15 313.58 803.15 308.58 808.15 293.58 813.15 308.58 828.15 313.58 813.15 318.58 808.15 333.58 803.15 318.58 788.15 313.58"/><polygon class="cls-3" points="1004.66 394.48 1030.16 385.98 1038.67 360.48 1047.17 385.98 1072.67 394.48 1047.17 402.98 1038.67 428.48 1030.16 402.98 1004.66 394.48"/><polygon class="cls-4" points="689.41 990.48 714.35 982.17 722.66 957.22 730.98 982.17 755.92 990.48 730.98 998.8 722.66 1023.74 714.35 998.8 689.41 990.48"/><circle class="cls-5" cx="948.67" cy="1006.48" r="10"/><polygon class="cls-6" points="1061.1 865.77 1086.33 857.36 1094.73 832.14 1103.14 857.36 1128.37 865.77 1103.14 874.18 1094.73 899.4 1086.33 874.18 1061.1 865.77"/><polygon class="cls-7" points="1064.36 562.38 1082.67 556.28 1088.77 537.97 1094.87 556.28 1113.18 562.38 1094.87 568.48 1088.77 586.79 1082.67 568.48 1064.36 562.38"/><circle class="cls-8" cx="654.67" cy="360.48" r="10"/><polygon class="cls-9" points="407.17 331.98 429.67 324.48 437.17 301.98 444.67 324.48 467.17 331.98 444.67 339.48 437.17 361.98 429.67 339.48 407.17 331.98"/><circle class="cls-10" cx="314.98" cy="929.64" r="10"/><circle class="cls-11" cx="254.67" cy="460.48" r="10"/><polygon class="cls-12" points="216.17 730.16 234.48 724.06 240.58 705.75 246.69 724.06 264.99 730.16 246.69 736.26 240.58 754.57 234.48 736.26 216.17 730.16"/><polygon class="cls-13" points="437.68 1026.55 455.99 1020.45 462.09 1002.14 468.2 1020.45 486.5 1026.55 468.2 1032.65 462.09 1050.96 455.99 1032.65 437.68 1026.55"/><path class="cls-14" d="M391.21,521.49H946.1a26,26,0,0,1,26,26V911.64a0,0,0,0,1,0,0H365.2a0,0,0,0,1,0,0V547.5a26,26,0,0,1,26-26Z" transform="translate(1337.31 1433.13) rotate(180)"/><path class="cls-15" d="M365.2,521.49H972.11a0,0,0,0,1,0,0V885.63a26,26,0,0,1-26,26H391.21a26,26,0,0,1-26-26V521.49a0,0,0,0,1,0,0Z"/><rect class="cls-16" x="394.61" y="550.89" width="548.09" height="331.34" rx="13.01" ry="13.01"/><rect class="cls-17" x="394.61" y="550.89" width="548.09" height="331.34" rx="13.01" ry="13.01"/><path class="cls-16" d="M799.2,736.76V696.38h0a33.16,33.16,0,0,1-30.61-20.81l-.24-.58a33.26,33.26,0,0,1,6.9-36.45h0L746.69,610h0a33.26,33.26,0,0,1-36.45,6.89l-.58-.24A33.16,33.16,0,0,1,688.85,586H648.47a33.16,33.16,0,0,1-20.81,30.6l-.58.24a33.26,33.26,0,0,1-36.45-6.9h0l-28.56,28.55h0A33.26,33.26,0,0,1,569,675l-.24.58a33.16,33.16,0,0,1-30.61,20.8h0v40.38h0a33.16,33.16,0,0,1,30.61,20.81l.24.58a33.26,33.26,0,0,1-6.9,36.45h0l28.55,28.56h0a33.26,33.26,0,0,1,36.45-6.89l.58.24a33.16,33.16,0,0,1,20.8,30.61h40.38a33.16,33.16,0,0,1,20.81-30.6l.58-.24a33.26,33.26,0,0,1,36.45,6.9h0l28.56-28.55h0a33.26,33.26,0,0,1-6.89-36.45l.24-.58a33.16,33.16,0,0,1,30.61-20.8Z"/><path class="cls-18" d="M799.2,736.76V696.38h0a33.16,33.16,0,0,1-30.61-20.81l-.24-.58a33.26,33.26,0,0,1,6.9-36.45h0L746.69,610h0a33.26,33.26,0,0,1-36.45,6.89l-.58-.24A33.16,33.16,0,0,1,688.85,586H648.47a33.16,33.16,0,0,1-20.81,30.6l-.58.24a33.26,33.26,0,0,1-36.45-6.9h0l-28.56,28.55h0A33.26,33.26,0,0,1,569,675l-.24.58a33.16,33.16,0,0,1-30.61,20.8h0v40.38h0a33.16,33.16,0,0,1,30.61,20.81l.24.58a33.26,33.26,0,0,1-6.9,36.45h0l28.55,28.56h0a33.26,33.26,0,0,1,36.45-6.89l.58.24a33.16,33.16,0,0,1,20.8,30.61h40.38a33.16,33.16,0,0,1,20.81-30.6l.58-.24a33.26,33.26,0,0,1,36.45,6.9h0l28.56-28.55h0a33.26,33.26,0,0,1-6.89-36.45l.24-.58a33.16,33.16,0,0,1,30.61-20.8Z"/><path class="cls-19" d="M668.66,641a75.61,75.61,0,1,0,75.61,75.62A75.61,75.61,0,0,0,668.66,641Z"/><path class="cls-16" d="M668.66,654.82a61.74,61.74,0,1,0,61.74,61.74A61.74,61.74,0,0,0,668.66,654.82Z"/><path class="cls-20" d="M668.66,685a31.61,31.61,0,1,0,31.61,31.61A31.61,31.61,0,0,0,668.66,685Z"/><path class="cls-21" d="M365.2,431.87H972.11a0,0,0,0,1,0,0v39.69a25.88,25.88,0,0,1-25.88,25.88H391.09a25.88,25.88,0,0,1-25.88-25.88V431.87A0,0,0,0,1,365.2,431.87Z" transform="translate(1337.31 929.32) rotate(180)"/><circle class="cls-16" cx="415.4" cy="464.66" r="11.06"/><circle class="cls-16" cx="459.55" cy="464.66" r="11.06"/><circle class="cls-16" cx="503.69" cy="464.66" r="11.06"/></svg>