<svg id="Windscribe" xmlns="http://www.w3.org/2000/svg" xmlns:xlink="http://www.w3.org/1999/xlink" viewBox="0 0 1280 1280"><defs><style>.cls-1{fill:none;}.cls-2{fill:url(#linear-gradient);}.cls-3{fill:url(#linear-gradient-2);}.cls-4{fill:url(#linear-gradient-3);}.cls-5{fill:#fff;}.cls-6{fill:url(#linear-gradient-4);}.cls-7{fill:url(#linear-gradient-5);}.cls-8{fill:url(#linear-gradient-6);}.cls-9{opacity:0.5;}.cls-10{fill:url(#linear-gradient-7);}.cls-11{clip-path:url(#clip-path);}.cls-12{fill:url(#linear-gradient-8);}.cls-13{fill:url(#linear-gradient-9);}.cls-14{fill:url(#linear-gradient-10);}.cls-15{fill:url(#linear-gradient-11);}.cls-16{fill:url(#linear-gradient-12);}.cls-17{fill:url(#linear-gradient-13);}.cls-18{fill:url(#linear-gradient-14);}.cls-19{fill:url(#linear-gradient-15);}.cls-20{fill:url(#linear-gradient-16);}.cls-21{fill:url(#linear-gradient-17);}.cls-22{fill:url(#linear-gradient-18);}.cls-23{fill:url(#linear-gradient-19);}.cls-24{fill:url(#linear-gradient-20);}</style><linearGradient id="linear-gradient" x1="357.72" y1="610.62" x2="827.94" y2="610.62" gradientUnits="userSpaceOnUse"><stop offset="0" stop-color="#54d2ed" stop-opacity="0.25"/><stop offset="0.03" stop-color="#54d2ed" stop-opacity="0.3"/><stop offset="0.14" stop-color="#54d2ed" stop-opacity="0.48"/><stop offset="0.26" stop-color="#54d2ed" stop-opacity="0.64"/><stop offset="0.39" stop-color="#54d2ed" stop-opacity="0.77"/><stop offset="0.52" stop-color="#54d2ed" stop-opacity="0.87"/><stop offset="0.66" stop-color="#54d2ed" stop-opacity="0.94"/><stop offset="0.81" stop-color="#54d2ed" stop-opacity="0.99"/><stop offset="1" stop-color="#54d2ed"/></linearGradient><linearGradient id="linear-gradient-2" x1="3208.42" y1="3447.42" x2="3257.48" y2="3447.42" gradientTransform="translate(-3636.07 -1168.92) rotate(-26.38)" xlink:href="#linear-gradient"/><linearGradient id="linear-gradient-3" x1="739.45" y1="407.22" x2="776.36" y2="407.22" xlink:href="#linear-gradient"/><linearGradient id="linear-gradient-4" x1="818.17" y1="864.81" x2="907.14" y2="864.81" gradientTransform="translate(864.18 -356.69) rotate(45)" xlink:href="#linear-gradient"/><linearGradient id="linear-gradient-5" x1="862.65" y1="923.1" x2="979.23" y2="923.1" gradientTransform="translate(928.98 -383.53) rotate(45)" gradientUnits="userSpaceOnUse"><stop offset="0" stop-color="#fff"/><stop offset="0.09" stop-color="#eef7e1"/><stop offset="0.26" stop-color="#d0e9ac"/><stop offset="0.43" stop-color="#b7dd80"/><stop offset="0.59" stop-color="#a3d45d"/><stop offset="0.74" stop-color="#95cd45"/><stop offset="0.88" stop-color="#8dc936"/><stop offset="1" stop-color="#8ac831"/></linearGradient><linearGradient id="linear-gradient-6" x1="568.85" y1="738.77" x2="904.37" y2="738.77" gradientTransform="matrix(1, 0, 0, 1, 0, 0)" xlink:href="#linear-gradient-5"/><linearGradient id="linear-gradient-7" x1="606.56" y1="738.77" x2="866.67" y2="738.77" gradientUnits="userSpaceOnUse"><stop offset="0" stop-color="#54d2ed"/><stop offset="1" stop-color="#c9f0fa"/></linearGradient><clipPath id="clip-path"><path class="cls-1" d="M828.58,830.73a130.05,130.05,0,1,1,0-183.92A130.06,130.06,0,0,1,828.58,830.73Z"/></clipPath><linearGradient id="linear-gradient-8" x1="320.71" y1="608.71" x2="860.12" y2="608.71" xlink:href="#linear-gradient"/><linearGradient id="linear-gradient-9" x1="3238.08" y1="3440.86" x2="3294.36" y2="3440.86" gradientTransform="translate(-3636.07 -1168.92) rotate(-26.38)" xlink:href="#linear-gradient"/><linearGradient id="linear-gradient-10" x1="-9667" y1="14731.59" x2="-9645" y2="14731.59" gradientTransform="translate(-8716.82 15174.37) rotate(180)" gradientUnits="userSpaceOnUse"><stop offset="0" stop-color="#54d2ed" stop-opacity="0.5"/><stop offset="0.13" stop-color="#54d2ed" stop-opacity="0.64"/><stop offset="0.28" stop-color="#54d2ed" stop-opacity="0.77"/><stop offset="0.43" stop-color="#54d2ed" stop-opacity="0.87"/><stop offset="0.6" stop-color="#54d2ed" stop-opacity="0.94"/><stop offset="0.78" stop-color="#54d2ed" stop-opacity="0.99"/><stop offset="1" stop-color="#54d2ed"/></linearGradient><linearGradient id="linear-gradient-11" x1="-9094.87" y1="14206.24" x2="-9050.87" y2="14206.24" xlink:href="#linear-gradient-10"/><linearGradient id="linear-gradient-12" x1="-9091.36" y1="14819.95" x2="-9003.36" y2="14819.95" gradientTransform="translate(-8716.82 15174.37) rotate(180)" gradientUnits="userSpaceOnUse"><stop offset="0" stop-color="#8ac831" stop-opacity="0.5"/><stop offset="0.07" stop-color="#8ac831" stop-opacity="0.58"/><stop offset="0.23" stop-color="#8ac831" stop-opacity="0.73"/><stop offset="0.39" stop-color="#8ac831" stop-opacity="0.85"/><stop offset="0.57" stop-color="#8ac831" stop-opacity="0.93"/><stop offset="0.76" stop-color="#8ac831" stop-opacity="0.98"/><stop offset="1" stop-color="#8ac831"/></linearGradient><linearGradient id="linear-gradient-13" x1="-8978.36" y1="14634.73" x2="-8956.36" y2="14634.73" xlink:href="#linear-gradient-10"/><linearGradient id="linear-gradient-14" x1="-9484.49" y1="14157.7" x2="-9448.69" y2="14157.7" xlink:href="#linear-gradient-12"/><linearGradient id="linear-gradient-15" x1="-9034.21" y1="14374.58" x2="-8980.51" y2="14374.58" xlink:href="#linear-gradient-12"/><linearGradient id="linear-gradient-16" x1="-9270.88" y1="14238.72" x2="-9248.88" y2="14238.72" xlink:href="#linear-gradient-12"/><linearGradient id="linear-gradient-17" x1="-9759.29" y1="14425.39" x2="-9693.29" y2="14425.39" xlink:href="#linear-gradient-10"/><linearGradient id="linear-gradient-18" x1="-9443.96" y1="14839.95" x2="-9421.96" y2="14839.95" xlink:href="#linear-gradient-12"/><linearGradient id="linear-gradient-19" x1="-9753.14" y1="14586.76" x2="-9699.43" y2="14586.76" xlink:href="#linear-gradient-12"/><linearGradient id="linear-gradient-20" x1="-9350.24" y1="14902.91" x2="-9296.53" y2="14902.91" xlink:href="#linear-gradient-10"/></defs><title>Artboard 155</title><path class="cls-2" d="M827.94,610.62c0,129.85-105.26,235.11-235.11,235.11S357.72,740.47,357.72,610.62,463,375.51,592.83,375.51h.43a47.67,47.67,0,0,0,74.09,33.07A58.32,58.32,0,0,0,725,458.26c1.43,0,2.87-.06,4.28-.18a58.28,58.28,0,0,0,84.35,71.67A234.13,234.13,0,0,1,827.94,610.62Z"/><path class="cls-3" d="M809,467.11a24.33,24.33,0,0,0,14.66,24.82c-.29.17-.6.32-.91.47a51.79,51.79,0,0,1-57.45-7.72,64.32,64.32,0,0,0,20-22.83A24.33,24.33,0,0,0,809,467.11Z"/><path class="cls-4" d="M776.36,395.31a67.83,67.83,0,0,0-2.82,14.15A22.33,22.33,0,0,0,757.25,420a68.8,68.8,0,0,1-17.8-25.56,69,69,0,0,0,36.91.87Z"/><circle class="cls-5" cx="501.04" cy="518.94" r="35.25"/><circle class="cls-5" cx="658.05" cy="503.26" r="22.9"/><circle class="cls-5" cx="483.76" cy="687.04" r="18.37"/><circle class="cls-5" cx="629.77" cy="634.62" r="12.1"/><circle class="cls-5" cx="634.52" cy="754.86" r="25.93"/><circle class="cls-5" cx="745.69" cy="672.2" r="12.99"/><rect class="cls-6" x="831.2" y="833.35" width="62.91" height="62.91" transform="translate(-358.85 863.29) rotate(-45)"/><path class="cls-7" d="M896,869.42h62.91a0,0,0,0,1,0,0v88.93a31.45,31.45,0,0,1-31.45,31.45h0A31.45,31.45,0,0,1,896,958.35V869.42A0,0,0,0,1,896,869.42Z" transform="translate(-385.69 928.09) rotate(-45)"/><path class="cls-8" d="M736.62,571A167.76,167.76,0,1,0,904.37,738.77,167.77,167.77,0,0,0,736.62,571Zm92,259.73a130.05,130.05,0,1,1,0-183.92A130.06,130.06,0,0,1,828.58,830.73Z"/><g class="cls-9"><path class="cls-10" d="M828.58,830.73a130.05,130.05,0,1,1,0-183.92A130.06,130.06,0,0,1,828.58,830.73Z"/></g><g class="cls-11"><path class="cls-12" d="M860.12,608.71c0,149-120.75,269.71-269.71,269.71S320.71,757.67,320.71,608.71,441.45,339,590.41,339h.49a54.69,54.69,0,0,0,85,37.94,66.91,66.91,0,0,0,66.15,57c1.64,0,3.29-.07,4.91-.21a66.86,66.86,0,0,0,96.76,82.22A268.58,268.58,0,0,1,860.12,608.71Z"/><path class="cls-13" d="M838.45,444.09a27.91,27.91,0,0,0,16.81,28.47c-.34.19-.68.37-1,.54a59.41,59.41,0,0,1-65.9-8.86,73.78,73.78,0,0,0,22.9-26.18A27.91,27.91,0,0,0,838.45,444.09Z"/><circle class="cls-5" cx="485.12" cy="503.54" r="40.43"/><circle class="cls-5" cx="665.23" cy="485.56" r="26.27"/><circle class="cls-5" cx="465.29" cy="696.38" r="21.08"/><circle class="cls-5" cx="632.79" cy="636.25" r="13.88"/><circle class="cls-5" cx="638.24" cy="774.19" r="29.74"/><circle class="cls-5" cx="765.77" cy="679.36" r="14.9"/></g><circle class="cls-14" cx="939.18" cy="442.78" r="11"/><polygon class="cls-15" points="378.04 968.13 361.54 973.63 356.04 990.13 350.54 973.63 334.04 968.13 350.54 962.63 356.04 946.13 361.54 962.63 378.04 968.13"/><polygon class="cls-16" points="374.54 354.42 341.54 365.42 330.54 398.42 319.54 365.42 286.54 354.42 319.54 343.42 330.54 310.42 341.54 343.42 374.54 354.42"/><circle class="cls-17" cx="250.54" cy="539.64" r="11"/><polygon class="cls-18" points="767.67 1016.67 754.24 1021.14 749.77 1034.57 745.29 1021.14 731.87 1016.67 745.29 1012.19 749.77 998.77 754.24 1012.19 767.67 1016.67"/><polygon class="cls-19" points="317.39 799.79 297.25 806.5 290.54 826.64 283.83 806.5 263.69 799.79 283.83 793.08 290.54 772.94 297.25 793.08 317.39 799.79"/><circle class="cls-20" cx="543.06" cy="935.66" r="11"/><polygon class="cls-21" points="1042.46 748.98 1017.71 757.23 1009.46 781.98 1001.21 757.23 976.46 748.98 1001.21 740.73 1009.46 715.98 1017.71 740.73 1042.46 748.98"/><circle class="cls-22" cx="716.13" cy="334.42" r="11"/><polygon class="cls-23" points="1036.31 587.61 1016.17 594.33 1009.46 614.46 1002.75 594.33 982.61 587.61 1002.75 580.9 1009.46 560.76 1016.17 580.9 1036.31 587.61"/><polygon class="cls-24" points="633.41 271.47 613.27 278.18 606.56 298.32 599.85 278.18 579.71 271.47 599.85 264.75 606.56 244.62 613.27 264.75 633.41 271.47"/></svg>