<svg id="Windscribe" xmlns="http://www.w3.org/2000/svg" xmlns:xlink="http://www.w3.org/1999/xlink" viewBox="0 0 1200 1200"><defs><style>.cls-1{fill:none;}.cls-2{fill:url(#linear-gradient);}.cls-3{fill:url(#linear-gradient-2);}.cls-4{fill:url(#linear-gradient-3);}.cls-5{fill:#fff;}.cls-6{fill:url(#linear-gradient-4);}.cls-7{fill:url(#linear-gradient-5);}.cls-8{fill:url(#linear-gradient-6);}.cls-9{opacity:0.5;}.cls-10{fill:url(#linear-gradient-7);}.cls-11{clip-path:url(#clip-path);}.cls-12{fill:url(#linear-gradient-8);}.cls-13{fill:url(#linear-gradient-9);}</style><linearGradient id="linear-gradient" x1="306.33" y1="529.92" x2="789.01" y2="529.92" gradientUnits="userSpaceOnUse"><stop offset="0" stop-color="#54d2ed" stop-opacity="0.25"/><stop offset="0.03" stop-color="#54d2ed" stop-opacity="0.3"/><stop offset="0.14" stop-color="#54d2ed" stop-opacity="0.48"/><stop offset="0.26" stop-color="#54d2ed" stop-opacity="0.64"/><stop offset="0.39" stop-color="#54d2ed" stop-opacity="0.77"/><stop offset="0.52" stop-color="#54d2ed" stop-opacity="0.87"/><stop offset="0.66" stop-color="#54d2ed" stop-opacity="0.94"/><stop offset="0.81" stop-color="#54d2ed" stop-opacity="0.99"/><stop offset="1" stop-color="#54d2ed"/></linearGradient><linearGradient id="linear-gradient-2" x1="397.97" y1="2897.4" x2="448.33" y2="2897.4" gradientTransform="translate(-917.03 -2012.24) rotate(-26.38)" xlink:href="#linear-gradient"/><linearGradient id="linear-gradient-3" x1="4238.97" y1="545.47" x2="4270.99" y2="545.47" gradientTransform="translate(-1837.46 -3142.85) rotate(46.63)" xlink:href="#linear-gradient"/><linearGradient id="linear-gradient-4" x1="778.98" y1="790.85" x2="870.31" y2="790.85" gradientTransform="translate(800.75 -351.48) rotate(45)" xlink:href="#linear-gradient"/><linearGradient id="linear-gradient-5" x1="824.65" y1="850.68" x2="944.32" y2="850.68" gradientTransform="translate(867.27 -379.03) rotate(45)" gradientUnits="userSpaceOnUse"><stop offset="0" stop-color="#fff"/><stop offset="0.09" stop-color="#eef7e1"/><stop offset="0.26" stop-color="#d0e9ac"/><stop offset="0.43" stop-color="#b7dd80"/><stop offset="0.59" stop-color="#a3d45d"/><stop offset="0.74" stop-color="#95cd45"/><stop offset="0.88" stop-color="#8dc936"/><stop offset="1" stop-color="#8ac831"/></linearGradient><linearGradient id="linear-gradient-6" x1="523.05" y1="661.46" x2="867.47" y2="661.46" gradientTransform="matrix(1, 0, 0, 1, 0, 0)" xlink:href="#linear-gradient-5"/><linearGradient id="linear-gradient-7" x1="561.76" y1="661.47" x2="828.77" y2="661.47" gradientUnits="userSpaceOnUse"><stop offset="0" stop-color="#54d2ed"/><stop offset="1" stop-color="#c9f0fa"/></linearGradient><clipPath id="clip-path"><path class="cls-1" d="M789.67,755.87a133.5,133.5,0,1,1,0-188.8A133.5,133.5,0,0,1,789.67,755.87Z"/></clipPath><linearGradient id="linear-gradient-8" x1="268.33" y1="527.96" x2="822.04" y2="527.96" xlink:href="#linear-gradient"/><linearGradient id="linear-gradient-9" x1="429.23" y1="2895.07" x2="487" y2="2895.07" gradientTransform="translate(-917.03 -2012.24) rotate(-26.38)" xlink:href="#linear-gradient"/></defs><title>Artboard 136</title><path class="cls-2" d="M789,529.92c0,133.29-108,241.34-241.34,241.34s-241.34-108-241.34-241.34,108-241.34,241.34-241.34h.44a48.94,48.94,0,0,0,76.05,33.95,59.87,59.87,0,0,0,59.19,51c1.47,0,2.94-.06,4.39-.19a59.83,59.83,0,0,0,86.58,73.57A240.33,240.33,0,0,1,789,529.92Z"/><path class="cls-3" d="M766.92,379a25,25,0,0,0,15,25.48c-.3.17-.61.33-.93.49a53.17,53.17,0,0,1-59-7.93,66,66,0,0,0,20.49-23.43A25,25,0,0,0,766.92,379Z"/><path class="cls-4" d="M701.11,334.4a69.06,69.06,0,0,1-28.7-.25,68.88,68.88,0,0,0,14.37-30.26,68,68,0,0,0,19.68,14.93A61.64,61.64,0,0,0,701.11,334.4Z"/><circle class="cls-5" cx="453.45" cy="435.81" r="36.18"/><circle class="cls-5" cx="614.62" cy="419.71" r="23.51"/><circle class="cls-5" cx="435.7" cy="608.36" r="18.86"/><circle class="cls-5" cx="585.59" cy="554.56" r="12.42"/><circle class="cls-5" cx="590.47" cy="677.99" r="26.61"/><circle class="cls-5" cx="704.59" cy="593.13" r="13.34"/><rect class="cls-6" x="792.36" y="758.56" width="64.58" height="64.58" transform="translate(-317.68 814.75) rotate(-45)"/><path class="cls-7" d="M858.88,795.58h64.58a0,0,0,0,1,0,0v91.29a32.29,32.29,0,0,1-32.29,32.29h0a32.29,32.29,0,0,1-32.29-32.29V795.58A0,0,0,0,1,858.88,795.58Z" transform="translate(-345.23 881.27) rotate(-45)"/><path class="cls-8" d="M695.27,489.25a172.21,172.21,0,1,0,172.2,172.22A172.22,172.22,0,0,0,695.27,489.25Zm94.4,266.61a133.5,133.5,0,1,1,0-188.8A133.5,133.5,0,0,1,789.67,755.87Z"/><g class="cls-9"><path class="cls-10" d="M789.67,755.87a133.5,133.5,0,1,1,0-188.8A133.5,133.5,0,0,1,789.67,755.87Z"/></g><g class="cls-11"><path class="cls-12" d="M822,528c0,152.91-123.95,276.86-276.86,276.86S268.33,680.87,268.33,528,392.28,251.11,545.19,251.11h.51a56.14,56.14,0,0,0,87.25,38.94,68.68,68.68,0,0,0,67.91,58.5c1.69,0,3.38-.07,5-.22a68.63,68.63,0,0,0,99.33,84.4A275.7,275.7,0,0,1,822,528Z"/><path class="cls-13" d="M799.8,359a28.65,28.65,0,0,0,17.26,29.23c-.35.2-.7.38-1.07.56a61,61,0,0,1-67.65-9.09,75.74,75.74,0,0,0,23.51-26.88A28.65,28.65,0,0,0,799.8,359Z"/><circle class="cls-5" cx="437.1" cy="420" r="41.51"/><circle class="cls-5" cx="621.99" cy="401.54" r="26.97"/><circle class="cls-5" cx="416.75" cy="617.96" r="21.64"/><circle class="cls-5" cx="588.69" cy="556.23" r="14.25"/><circle class="cls-5" cx="590.47" cy="704.6" r="30.53"/><circle class="cls-5" cx="725.2" cy="600.48" r="15.3"/></g></svg>