<svg id="Windscribe" xmlns="http://www.w3.org/2000/svg" xmlns:xlink="http://www.w3.org/1999/xlink" viewBox="0 0 1200 1200"><defs><style>.cls-1{fill:url(#linear-gradient);}.cls-2{fill:#fff;}.cls-3{fill:#43567f;}.cls-4{fill:url(#linear-gradient-2);}.cls-5{fill:url(#linear-gradient-3);}.cls-6{fill:url(#linear-gradient-4);}</style><linearGradient id="linear-gradient" x1="300.31" y1="610.64" x2="899.68" y2="610.64" gradientUnits="userSpaceOnUse"><stop offset="0" stop-color="#8ac831" stop-opacity="0.15"/><stop offset="0.01" stop-color="#8ac831" stop-opacity="0.17"/><stop offset="0.13" stop-color="#8ac831" stop-opacity="0.39"/><stop offset="0.25" stop-color="#8ac831" stop-opacity="0.58"/><stop offset="0.38" stop-color="#8ac831" stop-opacity="0.73"/><stop offset="0.51" stop-color="#8ac831" stop-opacity="0.85"/><stop offset="0.65" stop-color="#8ac831" stop-opacity="0.93"/><stop offset="0.81" stop-color="#8ac831" stop-opacity="0.98"/><stop offset="1" stop-color="#8ac831"/></linearGradient><linearGradient id="linear-gradient-2" x1="4207.72" y1="-984.15" x2="4692.54" y2="-984.15" gradientTransform="matrix(-0.71, 0.71, 0.71, 0.71, 4442.6, -1840.19)" gradientUnits="userSpaceOnUse"><stop offset="0" stop-color="#4ec8e3" stop-opacity="0.25"/><stop offset="0.13" stop-color="#4ec8e3" stop-opacity="0.41"/><stop offset="0.34" stop-color="#4ec8e3" stop-opacity="0.62"/><stop offset="0.54" stop-color="#4ec8e3" stop-opacity="0.78"/><stop offset="0.72" stop-color="#4ec8e3" stop-opacity="0.9"/><stop offset="0.88" stop-color="#4ec8e3" stop-opacity="0.97"/><stop offset="1" stop-color="#4ec8e3"/></linearGradient><linearGradient id="linear-gradient-3" x1="1224.8" y1="-1757.9" x2="1371.72" y2="-1757.9" gradientTransform="matrix(0.82, 0.57, 0.57, -0.82, 492.96, -1499.94)" xlink:href="#linear-gradient"/><linearGradient id="linear-gradient-4" x1="1224.8" y1="1129.66" x2="1371.72" y2="1129.66" gradientTransform="matrix(0.82, 0.57, -0.57, 0.82, 236.33, -1133.43)" gradientUnits="userSpaceOnUse"><stop offset="0" stop-color="#4ec8e3" stop-opacity="0"/><stop offset="0.09" stop-color="#4ec8e3" stop-opacity="0.14"/><stop offset="0.27" stop-color="#4ec8e3" stop-opacity="0.4"/><stop offset="0.45" stop-color="#4ec8e3" stop-opacity="0.62"/><stop offset="0.61" stop-color="#4ec8e3" stop-opacity="0.78"/><stop offset="0.76" stop-color="#4ec8e3" stop-opacity="0.9"/><stop offset="0.9" stop-color="#4ec8e3" stop-opacity="0.97"/><stop offset="1" stop-color="#4ec8e3"/></linearGradient></defs><title>Artboard 140</title><circle class="cls-1" cx="600" cy="610.64" r="299.69"/><circle class="cls-2" cx="600" cy="610.64" r="242.41"/><path class="cls-3" d="M771.4,782c-94.66,94.66-248.15,94.66-342.81,0s-94.67-248.16,0-342.82C517,350.84,656.63,345,751.82,421.64A245.15,245.15,0,0,1,789,458.8C865.65,554,859.79,693.66,771.4,782Z"/><path class="cls-4" d="M428.58,782c2,2,4.07,4,6.16,5.94,93,86.74,237.53,86.74,330.5,0,2.08-1.93,4.13-3.91,6.16-5.94s4-4.06,5.94-6.14C860,687.29,863.89,551.81,789,458.8q-5.52-6.88-11.64-13.42c-1.93-2.08-3.92-4.13-5.94-6.16s-4.07-4-6.16-5.94q-6.54-6.12-13.43-11.65c-90.85-73.17-222.19-71.16-310.83,6q-3.18,2.76-6.28,5.66t-6.14,5.94c-2,2-4,4.07-5.94,6.16s-3.82,4.17-5.66,6.29c-81,93.09-79.15,233.32,5.67,324.22C424.57,778,426.55,780,428.58,782Z"/><polygon class="cls-2" points="659.96 653.08 539.61 568.81 496.49 758.46 659.96 653.08"/><polygon class="cls-5" points="659.96 653.08 539.61 568.81 496.49 758.46 659.96 653.08"/><polygon class="cls-2" points="660.38 652.47 540.03 568.2 703.5 462.82 660.38 652.47"/><polygon class="cls-6" points="660.38 652.47 540.03 568.2 703.5 462.82 660.38 652.47"/><circle class="cls-2" cx="600" cy="610.64" r="36.39"/><path class="cls-2" d="M617,368.82l-9.57,32.88a7.72,7.72,0,0,1-14.83,0L583,368.81q4.2-.3,8.44-.44t8.54-.14c2.87,0,5.71,0,8.55.15S614.19,368.62,617,368.82Z"/><path class="cls-2" d="M617,852.45l-9.57-32.88a7.72,7.72,0,0,0-14.83,0L583,852.46q4.2.3,8.44.44T600,853c2.87,0,5.71,0,8.55-.15S614.19,852.65,617,852.45Z"/><path class="cls-2" d="M841.81,593.64l-32.88,9.57a7.72,7.72,0,0,0,0,14.83l32.89,9.58q.3-4.2.44-8.44t.14-8.54c0-2.87,0-5.71-.15-8.55S842,596.45,841.81,593.64Z"/><path class="cls-2" d="M358.19,593.64l32.88,9.57a7.72,7.72,0,0,1,0,14.83l-32.89,9.58q-.3-4.2-.44-8.44t-.14-8.54c0-2.87,0-5.71.15-8.55S358,596.45,358.19,593.64Z"/></svg>