<svg id="Windscribe" xmlns="http://www.w3.org/2000/svg" xmlns:xlink="http://www.w3.org/1999/xlink" viewBox="0 0 1280 1280"><defs><style>.cls-1{fill:url(#linear-gradient);}.cls-2{fill:url(#linear-gradient-2);}.cls-3{fill:url(#linear-gradient-3);}.cls-4{fill:url(#linear-gradient-4);}.cls-5{fill:url(#linear-gradient-5);}.cls-6{fill:url(#linear-gradient-6);}.cls-7{fill:url(#linear-gradient-7);}.cls-8{fill:url(#linear-gradient-8);}.cls-9{fill:url(#linear-gradient-9);}.cls-10{fill:url(#linear-gradient-10);}.cls-11{fill:url(#linear-gradient-11);}.cls-12{fill:url(#linear-gradient-12);}.cls-13{fill:#fff;}.cls-14{fill:#43567f;}.cls-15{fill:url(#linear-gradient-13);}.cls-16{fill:url(#linear-gradient-14);}.cls-17{fill:url(#linear-gradient-15);}</style><linearGradient id="linear-gradient" x1="305.5" y1="848.42" x2="329.7" y2="848.42" gradientUnits="userSpaceOnUse"><stop offset="0" stop-color="#54d2ed" stop-opacity="0.5"/><stop offset="0.13" stop-color="#54d2ed" stop-opacity="0.64"/><stop offset="0.28" stop-color="#54d2ed" stop-opacity="0.77"/><stop offset="0.43" stop-color="#54d2ed" stop-opacity="0.87"/><stop offset="0.6" stop-color="#54d2ed" stop-opacity="0.94"/><stop offset="0.78" stop-color="#54d2ed" stop-opacity="0.99"/><stop offset="1" stop-color="#54d2ed"/></linearGradient><linearGradient id="linear-gradient-2" x1="919.76" y1="374.05" x2="968.16" y2="374.05" xlink:href="#linear-gradient"/><linearGradient id="linear-gradient-3" x1="910.26" y1="868.86" x2="988.17" y2="868.86" gradientUnits="userSpaceOnUse"><stop offset="0" stop-color="#8ac831" stop-opacity="0.5"/><stop offset="0.07" stop-color="#8ac831" stop-opacity="0.58"/><stop offset="0.23" stop-color="#8ac831" stop-opacity="0.73"/><stop offset="0.39" stop-color="#8ac831" stop-opacity="0.85"/><stop offset="0.57" stop-color="#8ac831" stop-opacity="0.93"/><stop offset="0.76" stop-color="#8ac831" stop-opacity="0.98"/><stop offset="1" stop-color="#8ac831"/></linearGradient><linearGradient id="linear-gradient-4" x1="982.36" y1="671.72" x2="1006.56" y2="671.72" xlink:href="#linear-gradient"/><linearGradient id="linear-gradient-5" x1="503.5" y1="273.77" x2="568.83" y2="273.77" xlink:href="#linear-gradient-3"/><linearGradient id="linear-gradient-6" x1="1014.92" y1="552.67" x2="1074" y2="552.67" xlink:href="#linear-gradient-3"/><linearGradient id="linear-gradient-7" x1="677.18" y1="309.56" x2="701.38" y2="309.56" xlink:href="#linear-gradient-3"/><linearGradient id="linear-gradient-8" x1="291.3" y1="409.46" x2="363.9" y2="409.46" xlink:href="#linear-gradient"/><linearGradient id="linear-gradient-9" x1="747.74" y1="1026.88" x2="771.94" y2="1026.88" xlink:href="#linear-gradient-3"/><linearGradient id="linear-gradient-10" x1="206" y1="616.06" x2="265.08" y2="616.06" xlink:href="#linear-gradient-3"/><linearGradient id="linear-gradient-11" x1="488.11" y1="1014.78" x2="547.18" y2="1014.78" xlink:href="#linear-gradient"/><linearGradient id="linear-gradient-12" x1="363.3" y1="651.09" x2="906.56" y2="651.09" gradientUnits="userSpaceOnUse"><stop offset="0" stop-color="#8ac831" stop-opacity="0.15"/><stop offset="0.01" stop-color="#8ac831" stop-opacity="0.17"/><stop offset="0.13" stop-color="#8ac831" stop-opacity="0.39"/><stop offset="0.25" stop-color="#8ac831" stop-opacity="0.58"/><stop offset="0.38" stop-color="#8ac831" stop-opacity="0.73"/><stop offset="0.51" stop-color="#8ac831" stop-opacity="0.85"/><stop offset="0.65" stop-color="#8ac831" stop-opacity="0.93"/><stop offset="0.81" stop-color="#8ac831" stop-opacity="0.98"/><stop offset="1" stop-color="#8ac831"/></linearGradient><linearGradient id="linear-gradient-13" x1="-4.75" y1="825.04" x2="434.68" y2="825.04" gradientTransform="matrix(-0.71, 0.71, 0.71, 0.71, 203.54, -84.31)" gradientUnits="userSpaceOnUse"><stop offset="0" stop-color="#4ec8e3" stop-opacity="0.25"/><stop offset="0.13" stop-color="#4ec8e3" stop-opacity="0.41"/><stop offset="0.34" stop-color="#4ec8e3" stop-opacity="0.62"/><stop offset="0.54" stop-color="#4ec8e3" stop-opacity="0.78"/><stop offset="0.72" stop-color="#4ec8e3" stop-opacity="0.9"/><stop offset="0.88" stop-color="#4ec8e3" stop-opacity="0.97"/><stop offset="1" stop-color="#4ec8e3"/></linearGradient><linearGradient id="linear-gradient-14" x1="-2268.7" y1="9503.59" x2="-2135.54" y2="9503.59" gradientTransform="matrix(0.82, 0.57, 0.57, -0.82, -3059.24, 9766.19)" xlink:href="#linear-gradient-12"/><linearGradient id="linear-gradient-15" x1="-2268.7" y1="2330.75" x2="-2135.54" y2="2330.75" gradientTransform="matrix(0.82, 0.57, -0.57, 0.82, 3822.67, -62.19)" gradientUnits="userSpaceOnUse"><stop offset="0" stop-color="#4ec8e3" stop-opacity="0"/><stop offset="0.09" stop-color="#4ec8e3" stop-opacity="0.14"/><stop offset="0.27" stop-color="#4ec8e3" stop-opacity="0.4"/><stop offset="0.45" stop-color="#4ec8e3" stop-opacity="0.62"/><stop offset="0.61" stop-color="#4ec8e3" stop-opacity="0.78"/><stop offset="0.76" stop-color="#4ec8e3" stop-opacity="0.9"/><stop offset="0.9" stop-color="#4ec8e3" stop-opacity="0.97"/><stop offset="1" stop-color="#4ec8e3"/></linearGradient></defs><title>Artboard 151</title><circle class="cls-1" cx="317.6" cy="848.42" r="12.1"/><polygon class="cls-2" points="919.76 374.05 937.91 368 943.96 349.85 950.01 368 968.16 374.05 950.01 380.1 943.96 398.25 937.91 380.1 919.76 374.05"/><polygon class="cls-3" points="910.26 868.86 939.47 858.49 949.21 827.36 958.95 858.49 988.17 868.86 958.95 879.24 949.21 910.36 939.47 879.24 910.26 868.86"/><circle class="cls-4" cx="994.46" cy="671.72" r="12.1"/><polygon class="cls-5" points="503.5 273.76 528 265.6 536.17 241.1 544.34 265.6 568.83 273.76 544.34 281.93 536.17 306.43 528 281.93 503.5 273.76"/><polygon class="cls-6" points="1014.92 552.66 1037.08 545.28 1044.46 523.13 1051.85 545.28 1074 552.66 1051.85 560.05 1044.46 582.2 1037.08 560.05 1014.92 552.66"/><circle class="cls-7" cx="689.28" cy="309.56" r="12.1"/><polygon class="cls-8" points="291.3 409.46 318.52 400.39 327.6 373.16 336.67 400.39 363.9 409.46 336.67 418.54 327.6 445.76 318.52 418.54 291.3 409.46"/><circle class="cls-9" cx="759.84" cy="1026.88" r="12.1"/><polygon class="cls-10" points="206 616.06 228.16 608.67 235.54 586.52 242.92 608.67 265.07 616.06 242.92 623.44 235.54 645.6 228.16 623.44 206 616.06"/><polygon class="cls-11" points="488.11 1014.78 510.26 1007.4 517.65 985.24 525.03 1007.4 547.18 1014.78 525.03 1022.16 517.65 1044.32 510.26 1022.16 488.11 1014.78"/><circle class="cls-12" cx="634.93" cy="651.09" r="271.63"/><circle class="cls-13" cx="634.93" cy="651.09" r="219.72"/><path class="cls-14" d="M790.29,806.45c-85.8,85.8-224.92,85.8-310.72,0s-85.81-224.92,0-310.72c80.12-80.12,206.7-85.43,293-15.94a222.2,222.2,0,0,1,33.68,33.68C875.71,599.75,870.4,726.34,790.29,806.45Z"/><path class="cls-15" d="M479.56,806.45c1.84,1.84,3.69,3.63,5.58,5.38,84.27,78.62,215.29,78.62,299.56,0,1.89-1.75,3.74-3.54,5.58-5.38s3.63-3.68,5.38-5.56c74.93-80.32,78.45-203.12,10.56-287.42q-5-6.24-10.55-12.16c-1.75-1.89-3.55-3.75-5.38-5.58s-3.69-3.63-5.58-5.38q-5.93-5.55-12.17-10.56c-82.34-66.32-201.38-64.5-281.73,5.43q-2.88,2.5-5.69,5.13t-5.57,5.38c-1.84,1.84-3.63,3.69-5.38,5.58s-3.46,3.78-5.13,5.7c-73.45,84.38-71.74,211.47,5.14,293.87C475.93,802.76,477.72,804.61,479.56,806.45Z"/><polygon class="cls-13" points="689.28 689.56 580.2 613.18 541.12 785.07 689.28 689.56"/><polygon class="cls-16" points="689.28 689.56 580.2 613.18 541.12 785.07 689.28 689.56"/><polygon class="cls-13" points="689.67 689 580.58 612.63 728.75 517.11 689.67 689"/><polygon class="cls-17" points="689.67 689 580.58 612.63 728.75 517.11 689.67 689"/><circle class="cls-13" cx="634.93" cy="651.09" r="32.98"/><path class="cls-13" d="M650.33,431.91l-8.68,29.8a7,7,0,0,1-13.44,0l-8.68-29.81q3.81-.27,7.65-.4t7.74-.13c2.6,0,5.18,0,7.75.14S647.79,431.73,650.33,431.91Z"/><path class="cls-13" d="M650.33,870.26l-8.68-29.8a7,7,0,0,0-13.44,0l-8.68,29.81q3.81.27,7.65.4t7.74.13c2.6,0,5.18,0,7.75-.14S647.79,870.44,650.33,870.26Z"/><path class="cls-13" d="M854.11,635.69l-29.8,8.68a7,7,0,0,0,0,13.44l29.81,8.68q.27-3.81.4-7.65t.13-7.74c0-2.6,0-5.18-.14-7.75S854.29,638.23,854.11,635.69Z"/><path class="cls-13" d="M415.76,635.69l29.8,8.68a7,7,0,0,1,0,13.44l-29.81,8.68q-.27-3.81-.4-7.65t-.13-7.74c0-2.6,0-5.18.14-7.75S415.58,638.23,415.76,635.69Z"/></svg>