<svg id="Windscribe" xmlns="http://www.w3.org/2000/svg" xmlns:xlink="http://www.w3.org/1999/xlink" viewBox="0 0 1280 1280"><defs><style>.cls-1{fill:url(#linear-gradient);}.cls-2{fill:url(#linear-gradient-2);}.cls-3{fill:url(#linear-gradient-3);}.cls-4{fill:url(#linear-gradient-4);}.cls-5{fill:url(#linear-gradient-5);}.cls-6{fill:#fff;}.cls-7{fill:url(#linear-gradient-6);}.cls-8{fill:url(#linear-gradient-7);}.cls-9{fill:url(#linear-gradient-8);}.cls-10,.cls-11,.cls-13,.cls-14{fill:none;stroke-linecap:round;stroke-linejoin:round;stroke-width:17.75px;}.cls-10{stroke:url(#linear-gradient-9);}.cls-11{stroke:url(#linear-gradient-10);}.cls-12{fill:url(#linear-gradient-11);}.cls-13{stroke:url(#linear-gradient-12);}.cls-14{stroke:url(#linear-gradient-13);}.cls-15{fill:url(#linear-gradient-14);}.cls-16{fill:url(#linear-gradient-16);}.cls-17{fill:url(#linear-gradient-17);}.cls-18{fill:url(#linear-gradient-18);}.cls-19{fill:url(#linear-gradient-19);}.cls-20{fill:url(#linear-gradient-20);}.cls-21{fill:url(#linear-gradient-21);}.cls-22{fill:url(#linear-gradient-22);}.cls-23{fill:url(#linear-gradient-23);}.cls-24{fill:url(#linear-gradient-24);}.cls-25{fill:url(#linear-gradient-25);}.cls-26{fill:url(#linear-gradient-26);}.cls-27{fill:url(#linear-gradient-27);}.cls-28{fill:url(#linear-gradient-28);}.cls-29{fill:url(#linear-gradient-29);}</style><linearGradient id="linear-gradient" x1="668.01" y1="802.92" x2="1004.68" y2="802.92" gradientUnits="userSpaceOnUse"><stop offset="0" stop-color="#8ac831" stop-opacity="0.25"/><stop offset="0.08" stop-color="#8ac831" stop-opacity="0.39"/><stop offset="0.21" stop-color="#8ac831" stop-opacity="0.58"/><stop offset="0.35" stop-color="#8ac831" stop-opacity="0.73"/><stop offset="0.49" stop-color="#8ac831" stop-opacity="0.85"/><stop offset="0.64" stop-color="#8ac831" stop-opacity="0.93"/><stop offset="0.8" stop-color="#8ac831" stop-opacity="0.98"/><stop offset="1" stop-color="#8ac831"/></linearGradient><linearGradient id="linear-gradient-2" x1="288.44" y1="496.46" x2="625.12" y2="496.46" gradientUnits="userSpaceOnUse"><stop offset="0" stop-color="#54d2ed" stop-opacity="0.25"/><stop offset="0.03" stop-color="#54d2ed" stop-opacity="0.3"/><stop offset="0.14" stop-color="#54d2ed" stop-opacity="0.48"/><stop offset="0.26" stop-color="#54d2ed" stop-opacity="0.64"/><stop offset="0.39" stop-color="#54d2ed" stop-opacity="0.77"/><stop offset="0.52" stop-color="#54d2ed" stop-opacity="0.87"/><stop offset="0.66" stop-color="#54d2ed" stop-opacity="0.94"/><stop offset="0.81" stop-color="#54d2ed" stop-opacity="0.99"/><stop offset="1" stop-color="#54d2ed"/></linearGradient><linearGradient id="linear-gradient-3" x1="10202.13" y1="585.27" x2="10490.97" y2="407.24" gradientTransform="matrix(0, 1, 1, 0, -39.68, -9849.76)" gradientUnits="userSpaceOnUse"><stop offset="0" stop-color="#fff"/><stop offset="0.09" stop-color="#eef7e1"/><stop offset="0.26" stop-color="#d0e9ac"/><stop offset="0.43" stop-color="#b7dd80"/><stop offset="0.59" stop-color="#a3d45d"/><stop offset="0.74" stop-color="#95cd45"/><stop offset="0.88" stop-color="#8dc936"/><stop offset="1" stop-color="#8ac831"/></linearGradient><linearGradient id="linear-gradient-4" x1="10314.9" y1="644.6" x2="10377.68" y2="605.9" gradientTransform="matrix(0, 1, 1, 0, -168.52, -9720.92)" gradientUnits="userSpaceOnUse"><stop offset="0" stop-color="#8ac831" stop-opacity="0.5"/><stop offset="0.07" stop-color="#8ac831" stop-opacity="0.58"/><stop offset="0.23" stop-color="#8ac831" stop-opacity="0.73"/><stop offset="0.39" stop-color="#8ac831" stop-opacity="0.85"/><stop offset="0.57" stop-color="#8ac831" stop-opacity="0.93"/><stop offset="0.76" stop-color="#8ac831" stop-opacity="0.98"/><stop offset="1" stop-color="#8ac831"/></linearGradient><linearGradient id="linear-gradient-5" x1="-796.4" y1="647.4" x2="-681.17" y2="647.4" gradientTransform="matrix(-1, 0, 0, 1, -282, 0)" xlink:href="#linear-gradient-4"/><linearGradient id="linear-gradient-6" x1="9822.57" y1="891.73" x2="10111.41" y2="713.7" gradientTransform="matrix(0, 1, 1, 0, 33.42, -9163.74)" xlink:href="#linear-gradient-2"/><linearGradient id="linear-gradient-7" x1="9935.34" y1="951.06" x2="9998.12" y2="912.37" gradientTransform="matrix(0, 1, 1, 0, -95.42, -9034.9)" xlink:href="#linear-gradient-2"/><linearGradient id="linear-gradient-8" x1="-1175.96" y1="953.86" x2="-1060.73" y2="953.86" gradientTransform="matrix(-1, 0, 0, 1, -282, 0)" xlink:href="#linear-gradient-2"/><linearGradient id="linear-gradient-9" x1="688.82" y1="430.47" x2="904.86" y2="430.47" gradientUnits="userSpaceOnUse"><stop offset="0" stop-color="#54d2ed" stop-opacity="0.5"/><stop offset="0.13" stop-color="#54d2ed" stop-opacity="0.64"/><stop offset="0.28" stop-color="#54d2ed" stop-opacity="0.77"/><stop offset="0.43" stop-color="#54d2ed" stop-opacity="0.87"/><stop offset="0.6" stop-color="#54d2ed" stop-opacity="0.94"/><stop offset="0.78" stop-color="#54d2ed" stop-opacity="0.99"/><stop offset="1" stop-color="#54d2ed"/></linearGradient><linearGradient id="linear-gradient-10" x1="9226.32" y1="8967.97" x2="9442.37" y2="8967.97" gradientTransform="matrix(0, -1, -1, 0, 9863.95, 9863.95)" xlink:href="#linear-gradient-9"/><linearGradient id="linear-gradient-11" x1="868.98" y1="430.47" x2="923" y2="430.47" gradientTransform="matrix(1, 0, 0, 1, 0, 0)" xlink:href="#linear-gradient-3"/><linearGradient id="linear-gradient-12" x1="-4456.87" y1="5559.95" x2="-4240.82" y2="5559.95" gradientTransform="matrix(0, 1, 1, 0, -5162.82, 5162.82)" xlink:href="#linear-gradient-9"/><linearGradient id="linear-gradient-13" x1="4096.84" y1="13756.77" x2="4312.88" y2="13756.77" gradientTransform="translate(4701.14 15026.77) rotate(180)" xlink:href="#linear-gradient-9"/><linearGradient id="linear-gradient-14" x1="370.13" y1="913.12" x2="424.15" y2="913.12" gradientTransform="matrix(1, 0, 0, 1, 0, 0)" xlink:href="#linear-gradient-3"/><linearGradient id="linear-gradient-16" x1="845.47" y1="14309.64" x2="865.47" y2="14309.64" gradientTransform="matrix(1, 0, 0, -1, 0, 14637.26)" xlink:href="#linear-gradient-9"/><linearGradient id="linear-gradient-17" x1="963.45" y1="13659.55" x2="1003.45" y2="13659.55" gradientTransform="matrix(1, 0, 0, -1, 0, 14637.26)" xlink:href="#linear-gradient-4"/><linearGradient id="linear-gradient-18" x1="575.43" y1="13639.55" x2="615.43" y2="13639.55" gradientTransform="matrix(1, 0, 0, -1, 0, 14637.26)" xlink:href="#linear-gradient-9"/><linearGradient id="linear-gradient-19" x1="662.78" y1="14367.45" x2="732.61" y2="14367.45" gradientTransform="matrix(1, 0, 0, -1, 0, 14637.26)" xlink:href="#linear-gradient-9"/><linearGradient id="linear-gradient-20" x1="309.67" y1="13880.08" x2="329.67" y2="13880.08" gradientTransform="matrix(1, 0, 0, -1, 0, 14637.26)" xlink:href="#linear-gradient-9"/><linearGradient id="linear-gradient-21" x1="963.45" y1="14029.9" x2="996" y2="14029.9" gradientTransform="matrix(1, 0, 0, -1, 0, 14637.26)" xlink:href="#linear-gradient-9"/><linearGradient id="linear-gradient-22" x1="514.4" y1="13855.67" x2="546.94" y2="13855.67" gradientTransform="matrix(1, 0, 0, -1, 0, 14637.26)" xlink:href="#linear-gradient-4"/><linearGradient id="linear-gradient-23" x1="427.65" y1="14332.53" x2="447.65" y2="14332.53" gradientTransform="matrix(1, 0, 0, -1, 0, 14637.26)" xlink:href="#linear-gradient-4"/><linearGradient id="linear-gradient-24" x1="732.61" y1="14083.24" x2="752.61" y2="14083.24" gradientTransform="matrix(1, 0, 0, -1, 0, 14637.26)" xlink:href="#linear-gradient-9"/><linearGradient id="linear-gradient-25" x1="1020.95" y1="14188.41" x2="1080.95" y2="14188.41" gradientTransform="matrix(1, 0, 0, -1, 0, 14637.26)" xlink:href="#linear-gradient-4"/><linearGradient id="linear-gradient-26" x1="792.23" y1="13602.15" x2="812.23" y2="13602.15" gradientTransform="matrix(1, 0, 0, -1, 0, 14637.26)" xlink:href="#linear-gradient-4"/><linearGradient id="linear-gradient-27" x1="258.44" y1="13683.62" x2="278.44" y2="13683.62" gradientTransform="matrix(1, 0, 0, -1, 0, 14637.26)" xlink:href="#linear-gradient-4"/><linearGradient id="linear-gradient-28" x1="1050.95" y1="13880.08" x2="1099.77" y2="13880.08" gradientTransform="matrix(1, 0, 0, -1, 0, 14637.26)" xlink:href="#linear-gradient-4"/><linearGradient id="linear-gradient-29" x1="180.23" y1="14107.65" x2="229.05" y2="14107.65" gradientTransform="matrix(1, 0, 0, -1, 0, 14637.26)" xlink:href="#linear-gradient-4"/></defs><title>Artboard 152</title><rect class="cls-1" x="668.01" y="689.24" width="336.67" height="227.36" rx="25" ry="25"/><rect class="cls-2" x="288.44" y="382.77" width="336.67" height="227.36" rx="25" ry="25"/><rect class="cls-3" x="362.16" y="349.34" width="189.25" height="294.23" rx="12.5" ry="12.5" transform="translate(953.24 39.68) rotate(90)"/><rect class="cls-4" x="441.62" y="591.19" width="30.32" height="68.22" transform="translate(1082.08 168.52) rotate(90)"/><path class="cls-5" d="M514.4,654.35h0a13.89,13.89,0,0,0-13.89-13.89H413.05a13.89,13.89,0,0,0-13.89,13.89H514.4Z"/><rect class="cls-6" x="741.72" y="655.8" width="189.25" height="294.23" rx="15" ry="15" transform="translate(1639.26 -33.42) rotate(90)"/><rect class="cls-7" x="741.72" y="655.8" width="189.25" height="294.23" rx="12.5" ry="12.5" transform="translate(1639.26 -33.42) rotate(90)"/><rect class="cls-8" x="821.18" y="897.65" width="30.32" height="68.22" transform="translate(1768.1 95.42) rotate(90)"/><path class="cls-9" d="M894,960.81h0a13.89,13.89,0,0,0-13.89-13.89H792.61a13.89,13.89,0,0,0-13.89,13.89H894Z"/><line class="cls-10" x1="697.69" y1="430.47" x2="895.99" y2="430.47"/><line class="cls-11" x1="895.99" y1="628.76" x2="895.99" y2="430.47"/><circle class="cls-6" cx="895.99" cy="430.47" r="40.51"/><circle class="cls-12" cx="895.99" cy="430.47" r="27.01"/><line class="cls-13" x1="397.14" y1="714.83" x2="397.14" y2="913.12"/><line class="cls-14" x1="595.43" y1="913.12" x2="397.14" y2="913.12"/><circle class="cls-6" cx="397.14" cy="913.12" r="40.51"/><circle class="cls-15" cx="397.14" cy="913.12" r="27.01"/><circle class="cls-12" cx="895.99" cy="430.47" r="27.01"/><circle class="cls-16" cx="855.47" cy="327.62" r="10"/><polygon class="cls-17" points="963.46 977.71 978.46 982.71 983.46 997.71 988.46 982.71 1003.46 977.71 988.46 972.71 983.46 957.71 978.46 972.71 963.46 977.71"/><polygon class="cls-18" points="575.43 997.71 590.43 1002.71 595.43 1017.71 600.43 1002.71 615.43 997.71 600.43 992.71 595.43 977.71 590.43 992.71 575.43 997.71"/><polygon class="cls-19" points="662.78 269.81 688.97 278.54 697.69 304.72 706.42 278.54 732.61 269.81 706.42 261.08 697.69 234.89 688.97 261.08 662.78 269.81"/><circle class="cls-20" cx="319.67" cy="757.17" r="10"/><polygon class="cls-21" points="963.46 607.35 975.66 611.42 979.73 623.63 983.8 611.42 996 607.35 983.8 603.28 979.73 591.08 975.66 603.28 963.46 607.35"/><polygon class="cls-22" points="514.4 781.58 526.6 785.65 530.67 797.86 534.74 785.65 546.94 781.58 534.74 777.51 530.67 765.31 526.6 777.51 514.4 781.58"/><circle class="cls-23" cx="437.65" cy="304.72" r="10"/><circle class="cls-24" cx="742.61" cy="554.02" r="10"/><polygon class="cls-25" points="1020.95 448.85 1043.45 456.35 1050.95 478.85 1058.45 456.35 1080.95 448.85 1058.45 441.35 1050.95 418.85 1043.45 441.35 1020.95 448.85"/><circle class="cls-26" cx="802.23" cy="1035.11" r="10"/><circle class="cls-27" cx="268.44" cy="953.63" r="10"/><polygon class="cls-28" points="1050.95 757.17 1069.26 763.28 1075.36 781.58 1081.46 763.28 1099.77 757.17 1081.46 751.07 1075.36 732.76 1069.26 751.07 1050.95 757.17"/><polygon class="cls-29" points="180.23 529.61 198.53 535.71 204.64 554.02 210.74 535.71 229.05 529.61 210.74 523.51 204.64 505.2 198.53 523.51 180.23 529.61"/></svg>