<svg id="Windscribe" xmlns="http://www.w3.org/2000/svg" xmlns:xlink="http://www.w3.org/1999/xlink" viewBox="0 0 1200 1200"><defs><style>.cls-1{fill:url(#linear-gradient);}.cls-2{fill:url(#linear-gradient-2);}.cls-3{fill:url(#linear-gradient-3);}.cls-4{fill:url(#linear-gradient-4);}.cls-5{fill:url(#linear-gradient-5);}.cls-6{fill:#fff;}.cls-7{fill:url(#linear-gradient-6);}.cls-8{fill:url(#linear-gradient-7);}.cls-9{fill:url(#linear-gradient-8);}.cls-10,.cls-11,.cls-13,.cls-14{fill:none;stroke-linecap:round;stroke-linejoin:round;stroke-width:17.75px;}.cls-10{stroke:url(#linear-gradient-9);}.cls-11{stroke:url(#linear-gradient-10);}.cls-12{fill:url(#linear-gradient-11);}.cls-13{stroke:url(#linear-gradient-12);}.cls-14{stroke:url(#linear-gradient-13);}.cls-15{fill:url(#linear-gradient-14);}</style><linearGradient id="linear-gradient" x1="638.13" y1="762.46" x2="974.81" y2="762.46" gradientUnits="userSpaceOnUse"><stop offset="0" stop-color="#8ac831" stop-opacity="0.25"/><stop offset="0.08" stop-color="#8ac831" stop-opacity="0.39"/><stop offset="0.21" stop-color="#8ac831" stop-opacity="0.58"/><stop offset="0.35" stop-color="#8ac831" stop-opacity="0.73"/><stop offset="0.49" stop-color="#8ac831" stop-opacity="0.85"/><stop offset="0.64" stop-color="#8ac831" stop-opacity="0.93"/><stop offset="0.8" stop-color="#8ac831" stop-opacity="0.98"/><stop offset="1" stop-color="#8ac831"/></linearGradient><linearGradient id="linear-gradient-2" x1="258.57" y1="456" x2="595.24" y2="456" gradientUnits="userSpaceOnUse"><stop offset="0" stop-color="#54d2ed" stop-opacity="0.25"/><stop offset="0.03" stop-color="#54d2ed" stop-opacity="0.3"/><stop offset="0.14" stop-color="#54d2ed" stop-opacity="0.48"/><stop offset="0.26" stop-color="#54d2ed" stop-opacity="0.64"/><stop offset="0.39" stop-color="#54d2ed" stop-opacity="0.77"/><stop offset="0.52" stop-color="#54d2ed" stop-opacity="0.87"/><stop offset="0.66" stop-color="#54d2ed" stop-opacity="0.94"/><stop offset="0.81" stop-color="#54d2ed" stop-opacity="0.99"/><stop offset="1" stop-color="#54d2ed"/></linearGradient><linearGradient id="linear-gradient-3" x1="9870.54" y1="544.82" x2="10159.39" y2="366.79" gradientTransform="matrix(0, 1, 1, 0, -29.09, -9558.63)" gradientUnits="userSpaceOnUse"><stop offset="0" stop-color="#fff"/><stop offset="0.09" stop-color="#eef7e1"/><stop offset="0.26" stop-color="#d0e9ac"/><stop offset="0.43" stop-color="#b7dd80"/><stop offset="0.59" stop-color="#a3d45d"/><stop offset="0.74" stop-color="#95cd45"/><stop offset="0.88" stop-color="#8dc936"/><stop offset="1" stop-color="#8ac831"/></linearGradient><linearGradient id="linear-gradient-4" x1="9983.32" y1="604.15" x2="10046.1" y2="565.45" gradientTransform="matrix(0, 1, 1, 0, -157.93, -9429.8)" gradientUnits="userSpaceOnUse"><stop offset="0" stop-color="#8ac831" stop-opacity="0.5"/><stop offset="0.07" stop-color="#8ac831" stop-opacity="0.58"/><stop offset="0.23" stop-color="#8ac831" stop-opacity="0.73"/><stop offset="0.39" stop-color="#8ac831" stop-opacity="0.85"/><stop offset="0.57" stop-color="#8ac831" stop-opacity="0.93"/><stop offset="0.76" stop-color="#8ac831" stop-opacity="0.98"/><stop offset="1" stop-color="#8ac831"/></linearGradient><linearGradient id="linear-gradient-5" x1="-1127.98" y1="606.95" x2="-1012.75" y2="606.95" gradientTransform="matrix(-1, 0, 0, 1, -643.46, 0)" xlink:href="#linear-gradient-4"/><linearGradient id="linear-gradient-6" x1="9490.98" y1="851.28" x2="9779.83" y2="673.25" gradientTransform="matrix(0, 1, 1, 0, 44.01, -8872.61)" xlink:href="#linear-gradient-2"/><linearGradient id="linear-gradient-7" x1="9603.76" y1="910.61" x2="9666.54" y2="871.91" gradientTransform="matrix(0, 1, 1, 0, -84.83, -8743.77)" xlink:href="#linear-gradient-2"/><linearGradient id="linear-gradient-8" x1="-1507.55" y1="913.41" x2="-1392.32" y2="913.41" gradientTransform="matrix(-1, 0, 0, 1, -643.46, 0)" xlink:href="#linear-gradient-2"/><linearGradient id="linear-gradient-9" x1="658.95" y1="390.01" x2="874.99" y2="390.01" gradientUnits="userSpaceOnUse"><stop offset="0" stop-color="#54d2ed" stop-opacity="0.5"/><stop offset="0.13" stop-color="#54d2ed" stop-opacity="0.64"/><stop offset="0.28" stop-color="#54d2ed" stop-opacity="0.77"/><stop offset="0.43" stop-color="#54d2ed" stop-opacity="0.87"/><stop offset="0.6" stop-color="#54d2ed" stop-opacity="0.94"/><stop offset="0.78" stop-color="#54d2ed" stop-opacity="0.99"/><stop offset="1" stop-color="#54d2ed"/></linearGradient><linearGradient id="linear-gradient-10" x1="2863.22" y1="2594.28" x2="3079.26" y2="2594.28" gradientTransform="matrix(0, -1, -1, 0, 3460.4, 3460.4)" xlink:href="#linear-gradient-9"/><linearGradient id="linear-gradient-11" x1="839.1" y1="390.01" x2="893.12" y2="390.01" gradientTransform="matrix(1, 0, 0, 1, 0, 0)" xlink:href="#linear-gradient-3"/><linearGradient id="linear-gradient-12" x1="1544.78" y1="-512.02" x2="1760.83" y2="-512.02" gradientTransform="matrix(0, 1, 1, 0, 879.29, -879.29)" xlink:href="#linear-gradient-9"/><linearGradient id="linear-gradient-13" x1="3765.25" y1="1708.45" x2="3981.3" y2="1708.45" gradientTransform="translate(4339.68 2581.11) rotate(180)" xlink:href="#linear-gradient-9"/><linearGradient id="linear-gradient-14" x1="340.26" y1="872.66" x2="394.27" y2="872.66" gradientTransform="matrix(1, 0, 0, 1, 0, 0)" xlink:href="#linear-gradient-3"/></defs><title>Artboard 139</title><rect class="cls-1" x="638.13" y="648.78" width="336.67" height="227.36" rx="25" ry="25"/><rect class="cls-2" x="258.57" y="342.32" width="336.67" height="227.36" rx="25" ry="25"/><rect class="cls-3" x="332.29" y="308.89" width="189.25" height="294.23" rx="12.5" ry="12.5" transform="translate(882.91 29.09) rotate(90)"/><rect class="cls-4" x="411.75" y="550.73" width="30.32" height="68.22" transform="translate(1011.75 157.93) rotate(90)"/><path class="cls-5" d="M484.53,613.89h0A13.89,13.89,0,0,0,470.64,600H383.18a13.89,13.89,0,0,0-13.89,13.89H484.53Z"/><rect class="cls-6" x="711.85" y="615.35" width="189.25" height="294.23" rx="15" ry="15" transform="translate(1568.94 -44.01) rotate(90)"/><rect class="cls-7" x="711.85" y="615.35" width="189.25" height="294.23" rx="12.5" ry="12.5" transform="translate(1568.94 -44.01) rotate(90)"/><rect class="cls-8" x="791.31" y="857.19" width="30.32" height="68.22" transform="translate(1697.77 84.83) rotate(90)"/><path class="cls-9" d="M864.09,920.36h0a13.89,13.89,0,0,0-13.89-13.89H762.74a13.89,13.89,0,0,0-13.89,13.89H864.09Z"/><line class="cls-10" x1="667.82" y1="390.01" x2="866.11" y2="390.01"/><line class="cls-11" x1="866.11" y1="588.3" x2="866.11" y2="390.01"/><circle class="cls-6" cx="866.11" cy="390.01" r="40.51"/><circle class="cls-12" cx="866.11" cy="390.01" r="27.01"/><line class="cls-13" x1="367.27" y1="674.37" x2="367.27" y2="872.66"/><line class="cls-14" x1="565.56" y1="872.66" x2="367.27" y2="872.66"/><circle class="cls-6" cx="367.27" cy="872.66" r="40.51"/><circle class="cls-15" cx="367.27" cy="872.66" r="27.01"/><circle class="cls-12" cx="866.11" cy="390.01" r="27.01"/></svg>