<svg id="Windscribe" xmlns="http://www.w3.org/2000/svg" xmlns:xlink="http://www.w3.org/1999/xlink" viewBox="0 0 1200 1200"><defs><style>.cls-1{fill:url(#linear-gradient);}.cls-2{fill:url(#linear-gradient-2);}.cls-3{fill:url(#linear-gradient-3);}.cls-4{fill:url(#linear-gradient-4);}.cls-5{fill:url(#linear-gradient-5);}.cls-6{fill:url(#linear-gradient-6);}.cls-7{fill:url(#linear-gradient-7);}.cls-8{fill:url(#linear-gradient-8);}.cls-9{fill:url(#linear-gradient-9);}.cls-10{fill:url(#linear-gradient-10);}.cls-11{fill:url(#linear-gradient-11);}.cls-12{fill:url(#linear-gradient-12);}.cls-13{fill:#fff;}.cls-14{fill:url(#linear-gradient-13);}.cls-15{fill:url(#linear-gradient-14);}</style><linearGradient id="linear-gradient" x1="430.32" y1="-1191.63" x2="654.8" y2="-1191.63" gradientTransform="matrix(1, 0, 0, -1, 0, -602.5)" gradientUnits="userSpaceOnUse"><stop offset="0" stop-color="#4ec8e3" stop-opacity="0"/><stop offset="0.04" stop-color="#4ec8e3" stop-opacity="0.1"/><stop offset="0.13" stop-color="#4ec8e3" stop-opacity="0.31"/><stop offset="0.23" stop-color="#4ec8e3" stop-opacity="0.5"/><stop offset="0.33" stop-color="#4ec8e3" stop-opacity="0.65"/><stop offset="0.43" stop-color="#4ec8e3" stop-opacity="0.78"/><stop offset="0.54" stop-color="#4ec8e3" stop-opacity="0.88"/><stop offset="0.67" stop-color="#4ec8e3" stop-opacity="0.95"/><stop offset="0.81" stop-color="#4ec8e3" stop-opacity="0.99"/><stop offset="1" stop-color="#4ec8e3"/></linearGradient><linearGradient id="linear-gradient-2" x1="654.8" y1="-1191.63" x2="879.27" y2="-1191.63" xlink:href="#linear-gradient"/><linearGradient id="linear-gradient-3" x1="767.04" y1="-1284.2" x2="991.51" y2="-1284.2" xlink:href="#linear-gradient"/><linearGradient id="linear-gradient-4" x1="542.56" y1="-1284.2" x2="767.04" y2="-1284.2" xlink:href="#linear-gradient"/><linearGradient id="linear-gradient-5" x1="318.08" y1="-1284.2" x2="542.56" y2="-1284.2" xlink:href="#linear-gradient"/><linearGradient id="linear-gradient-6" x1="542.56" y1="-1099.05" x2="767.04" y2="-1099.05" xlink:href="#linear-gradient"/><linearGradient id="linear-gradient-7" x1="318.08" y1="-1099.05" x2="542.56" y2="-1099.05" xlink:href="#linear-gradient"/><linearGradient id="linear-gradient-8" x1="767.04" y1="-1099.05" x2="991.51" y2="-1099.05" xlink:href="#linear-gradient"/><linearGradient id="linear-gradient-9" x1="430.32" y1="-1376.77" x2="654.8" y2="-1376.77" xlink:href="#linear-gradient"/><linearGradient id="linear-gradient-10" x1="654.8" y1="-1376.77" x2="879.27" y2="-1376.77" xlink:href="#linear-gradient"/><linearGradient id="linear-gradient-11" x1="205.85" y1="-1191.63" x2="430.32" y2="-1191.63" xlink:href="#linear-gradient"/><linearGradient id="linear-gradient-12" x1="205.85" y1="-1376.77" x2="430.32" y2="-1376.77" xlink:href="#linear-gradient"/><linearGradient id="linear-gradient-13" x1="408.64" y1="618.46" x2="831.36" y2="618.46" gradientUnits="userSpaceOnUse"><stop offset="0" stop-color="#8ac831" stop-opacity="0.5"/><stop offset="0.07" stop-color="#8ac831" stop-opacity="0.58"/><stop offset="0.23" stop-color="#8ac831" stop-opacity="0.73"/><stop offset="0.39" stop-color="#8ac831" stop-opacity="0.85"/><stop offset="0.57" stop-color="#8ac831" stop-opacity="0.93"/><stop offset="0.76" stop-color="#8ac831" stop-opacity="0.98"/><stop offset="1" stop-color="#8ac831"/></linearGradient><linearGradient id="linear-gradient-14" x1="493.75" y1="610.83" x2="746.25" y2="610.83" gradientTransform="matrix(1, 0, 0, 1, 0, 0)" xlink:href="#linear-gradient"/></defs><title>Artboard 131</title><rect class="cls-1" x="430.32" y="542.84" width="224.48" height="92.57" rx="9.94" ry="9.94"/><rect class="cls-2" x="654.8" y="542.84" width="224.48" height="92.57" rx="9.94" ry="9.94"/><rect class="cls-3" x="767.04" y="635.42" width="224.48" height="92.57" rx="9.94" ry="9.94"/><rect class="cls-4" x="542.56" y="635.42" width="224.48" height="92.57" rx="9.94" ry="9.94"/><rect class="cls-5" x="318.08" y="635.42" width="224.48" height="92.57" rx="9.94" ry="9.94"/><rect class="cls-6" x="542.56" y="450.27" width="224.48" height="92.57" rx="9.94" ry="9.94"/><rect class="cls-7" x="318.08" y="450.27" width="224.48" height="92.57" rx="9.94" ry="9.94"/><rect class="cls-8" x="767.04" y="450.27" width="224.48" height="92.57" rx="9.94" ry="9.94"/><rect class="cls-9" x="430.32" y="727.99" width="224.48" height="92.57" rx="9.94" ry="9.94"/><rect class="cls-10" x="654.8" y="727.99" width="224.48" height="92.57" rx="9.94" ry="9.94"/><rect class="cls-11" x="205.85" y="542.84" width="224.48" height="92.57" rx="9.94" ry="9.94"/><rect class="cls-12" x="205.85" y="727.99" width="224.48" height="92.57" rx="9.94" ry="9.94"/><path class="cls-13" d="M831.36,516.21V463.34A15.44,15.44,0,0,0,818,448.12a92.06,92.06,0,0,1-77.68-77.68,15.44,15.44,0,0,0-15.22-13.36H514.89a15.44,15.44,0,0,0-15.22,13.36A92.06,92.06,0,0,1,422,448.12a15.44,15.44,0,0,0-13.36,15.22v52.87h0c0,153.11,81.4,287.21,203.29,361.38a15.53,15.53,0,0,0,16.13,0C750,803.41,831.36,669.32,831.36,516.21Z"/><path class="cls-14" d="M831.36,516.21V463.34A15.44,15.44,0,0,0,818,448.12a92.06,92.06,0,0,1-77.68-77.68,15.44,15.44,0,0,0-15.22-13.36H514.89a15.44,15.44,0,0,0-15.22,13.36A92.06,92.06,0,0,1,422,448.12a15.44,15.44,0,0,0-13.36,15.22v52.87h0c0,153.11,81.4,287.21,203.29,361.38a15.53,15.53,0,0,0,16.13,0C750,803.41,831.36,669.32,831.36,516.21Z"/><path class="cls-13" d="M620,832.25a379.84,379.84,0,0,1-168.8-316V484.74a135.21,135.21,0,0,0,85.1-85.1H703.7a135.21,135.21,0,0,0,85.1,85.1V518A379.83,379.83,0,0,1,620,832.25Z"/><path class="cls-15" d="M620,779.46a341.64,341.64,0,0,1-79.74-92.12,337.16,337.16,0,0,1-46.51-171.13v-3.86a178.89,178.89,0,0,0,70.15-70.16H676.09a178.87,178.87,0,0,0,70.16,70.16v5.53a337.24,337.24,0,0,1-46.5,169.45A341.62,341.62,0,0,1,620,779.46Z"/></svg>