<svg id="Windscribe" xmlns="http://www.w3.org/2000/svg" xmlns:xlink="http://www.w3.org/1999/xlink" viewBox="0 0 1280 1280"><defs><style>.cls-1{fill:url(#linear-gradient);}.cls-2{fill:url(#linear-gradient-2);}.cls-3{fill:url(#linear-gradient-3);}.cls-4{fill:url(#linear-gradient-4);}.cls-5{fill:url(#linear-gradient-5);}.cls-6{fill:url(#linear-gradient-6);}.cls-7{fill:url(#linear-gradient-7);}.cls-8{fill:url(#linear-gradient-8);}.cls-9{fill:url(#linear-gradient-9);}.cls-10{fill:url(#linear-gradient-10);}.cls-11{fill:url(#linear-gradient-11);}.cls-12{fill:url(#linear-gradient-12);}.cls-13{fill:#fff;}.cls-14{fill:url(#linear-gradient-13);}.cls-15{fill:url(#linear-gradient-14);}.cls-16{fill:url(#linear-gradient-15);}.cls-17{fill:url(#linear-gradient-16);}.cls-18{fill:url(#linear-gradient-17);}.cls-19{fill:url(#linear-gradient-18);}.cls-20{fill:url(#linear-gradient-19);}.cls-21{fill:url(#linear-gradient-20);}.cls-22{fill:url(#linear-gradient-21);}.cls-23{fill:url(#linear-gradient-22);}.cls-24{fill:url(#linear-gradient-23);}.cls-25{fill:url(#linear-gradient-24);}.cls-26{fill:url(#linear-gradient-25);}.cls-27{fill:url(#linear-gradient-26);}.cls-28{fill:url(#linear-gradient-27);}</style><linearGradient id="linear-gradient" x1="445" y1="10957.12" x2="669.48" y2="10957.12" gradientTransform="matrix(1, 0, 0, -1, 0, 11586.25)" gradientUnits="userSpaceOnUse"><stop offset="0" stop-color="#4ec8e3" stop-opacity="0"/><stop offset="0.04" stop-color="#4ec8e3" stop-opacity="0.1"/><stop offset="0.13" stop-color="#4ec8e3" stop-opacity="0.31"/><stop offset="0.23" stop-color="#4ec8e3" stop-opacity="0.5"/><stop offset="0.33" stop-color="#4ec8e3" stop-opacity="0.65"/><stop offset="0.43" stop-color="#4ec8e3" stop-opacity="0.78"/><stop offset="0.54" stop-color="#4ec8e3" stop-opacity="0.88"/><stop offset="0.67" stop-color="#4ec8e3" stop-opacity="0.95"/><stop offset="0.81" stop-color="#4ec8e3" stop-opacity="0.99"/><stop offset="1" stop-color="#4ec8e3"/></linearGradient><linearGradient id="linear-gradient-2" x1="669.48" y1="10957.12" x2="893.95" y2="10957.12" xlink:href="#linear-gradient"/><linearGradient id="linear-gradient-3" x1="781.71" y1="10864.55" x2="1006.19" y2="10864.55" xlink:href="#linear-gradient"/><linearGradient id="linear-gradient-4" x1="557.24" y1="10864.55" x2="781.71" y2="10864.55" xlink:href="#linear-gradient"/><linearGradient id="linear-gradient-5" x1="332.76" y1="10864.55" x2="557.24" y2="10864.55" xlink:href="#linear-gradient"/><linearGradient id="linear-gradient-6" x1="557.24" y1="11049.7" x2="781.71" y2="11049.7" xlink:href="#linear-gradient"/><linearGradient id="linear-gradient-7" x1="332.76" y1="11049.7" x2="557.24" y2="11049.7" xlink:href="#linear-gradient"/><linearGradient id="linear-gradient-8" x1="781.71" y1="11049.7" x2="1006.19" y2="11049.7" xlink:href="#linear-gradient"/><linearGradient id="linear-gradient-9" x1="445" y1="10771.98" x2="669.48" y2="10771.98" xlink:href="#linear-gradient"/><linearGradient id="linear-gradient-10" x1="669.48" y1="10771.98" x2="893.95" y2="10771.98" xlink:href="#linear-gradient"/><linearGradient id="linear-gradient-11" x1="220.52" y1="10957.12" x2="445" y2="10957.12" xlink:href="#linear-gradient"/><linearGradient id="linear-gradient-12" x1="220.52" y1="10771.98" x2="445" y2="10771.98" xlink:href="#linear-gradient"/><linearGradient id="linear-gradient-13" x1="423.31" y1="658.46" x2="846.04" y2="658.46" gradientUnits="userSpaceOnUse"><stop offset="0" stop-color="#8ac831" stop-opacity="0.5"/><stop offset="0.07" stop-color="#8ac831" stop-opacity="0.58"/><stop offset="0.23" stop-color="#8ac831" stop-opacity="0.73"/><stop offset="0.39" stop-color="#8ac831" stop-opacity="0.85"/><stop offset="0.57" stop-color="#8ac831" stop-opacity="0.93"/><stop offset="0.76" stop-color="#8ac831" stop-opacity="0.98"/><stop offset="1" stop-color="#8ac831"/></linearGradient><linearGradient id="linear-gradient-14" x1="508.43" y1="650.83" x2="760.92" y2="650.83" gradientTransform="matrix(1, 0, 0, 1, 0, 0)" xlink:href="#linear-gradient"/><linearGradient id="linear-gradient-15" x1="972.72" y1="845.34" x2="993.5" y2="845.34" gradientUnits="userSpaceOnUse"><stop offset="0" stop-color="#54d2ed" stop-opacity="0.5"/><stop offset="0.13" stop-color="#54d2ed" stop-opacity="0.64"/><stop offset="0.28" stop-color="#54d2ed" stop-opacity="0.77"/><stop offset="0.43" stop-color="#54d2ed" stop-opacity="0.87"/><stop offset="0.6" stop-color="#54d2ed" stop-opacity="0.94"/><stop offset="0.78" stop-color="#54d2ed" stop-opacity="0.99"/><stop offset="1" stop-color="#54d2ed"/></linearGradient><linearGradient id="linear-gradient-16" x1="895.43" y1="399.42" x2="936.98" y2="399.42" xlink:href="#linear-gradient-15"/><linearGradient id="linear-gradient-17" x1="1046.82" y1="633.87" x2="1114.67" y2="633.87" xlink:href="#linear-gradient-13"/><linearGradient id="linear-gradient-18" x1="590.6" y1="982.87" x2="611.37" y2="982.87" xlink:href="#linear-gradient-15"/><linearGradient id="linear-gradient-19" x1="754.19" y1="948.83" x2="788" y2="948.83" xlink:href="#linear-gradient-13"/><linearGradient id="linear-gradient-20" x1="907.05" y1="951.23" x2="957.76" y2="951.23" xlink:href="#linear-gradient-15"/><linearGradient id="linear-gradient-21" x1="788" y1="327.74" x2="808.77" y2="327.74" xlink:href="#linear-gradient-15"/><linearGradient id="linear-gradient-22" x1="165.33" y1="730.34" x2="186.11" y2="730.34" xlink:href="#linear-gradient-13"/><linearGradient id="linear-gradient-23" x1="264.72" y1="911.15" x2="285.49" y2="911.15" xlink:href="#linear-gradient-15"/><linearGradient id="linear-gradient-24" x1="455.48" y1="346" x2="476.26" y2="346" xlink:href="#linear-gradient-13"/><linearGradient id="linear-gradient-25" x1="261.79" y1="428.68" x2="312.5" y2="428.68" xlink:href="#linear-gradient-15"/><linearGradient id="linear-gradient-26" x1="429.27" y1="997.84" x2="479.98" y2="997.84" xlink:href="#linear-gradient-13"/><linearGradient id="linear-gradient-27" x1="577.1" y1="294.45" x2="652.38" y2="294.45" xlink:href="#linear-gradient-13"/></defs><title>Artboard 147</title><rect class="cls-1" x="445" y="582.84" width="224.48" height="92.57" rx="9.94" ry="9.94"/><rect class="cls-2" x="669.48" y="582.84" width="224.48" height="92.57" rx="9.94" ry="9.94"/><rect class="cls-3" x="781.71" y="675.42" width="224.48" height="92.57" rx="9.94" ry="9.94"/><rect class="cls-4" x="557.24" y="675.42" width="224.48" height="92.57" rx="9.94" ry="9.94"/><rect class="cls-5" x="332.76" y="675.42" width="224.48" height="92.57" rx="9.94" ry="9.94"/><rect class="cls-6" x="557.24" y="490.27" width="224.48" height="92.57" rx="9.94" ry="9.94"/><rect class="cls-7" x="332.76" y="490.27" width="224.48" height="92.57" rx="9.94" ry="9.94"/><rect class="cls-8" x="781.71" y="490.27" width="224.48" height="92.57" rx="9.94" ry="9.94"/><rect class="cls-9" x="445" y="767.99" width="224.48" height="92.57" rx="9.94" ry="9.94"/><rect class="cls-10" x="669.48" y="767.99" width="224.48" height="92.57" rx="9.94" ry="9.94"/><rect class="cls-11" x="220.52" y="582.84" width="224.48" height="92.57" rx="9.94" ry="9.94"/><rect class="cls-12" x="220.52" y="767.99" width="224.48" height="92.57" rx="9.94" ry="9.94"/><path class="cls-13" d="M846,556.21V503.34a15.44,15.44,0,0,0-13.36-15.22A92.06,92.06,0,0,1,755,410.44a15.44,15.44,0,0,0-15.22-13.36H529.57a15.44,15.44,0,0,0-15.22,13.36,92.06,92.06,0,0,1-77.68,77.68,15.44,15.44,0,0,0-13.36,15.22v52.87h0c0,153.11,81.4,287.21,203.29,361.38a15.53,15.53,0,0,0,16.13,0C764.64,843.41,846,709.32,846,556.21Z"/><path class="cls-14" d="M846,556.21V503.34a15.44,15.44,0,0,0-13.36-15.22A92.06,92.06,0,0,1,755,410.44a15.44,15.44,0,0,0-15.22-13.36H529.57a15.44,15.44,0,0,0-15.22,13.36,92.06,92.06,0,0,1-77.68,77.68,15.44,15.44,0,0,0-13.36,15.22v52.87h0c0,153.11,81.4,287.21,203.29,361.38a15.53,15.53,0,0,0,16.13,0C764.64,843.41,846,709.32,846,556.21Z"/><path class="cls-13" d="M634.68,872.25a379.84,379.84,0,0,1-168.8-316V524.74a135.21,135.21,0,0,0,85.1-85.1H718.38a135.21,135.21,0,0,0,85.1,85.1V558a379.83,379.83,0,0,1-168.8,314.26Z"/><path class="cls-15" d="M634.68,819.46a341.64,341.64,0,0,1-79.74-92.12,337.16,337.16,0,0,1-46.51-171.13v-3.86a178.89,178.89,0,0,0,70.15-70.16H690.76a178.87,178.87,0,0,0,70.16,70.16v5.53a337.24,337.24,0,0,1-46.5,169.45A341.62,341.62,0,0,1,634.68,819.46Z"/><circle class="cls-16" cx="983.11" cy="845.34" r="10.39"/><polygon class="cls-17" points="895.43 399.42 911.01 394.22 916.21 378.64 921.4 394.22 936.98 399.42 921.4 404.61 916.21 420.19 911.01 404.61 895.43 399.42"/><polygon class="cls-18" points="1046.82 633.87 1072.26 625.39 1080.74 599.95 1089.22 625.39 1114.67 633.87 1089.22 642.35 1080.74 667.79 1072.26 642.35 1046.82 633.87"/><circle class="cls-19" cx="600.98" cy="982.87" r="10.39"/><polygon class="cls-20" points="754.19 948.83 766.87 944.6 771.1 931.93 775.32 944.6 788 948.83 775.32 953.06 771.1 965.73 766.87 953.06 754.19 948.83"/><polygon class="cls-21" points="907.05 951.23 926.06 944.89 932.4 925.87 938.74 944.89 957.75 951.23 938.74 957.57 932.4 976.58 926.06 957.57 907.05 951.23"/><circle class="cls-22" cx="798.39" cy="327.74" r="10.39"/><circle class="cls-23" cx="175.72" cy="730.34" r="10.39"/><circle class="cls-24" cx="275.1" cy="911.15" r="10.39"/><circle class="cls-25" cx="465.87" cy="346" r="10.39"/><polygon class="cls-26" points="261.79 428.68 280.81 422.34 287.14 403.32 293.48 422.34 312.5 428.68 293.48 435.02 287.14 454.03 280.81 435.02 261.79 428.68"/><polygon class="cls-27" points="429.27 997.84 448.28 991.5 454.62 972.48 460.96 991.5 479.98 997.84 460.96 1004.18 454.62 1023.19 448.28 1004.18 429.27 997.84"/><polygon class="cls-28" points="577.1 294.45 605.33 285.04 614.74 256.81 624.15 285.04 652.38 294.45 624.15 303.86 614.74 332.09 605.33 303.86 577.1 294.45"/></svg>