<svg id="Windscribe" xmlns="http://www.w3.org/2000/svg" xmlns:xlink="http://www.w3.org/1999/xlink" viewBox="0 0 1280 1280"><defs><style>.cls-1{fill:url(#linear-gradient);}.cls-2{fill:url(#linear-gradient-2);}.cls-3{fill:url(#linear-gradient-3);}.cls-4{fill:url(#linear-gradient-4);}.cls-5{fill:url(#linear-gradient-5);}.cls-6{fill:url(#linear-gradient-6);}.cls-7{fill:url(#linear-gradient-7);}.cls-8{fill:url(#linear-gradient-8);}.cls-9{fill:url(#linear-gradient-9);}.cls-10{fill:url(#linear-gradient-10);}.cls-11{fill:url(#linear-gradient-11);}.cls-12{fill:url(#linear-gradient-12);}.cls-13{fill:#43567f;}.cls-14{fill:url(#linear-gradient-13);}.cls-15{fill:url(#linear-gradient-14);}.cls-16{fill:url(#linear-gradient-15);}.cls-17{fill:url(#linear-gradient-16);}.cls-18,.cls-20,.cls-22,.cls-24,.cls-26,.cls-27,.cls-29,.cls-32,.cls-33,.cls-35{fill:none;stroke-linecap:round;stroke-linejoin:round;stroke-width:16.11px;}.cls-18{stroke:url(#linear-gradient-17);}.cls-19{fill:url(#linear-gradient-18);}.cls-20{stroke:url(#linear-gradient-19);}.cls-21{fill:url(#linear-gradient-20);}.cls-22{stroke:url(#linear-gradient-21);}.cls-23{fill:url(#linear-gradient-22);}.cls-24{stroke:url(#linear-gradient-23);}.cls-25{fill:url(#linear-gradient-24);}.cls-26{stroke:url(#linear-gradient-25);}.cls-27{stroke:url(#linear-gradient-26);}.cls-28{fill:url(#linear-gradient-27);}.cls-29{stroke:url(#linear-gradient-28);}.cls-30{fill:url(#linear-gradient-29);}.cls-31{fill:url(#linear-gradient-30);}.cls-32{stroke:url(#linear-gradient-31);}.cls-33{stroke:url(#linear-gradient-32);}.cls-34{fill:url(#linear-gradient-33);}.cls-35{stroke:url(#linear-gradient-34);}.cls-36{fill:url(#linear-gradient-35);}</style><linearGradient id="linear-gradient" x1="1037.8" y1="528.68" x2="1062.54" y2="528.68" gradientUnits="userSpaceOnUse"><stop offset="0" stop-color="#54d2ed" stop-opacity="0.5"/><stop offset="0.13" stop-color="#54d2ed" stop-opacity="0.64"/><stop offset="0.28" stop-color="#54d2ed" stop-opacity="0.77"/><stop offset="0.43" stop-color="#54d2ed" stop-opacity="0.87"/><stop offset="0.6" stop-color="#54d2ed" stop-opacity="0.94"/><stop offset="0.78" stop-color="#54d2ed" stop-opacity="0.99"/><stop offset="1" stop-color="#54d2ed"/></linearGradient><linearGradient id="linear-gradient-2" x1="1055.62" y1="747.42" x2="1133.52" y2="747.42" gradientUnits="userSpaceOnUse"><stop offset="0" stop-color="#8ac831" stop-opacity="0.5"/><stop offset="0.07" stop-color="#8ac831" stop-opacity="0.58"/><stop offset="0.23" stop-color="#8ac831" stop-opacity="0.73"/><stop offset="0.39" stop-color="#8ac831" stop-opacity="0.85"/><stop offset="0.57" stop-color="#8ac831" stop-opacity="0.93"/><stop offset="0.76" stop-color="#8ac831" stop-opacity="0.98"/><stop offset="1" stop-color="#8ac831"/></linearGradient><linearGradient id="linear-gradient-3" x1="838.06" y1="998.16" x2="862.79" y2="998.16" xlink:href="#linear-gradient-2"/><linearGradient id="linear-gradient-4" x1="885.19" y1="900.92" x2="925.44" y2="900.92" xlink:href="#linear-gradient-2"/><linearGradient id="linear-gradient-5" x1="884.04" y1="397.38" x2="944.41" y2="397.38" xlink:href="#linear-gradient-2"/><linearGradient id="linear-gradient-6" x1="627.94" y1="239.06" x2="652.67" y2="239.06" xlink:href="#linear-gradient"/><linearGradient id="linear-gradient-7" x1="391.81" y1="382.74" x2="466.01" y2="382.74" xlink:href="#linear-gradient"/><linearGradient id="linear-gradient-8" x1="360.76" y1="909.18" x2="385.49" y2="909.18" xlink:href="#linear-gradient-2"/><linearGradient id="linear-gradient-9" x1="826.82" y1="311.18" x2="851.55" y2="311.18" xlink:href="#linear-gradient-2"/><linearGradient id="linear-gradient-10" x1="300.25" y1="295.58" x2="324.98" y2="295.58" xlink:href="#linear-gradient-2"/><linearGradient id="linear-gradient-11" x1="140.44" y1="717.62" x2="200.81" y2="717.62" xlink:href="#linear-gradient-2"/><linearGradient id="linear-gradient-12" x1="410.39" y1="1024.67" x2="470.76" y2="1024.67" xlink:href="#linear-gradient"/><linearGradient id="linear-gradient-13" x1="-1294.31" y1="728.97" x2="-907.09" y2="490.3" gradientTransform="matrix(0, 1, 1, 0, 30.23, 1711.05)" gradientUnits="userSpaceOnUse"><stop offset="0" stop-color="#4ec8e3" stop-opacity="0"/><stop offset="0.09" stop-color="#4ec8e3" stop-opacity="0.14"/><stop offset="0.27" stop-color="#4ec8e3" stop-opacity="0.4"/><stop offset="0.45" stop-color="#4ec8e3" stop-opacity="0.62"/><stop offset="0.61" stop-color="#4ec8e3" stop-opacity="0.78"/><stop offset="0.76" stop-color="#4ec8e3" stop-opacity="0.9"/><stop offset="0.9" stop-color="#4ec8e3" stop-opacity="0.97"/><stop offset="1" stop-color="#4ec8e3"/></linearGradient><linearGradient id="linear-gradient-14" x1="-1143.01" y1="807.95" x2="-1059.08" y2="756.22" gradientTransform="matrix(0, 1, 1, 0, -142, 1883.28)" xlink:href="#linear-gradient-2"/><linearGradient id="linear-gradient-15" x1="-12263.17" y1="811.69" x2="-12109.13" y2="811.69" gradientTransform="matrix(-1, 0, 0, 1, -11546, 0)" xlink:href="#linear-gradient-2"/><linearGradient id="linear-gradient-16" x1="4684.55" y1="4509.74" x2="4740.43" y2="4509.74" gradientTransform="matrix(0, -1, -1, 0, 5064.15, 5064.15)" xlink:href="#linear-gradient"/><linearGradient id="linear-gradient-17" x1="4700" y1="4509.74" x2="4809.34" y2="4509.74" gradientTransform="matrix(0, -1, -1, 0, 5064.15, 5064.15)" xlink:href="#linear-gradient"/><linearGradient id="linear-gradient-18" x1="4684.55" y1="4337.95" x2="4740.43" y2="4337.95" gradientTransform="matrix(0, -1, -1, 0, 5064.15, 5064.15)" xlink:href="#linear-gradient"/><linearGradient id="linear-gradient-19" x1="4700" y1="4337.95" x2="4809.34" y2="4337.95" gradientTransform="matrix(0, -1, -1, 0, 5064.15, 5064.15)" xlink:href="#linear-gradient"/><linearGradient id="linear-gradient-20" x1="-9124.05" y1="4509.74" x2="-9068.17" y2="4509.74" gradientTransform="translate(5064.15 10005.3) rotate(90)" xlink:href="#linear-gradient"/><linearGradient id="linear-gradient-21" x1="-9108.61" y1="4509.74" x2="-8999.26" y2="4509.74" gradientTransform="translate(5064.15 10005.3) rotate(90)" xlink:href="#linear-gradient"/><linearGradient id="linear-gradient-22" x1="-9124.05" y1="4337.95" x2="-9068.17" y2="4337.95" gradientTransform="translate(5064.15 10005.3) rotate(90)" xlink:href="#linear-gradient"/><linearGradient id="linear-gradient-23" x1="-9108.61" y1="4337.95" x2="-8999.26" y2="4337.95" gradientTransform="translate(5064.15 10005.3) rotate(90)" xlink:href="#linear-gradient"/><linearGradient id="linear-gradient-24" x1="197.05" y1="626.12" x2="252.93" y2="626.12" xlink:href="#linear-gradient"/><linearGradient id="linear-gradient-25" x1="212.5" y1="626.12" x2="352.36" y2="626.12" xlink:href="#linear-gradient"/><linearGradient id="linear-gradient-26" x1="250.39" y1="818.44" x2="352.36" y2="818.44" xlink:href="#linear-gradient"/><linearGradient id="linear-gradient-27" x1="230.51" y1="866.61" x2="286.39" y2="866.61" xlink:href="#linear-gradient"/><linearGradient id="linear-gradient-28" x1="250.39" y1="14018.39" x2="352.36" y2="14018.39" gradientTransform="matrix(1, 0, 0, -1, 0, 14463.93)" xlink:href="#linear-gradient"/><linearGradient id="linear-gradient-29" x1="230.51" y1="14066.55" x2="286.39" y2="14066.55" gradientTransform="matrix(1, 0, 0, -1, 0, 14463.93)" xlink:href="#linear-gradient"/><linearGradient id="linear-gradient-30" x1="-3693.42" y1="626.12" x2="-3637.55" y2="626.12" gradientTransform="matrix(-1, 0, 0, 1, -2609.86, 0)" xlink:href="#linear-gradient"/><linearGradient id="linear-gradient-31" x1="-3677.98" y1="626.12" x2="-3538.12" y2="626.12" gradientTransform="matrix(-1, 0, 0, 1, -2609.86, 0)" xlink:href="#linear-gradient"/><linearGradient id="linear-gradient-32" x1="-3640.08" y1="818.44" x2="-3538.12" y2="818.44" gradientTransform="matrix(-1, 0, 0, 1, -2609.86, 0)" xlink:href="#linear-gradient"/><linearGradient id="linear-gradient-33" x1="-3659.97" y1="866.61" x2="-3604.09" y2="866.61" gradientTransform="matrix(-1, 0, 0, 1, -2609.86, 0)" xlink:href="#linear-gradient"/><linearGradient id="linear-gradient-34" x1="-3640.08" y1="14018.39" x2="-3538.12" y2="14018.39" gradientTransform="translate(-2609.86 14463.93) rotate(180)" xlink:href="#linear-gradient"/><linearGradient id="linear-gradient-35" x1="-3659.97" y1="14066.55" x2="-3604.09" y2="14066.55" gradientTransform="translate(-2609.86 14463.93) rotate(180)" xlink:href="#linear-gradient"/></defs><title>Artboard 148</title><circle class="cls-1" cx="1050.17" cy="528.68" r="12.37"/><polygon class="cls-2" points="1055.62 747.42 1084.83 737.68 1094.57 708.47 1104.31 737.68 1133.52 747.42 1104.31 757.16 1094.57 786.37 1084.83 757.16 1055.62 747.42"/><circle class="cls-3" cx="850.43" cy="998.16" r="12.37"/><polygon class="cls-4" points="885.19 900.92 900.28 895.89 905.31 880.79 910.34 895.89 925.44 900.92 910.34 905.95 905.31 921.04 900.28 905.95 885.19 900.92"/><polygon class="cls-5" points="884.03 397.38 906.67 389.83 914.22 367.19 921.77 389.83 944.41 397.38 921.77 404.93 914.22 427.56 906.67 404.93 884.03 397.38"/><circle class="cls-6" cx="640.31" cy="239.06" r="12.37"/><polygon class="cls-7" points="391.81 382.74 419.63 373.46 428.91 345.64 438.18 373.46 466.01 382.74 438.18 392.01 428.91 419.84 419.63 392.01 391.81 382.74"/><circle class="cls-8" cx="373.13" cy="909.18" r="12.37"/><circle class="cls-9" cx="839.19" cy="311.18" r="12.37"/><circle class="cls-10" cx="312.62" cy="295.58" r="12.37"/><polygon class="cls-11" points="140.44 717.62 163.08 710.08 170.62 687.44 178.17 710.08 200.81 717.62 178.17 725.17 170.62 747.81 163.08 725.17 140.44 717.62"/><polygon class="cls-12" points="410.39 1024.67 433.03 1017.12 440.58 994.48 448.12 1017.12 470.76 1024.67 448.12 1032.22 440.58 1054.86 433.03 1032.22 410.39 1024.67"/><rect class="cls-13" x="415.11" y="457.93" width="450.07" height="303.94" rx="30" ry="30"/><rect class="cls-14" x="513.65" y="413.24" width="252.99" height="393.33" rx="15" ry="15" transform="translate(1250.05 -30.23) rotate(90)"/><rect class="cls-15" x="619.88" y="736.54" width="40.53" height="91.19" transform="translate(1422.28 142) rotate(90)"/><path class="cls-16" d="M717.16,821h0A18.56,18.56,0,0,0,698.6,802.4H581.69A18.56,18.56,0,0,0,563.12,821h154Z"/><circle class="cls-17" cx="554.41" cy="351.66" r="27.94"/><line class="cls-18" x1="554.41" y1="356.1" x2="554.41" y2="262.86"/><circle class="cls-19" cx="726.21" cy="351.66" r="27.94"/><line class="cls-20" x1="726.21" y1="356.1" x2="726.21" y2="262.86"/><circle class="cls-21" cx="554.41" cy="909.18" r="27.94"/><line class="cls-22" x1="554.41" y1="904.74" x2="554.41" y2="997.98"/><circle class="cls-23" cx="726.21" cy="909.18" r="27.94"/><line class="cls-24" x1="726.21" y1="904.74" x2="726.21" y2="997.98"/><circle class="cls-25" cx="224.99" cy="626.12" r="27.94"/><line class="cls-26" x1="220.55" y1="626.12" x2="344.3" y2="626.12"/><path class="cls-27" d="M258.45,866.61V821.13a50.86,50.86,0,0,1,50.86-50.86h35"/><circle class="cls-28" cx="258.45" cy="866.61" r="27.94"/><path class="cls-29" d="M258.45,397.38v45.47a50.86,50.86,0,0,0,50.86,50.86h35"/><circle class="cls-30" cx="258.45" cy="397.38" r="27.94"/><circle class="cls-31" cx="1055.62" cy="626.12" r="27.94"/><line class="cls-32" x1="1060.06" y1="626.12" x2="936.31" y2="626.12"/><path class="cls-33" d="M1022.17,866.61V821.13a50.86,50.86,0,0,0-50.86-50.86h-35"/><circle class="cls-34" cx="1022.17" cy="866.61" r="27.94"/><path class="cls-35" d="M1022.17,397.38v45.47a50.86,50.86,0,0,1-50.86,50.86h-35"/><circle class="cls-36" cx="1022.17" cy="397.38" r="27.94"/></svg>