<svg id="Windscribe" xmlns="http://www.w3.org/2000/svg" xmlns:xlink="http://www.w3.org/1999/xlink" viewBox="0 0 1200 1200"><defs><style>.cls-1{fill:#43567f;}.cls-2{fill:url(#linear-gradient);}.cls-3{fill:url(#linear-gradient-2);}.cls-4{fill:url(#linear-gradient-3);}.cls-5{fill:url(#linear-gradient-4);}.cls-10,.cls-12,.cls-14,.cls-15,.cls-17,.cls-20,.cls-21,.cls-23,.cls-6,.cls-8{fill:none;stroke-linecap:round;stroke-linejoin:round;stroke-width:16.71px;}.cls-6{stroke:url(#linear-gradient-5);}.cls-7{fill:url(#linear-gradient-6);}.cls-8{stroke:url(#linear-gradient-7);}.cls-9{fill:url(#linear-gradient-8);}.cls-10{stroke:url(#linear-gradient-9);}.cls-11{fill:url(#linear-gradient-10);}.cls-12{stroke:url(#linear-gradient-11);}.cls-13{fill:url(#linear-gradient-12);}.cls-14{stroke:url(#linear-gradient-13);}.cls-15{stroke:url(#linear-gradient-14);}.cls-16{fill:url(#linear-gradient-15);}.cls-17{stroke:url(#linear-gradient-16);}.cls-18{fill:url(#linear-gradient-17);}.cls-19{fill:url(#linear-gradient-18);}.cls-20{stroke:url(#linear-gradient-19);}.cls-21{stroke:url(#linear-gradient-20);}.cls-22{fill:url(#linear-gradient-21);}.cls-23{stroke:url(#linear-gradient-22);}.cls-24{fill:url(#linear-gradient-23);}</style><linearGradient id="linear-gradient" x1="-2330.29" y1="686.13" x2="-1955.89" y2="455.37" gradientTransform="matrix(0, 1, 1, 0, 59.37, 2714.53)" gradientUnits="userSpaceOnUse"><stop offset="0" stop-color="#4ec8e3" stop-opacity="0"/><stop offset="0.09" stop-color="#4ec8e3" stop-opacity="0.14"/><stop offset="0.27" stop-color="#4ec8e3" stop-opacity="0.4"/><stop offset="0.45" stop-color="#4ec8e3" stop-opacity="0.62"/><stop offset="0.61" stop-color="#4ec8e3" stop-opacity="0.78"/><stop offset="0.76" stop-color="#4ec8e3" stop-opacity="0.9"/><stop offset="0.9" stop-color="#4ec8e3" stop-opacity="0.97"/><stop offset="1" stop-color="#4ec8e3"/></linearGradient><linearGradient id="linear-gradient-2" x1="-2184.07" y1="762.83" x2="-2102.78" y2="712.73" gradientTransform="matrix(0, 1, 1, 0, -107.45, 2881.35)" gradientUnits="userSpaceOnUse"><stop offset="0" stop-color="#8ac831" stop-opacity="0.5"/><stop offset="0.07" stop-color="#8ac831" stop-opacity="0.58"/><stop offset="0.23" stop-color="#8ac831" stop-opacity="0.73"/><stop offset="0.39" stop-color="#8ac831" stop-opacity="0.85"/><stop offset="0.57" stop-color="#8ac831" stop-opacity="0.93"/><stop offset="0.76" stop-color="#8ac831" stop-opacity="0.98"/><stop offset="1" stop-color="#8ac831"/></linearGradient><linearGradient id="linear-gradient-3" x1="-13303.12" y1="766.46" x2="-13153.92" y2="766.46" gradientTransform="matrix(-1, 0, 0, 1, -12598.13, 0)" xlink:href="#linear-gradient-2"/><linearGradient id="linear-gradient-4" x1="-1904.23" y1="-2103.64" x2="-1850.11" y2="-2103.64" gradientTransform="matrix(0, -1, -1, 0, -1556.29, -1556.29)" gradientUnits="userSpaceOnUse"><stop offset="0" stop-color="#54d2ed" stop-opacity="0.5"/><stop offset="0.13" stop-color="#54d2ed" stop-opacity="0.64"/><stop offset="0.28" stop-color="#54d2ed" stop-opacity="0.77"/><stop offset="0.43" stop-color="#54d2ed" stop-opacity="0.87"/><stop offset="0.6" stop-color="#54d2ed" stop-opacity="0.94"/><stop offset="0.78" stop-color="#54d2ed" stop-opacity="0.99"/><stop offset="1" stop-color="#54d2ed"/></linearGradient><linearGradient id="linear-gradient-5" x1="-1889.82" y1="-2103.64" x2="-1782.81" y2="-2103.64" xlink:href="#linear-gradient-4"/><linearGradient id="linear-gradient-6" x1="-1904.23" y1="-2270.03" x2="-1850.11" y2="-2270.03" xlink:href="#linear-gradient-4"/><linearGradient id="linear-gradient-7" x1="-1889.82" y1="-2270.03" x2="-1782.81" y2="-2270.03" xlink:href="#linear-gradient-4"/><linearGradient id="linear-gradient-8" x1="-3603.16" y1="-2103.64" x2="-3549.04" y2="-2103.64" gradientTransform="translate(-1556.29 4436.98) rotate(90)" xlink:href="#linear-gradient-4"/><linearGradient id="linear-gradient-9" x1="-3588.75" y1="-2103.64" x2="-3481.74" y2="-2103.64" gradientTransform="translate(-1556.29 4436.98) rotate(90)" xlink:href="#linear-gradient-4"/><linearGradient id="linear-gradient-10" x1="-3603.16" y1="-2270.03" x2="-3549.04" y2="-2270.03" gradientTransform="translate(-1556.29 4436.98) rotate(90)" xlink:href="#linear-gradient-4"/><linearGradient id="linear-gradient-11" x1="-3588.75" y1="-2270.03" x2="-3481.74" y2="-2270.03" gradientTransform="translate(-1556.29 4436.98) rotate(90)" xlink:href="#linear-gradient-4"/><linearGradient id="linear-gradient-12" x1="201.22" y1="586.72" x2="255.34" y2="586.72" gradientTransform="matrix(1, 0, 0, 1, 0, 0)" xlink:href="#linear-gradient-4"/><linearGradient id="linear-gradient-13" x1="215.62" y1="586.72" x2="352.2" y2="586.72" gradientTransform="matrix(1, 0, 0, 1, 0, 0)" xlink:href="#linear-gradient-4"/><linearGradient id="linear-gradient-14" x1="252.33" y1="773" x2="352.2" y2="773" gradientTransform="matrix(1, 0, 0, 1, 0, 0)" xlink:href="#linear-gradient-4"/><linearGradient id="linear-gradient-15" x1="233.63" y1="819.65" x2="287.74" y2="819.65" gradientTransform="matrix(1, 0, 0, 1, 0, 0)" xlink:href="#linear-gradient-4"/><linearGradient id="linear-gradient-16" x1="252.33" y1="1863.37" x2="352.2" y2="1863.37" gradientTransform="matrix(1, 0, 0, -1, 0, 2275.18)" xlink:href="#linear-gradient-4"/><linearGradient id="linear-gradient-17" x1="233.63" y1="1910.02" x2="287.74" y2="1910.02" gradientTransform="matrix(1, 0, 0, -1, 0, 2275.18)" xlink:href="#linear-gradient-4"/><linearGradient id="linear-gradient-18" x1="-4721.86" y1="586.72" x2="-4667.74" y2="586.72" gradientTransform="matrix(-1, 0, 0, 1, -3661.99, 0)" xlink:href="#linear-gradient-4"/><linearGradient id="linear-gradient-19" x1="-4707.46" y1="586.72" x2="-4570.89" y2="586.72" gradientTransform="matrix(-1, 0, 0, 1, -3661.99, 0)" xlink:href="#linear-gradient-4"/><linearGradient id="linear-gradient-20" x1="-4670.75" y1="773" x2="-4570.89" y2="773" gradientTransform="matrix(-1, 0, 0, 1, -3661.99, 0)" xlink:href="#linear-gradient-4"/><linearGradient id="linear-gradient-21" x1="-4689.46" y1="819.65" x2="-4635.34" y2="819.65" gradientTransform="matrix(-1, 0, 0, 1, -3661.99, 0)" xlink:href="#linear-gradient-4"/><linearGradient id="linear-gradient-22" x1="-4670.75" y1="1863.37" x2="-4570.89" y2="1863.37" gradientTransform="translate(-3661.99 2275.18) rotate(180)" xlink:href="#linear-gradient-4"/><linearGradient id="linear-gradient-23" x1="-4689.46" y1="1910.02" x2="-4635.34" y2="1910.02" gradientTransform="translate(-3661.99 2275.18) rotate(180)" xlink:href="#linear-gradient-4"/></defs><title>Artboard 132</title><rect class="cls-1" x="412.42" y="423.82" width="435.93" height="294.39" rx="31.11" ry="31.11"/><rect class="cls-2" x="507.87" y="380.53" width="245.04" height="380.97" rx="15.56" ry="15.56" transform="translate(1201.4 -59.37) rotate(90)"/><rect class="cls-3" x="610.76" y="693.67" width="39.25" height="88.33" transform="translate(1368.22 107.45) rotate(90)"/><path class="cls-4" d="M705,775.45h0a18,18,0,0,0-18-18H573.77a18,18,0,0,0-18,18H705Z"/><circle class="cls-5" cx="547.35" cy="320.88" r="27.06"/><line class="cls-6" x1="547.35" y1="325.18" x2="547.35" y2="234.87"/><circle class="cls-7" cx="713.75" cy="320.88" r="27.06"/><line class="cls-8" x1="713.75" y1="325.18" x2="713.75" y2="234.87"/><circle class="cls-9" cx="547.35" cy="860.89" r="27.06"/><line class="cls-10" x1="547.35" y1="856.59" x2="547.35" y2="946.89"/><circle class="cls-11" cx="713.75" cy="860.89" r="27.06"/><line class="cls-12" x1="713.75" y1="856.59" x2="713.75" y2="946.89"/><circle class="cls-13" cx="228.28" cy="586.72" r="27.06"/><line class="cls-14" x1="223.98" y1="586.72" x2="343.84" y2="586.72"/><path class="cls-15" d="M260.69,819.65v-44a49.26,49.26,0,0,1,49.26-49.26h33.9"/><circle class="cls-16" cx="260.69" cy="819.65" r="27.06"/><path class="cls-17" d="M260.69,365.16v44a49.26,49.26,0,0,0,49.26,49.26h33.9"/><circle class="cls-18" cx="260.69" cy="365.16" r="27.06"/><circle class="cls-19" cx="1032.81" cy="586.72" r="27.06"/><line class="cls-20" x1="1037.11" y1="586.72" x2="917.25" y2="586.72"/><path class="cls-21" d="M1000.41,819.65v-44a49.26,49.26,0,0,0-49.26-49.26h-33.9"/><circle class="cls-22" cx="1000.41" cy="819.65" r="27.06"/><path class="cls-23" d="M1000.41,365.16v44a49.26,49.26,0,0,1-49.26,49.26h-33.9"/><circle class="cls-24" cx="1000.41" cy="365.16" r="27.06"/></svg>