<svg id="Windscribe" xmlns="http://www.w3.org/2000/svg" xmlns:xlink="http://www.w3.org/1999/xlink" viewBox="0 0 1280 1280"><defs><style>.cls-1{fill:url(#linear-gradient);}.cls-2{fill:url(#linear-gradient-2);}.cls-3{fill:url(#linear-gradient-3);}.cls-4{fill:url(#linear-gradient-4);}.cls-5{fill:url(#linear-gradient-5);}.cls-6{fill:url(#linear-gradient-6);}.cls-7{fill:url(#linear-gradient-7);}.cls-8{fill:url(#linear-gradient-8);}.cls-9{fill:url(#linear-gradient-9);}.cls-10{fill:url(#linear-gradient-10);}.cls-11{fill:url(#linear-gradient-11);}.cls-12{fill:url(#linear-gradient-12);}.cls-13{fill:url(#linear-gradient-13);}.cls-14,.cls-16,.cls-17,.cls-18,.cls-19,.cls-20,.cls-21,.cls-22,.cls-25{fill:none;stroke-width:16px;}.cls-14,.cls-22,.cls-25{stroke-miterlimit:10;}.cls-14{stroke:url(#linear-gradient-14);}.cls-15{fill:url(#linear-gradient-15);}.cls-16,.cls-17,.cls-18,.cls-19,.cls-20,.cls-21{stroke-linecap:round;stroke-linejoin:round;}.cls-16{stroke:url(#linear-gradient-16);}.cls-17{stroke:url(#linear-gradient-17);}.cls-18{stroke:url(#linear-gradient-18);}.cls-19{stroke:url(#linear-gradient-19);}.cls-20{stroke:url(#linear-gradient-20);}.cls-21{stroke:url(#linear-gradient-21);}.cls-22{stroke:url(#linear-gradient-22);}.cls-23{fill:url(#linear-gradient-23);}.cls-24{fill:url(#linear-gradient-24);}.cls-25{stroke:url(#linear-gradient-25);}.cls-26{fill:url(#linear-gradient-26);}.cls-27{fill:url(#linear-gradient-27);}.cls-28{fill:#fff;}.cls-29{fill:url(#linear-gradient-28);}.cls-30{fill:url(#linear-gradient-29);}</style><linearGradient id="linear-gradient" x1="1036.8" y1="728.6" x2="1056.9" y2="728.6" gradientUnits="userSpaceOnUse"><stop offset="0" stop-color="#54d2ed" stop-opacity="0.5"/><stop offset="0.13" stop-color="#54d2ed" stop-opacity="0.64"/><stop offset="0.28" stop-color="#54d2ed" stop-opacity="0.77"/><stop offset="0.43" stop-color="#54d2ed" stop-opacity="0.87"/><stop offset="0.6" stop-color="#54d2ed" stop-opacity="0.94"/><stop offset="0.78" stop-color="#54d2ed" stop-opacity="0.99"/><stop offset="1" stop-color="#54d2ed"/></linearGradient><linearGradient id="linear-gradient-2" x1="791.84" y1="265.86" x2="832.03" y2="265.86" gradientUnits="userSpaceOnUse"><stop offset="0" stop-color="#8ac831" stop-opacity="0.5"/><stop offset="0.07" stop-color="#8ac831" stop-opacity="0.58"/><stop offset="0.23" stop-color="#8ac831" stop-opacity="0.73"/><stop offset="0.39" stop-color="#8ac831" stop-opacity="0.85"/><stop offset="0.57" stop-color="#8ac831" stop-opacity="0.93"/><stop offset="0.76" stop-color="#8ac831" stop-opacity="0.98"/><stop offset="1" stop-color="#8ac831"/></linearGradient><linearGradient id="linear-gradient-3" x1="986.56" y1="328.5" x2="1026.75" y2="328.5" xlink:href="#linear-gradient"/><linearGradient id="linear-gradient-4" x1="950.76" y1="913.51" x2="1031.15" y2="913.51" xlink:href="#linear-gradient-2"/><linearGradient id="linear-gradient-5" x1="855.89" y1="966.45" x2="875.98" y2="966.45" xlink:href="#linear-gradient"/><linearGradient id="linear-gradient-6" x1="684.56" y1="1037.98" x2="717.27" y2="1037.98" xlink:href="#linear-gradient-2"/><linearGradient id="linear-gradient-7" x1="1010.06" y1="547.14" x2="1059.12" y2="547.14" xlink:href="#linear-gradient-2"/><linearGradient id="linear-gradient-8" x1="529.21" y1="235.72" x2="549.31" y2="235.72" xlink:href="#linear-gradient-2"/><linearGradient id="linear-gradient-9" x1="351.2" y1="265.86" x2="411.49" y2="265.86" xlink:href="#linear-gradient"/><linearGradient id="linear-gradient-10" x1="264.86" y1="873.31" x2="284.95" y2="873.31" xlink:href="#linear-gradient-2"/><linearGradient id="linear-gradient-11" x1="220.88" y1="425.31" x2="240.98" y2="425.31" xlink:href="#linear-gradient"/><linearGradient id="linear-gradient-12" x1="230.93" y1="621.93" x2="279.99" y2="621.93" xlink:href="#linear-gradient-2"/><linearGradient id="linear-gradient-13" x1="411.62" y1="998.97" x2="460.67" y2="998.97" xlink:href="#linear-gradient"/><linearGradient id="linear-gradient-14" x1="357.27" y1="617.01" x2="927.16" y2="617.01" xlink:href="#linear-gradient"/><linearGradient id="linear-gradient-15" x1="895.56" y1="454.81" x2="950.76" y2="454.81" gradientTransform="translate(351.08 -400.65) rotate(30)" gradientUnits="userSpaceOnUse"><stop offset="0" stop-color="#fff"/><stop offset="0.09" stop-color="#eef7e1"/><stop offset="0.26" stop-color="#d0e9ac"/><stop offset="0.43" stop-color="#b7dd80"/><stop offset="0.59" stop-color="#a3d45d"/><stop offset="0.74" stop-color="#95cd45"/><stop offset="0.88" stop-color="#8dc936"/><stop offset="1" stop-color="#8ac831"/></linearGradient><linearGradient id="linear-gradient-16" x1="356.23" y1="616.16" x2="372.23" y2="616.16" xlink:href="#linear-gradient"/><linearGradient id="linear-gradient-17" x1="413.45" y1="858.18" x2="594.47" y2="858.18" xlink:href="#linear-gradient"/><linearGradient id="linear-gradient-18" x1="692.91" y1="858.18" x2="873.94" y2="858.18" xlink:href="#linear-gradient"/><linearGradient id="linear-gradient-19" x1="915.16" y1="616.16" x2="931.16" y2="616.16" xlink:href="#linear-gradient"/><linearGradient id="linear-gradient-20" x1="692.91" y1="374.13" x2="873.94" y2="374.13" xlink:href="#linear-gradient"/><linearGradient id="linear-gradient-21" x1="413.45" y1="374.13" x2="594.47" y2="374.13" xlink:href="#linear-gradient"/><linearGradient id="linear-gradient-22" x1="360.23" y1="617.01" x2="930.12" y2="617.01" xlink:href="#linear-gradient"/><linearGradient id="linear-gradient-23" x1="895.56" y1="777.51" x2="950.76" y2="777.51" gradientTransform="translate(1134.92 -410.73) rotate(60)" xlink:href="#linear-gradient-15"/><linearGradient id="linear-gradient-24" x1="336.63" y1="454.81" x2="391.83" y2="454.81" gradientTransform="translate(575.99 -88.03) rotate(60)" xlink:href="#linear-gradient-15"/><linearGradient id="linear-gradient-25" x1="635.69" y1="614.45" x2="651.69" y2="614.45" xlink:href="#linear-gradient"/><linearGradient id="linear-gradient-26" x1="616.1" y1="293.46" x2="671.29" y2="293.46" gradientTransform="matrix(1, 0, 0, 1, 0, 0)" xlink:href="#linear-gradient-15"/><linearGradient id="linear-gradient-27" x1="616.1" y1="938.86" x2="671.29" y2="938.86" gradientTransform="matrix(1, 0, 0, 1, 0, 0)" xlink:href="#linear-gradient-15"/><linearGradient id="linear-gradient-28" x1="336.63" y1="777.51" x2="391.83" y2="777.51" gradientTransform="translate(437.55 -77.95) rotate(30)" xlink:href="#linear-gradient-15"/><linearGradient id="linear-gradient-29" x1="2481.88" y1="769.58" x2="2144.82" y2="432.52" gradientTransform="matrix(-1, 0, 0, 1, 2970.31, 0)" gradientUnits="userSpaceOnUse"><stop offset="0" stop-color="#8ac831" stop-opacity="0.25"/><stop offset="0.08" stop-color="#8ac831" stop-opacity="0.39"/><stop offset="0.21" stop-color="#8ac831" stop-opacity="0.58"/><stop offset="0.35" stop-color="#8ac831" stop-opacity="0.73"/><stop offset="0.49" stop-color="#8ac831" stop-opacity="0.85"/><stop offset="0.64" stop-color="#8ac831" stop-opacity="0.93"/><stop offset="0.8" stop-color="#8ac831" stop-opacity="0.98"/><stop offset="1" stop-color="#8ac831"/></linearGradient></defs><title>Artboard 143</title><circle class="cls-1" cx="1046.85" cy="728.6" r="10.05"/><polygon class="cls-2" points="791.84 265.86 806.91 260.84 811.94 245.76 816.96 260.84 832.03 265.86 816.96 270.89 811.94 285.96 806.91 270.89 791.84 265.86"/><polygon class="cls-3" points="986.56 328.5 1001.63 323.48 1006.66 308.4 1011.68 323.48 1026.75 328.5 1011.68 333.52 1006.66 348.6 1001.63 333.52 986.56 328.5"/><polygon class="cls-4" points="950.76 913.51 980.9 903.46 990.95 873.31 1001 903.46 1031.15 913.51 1001 923.55 990.95 953.7 980.9 923.55 950.76 913.51"/><circle class="cls-5" cx="865.94" cy="966.45" r="10.05"/><polygon class="cls-6" points="684.56 1037.98 696.83 1033.89 700.91 1021.63 705 1033.89 717.27 1037.98 705 1042.07 700.91 1054.33 696.83 1042.07 684.56 1037.98"/><polygon class="cls-7" points="1010.06 547.14 1028.45 541.01 1034.59 522.61 1040.72 541.01 1059.12 547.14 1040.72 553.27 1034.59 571.67 1028.45 553.27 1010.06 547.14"/><circle class="cls-8" cx="539.26" cy="235.72" r="10.05"/><polygon class="cls-9" points="351.2 265.86 373.81 258.32 381.35 235.72 388.88 258.32 411.49 265.86 388.88 273.4 381.35 296.01 373.81 273.4 351.2 265.86"/><circle class="cls-10" cx="274.91" cy="873.31" r="10.05"/><circle class="cls-11" cx="230.93" cy="425.31" r="10.05"/><polygon class="cls-12" points="230.93 621.93 249.33 615.79 255.46 597.4 261.6 615.79 279.99 621.93 261.6 628.06 255.46 646.46 249.33 628.06 230.93 621.93"/><polygon class="cls-13" points="411.62 998.97 430.01 992.84 436.14 974.44 442.28 992.84 460.68 998.97 442.28 1005.1 436.14 1023.5 430.01 1005.1 411.62 998.97"/><line class="cls-14" x1="923.16" y1="454.81" x2="361.27" y2="779.22"/><circle class="cls-15" cx="923.16" cy="454.81" r="27.6" transform="translate(-103.72 522.51) rotate(-30)"/><line class="cls-16" x1="364.23" y1="711.43" x2="364.23" y2="520.88"/><line class="cls-17" x1="586.47" y1="905.82" x2="421.45" y2="810.54"/><line class="cls-18" x1="865.94" y1="810.54" x2="700.91" y2="905.82"/><line class="cls-19" x1="923.16" y1="520.88" x2="923.16" y2="711.43"/><line class="cls-20" x1="700.91" y1="326.49" x2="865.94" y2="421.77"/><line class="cls-21" x1="421.45" y1="421.77" x2="586.47" y2="326.49"/><line class="cls-22" x1="364.23" y1="454.81" x2="926.12" y2="779.22"/><circle class="cls-23" cx="923.16" cy="777.51" r="27.6" transform="translate(-211.76 1188.23) rotate(-60)"/><circle class="cls-24" cx="364.23" cy="454.81" r="27.6" transform="translate(-211.76 542.83) rotate(-60)"/><line class="cls-25" x1="643.69" y1="938.86" x2="643.69" y2="290.04"/><circle class="cls-26" cx="643.69" cy="293.46" r="27.6"/><circle class="cls-27" cx="643.69" cy="938.86" r="27.6"/><circle class="cls-28" cx="643.69" cy="614.45" r="207.55"/><circle class="cls-29" cx="364.23" cy="777.51" r="27.6" transform="translate(-339.96 286.28) rotate(-30)"/><path class="cls-30" d="M643.69,406.9c-114.37,0-207.42,93-207.42,207.42s93,207.42,207.42,207.42,207.42-93,207.42-207.42S758.06,406.9,643.69,406.9Zm19.53,74.24c2.42,13,4.44,27.35,6,42.75a190.83,190.83,0,0,1-51.15,0c1.61-15.4,3.63-29.8,6-42.75,8.34-44.71,17.6-53.53,19.53-54.91C645.62,427.61,654.88,436.42,663.22,481.13ZM613.74,604.75c.21-21.38,1.1-42.21,2.63-61.77A210.64,210.64,0,0,0,671,543c1.53,19.56,2.43,40.39,2.63,61.77Zm59.9,19.15c-.21,21.38-1.1,42.21-2.63,61.77a210.63,210.63,0,0,0-54.63,0c-1.53-19.56-2.43-40.39-2.63-61.77ZM606.33,472.54c-2.87,14.34-5.25,30.44-7.1,47.81a185.4,185.4,0,0,1-43.64-16.54A200.44,200.44,0,0,1,568,479.35c14.24-23.74,31.48-40.1,50.07-48C613.63,441.7,609.76,455.35,606.33,472.54Zm-8.89,67.07c-1.66,20.57-2.63,42.51-2.84,65.13H534.7c.86-29.48,5.71-57.67,14.07-82.88A204.34,204.34,0,0,0,597.44,539.62Zm-2.84,84.28c.21,22.62,1.18,44.56,2.84,65.13a204.34,204.34,0,0,0-48.67,17.75c-8.36-25.21-13.21-53.4-14.07-82.88Zm4.63,84.4c1.85,17.37,4.23,33.47,7.1,47.81,3.44,17.19,7.31,30.85,11.71,41.16-18.59-7.86-35.83-24.23-50.07-48a200.45,200.45,0,0,1-12.37-24.46A185.4,185.4,0,0,1,599.23,708.29Zm24.94,39.21c-2.42-13-4.44-27.35-6-42.75a190.83,190.83,0,0,1,51.15,0c-1.61,15.4-3.63,29.8-6,42.75-8.34,44.71-17.6,53.53-19.53,54.91C641.77,801,632.51,792.22,624.17,747.5Zm56.89,8.59c2.87-14.34,5.25-30.44,7.1-47.81a185.39,185.39,0,0,1,43.64,16.54,200.47,200.47,0,0,1-12.37,24.46c-14.24,23.74-31.48,40.1-50.07,48C673.75,786.94,677.62,773.29,681.06,756.1ZM689.95,689c1.66-20.57,2.63-42.51,2.84-65.13h59.9c-.86,29.48-5.71,57.67-14.07,82.88A204.35,204.35,0,0,0,689.95,689Zm2.84-84.28c-.21-22.62-1.18-44.56-2.84-65.13a204.34,204.34,0,0,0,48.67-17.75c8.36,25.21,13.21,53.4,14.07,82.88Zm-4.63-84.4c-1.85-17.37-4.23-33.47-7.1-47.81-3.44-17.19-7.31-30.85-11.71-41.16,18.59,7.86,35.83,24.23,50.07,48a200.45,200.45,0,0,1,12.37,24.46A185.38,185.38,0,0,1,688.16,520.35Zm47.68-50.86a166.73,166.73,0,0,0-22.9-30.25,188.69,188.69,0,0,1,58.19,36.63,189.32,189.32,0,0,1-22.77,18A217.07,217.07,0,0,0,735.84,469.5Zm-184.3,0A217.07,217.07,0,0,0,539,493.87a189.35,189.35,0,0,1-22.77-18,188.69,188.69,0,0,1,58.19-36.63A166.73,166.73,0,0,0,551.54,469.5Zm-19.66,42.62c-9.78,28.1-15.42,59.67-16.33,92.64H455.66a187.5,187.5,0,0,1,47.18-115.21A208.37,208.37,0,0,0,531.88,512.11ZM515.55,623.89c.91,33,6.55,64.54,16.33,92.64a208.38,208.38,0,0,0-29,22.57,187.5,187.5,0,0,1-47.18-115.21ZM539,734.77a217.09,217.09,0,0,0,12.52,24.37,166.73,166.73,0,0,0,22.9,30.25,188.69,188.69,0,0,1-58.19-36.63A189.35,189.35,0,0,1,539,734.77Zm196.82,24.37a217.15,217.15,0,0,0,12.52-24.37,189.37,189.37,0,0,1,22.77,18,188.69,188.69,0,0,1-58.19,36.63A166.73,166.73,0,0,0,735.84,759.14Zm19.66-42.61c9.78-28.1,15.42-59.68,16.33-92.64h59.89A187.5,187.5,0,0,1,784.55,739.1,208.38,208.38,0,0,0,755.51,716.53Zm16.33-111.78c-.91-33-6.55-64.54-16.33-92.64a208.38,208.38,0,0,0,29-22.57,187.5,187.5,0,0,1,47.18,115.21Z"/></svg>