<svg id="Windscribe" xmlns="http://www.w3.org/2000/svg" xmlns:xlink="http://www.w3.org/1999/xlink" viewBox="0 0 1200 1200"><defs><style>.cls-1,.cls-12,.cls-3,.cls-4,.cls-5,.cls-6,.cls-7,.cls-8,.cls-9{fill:none;stroke-width:16px;}.cls-1,.cls-12,.cls-9{stroke-miterlimit:10;}.cls-1{stroke:url(#linear-gradient);}.cls-2{fill:url(#linear-gradient-2);}.cls-3,.cls-4,.cls-5,.cls-6,.cls-7,.cls-8{stroke-linecap:round;stroke-linejoin:round;}.cls-3{stroke:url(#linear-gradient-3);}.cls-4{stroke:url(#linear-gradient-4);}.cls-5{stroke:url(#linear-gradient-5);}.cls-6{stroke:url(#linear-gradient-6);}.cls-7{stroke:url(#linear-gradient-7);}.cls-8{stroke:url(#linear-gradient-8);}.cls-9{stroke:url(#linear-gradient-9);}.cls-10{fill:url(#linear-gradient-10);}.cls-11{fill:url(#linear-gradient-11);}.cls-12{stroke:url(#linear-gradient-12);}.cls-13{fill:url(#linear-gradient-13);}.cls-14{fill:url(#linear-gradient-14);}.cls-15{fill:#fff;}.cls-16{fill:url(#linear-gradient-15);}.cls-17{fill:url(#linear-gradient-16);}</style><linearGradient id="linear-gradient" x1="320.01" y1="600.85" x2="887.18" y2="600.85" gradientUnits="userSpaceOnUse"><stop offset="0" stop-color="#54d2ed" stop-opacity="0.5"/><stop offset="0.13" stop-color="#54d2ed" stop-opacity="0.64"/><stop offset="0.28" stop-color="#54d2ed" stop-opacity="0.77"/><stop offset="0.43" stop-color="#54d2ed" stop-opacity="0.87"/><stop offset="0.6" stop-color="#54d2ed" stop-opacity="0.94"/><stop offset="0.78" stop-color="#54d2ed" stop-opacity="0.99"/><stop offset="1" stop-color="#54d2ed"/></linearGradient><linearGradient id="linear-gradient-2" x1="855.71" y1="439.43" x2="910.64" y2="439.43" gradientTransform="translate(338.04 -382.72) rotate(30)" gradientUnits="userSpaceOnUse"><stop offset="0" stop-color="#fff"/><stop offset="0.09" stop-color="#eef7e1"/><stop offset="0.26" stop-color="#d0e9ac"/><stop offset="0.43" stop-color="#b7dd80"/><stop offset="0.59" stop-color="#a3d45d"/><stop offset="0.74" stop-color="#95cd45"/><stop offset="0.88" stop-color="#8dc936"/><stop offset="1" stop-color="#8ac831"/></linearGradient><linearGradient id="linear-gradient-3" x1="318.95" y1="600" x2="334.95" y2="600" xlink:href="#linear-gradient"/><linearGradient id="linear-gradient-4" x1="375.9" y1="840.85" x2="556.12" y2="840.85" xlink:href="#linear-gradient"/><linearGradient id="linear-gradient-5" x1="654.01" y1="840.85" x2="834.23" y2="840.85" xlink:href="#linear-gradient"/><linearGradient id="linear-gradient-6" x1="875.18" y1="600" x2="891.18" y2="600" xlink:href="#linear-gradient"/><linearGradient id="linear-gradient-7" x1="654.01" y1="359.15" x2="834.23" y2="359.15" xlink:href="#linear-gradient"/><linearGradient id="linear-gradient-8" x1="375.9" y1="359.15" x2="556.12" y2="359.15" xlink:href="#linear-gradient"/><linearGradient id="linear-gradient-9" x1="322.95" y1="600.85" x2="890.12" y2="600.85" xlink:href="#linear-gradient"/><linearGradient id="linear-gradient-10" x1="855.71" y1="760.57" x2="910.64" y2="760.57" gradientTransform="translate(1100.26 -384.57) rotate(60)" xlink:href="#linear-gradient-2"/><linearGradient id="linear-gradient-11" x1="299.49" y1="439.43" x2="354.42" y2="439.43" gradientTransform="translate(544.04 -63.43) rotate(60)" xlink:href="#linear-gradient-2"/><linearGradient id="linear-gradient-12" x1="597.06" y1="598.3" x2="613.06" y2="598.3" xlink:href="#linear-gradient"/><linearGradient id="linear-gradient-13" x1="577.6" y1="278.86" x2="632.53" y2="278.86" gradientTransform="matrix(1, 0, 0, 1, 0, 0)" xlink:href="#linear-gradient-2"/><linearGradient id="linear-gradient-14" x1="577.6" y1="921.14" x2="632.53" y2="921.14" gradientTransform="matrix(1, 0, 0, 1, 0, 0)" xlink:href="#linear-gradient-2"/><linearGradient id="linear-gradient-15" x1="299.49" y1="760.57" x2="354.42" y2="760.57" gradientTransform="translate(424.09 -61.58) rotate(30)" xlink:href="#linear-gradient-2"/><linearGradient id="linear-gradient-16" x1="2330.97" y1="752.68" x2="1995.54" y2="417.25" gradientTransform="matrix(-1, 0, 0, 1, 2781.53, 0)" gradientUnits="userSpaceOnUse"><stop offset="0" stop-color="#8ac831" stop-opacity="0.25"/><stop offset="0.08" stop-color="#8ac831" stop-opacity="0.39"/><stop offset="0.21" stop-color="#8ac831" stop-opacity="0.58"/><stop offset="0.35" stop-color="#8ac831" stop-opacity="0.73"/><stop offset="0.49" stop-color="#8ac831" stop-opacity="0.85"/><stop offset="0.64" stop-color="#8ac831" stop-opacity="0.93"/><stop offset="0.8" stop-color="#8ac831" stop-opacity="0.98"/><stop offset="1" stop-color="#8ac831"/></linearGradient></defs><title>Artboard 127</title><line class="cls-1" x1="883.18" y1="439.43" x2="324.01" y2="762.27"/><circle class="cls-2" cx="883.18" cy="439.43" r="27.46" transform="translate(-101.39 500.46) rotate(-30)"/><line class="cls-3" x1="326.95" y1="694.81" x2="326.95" y2="505.19"/><line class="cls-4" x1="548.12" y1="888.26" x2="383.9" y2="793.44"/><line class="cls-5" x1="826.23" y1="793.44" x2="662.01" y2="888.26"/><line class="cls-6" x1="883.18" y1="505.19" x2="883.18" y2="694.81"/><line class="cls-7" x1="662.01" y1="311.74" x2="826.23" y2="406.56"/><line class="cls-8" x1="383.9" y1="406.56" x2="548.12" y2="311.74"/><line class="cls-9" x1="326.95" y1="439.43" x2="886.12" y2="762.27"/><circle class="cls-10" cx="883.18" cy="760.57" r="27.46" transform="translate(-217.08 1145.14) rotate(-60)"/><circle class="cls-11" cx="326.95" cy="439.43" r="27.46" transform="translate(-217.08 502.87) rotate(-60)"/><line class="cls-12" x1="605.06" y1="921.14" x2="605.06" y2="275.46"/><circle class="cls-13" cx="605.06" cy="278.86" r="27.46"/><circle class="cls-14" cx="605.06" cy="921.14" r="27.46"/><circle class="cls-15" cx="605.06" cy="598.3" r="206.54"/><circle class="cls-16" cx="326.95" cy="760.57" r="27.46" transform="translate(-336.48 265.37) rotate(-30)"/><path class="cls-17" d="M605.06,391.76c-113.82,0-206.42,92.6-206.42,206.42s92.6,206.42,206.42,206.42S811.48,712,811.48,598.17,718.88,391.76,605.06,391.76Zm19.43,73.88c2.41,12.89,4.42,27.22,6,42.55a189.9,189.9,0,0,1-50.9,0c1.6-15.33,3.61-29.66,6-42.55,8.3-44.5,17.52-53.27,19.43-54.65C607,412.36,616.19,421.14,624.5,465.63Zm-49.24,123c.21-21.28,1.1-42,2.62-61.47a209.62,209.62,0,0,0,54.37,0c1.52,19.47,2.41,40.19,2.62,61.47Zm59.61,19.05c-.21,21.28-1.1,42-2.62,61.47a209.61,209.61,0,0,0-54.37,0c-1.52-19.47-2.41-40.19-2.62-61.47Zm-67-150.62c-2.85,14.27-5.22,30.29-7.06,47.58a184.5,184.5,0,0,1-43.43-16.46,199.47,199.47,0,0,1,12.31-24.35c14.17-23.62,31.32-39.91,49.83-47.73C575.15,426.39,571.3,440,567.88,457.08ZM559,523.83c-1.65,20.47-2.61,42.3-2.83,64.81H496.6c.86-29.34,5.68-57.39,14-82.48A203.35,203.35,0,0,0,559,523.83Zm-2.83,83.87c.21,22.51,1.18,44.35,2.83,64.82a203.35,203.35,0,0,0-48.43,17.66c-8.32-25.08-13.15-53.14-14-82.48Zm4.61,84C562.66,709,565,725,567.88,739.26c3.42,17.11,7.27,30.7,11.65,41-18.5-7.82-35.65-24.11-49.83-47.73a199.48,199.48,0,0,1-12.31-24.34A184.5,184.5,0,0,1,560.81,691.69Zm24.82,39c-2.41-12.89-4.42-27.22-6-42.54a189.9,189.9,0,0,1,50.9,0c-1.6,15.33-3.61,29.65-6,42.54-8.3,44.5-17.52,53.27-19.43,54.65C603.15,784,593.94,775.21,585.63,730.71Zm56.62,8.55c2.85-14.27,5.22-30.29,7.06-47.58a184.49,184.49,0,0,1,43.43,16.46,199.5,199.5,0,0,1-12.31,24.34c-14.17,23.62-31.32,39.91-49.83,47.73C635,770,638.83,756.37,642.25,739.26Zm8.85-66.75c1.65-20.47,2.61-42.3,2.83-64.82h59.61c-.86,29.34-5.68,57.39-14,82.48A203.36,203.36,0,0,0,651.1,672.52Zm2.83-83.87c-.21-22.51-1.18-44.35-2.83-64.81a203.35,203.35,0,0,0,48.43-17.66c8.32,25.08,13.15,53.14,14,82.48Zm-4.61-84c-1.84-17.28-4.21-33.31-7.06-47.58-3.42-17.11-7.27-30.7-11.65-41,18.5,7.82,35.66,24.11,49.83,47.73a199.48,199.48,0,0,1,12.31,24.34A184.49,184.49,0,0,1,649.32,504.66ZM696.77,454A165.93,165.93,0,0,0,674,423.94a187.78,187.78,0,0,1,57.91,36.45,188.4,188.4,0,0,1-22.66,17.92A216,216,0,0,0,696.77,454Zm-183.4,0a216,216,0,0,0-12.46,24.26,188.43,188.43,0,0,1-22.66-17.92,187.78,187.78,0,0,1,57.91-36.45A165.92,165.92,0,0,0,513.36,454Zm-19.57,42.41c-9.74,28-15.34,59.39-16.25,92.19h-59.6A186.59,186.59,0,0,1,464.89,474,207.36,207.36,0,0,0,493.79,496.46ZM477.55,607.7c.91,32.8,6.51,64.23,16.25,92.19a207.37,207.37,0,0,0-28.9,22.46,186.59,186.59,0,0,1-47-114.65ZM500.9,718a216,216,0,0,0,12.46,24.26,165.92,165.92,0,0,0,22.79,30.11A187.77,187.77,0,0,1,478.24,736,188.43,188.43,0,0,1,500.9,718ZM696.77,742.3A216.1,216.1,0,0,0,709.23,718,188.46,188.46,0,0,1,731.89,736,187.78,187.78,0,0,1,674,772.4,165.93,165.93,0,0,0,696.77,742.3Zm19.57-42.41c9.74-28,15.34-59.39,16.25-92.19h59.6a186.59,186.59,0,0,1-47,114.65A207.37,207.37,0,0,0,716.34,699.89Zm16.25-111.24c-.91-32.8-6.51-64.23-16.25-92.19A207.37,207.37,0,0,0,745.24,474a186.59,186.59,0,0,1,46.95,114.65Z"/></svg>