<?xml version="1.0" encoding="utf-8"?>
<!-- Generator: Adobe Illustrator 19.2.0, SVG Export Plug-In . SVG Version: 6.00 Build 0)  -->
<svg version="1.1" id="Windscribe" xmlns="http://www.w3.org/2000/svg" xmlns:xlink="http://www.w3.org/1999/xlink" x="0px" y="0px"
	 viewBox="0 0 1200 1200" style="enable-background:new 0 0 1200 1200;" xml:space="preserve">
<style type="text/css">
	.st0{fill:#FFFFFF;}
	.st1{fill:url(#SVGID_1_);}
	.st2{fill:url(#SVGID_2_);}
	.st3{fill:url(#SVGID_3_);}
	.st4{fill:url(#SVGID_4_);}
	.st5{fill:url(#SVGID_5_);}
	.st6{fill:url(#SVGID_6_);}
	.st7{fill:url(#SVGID_7_);}
</style>
<title>Artboard 137</title>
<g>
	<circle class="st0" cx="753.3" cy="530.7" r="149.7"/>
	
		<linearGradient id="SVGID_1_" gradientUnits="userSpaceOnUse" x1="560.6978" y1="586.3386" x2="945.9393" y2="586.3386" gradientTransform="matrix(1 0 0 -1 0 1200)">
		<stop  offset="0" style="stop-color:#FFFFFF"/>
		<stop  offset="9.000000e-02" style="stop-color:#EEF7E1"/>
		<stop  offset="0.26" style="stop-color:#D0E9AC"/>
		<stop  offset="0.43" style="stop-color:#B7DD80"/>
		<stop  offset="0.59" style="stop-color:#A3D45D"/>
		<stop  offset="0.74" style="stop-color:#95CD45"/>
		<stop  offset="0.88" style="stop-color:#8DC936"/>
		<stop  offset="1" style="stop-color:#8AC831"/>
	</linearGradient>
	<path class="st1" d="M753.3,338c106.4,0,192.6,86.2,192.6,192.6S753.3,889.3,753.3,889.3S560.7,637,560.7,530.7
		S646.9,338,753.3,338z"/>
	<circle class="st0" cx="753.3" cy="530.7" r="149.7"/>
	
		<linearGradient id="SVGID_2_" gradientUnits="userSpaceOnUse" x1="903.0325" y1="669.3489" x2="610.775" y2="669.3489" gradientTransform="matrix(1 0 0 -1 0 1200)">
		<stop  offset="0" style="stop-color:#54D2ED;stop-opacity:0.5"/>
		<stop  offset="0.13" style="stop-color:#54D2ED;stop-opacity:0.64"/>
		<stop  offset="0.28" style="stop-color:#54D2ED;stop-opacity:0.77"/>
		<stop  offset="0.43" style="stop-color:#54D2ED;stop-opacity:0.87"/>
		<stop  offset="0.6" style="stop-color:#54D2ED;stop-opacity:0.94"/>
		<stop  offset="0.78" style="stop-color:#54D2ED;stop-opacity:0.99"/>
		<stop  offset="1" style="stop-color:#54D2ED"/>
	</linearGradient>
	<circle class="st2" cx="753.3" cy="530.7" r="149.7"/>
	<circle class="st0" cx="753.3" cy="530.7" r="64.3"/>
	
		<linearGradient id="SVGID_3_" gradientUnits="userSpaceOnUse" x1="252.0591" y1="586.3386" x2="637.3005" y2="586.3386" gradientTransform="matrix(1 0 0 -1 0 1200)">
		<stop  offset="0" style="stop-color:#54D2ED;stop-opacity:0.5"/>
		<stop  offset="0.13" style="stop-color:#54D2ED;stop-opacity:0.64"/>
		<stop  offset="0.28" style="stop-color:#54D2ED;stop-opacity:0.77"/>
		<stop  offset="0.43" style="stop-color:#54D2ED;stop-opacity:0.87"/>
		<stop  offset="0.6" style="stop-color:#54D2ED;stop-opacity:0.94"/>
		<stop  offset="0.78" style="stop-color:#54D2ED;stop-opacity:0.99"/>
		<stop  offset="1" style="stop-color:#54D2ED"/>
	</linearGradient>
	<path class="st3" d="M444.7,338c106.4,0,192.6,86.2,192.6,192.6S444.7,889.3,444.7,889.3S252.1,637,252.1,530.7
		S338.3,338,444.7,338z"/>
	
		<linearGradient id="SVGID_4_" gradientUnits="userSpaceOnUse" x1="294.9659" y1="669.3489" x2="594.3938" y2="669.3489" gradientTransform="matrix(1 0 0 -1 0 1200)">
		<stop  offset="0" style="stop-color:#FFFFFF"/>
		<stop  offset="9.000000e-02" style="stop-color:#EEF7E1"/>
		<stop  offset="0.26" style="stop-color:#D0E9AC"/>
		<stop  offset="0.43" style="stop-color:#B7DD80"/>
		<stop  offset="0.59" style="stop-color:#A3D45D"/>
		<stop  offset="0.74" style="stop-color:#95CD45"/>
		<stop  offset="0.88" style="stop-color:#8DC936"/>
		<stop  offset="1" style="stop-color:#8AC831"/>
	</linearGradient>
	<circle class="st4" cx="444.7" cy="530.7" r="149.7"/>
	<circle class="st0" cx="444.7" cy="530.7" r="64.3"/>
	
		<linearGradient id="SVGID_5_" gradientUnits="userSpaceOnUse" x1="547.2538" y1="721.667" x2="706.3494" y2="721.667" gradientTransform="matrix(1 0 0 -1 -3.12 1200)">
		<stop  offset="0" style="stop-color:#8AC831"/>
		<stop  offset="1" style="stop-color:#8AC831;stop-opacity:0"/>
	</linearGradient>
	<path class="st5" d="M555.1,467.4h137.2c6.1,0,11,4.9,11,11l0,0c0,6.1-4.9,11-11,11H555.1c-6.1,0-11-4.9-11-11l0,0
		C544.1,472.3,549,467.4,555.1,467.4z"/>
	
		<linearGradient id="SVGID_6_" gradientUnits="userSpaceOnUse" x1="556.6338" y1="617.0307" x2="681.0549" y2="617.0307" gradientTransform="matrix(1 0 0 -1 -12.5 1200)">
		<stop  offset="0" style="stop-color:#8AC831"/>
		<stop  offset="1" style="stop-color:#8AC831;stop-opacity:0"/>
	</linearGradient>
	<path class="st6" d="M555.1,572h102.5c6.1,0,11,4.9,11,11l0,0c0,6.1-4.9,11-11,11H555.1c-6.1,0-11-4.9-11-11l0,0
		C544.1,576.9,549,572,555.1,572z"/>
	
		<linearGradient id="SVGID_7_" gradientUnits="userSpaceOnUse" x1="556.4277" y1="669.3531" x2="698.7607" y2="669.3531" gradientTransform="matrix(1 0 0 -1 -39 1200)">
		<stop  offset="0" style="stop-color:#6AD8EF;stop-opacity:0"/>
		<stop  offset="0" style="stop-color:#6AD8EF;stop-opacity:1.000000e-02"/>
		<stop  offset="8.000000e-02" style="stop-color:#69D8EF;stop-opacity:0.22"/>
		<stop  offset="0.15" style="stop-color:#68D7EF;stop-opacity:0.4"/>
		<stop  offset="0.23" style="stop-color:#67D7EF;stop-opacity:0.56"/>
		<stop  offset="0.32" style="stop-color:#67D7EF;stop-opacity:0.7"/>
		<stop  offset="0.41" style="stop-color:#66D6EF;stop-opacity:0.81"/>
		<stop  offset="0.51" style="stop-color:#66D6EF;stop-opacity:0.89"/>
		<stop  offset="0.63" style="stop-color:#65D6EF;stop-opacity:0.95"/>
		<stop  offset="0.77" style="stop-color:#65D6EF;stop-opacity:0.99"/>
		<stop  offset="1" style="stop-color:#65D6EF"/>
	</linearGradient>
	<path class="st7" d="M528.4,519.7h120.4c6.1,0,11,4.9,11,11l0,0c0,6.1-4.9,11-11,11H528.4c-6.1,0-11-4.9-11-11l0,0
		C517.4,524.6,522.3,519.7,528.4,519.7z"/>
</g>
</svg>
