<svg id="Windscribe" xmlns="http://www.w3.org/2000/svg" xmlns:xlink="http://www.w3.org/1999/xlink" viewBox="0 0 1280 1280"><defs><style>.cls-1{fill:url(#linear-gradient);}.cls-2{fill:#43567f;}.cls-3{fill:url(#linear-gradient-2);}.cls-4{fill:url(#linear-gradient-3);}.cls-5{fill:url(#linear-gradient-4);}.cls-6{fill:url(#linear-gradient-5);}.cls-7{fill:none;stroke:#fff;stroke-linecap:round;stroke-linejoin:round;stroke-width:13.6px;}.cls-8{fill:#fff;}.cls-9{fill:url(#linear-gradient-6);}.cls-10{fill:url(#linear-gradient-7);}.cls-11{fill:url(#linear-gradient-8);}.cls-12{fill:url(#linear-gradient-9);}.cls-13{fill:url(#linear-gradient-10);}.cls-14{fill:url(#linear-gradient-11);}.cls-15{fill:url(#linear-gradient-12);}.cls-16{fill:url(#linear-gradient-13);}.cls-17{fill:url(#linear-gradient-14);}.cls-18{fill:url(#linear-gradient-15);}.cls-19{fill:url(#linear-gradient-16);}.cls-20{fill:url(#linear-gradient-17);}.cls-21{fill:url(#linear-gradient-18);}.cls-22{fill:url(#linear-gradient-19);}.cls-23{fill:url(#linear-gradient-20);}.cls-24{fill:url(#linear-gradient-21);}.cls-25{fill:url(#linear-gradient-22);}.cls-26{fill:url(#linear-gradient-23);}.cls-27{fill:url(#linear-gradient-24);}.cls-28{fill:url(#linear-gradient-25);}.cls-29{fill:url(#linear-gradient-26);}.cls-30{fill:url(#linear-gradient-27);}.cls-31{fill:url(#linear-gradient-28);}.cls-32{fill:url(#linear-gradient-29);}.cls-33{fill:url(#linear-gradient-30);}.cls-34{fill:url(#linear-gradient-31);}.cls-35{fill:url(#linear-gradient-32);}.cls-36{fill:url(#linear-gradient-33);}.cls-37{fill:url(#linear-gradient-34);}.cls-38{fill:url(#linear-gradient-35);}.cls-39{fill:url(#linear-gradient-36);}</style><linearGradient id="linear-gradient" x1="312.2" y1="707.92" x2="960.69" y2="707.92" gradientUnits="userSpaceOnUse"><stop offset="0" stop-color="#4ec8e3" stop-opacity="0"/><stop offset="0.04" stop-color="#4ec8e3" stop-opacity="0.1"/><stop offset="0.13" stop-color="#4ec8e3" stop-opacity="0.31"/><stop offset="0.23" stop-color="#4ec8e3" stop-opacity="0.5"/><stop offset="0.33" stop-color="#4ec8e3" stop-opacity="0.65"/><stop offset="0.43" stop-color="#4ec8e3" stop-opacity="0.78"/><stop offset="0.54" stop-color="#4ec8e3" stop-opacity="0.88"/><stop offset="0.67" stop-color="#4ec8e3" stop-opacity="0.95"/><stop offset="0.81" stop-color="#4ec8e3" stop-opacity="0.99"/><stop offset="1" stop-color="#4ec8e3"/></linearGradient><linearGradient id="linear-gradient-2" x1="312.2" y1="830.02" x2="960.69" y2="830.02" gradientUnits="userSpaceOnUse"><stop offset="0" stop-color="#4ec8e3" stop-opacity="0"/><stop offset="0.07" stop-color="#4ec8e3" stop-opacity="0.16"/><stop offset="0.17" stop-color="#4ec8e3" stop-opacity="0.37"/><stop offset="0.27" stop-color="#4ec8e3" stop-opacity="0.53"/><stop offset="0.36" stop-color="#4ec8e3" stop-opacity="0.65"/><stop offset="0.44" stop-color="#4ec8e3" stop-opacity="0.72"/><stop offset="0.5" stop-color="#4ec8e3" stop-opacity="0.75"/><stop offset="1" stop-color="#4ec8e3" stop-opacity="0"/></linearGradient><linearGradient id="linear-gradient-3" x1="312.2" y1="16920.35" x2="960.69" y2="16920.35" gradientTransform="matrix(1, 0, 0, -1, 0, 17506.65)" xlink:href="#linear-gradient"/><linearGradient id="linear-gradient-4" x1="357.88" y1="586.3" x2="915.02" y2="586.3" xlink:href="#linear-gradient-2"/><linearGradient id="linear-gradient-5" x1="467.75" y1="453.4" x2="805.05" y2="453.4" gradientUnits="userSpaceOnUse"><stop offset="0" stop-color="#fff"/><stop offset="0.09" stop-color="#eef7e1"/><stop offset="0.26" stop-color="#d0e9ac"/><stop offset="0.43" stop-color="#b7dd80"/><stop offset="0.59" stop-color="#a3d45d"/><stop offset="0.74" stop-color="#95cd45"/><stop offset="0.88" stop-color="#8dc936"/><stop offset="1" stop-color="#8ac831"/></linearGradient><linearGradient id="linear-gradient-6" x1="684.71" y1="352.9" x2="804.67" y2="352.9" gradientUnits="userSpaceOnUse"><stop offset="0" stop-color="#54d2ed" stop-opacity="0.5"/><stop offset="0.13" stop-color="#54d2ed" stop-opacity="0.64"/><stop offset="0.28" stop-color="#54d2ed" stop-opacity="0.77"/><stop offset="0.43" stop-color="#54d2ed" stop-opacity="0.87"/><stop offset="0.6" stop-color="#54d2ed" stop-opacity="0.94"/><stop offset="0.78" stop-color="#54d2ed" stop-opacity="0.99"/><stop offset="1" stop-color="#54d2ed"/></linearGradient><linearGradient id="linear-gradient-7" x1="468.9" y1="920.48" x2="492.86" y2="920.48" xlink:href="#linear-gradient-5"/><linearGradient id="linear-gradient-8" x1="468.9" y1="837.49" x2="492.86" y2="837.49" xlink:href="#linear-gradient-5"/><linearGradient id="linear-gradient-9" x1="468.9" y1="989.1" x2="492.86" y2="989.1" xlink:href="#linear-gradient-5"/><linearGradient id="linear-gradient-10" x1="520.93" y1="879.78" x2="544.89" y2="879.78" xlink:href="#linear-gradient-5"/><linearGradient id="linear-gradient-11" x1="520.93" y1="964.46" x2="544.89" y2="964.46" xlink:href="#linear-gradient-5"/><linearGradient id="linear-gradient-12" x1="572.97" y1="937.04" x2="596.92" y2="937.04" xlink:href="#linear-gradient-5"/><linearGradient id="linear-gradient-13" x1="572.97" y1="841.3" x2="596.92" y2="841.3" xlink:href="#linear-gradient-5"/><linearGradient id="linear-gradient-14" x1="677.03" y1="849.49" x2="700.99" y2="849.49" xlink:href="#linear-gradient-5"/><linearGradient id="linear-gradient-15" x1="677.03" y1="955.67" x2="700.99" y2="955.67" xlink:href="#linear-gradient-5"/><linearGradient id="linear-gradient-16" x1="625" y1="864.14" x2="648.96" y2="864.14" xlink:href="#linear-gradient-5"/><linearGradient id="linear-gradient-17" x1="625" y1="945.95" x2="648.96" y2="945.95" xlink:href="#linear-gradient-5"/><linearGradient id="linear-gradient-18" x1="781.1" y1="843.58" x2="805.05" y2="843.58" xlink:href="#linear-gradient-5"/><linearGradient id="linear-gradient-19" x1="781.1" y1="990.26" x2="805.05" y2="990.26" xlink:href="#linear-gradient-5"/><linearGradient id="linear-gradient-20" x1="781.1" y1="926.72" x2="805.05" y2="926.72" xlink:href="#linear-gradient-5"/><linearGradient id="linear-gradient-21" x1="729.07" y1="854.45" x2="753.02" y2="854.45" xlink:href="#linear-gradient-5"/><linearGradient id="linear-gradient-22" x1="729.07" y1="979.93" x2="753.02" y2="979.93" xlink:href="#linear-gradient-5"/><linearGradient id="linear-gradient-23" x1="729.07" y1="928.49" x2="753.02" y2="928.49" xlink:href="#linear-gradient-5"/><linearGradient id="linear-gradient-24" x1="1018.51" y1="665.99" x2="1038.51" y2="665.99" xlink:href="#linear-gradient-6"/><linearGradient id="linear-gradient-25" x1="861.49" y1="446.01" x2="901.49" y2="446.01" xlink:href="#linear-gradient-6"/><linearGradient id="linear-gradient-26" x1="295.41" y1="391.99" x2="375.41" y2="391.99" gradientUnits="userSpaceOnUse"><stop offset="0" stop-color="#8ac831" stop-opacity="0.5"/><stop offset="0.07" stop-color="#8ac831" stop-opacity="0.58"/><stop offset="0.23" stop-color="#8ac831" stop-opacity="0.73"/><stop offset="0.39" stop-color="#8ac831" stop-opacity="0.85"/><stop offset="0.57" stop-color="#8ac831" stop-opacity="0.93"/><stop offset="0.76" stop-color="#8ac831" stop-opacity="0.98"/><stop offset="1" stop-color="#8ac831"/></linearGradient><linearGradient id="linear-gradient-27" x1="1002.92" y1="905.66" x2="1022.92" y2="905.66" xlink:href="#linear-gradient-6"/><linearGradient id="linear-gradient-28" x1="881.49" y1="944.81" x2="914.04" y2="944.81" xlink:href="#linear-gradient-26"/><linearGradient id="linear-gradient-29" x1="998.51" y1="520.42" x2="1047.33" y2="520.42" xlink:href="#linear-gradient-26"/><linearGradient id="linear-gradient-30" x1="415.95" y1="269.7" x2="435.95" y2="269.7" xlink:href="#linear-gradient-6"/><linearGradient id="linear-gradient-31" x1="1018.51" y1="799.1" x2="1078.51" y2="799.1" xlink:href="#linear-gradient-26"/><linearGradient id="linear-gradient-32" x1="225.9" y1="857.6" x2="245.9" y2="857.6" xlink:href="#linear-gradient-26"/><linearGradient id="linear-gradient-33" x1="847.77" y1="332.06" x2="867.77" y2="332.06" xlink:href="#linear-gradient-26"/><linearGradient id="linear-gradient-34" x1="383.95" y1="489.72" x2="403.95" y2="489.72" xlink:href="#linear-gradient-26"/><linearGradient id="linear-gradient-35" x1="201.49" y1="644.91" x2="250.31" y2="644.91" xlink:href="#linear-gradient-6"/><linearGradient id="linear-gradient-36" x1="335.41" y1="954.49" x2="384.23" y2="954.49" xlink:href="#linear-gradient-6"/></defs><title>Artboard 144</title><rect class="cls-1" x="312.2" y="613.41" width="648.5" height="189.03"/><path class="cls-2" d="M312.2,802.44h648.5a0,0,0,0,1,0,0v0a55.16,55.16,0,0,1-55.16,55.16H367.36a55.16,55.16,0,0,1-55.16-55.16v0a0,0,0,0,1,0,0Z"/><path class="cls-3" d="M312.2,802.44h648.5a0,0,0,0,1,0,0v0a55.16,55.16,0,0,1-55.16,55.16H367.36a55.16,55.16,0,0,1-55.16-55.16v0a0,0,0,0,1,0,0Z"/><path class="cls-4" d="M367.36,558.72H905.54a55.16,55.16,0,0,1,55.16,55.16v0a0,0,0,0,1,0,0H312.2a0,0,0,0,1,0,0v0a55.16,55.16,0,0,1,55.16-55.16Z"/><path class="cls-2" d="M357.88,558.72H915a0,0,0,0,1,0,0v0a55.16,55.16,0,0,1-55.16,55.16H413a55.16,55.16,0,0,1-55.16-55.16v0A0,0,0,0,1,357.88,558.72Z"/><path class="cls-5" d="M915,558.72a55.15,55.15,0,0,1-55.16,55.16H413a55.16,55.16,0,0,1-55.16-55.16Z"/><path class="cls-6" d="M805.05,613.88H468.9l-1.15-295.64A25.24,25.24,0,0,1,493,292.92H684.71L804.65,412.87v0Z"/><line class="cls-7" x1="530.9" y1="478.68" x2="740.96" y2="478.68"/><line class="cls-7" x1="530.9" y1="544.47" x2="740.96" y2="544.47"/><line class="cls-7" x1="530.9" y1="347.09" x2="636.45" y2="347.09"/><line class="cls-7" x1="530.9" y1="412.88" x2="636.45" y2="412.88"/><path class="cls-8" d="M804.67,412.89l-120-120v94.56A25.24,25.24,0,0,0,710,412.72l51.2-.16.6.26,18.57,0Z"/><path class="cls-9" d="M804.67,412.89l-120-120v94.56A25.24,25.24,0,0,0,710,412.72l51.2-.16.6.26,18.57,0Z"/><rect class="cls-10" x="468.9" y="899.78" width="23.96" height="41.41" rx="11.98" ry="11.98"/><path class="cls-11" d="M468.9,802.44h24a0,0,0,0,1,0,0v58.14a12,12,0,0,1-12,12h0a12,12,0,0,1-12-12V802.44A0,0,0,0,1,468.9,802.44Z"/><rect class="cls-12" x="468.9" y="960.31" width="23.96" height="57.57" rx="11.98" ry="11.98"/><rect class="cls-13" x="520.93" y="837.49" width="23.96" height="84.58" rx="11.98" ry="11.98"/><rect class="cls-14" x="520.93" y="947.28" width="23.96" height="34.36" rx="11.98" ry="11.98"/><rect class="cls-15" x="572.97" y="890.45" width="23.96" height="93.18" rx="11.98" ry="11.98"/><rect class="cls-16" x="572.97" y="818.47" width="23.96" height="45.67" rx="11.98" ry="11.98"/><path class="cls-17" d="M677,802.44h24a0,0,0,0,1,0,0v82.13a12,12,0,0,1-12,12h0a12,12,0,0,1-12-12V802.44A0,0,0,0,1,677,802.44Z"/><rect class="cls-18" x="677.03" y="928.05" width="23.96" height="55.24" rx="11.98" ry="11.98"/><rect class="cls-19" x="625" y="826.95" width="23.96" height="74.37" rx="11.98" ry="11.98"/><rect class="cls-20" x="625" y="929.36" width="23.96" height="33.17" rx="11.98" ry="11.98"/><path class="cls-21" d="M781.1,802.44h24a0,0,0,0,1,0,0v70.31a12,12,0,0,1-12,12h0a12,12,0,0,1-12-12V802.44a0,0,0,0,1,0,0Z"/><rect class="cls-22" x="781.1" y="960.21" width="23.96" height="60.09" rx="11.98" ry="11.98"/><rect class="cls-23" x="781.1" y="912.47" width="23.96" height="28.51" rx="11.98" ry="11.98"/><rect class="cls-24" x="729.07" y="817.18" width="23.96" height="74.54" rx="11.98" ry="11.98"/><rect class="cls-25" x="729.07" y="964.49" width="23.96" height="30.88" rx="11.98" ry="11.98"/><rect class="cls-26" x="729.07" y="911.02" width="23.96" height="34.92" rx="11.98" ry="11.98"/><circle class="cls-27" cx="1028.51" cy="665.99" r="10"/><polygon class="cls-28" points="861.49 446.01 876.49 441.01 881.49 426.01 886.49 441.01 901.49 446.01 886.49 451.01 881.49 466.01 876.49 451.01 861.49 446.01"/><polygon class="cls-29" points="295.41 391.99 325.41 381.99 335.41 351.99 345.41 381.99 375.41 391.99 345.41 401.99 335.41 431.99 325.41 401.99 295.41 391.99"/><circle class="cls-30" cx="1012.92" cy="905.66" r="10"/><polygon class="cls-31" points="881.49 944.81 893.7 940.74 897.77 928.54 901.84 940.74 914.04 944.81 901.84 948.88 897.77 961.08 893.7 948.88 881.49 944.81"/><polygon class="cls-32" points="998.51 520.42 1016.82 514.32 1022.92 496.01 1029.03 514.32 1047.33 520.42 1029.03 526.53 1022.92 544.84 1016.82 526.53 998.51 520.42"/><circle class="cls-33" cx="425.95" cy="269.7" r="10"/><polygon class="cls-34" points="1018.51 799.1 1041.01 791.6 1048.51 769.1 1056.01 791.6 1078.51 799.1 1056.01 806.6 1048.51 829.1 1041.01 806.6 1018.51 799.1"/><circle class="cls-35" cx="235.9" cy="857.6" r="10"/><circle class="cls-36" cx="857.77" cy="332.06" r="10"/><circle class="cls-37" cx="393.95" cy="489.72" r="10"/><polygon class="cls-38" points="201.49 644.91 219.79 638.8 225.9 620.5 232 638.8 250.31 644.91 232 651.01 225.9 669.32 219.79 651.01 201.49 644.91"/><polygon class="cls-39" points="335.41 954.49 353.71 948.38 359.82 930.08 365.92 948.38 384.23 954.49 365.92 960.59 359.82 978.9 353.71 960.59 335.41 954.49"/><circle class="cls-8" cx="889.62" cy="730.33" r="17.88"/><circle class="cls-8" cx="824.14" cy="730.33" r="11.32"/><circle class="cls-8" cx="774.92" cy="730.33" r="11.32"/></svg>