<svg id="Windscribe" xmlns="http://www.w3.org/2000/svg" xmlns:xlink="http://www.w3.org/1999/xlink" viewBox="0 0 1200 1200"><defs><style>.cls-1{fill:url(#linear-gradient);}.cls-2{fill:#43567f;}.cls-3{fill:url(#linear-gradient-2);}.cls-4{fill:url(#linear-gradient-3);}.cls-5{fill:url(#linear-gradient-4);}.cls-6{fill:url(#linear-gradient-5);}.cls-7{fill:none;stroke:#fff;stroke-linecap:round;stroke-linejoin:round;stroke-width:13.6px;}.cls-8{fill:#fff;}.cls-9{fill:url(#linear-gradient-6);}.cls-10{fill:url(#linear-gradient-7);}.cls-11{fill:url(#linear-gradient-8);}.cls-12{fill:url(#linear-gradient-9);}.cls-13{fill:url(#linear-gradient-10);}.cls-14{fill:url(#linear-gradient-11);}.cls-15{fill:url(#linear-gradient-12);}.cls-16{fill:url(#linear-gradient-13);}.cls-17{fill:url(#linear-gradient-14);}.cls-18{fill:url(#linear-gradient-15);}.cls-19{fill:url(#linear-gradient-16);}.cls-20{fill:url(#linear-gradient-17);}.cls-21{fill:url(#linear-gradient-18);}.cls-22{fill:url(#linear-gradient-19);}.cls-23{fill:url(#linear-gradient-20);}.cls-24{fill:url(#linear-gradient-21);}.cls-25{fill:url(#linear-gradient-22);}.cls-26{fill:url(#linear-gradient-23);}</style><linearGradient id="linear-gradient" x1="282.33" y1="667.92" x2="930.82" y2="667.92" gradientUnits="userSpaceOnUse"><stop offset="0" stop-color="#4ec8e3" stop-opacity="0"/><stop offset="0.04" stop-color="#4ec8e3" stop-opacity="0.1"/><stop offset="0.13" stop-color="#4ec8e3" stop-opacity="0.31"/><stop offset="0.23" stop-color="#4ec8e3" stop-opacity="0.5"/><stop offset="0.33" stop-color="#4ec8e3" stop-opacity="0.65"/><stop offset="0.43" stop-color="#4ec8e3" stop-opacity="0.78"/><stop offset="0.54" stop-color="#4ec8e3" stop-opacity="0.88"/><stop offset="0.67" stop-color="#4ec8e3" stop-opacity="0.95"/><stop offset="0.81" stop-color="#4ec8e3" stop-opacity="0.99"/><stop offset="1" stop-color="#4ec8e3"/></linearGradient><linearGradient id="linear-gradient-2" x1="282.33" y1="790.02" x2="930.82" y2="790.02" gradientUnits="userSpaceOnUse"><stop offset="0" stop-color="#4ec8e3" stop-opacity="0"/><stop offset="0.07" stop-color="#4ec8e3" stop-opacity="0.16"/><stop offset="0.17" stop-color="#4ec8e3" stop-opacity="0.37"/><stop offset="0.27" stop-color="#4ec8e3" stop-opacity="0.53"/><stop offset="0.36" stop-color="#4ec8e3" stop-opacity="0.65"/><stop offset="0.44" stop-color="#4ec8e3" stop-opacity="0.72"/><stop offset="0.5" stop-color="#4ec8e3" stop-opacity="0.75"/><stop offset="1" stop-color="#4ec8e3" stop-opacity="0"/></linearGradient><linearGradient id="linear-gradient-3" x1="282.33" y1="4771.6" x2="930.82" y2="4771.6" gradientTransform="matrix(1, 0, 0, -1, 0, 5317.9)" xlink:href="#linear-gradient"/><linearGradient id="linear-gradient-4" x1="328.01" y1="546.3" x2="885.15" y2="546.3" xlink:href="#linear-gradient-2"/><linearGradient id="linear-gradient-5" x1="437.88" y1="413.4" x2="775.18" y2="413.4" gradientUnits="userSpaceOnUse"><stop offset="0" stop-color="#fff"/><stop offset="0.09" stop-color="#eef7e1"/><stop offset="0.26" stop-color="#d0e9ac"/><stop offset="0.43" stop-color="#b7dd80"/><stop offset="0.59" stop-color="#a3d45d"/><stop offset="0.74" stop-color="#95cd45"/><stop offset="0.88" stop-color="#8dc936"/><stop offset="1" stop-color="#8ac831"/></linearGradient><linearGradient id="linear-gradient-6" x1="654.84" y1="312.9" x2="774.8" y2="312.9" gradientUnits="userSpaceOnUse"><stop offset="0" stop-color="#54d2ed" stop-opacity="0.5"/><stop offset="0.13" stop-color="#54d2ed" stop-opacity="0.64"/><stop offset="0.28" stop-color="#54d2ed" stop-opacity="0.77"/><stop offset="0.43" stop-color="#54d2ed" stop-opacity="0.87"/><stop offset="0.6" stop-color="#54d2ed" stop-opacity="0.94"/><stop offset="0.78" stop-color="#54d2ed" stop-opacity="0.99"/><stop offset="1" stop-color="#54d2ed"/></linearGradient><linearGradient id="linear-gradient-7" x1="439.03" y1="880.48" x2="462.99" y2="880.48" xlink:href="#linear-gradient-5"/><linearGradient id="linear-gradient-8" x1="439.03" y1="797.49" x2="462.99" y2="797.49" xlink:href="#linear-gradient-5"/><linearGradient id="linear-gradient-9" x1="439.03" y1="949.1" x2="462.99" y2="949.1" xlink:href="#linear-gradient-5"/><linearGradient id="linear-gradient-10" x1="491.06" y1="839.78" x2="515.02" y2="839.78" xlink:href="#linear-gradient-5"/><linearGradient id="linear-gradient-11" x1="491.06" y1="924.46" x2="515.02" y2="924.46" xlink:href="#linear-gradient-5"/><linearGradient id="linear-gradient-12" x1="543.1" y1="897.04" x2="567.05" y2="897.04" xlink:href="#linear-gradient-5"/><linearGradient id="linear-gradient-13" x1="543.1" y1="801.3" x2="567.05" y2="801.3" xlink:href="#linear-gradient-5"/><linearGradient id="linear-gradient-14" x1="647.16" y1="809.49" x2="671.12" y2="809.49" xlink:href="#linear-gradient-5"/><linearGradient id="linear-gradient-15" x1="647.16" y1="915.67" x2="671.12" y2="915.67" xlink:href="#linear-gradient-5"/><linearGradient id="linear-gradient-16" x1="595.13" y1="824.14" x2="619.08" y2="824.14" xlink:href="#linear-gradient-5"/><linearGradient id="linear-gradient-17" x1="595.13" y1="905.95" x2="619.08" y2="905.95" xlink:href="#linear-gradient-5"/><linearGradient id="linear-gradient-18" x1="751.23" y1="803.58" x2="775.18" y2="803.58" xlink:href="#linear-gradient-5"/><linearGradient id="linear-gradient-19" x1="751.23" y1="950.26" x2="775.18" y2="950.26" xlink:href="#linear-gradient-5"/><linearGradient id="linear-gradient-20" x1="751.23" y1="886.72" x2="775.18" y2="886.72" xlink:href="#linear-gradient-5"/><linearGradient id="linear-gradient-21" x1="699.2" y1="814.45" x2="723.15" y2="814.45" xlink:href="#linear-gradient-5"/><linearGradient id="linear-gradient-22" x1="699.2" y1="939.93" x2="723.15" y2="939.93" xlink:href="#linear-gradient-5"/><linearGradient id="linear-gradient-23" x1="699.2" y1="888.49" x2="723.15" y2="888.49" xlink:href="#linear-gradient-5"/></defs><title>Artboard 128</title><rect class="cls-1" x="282.33" y="573.41" width="648.5" height="189.03"/><path class="cls-2" d="M282.33,762.44h648.5a0,0,0,0,1,0,0v0a55.16,55.16,0,0,1-55.16,55.16H337.49a55.16,55.16,0,0,1-55.16-55.16v0a0,0,0,0,1,0,0Z"/><path class="cls-3" d="M282.33,762.44h648.5a0,0,0,0,1,0,0v0a55.16,55.16,0,0,1-55.16,55.16H337.49a55.16,55.16,0,0,1-55.16-55.16v0a0,0,0,0,1,0,0Z"/><path class="cls-4" d="M337.49,518.72H875.66a55.16,55.16,0,0,1,55.16,55.16v0a0,0,0,0,1,0,0H282.33a0,0,0,0,1,0,0v0a55.16,55.16,0,0,1,55.16-55.16Z"/><path class="cls-2" d="M328,518.72H885.15a0,0,0,0,1,0,0v0A55.16,55.16,0,0,1,830,573.88H383.17A55.16,55.16,0,0,1,328,518.72v0a0,0,0,0,1,0,0Z"/><path class="cls-5" d="M885.15,518.72A55.15,55.15,0,0,1,830,573.88H383.16A55.16,55.16,0,0,1,328,518.72Z"/><path class="cls-6" d="M775.18,573.88H439l-1.15-295.64a25.24,25.24,0,0,1,25.24-25.32H654.84L774.78,372.87v0Z"/><line class="cls-7" x1="501.03" y1="438.68" x2="711.09" y2="438.68"/><line class="cls-7" x1="501.03" y1="504.47" x2="711.09" y2="504.47"/><line class="cls-7" x1="501.03" y1="307.09" x2="606.58" y2="307.09"/><line class="cls-7" x1="501.03" y1="372.88" x2="606.58" y2="372.88"/><path class="cls-8" d="M774.8,372.89l-120-120v94.56a25.24,25.24,0,0,0,25.32,25.24l51.2-.16.6.26,18.57,0Z"/><path class="cls-9" d="M774.8,372.89l-120-120v94.56a25.24,25.24,0,0,0,25.32,25.24l51.2-.16.6.26,18.57,0Z"/><rect class="cls-10" x="439.03" y="859.78" width="23.96" height="41.41" rx="11.98" ry="11.98"/><path class="cls-11" d="M439,762.44h24a0,0,0,0,1,0,0v58.14a12,12,0,0,1-12,12h0a12,12,0,0,1-12-12V762.44a0,0,0,0,1,0,0Z"/><rect class="cls-12" x="439.03" y="920.31" width="23.96" height="57.57" rx="11.98" ry="11.98"/><rect class="cls-13" x="491.06" y="797.49" width="23.96" height="84.58" rx="11.98" ry="11.98"/><rect class="cls-14" x="491.06" y="907.28" width="23.96" height="34.36" rx="11.98" ry="11.98"/><rect class="cls-15" x="543.1" y="850.46" width="23.96" height="93.18" rx="11.98" ry="11.98"/><rect class="cls-16" x="543.1" y="778.47" width="23.96" height="45.67" rx="11.98" ry="11.98"/><path class="cls-17" d="M647.16,762.44h24a0,0,0,0,1,0,0v82.13a12,12,0,0,1-12,12h0a12,12,0,0,1-12-12V762.44A0,0,0,0,1,647.16,762.44Z"/><rect class="cls-18" x="647.16" y="888.05" width="23.96" height="55.24" rx="11.98" ry="11.98"/><rect class="cls-19" x="595.13" y="786.95" width="23.96" height="74.37" rx="11.98" ry="11.98"/><rect class="cls-20" x="595.13" y="889.36" width="23.96" height="33.17" rx="11.98" ry="11.98"/><path class="cls-21" d="M751.23,762.44h24a0,0,0,0,1,0,0v70.31a12,12,0,0,1-12,12h0a12,12,0,0,1-12-12V762.44A0,0,0,0,1,751.23,762.44Z"/><rect class="cls-22" x="751.23" y="920.21" width="23.96" height="60.09" rx="11.98" ry="11.98"/><rect class="cls-23" x="751.23" y="872.47" width="23.96" height="28.51" rx="11.98" ry="11.98"/><rect class="cls-24" x="699.2" y="777.18" width="23.96" height="74.54" rx="11.98" ry="11.98"/><rect class="cls-25" x="699.2" y="924.49" width="23.96" height="30.88" rx="11.98" ry="11.98"/><rect class="cls-26" x="699.2" y="871.02" width="23.96" height="34.92" rx="11.98" ry="11.98"/><circle class="cls-8" cx="859.75" cy="690.34" r="17.88"/><circle class="cls-8" cx="794.27" cy="690.34" r="11.32"/><circle class="cls-8" cx="745.05" cy="690.34" r="11.32"/></svg>