<svg id="Windscribe" xmlns="http://www.w3.org/2000/svg" xmlns:xlink="http://www.w3.org/1999/xlink" viewBox="0 0 1200 1200"><defs><style>.cls-1{fill:url(#linear-gradient);}.cls-2{fill:url(#linear-gradient-2);}.cls-3{fill:url(#linear-gradient-3);}.cls-4{fill:url(#linear-gradient-4);}.cls-5{fill:url(#linear-gradient-5);}.cls-6{fill:url(#linear-gradient-6);}.cls-7{fill:url(#linear-gradient-7);}.cls-8{fill:url(#linear-gradient-8);}.cls-9{fill:url(#linear-gradient-9);}.cls-10{fill:url(#linear-gradient-10);}.cls-11{fill:url(#linear-gradient-11);}.cls-12{fill:url(#linear-gradient-12);}.cls-13{fill:url(#linear-gradient-13);}.cls-14{fill:url(#linear-gradient-14);}.cls-15{fill:url(#linear-gradient-15);}.cls-16{fill:url(#linear-gradient-16);}.cls-17{fill:url(#linear-gradient-17);}.cls-18{fill:url(#linear-gradient-18);}.cls-19{fill:#fff;}.cls-20{fill:url(#linear-gradient-19);}</style><linearGradient id="linear-gradient" x1="600" y1="-7468.37" x2="600" y2="-7621.17" gradientTransform="matrix(1, 0, 0, -1, 0, -7183.96)" gradientUnits="userSpaceOnUse"><stop offset="0" stop-color="#54d2ed" stop-opacity="0.25"/><stop offset="0.03" stop-color="#54d2ed" stop-opacity="0.3"/><stop offset="0.14" stop-color="#54d2ed" stop-opacity="0.48"/><stop offset="0.26" stop-color="#54d2ed" stop-opacity="0.64"/><stop offset="0.39" stop-color="#54d2ed" stop-opacity="0.77"/><stop offset="0.52" stop-color="#54d2ed" stop-opacity="0.87"/><stop offset="0.66" stop-color="#54d2ed" stop-opacity="0.94"/><stop offset="0.81" stop-color="#54d2ed" stop-opacity="0.99"/><stop offset="1" stop-color="#54d2ed"/></linearGradient><linearGradient id="linear-gradient-2" x1="408.69" y1="360.81" x2="445.56" y2="360.81" gradientUnits="userSpaceOnUse"><stop offset="0" stop-color="#fff"/><stop offset="0.09" stop-color="#eef7e1"/><stop offset="0.26" stop-color="#d0e9ac"/><stop offset="0.43" stop-color="#b7dd80"/><stop offset="0.59" stop-color="#a3d45d"/><stop offset="0.74" stop-color="#95cd45"/><stop offset="0.88" stop-color="#8dc936"/><stop offset="1" stop-color="#8ac831"/></linearGradient><linearGradient id="linear-gradient-3" x1="683.61" y1="360.81" x2="698.78" y2="360.81" xlink:href="#linear-gradient-2"/><linearGradient id="linear-gradient-4" x1="732.96" y1="360.81" x2="748.13" y2="360.81" xlink:href="#linear-gradient-2"/><linearGradient id="linear-gradient-5" x1="782.32" y1="360.81" x2="797.49" y2="360.81" xlink:href="#linear-gradient-2"/><linearGradient id="linear-gradient-6" x1="600" y1="-7293.89" x2="600" y2="-7446.69" gradientTransform="matrix(1, 0, 0, -1, 0, -6835)" xlink:href="#linear-gradient"/><linearGradient id="linear-gradient-7" x1="408.69" y1="535.29" x2="445.56" y2="535.29" xlink:href="#linear-gradient-2"/><linearGradient id="linear-gradient-8" x1="683.61" y1="535.29" x2="698.78" y2="535.29" xlink:href="#linear-gradient-2"/><linearGradient id="linear-gradient-9" x1="732.96" y1="535.29" x2="748.13" y2="535.29" xlink:href="#linear-gradient-2"/><linearGradient id="linear-gradient-10" x1="782.32" y1="535.29" x2="797.49" y2="535.29" xlink:href="#linear-gradient-2"/><linearGradient id="linear-gradient-11" x1="600" y1="-7119.41" x2="600" y2="-7272.21" gradientTransform="matrix(1, 0, 0, -1, 0, -6486.04)" xlink:href="#linear-gradient"/><linearGradient id="linear-gradient-12" x1="408.69" y1="709.77" x2="445.56" y2="709.77" xlink:href="#linear-gradient-2"/><linearGradient id="linear-gradient-13" x1="683.61" y1="709.77" x2="698.78" y2="709.77" xlink:href="#linear-gradient-2"/><linearGradient id="linear-gradient-14" x1="732.96" y1="709.77" x2="748.13" y2="709.77" xlink:href="#linear-gradient-2"/><linearGradient id="linear-gradient-15" x1="782.32" y1="709.77" x2="797.49" y2="709.77" xlink:href="#linear-gradient-2"/><linearGradient id="linear-gradient-16" x1="612.96" y1="887.17" x2="757.88" y2="887.17" gradientUnits="userSpaceOnUse"><stop offset="0" stop-color="#8ac831" stop-opacity="0.5"/><stop offset="0.07" stop-color="#8ac831" stop-opacity="0.58"/><stop offset="0.23" stop-color="#8ac831" stop-opacity="0.73"/><stop offset="0.39" stop-color="#8ac831" stop-opacity="0.85"/><stop offset="0.57" stop-color="#8ac831" stop-opacity="0.93"/><stop offset="0.76" stop-color="#8ac831" stop-opacity="0.98"/><stop offset="1" stop-color="#8ac831"/></linearGradient><linearGradient id="linear-gradient-17" x1="4198.42" y1="-2788.44" x2="4265.33" y2="-2788.44" gradientTransform="matrix(0, 1, 1, 0, 3388.44, -3388.44)" xlink:href="#linear-gradient-16"/><linearGradient id="linear-gradient-18" x1="442.12" y1="887.17" x2="587.04" y2="887.17" xlink:href="#linear-gradient-16"/><linearGradient id="linear-gradient-19" x1="583.33" y1="887.17" x2="616.67" y2="887.17" gradientTransform="matrix(1, 0, 0, 1, 0, 0)" xlink:href="#linear-gradient"/></defs><title>Artboard 141</title><rect class="cls-1" x="358.39" y="284.41" width="483.21" height="152.8" rx="21.68" ry="21.68"/><circle class="cls-2" cx="427.12" cy="360.81" r="18.43"/><rect class="cls-3" x="683.61" y="327.21" width="15.17" height="67.19" rx="7.59" ry="7.59"/><rect class="cls-4" x="732.96" y="327.21" width="15.17" height="67.19" rx="7.59" ry="7.59"/><rect class="cls-5" x="782.32" y="327.21" width="15.17" height="67.19" rx="7.59" ry="7.59"/><rect class="cls-6" x="358.39" y="458.89" width="483.21" height="152.8" rx="21.68" ry="21.68"/><circle class="cls-7" cx="427.12" cy="535.29" r="18.43"/><rect class="cls-8" x="683.61" y="501.69" width="15.17" height="67.19" rx="7.59" ry="7.59"/><rect class="cls-9" x="732.96" y="501.69" width="15.17" height="67.19" rx="7.59" ry="7.59"/><rect class="cls-10" x="782.32" y="501.69" width="15.17" height="67.19" rx="7.59" ry="7.59"/><rect class="cls-11" x="358.39" y="633.37" width="483.21" height="152.8" rx="21.68" ry="21.68"/><circle class="cls-12" cx="427.12" cy="709.77" r="18.43"/><rect class="cls-13" x="683.61" y="676.17" width="15.17" height="67.19" rx="7.59" ry="7.59"/><rect class="cls-14" x="732.96" y="676.17" width="15.17" height="67.19" rx="7.59" ry="7.59"/><rect class="cls-15" x="782.32" y="676.17" width="15.17" height="67.19" rx="7.59" ry="7.59"/><path class="cls-16" d="M749.3,895.75H613V878.6H749.3a8.58,8.58,0,0,1,8.58,8.58h0A8.58,8.58,0,0,1,749.3,895.75Z"/><rect class="cls-17" x="591.42" y="809.98" width="17.16" height="66.9"/><path class="cls-18" d="M587,895.75H450.7a8.58,8.58,0,0,1-8.58-8.58h0a8.58,8.58,0,0,1,8.58-8.58H587Z"/><circle class="cls-19" cx="600" cy="887.17" r="27.51"/><circle class="cls-20" cx="600" cy="887.17" r="16.67"/></svg>