<svg id="Windscribe" xmlns="http://www.w3.org/2000/svg" xmlns:xlink="http://www.w3.org/1999/xlink" viewBox="0 0 1280 1280"><defs><style>.cls-1{fill:url(#linear-gradient);}.cls-2{fill:url(#linear-gradient-2);}.cls-3{fill:url(#linear-gradient-3);}.cls-4{fill:url(#linear-gradient-4);}.cls-5{fill:url(#linear-gradient-5);}.cls-6{fill:url(#linear-gradient-6);}.cls-7{fill:url(#linear-gradient-7);}.cls-8{fill:url(#linear-gradient-8);}.cls-9{fill:url(#linear-gradient-9);}.cls-10{fill:url(#linear-gradient-10);}.cls-11{fill:url(#linear-gradient-11);}.cls-12{fill:url(#linear-gradient-12);}.cls-13{fill:url(#linear-gradient-13);}.cls-14{fill:url(#linear-gradient-14);}.cls-15{fill:url(#linear-gradient-15);}.cls-16{fill:url(#linear-gradient-16);}.cls-17{fill:url(#linear-gradient-17);}.cls-18{fill:url(#linear-gradient-18);}.cls-19{fill:url(#linear-gradient-19);}.cls-20{fill:url(#linear-gradient-20);}.cls-21{fill:url(#linear-gradient-21);}.cls-22{fill:url(#linear-gradient-22);}.cls-23{fill:url(#linear-gradient-23);}.cls-24{fill:url(#linear-gradient-24);}.cls-25{fill:url(#linear-gradient-25);}.cls-26{fill:url(#linear-gradient-26);}.cls-27{fill:url(#linear-gradient-27);}.cls-28{fill:url(#linear-gradient-28);}.cls-29{fill:url(#linear-gradient-29);}.cls-30{fill:url(#linear-gradient-30);}.cls-31{fill:#fff;}.cls-32{fill:url(#linear-gradient-31);}</style><linearGradient id="linear-gradient" x1="351.09" y1="978.04" x2="373.09" y2="978.04" gradientUnits="userSpaceOnUse"><stop offset="0" stop-color="#54d2ed" stop-opacity="0.5"/><stop offset="0.13" stop-color="#54d2ed" stop-opacity="0.64"/><stop offset="0.28" stop-color="#54d2ed" stop-opacity="0.77"/><stop offset="0.43" stop-color="#54d2ed" stop-opacity="0.87"/><stop offset="0.6" stop-color="#54d2ed" stop-opacity="0.94"/><stop offset="0.78" stop-color="#54d2ed" stop-opacity="0.99"/><stop offset="1" stop-color="#54d2ed"/></linearGradient><linearGradient id="linear-gradient-2" x1="919.03" y1="348.4" x2="963.03" y2="348.4" gradientUnits="userSpaceOnUse"><stop offset="0" stop-color="#8ac831" stop-opacity="0.5"/><stop offset="0.07" stop-color="#8ac831" stop-opacity="0.58"/><stop offset="0.23" stop-color="#8ac831" stop-opacity="0.73"/><stop offset="0.39" stop-color="#8ac831" stop-opacity="0.85"/><stop offset="0.57" stop-color="#8ac831" stop-opacity="0.93"/><stop offset="0.76" stop-color="#8ac831" stop-opacity="0.98"/><stop offset="1" stop-color="#8ac831"/></linearGradient><linearGradient id="linear-gradient-3" x1="958.22" y1="623.44" x2="1002.22" y2="623.44" xlink:href="#linear-gradient"/><linearGradient id="linear-gradient-4" x1="959.02" y1="857.68" x2="1035.83" y2="857.68" xlink:href="#linear-gradient-2"/><linearGradient id="linear-gradient-5" x1="1029.06" y1="737.96" x2="1051.06" y2="737.96" xlink:href="#linear-gradient"/><linearGradient id="linear-gradient-6" x1="297.14" y1="565.14" x2="332.94" y2="565.14" xlink:href="#linear-gradient-2"/><linearGradient id="linear-gradient-7" x1="301.34" y1="852.18" x2="323.34" y2="852.18" xlink:href="#linear-gradient-2"/><linearGradient id="linear-gradient-8" x1="519.26" y1="270.55" x2="585.26" y2="270.55" xlink:href="#linear-gradient"/><linearGradient id="linear-gradient-9" x1="721.19" y1="325.17" x2="743.19" y2="325.17" xlink:href="#linear-gradient-2"/><linearGradient id="linear-gradient-10" x1="346.58" y1="372.4" x2="368.58" y2="372.4" xlink:href="#linear-gradient"/><linearGradient id="linear-gradient-11" x1="227.5" y1="755.25" x2="281.21" y2="755.25" xlink:href="#linear-gradient"/><linearGradient id="linear-gradient-12" x1="883.14" y1="1011.49" x2="936.84" y2="1011.49" xlink:href="#linear-gradient"/><linearGradient id="linear-gradient-13" x1="647.21" y1="561.97" x2="647.21" y2="409.17" gradientUnits="userSpaceOnUse"><stop offset="0" stop-color="#54d2ed" stop-opacity="0.25"/><stop offset="0.03" stop-color="#54d2ed" stop-opacity="0.3"/><stop offset="0.14" stop-color="#54d2ed" stop-opacity="0.48"/><stop offset="0.26" stop-color="#54d2ed" stop-opacity="0.64"/><stop offset="0.39" stop-color="#54d2ed" stop-opacity="0.77"/><stop offset="0.52" stop-color="#54d2ed" stop-opacity="0.87"/><stop offset="0.66" stop-color="#54d2ed" stop-opacity="0.94"/><stop offset="0.81" stop-color="#54d2ed" stop-opacity="0.99"/><stop offset="1" stop-color="#54d2ed"/></linearGradient><linearGradient id="linear-gradient-14" x1="455.9" y1="485.57" x2="492.77" y2="485.57" gradientUnits="userSpaceOnUse"><stop offset="0" stop-color="#fff"/><stop offset="0.09" stop-color="#eef7e1"/><stop offset="0.26" stop-color="#d0e9ac"/><stop offset="0.43" stop-color="#b7dd80"/><stop offset="0.59" stop-color="#a3d45d"/><stop offset="0.74" stop-color="#95cd45"/><stop offset="0.88" stop-color="#8dc936"/><stop offset="1" stop-color="#8ac831"/></linearGradient><linearGradient id="linear-gradient-15" x1="730.82" y1="485.57" x2="745.99" y2="485.57" xlink:href="#linear-gradient-14"/><linearGradient id="linear-gradient-16" x1="780.17" y1="485.57" x2="795.35" y2="485.57" xlink:href="#linear-gradient-14"/><linearGradient id="linear-gradient-17" x1="829.53" y1="485.57" x2="844.7" y2="485.57" xlink:href="#linear-gradient-14"/><linearGradient id="linear-gradient-18" x1="647.21" y1="736.45" x2="647.21" y2="583.65" xlink:href="#linear-gradient-13"/><linearGradient id="linear-gradient-19" x1="455.9" y1="660.05" x2="492.77" y2="660.05" xlink:href="#linear-gradient-14"/><linearGradient id="linear-gradient-20" x1="730.82" y1="660.05" x2="745.99" y2="660.05" xlink:href="#linear-gradient-14"/><linearGradient id="linear-gradient-21" x1="780.17" y1="660.05" x2="795.35" y2="660.05" xlink:href="#linear-gradient-14"/><linearGradient id="linear-gradient-22" x1="829.53" y1="660.05" x2="844.7" y2="660.05" xlink:href="#linear-gradient-14"/><linearGradient id="linear-gradient-23" x1="647.21" y1="910.93" x2="647.21" y2="758.13" xlink:href="#linear-gradient-13"/><linearGradient id="linear-gradient-24" x1="455.9" y1="834.53" x2="492.77" y2="834.53" xlink:href="#linear-gradient-14"/><linearGradient id="linear-gradient-25" x1="730.82" y1="834.53" x2="745.99" y2="834.53" xlink:href="#linear-gradient-14"/><linearGradient id="linear-gradient-26" x1="780.17" y1="834.53" x2="795.35" y2="834.53" xlink:href="#linear-gradient-14"/><linearGradient id="linear-gradient-27" x1="829.53" y1="834.53" x2="844.7" y2="834.53" xlink:href="#linear-gradient-14"/><linearGradient id="linear-gradient-28" x1="660.17" y1="1011.94" x2="805.09" y2="1011.94" xlink:href="#linear-gradient-2"/><linearGradient id="linear-gradient-29" x1="-1891.58" y1="3473.54" x2="-1824.68" y2="3473.54" gradientTransform="matrix(0, 1, 1, 0, -2826.33, 2826.33)" xlink:href="#linear-gradient-2"/><linearGradient id="linear-gradient-30" x1="489.33" y1="1011.94" x2="634.25" y2="1011.94" xlink:href="#linear-gradient-2"/><linearGradient id="linear-gradient-31" x1="630.54" y1="1011.94" x2="663.88" y2="1011.94" xlink:href="#linear-gradient-13"/></defs><title>Artboard 150</title><circle class="cls-1" cx="362.09" cy="978.04" r="11"/><polygon class="cls-2" points="919.03 348.4 935.53 342.9 941.03 326.4 946.53 342.9 963.03 348.4 946.53 353.9 941.03 370.4 935.53 353.9 919.03 348.4"/><polygon class="cls-3" points="958.22 623.45 974.72 617.95 980.22 601.45 985.72 617.95 1002.22 623.45 985.72 628.95 980.22 645.45 974.72 628.95 958.22 623.45"/><polygon class="cls-4" points="959.02 857.68 987.82 848.08 997.42 819.27 1007.03 848.08 1035.84 857.68 1007.03 867.28 997.42 896.09 987.82 867.28 959.02 857.68"/><circle class="cls-5" cx="1040.06" cy="737.96" r="11"/><polygon class="cls-6" points="297.14 565.14 310.56 560.66 315.04 547.24 319.51 560.66 332.94 565.14 319.51 569.61 315.04 583.04 310.56 569.61 297.14 565.14"/><circle class="cls-7" cx="312.34" cy="852.18" r="11"/><polygon class="cls-8" points="519.26 270.55 544.01 262.3 552.26 237.55 560.51 262.3 585.26 270.55 560.51 278.8 552.26 303.55 544.01 278.8 519.26 270.55"/><circle class="cls-9" cx="732.19" cy="325.17" r="11"/><circle class="cls-10" cx="357.58" cy="372.4" r="11"/><polygon class="cls-11" points="227.5 755.25 247.64 748.53 254.35 728.39 261.07 748.53 281.2 755.25 261.07 761.96 254.35 782.1 247.64 761.96 227.5 755.25"/><polygon class="cls-12" points="883.14 1011.49 903.28 1004.77 909.99 984.63 916.7 1004.77 936.84 1011.49 916.7 1018.2 909.99 1038.34 903.28 1018.2 883.14 1011.49"/><rect class="cls-13" x="405.61" y="409.17" width="483.21" height="152.8" rx="21.68" ry="21.68"/><circle class="cls-14" cx="474.33" cy="485.57" r="18.43"/><rect class="cls-15" x="730.82" y="451.97" width="15.17" height="67.19" rx="7.59" ry="7.59"/><rect class="cls-16" x="780.17" y="451.97" width="15.17" height="67.19" rx="7.59" ry="7.59"/><rect class="cls-17" x="829.53" y="451.97" width="15.17" height="67.19" rx="7.59" ry="7.59"/><rect class="cls-18" x="405.61" y="583.65" width="483.21" height="152.8" rx="21.68" ry="21.68"/><circle class="cls-19" cx="474.33" cy="660.05" r="18.43"/><rect class="cls-20" x="730.82" y="626.45" width="15.17" height="67.19" rx="7.59" ry="7.59"/><rect class="cls-21" x="780.17" y="626.45" width="15.17" height="67.19" rx="7.59" ry="7.59"/><rect class="cls-22" x="829.53" y="626.45" width="15.17" height="67.19" rx="7.59" ry="7.59"/><rect class="cls-23" x="405.61" y="758.13" width="483.21" height="152.8" rx="21.68" ry="21.68"/><circle class="cls-24" cx="474.33" cy="834.53" r="18.43"/><rect class="cls-25" x="730.82" y="800.93" width="15.17" height="67.19" rx="7.59" ry="7.59"/><rect class="cls-26" x="780.17" y="800.93" width="15.17" height="67.19" rx="7.59" ry="7.59"/><rect class="cls-27" x="829.53" y="800.93" width="15.17" height="67.19" rx="7.59" ry="7.59"/><path class="cls-28" d="M796.51,1020.52H660.17v-17.16H796.51a8.58,8.58,0,0,1,8.58,8.58h0A8.58,8.58,0,0,1,796.51,1020.52Z"/><rect class="cls-29" x="638.63" y="934.75" width="17.16" height="66.9"/><path class="cls-30" d="M634.25,1020.52H497.91a8.58,8.58,0,0,1-8.58-8.58h0a8.58,8.58,0,0,1,8.58-8.58H634.25Z"/><circle class="cls-31" cx="647.21" cy="1011.94" r="27.51"/><circle class="cls-32" cx="647.21" cy="1011.94" r="16.67"/></svg>