<?xml version="1.0" encoding="utf-8"?>
<!-- Generator: Adobe Illustrator 19.2.0, SVG Export Plug-In . SVG Version: 6.00 Build 0)  -->
<svg version="1.1" id="Layer_1" xmlns="http://www.w3.org/2000/svg" xmlns:xlink="http://www.w3.org/1999/xlink" x="0px" y="0px"
	 viewBox="0 0 1200 1200" style="enable-background:new 0 0 1200 1200;" xml:space="preserve">
<style type="text/css">
	.st0{fill:url(#Oval-7_1_);}
	.st1{fill:#43567F;}
	.st2{fill:url(#Oval-8_1_);}
	.st3{fill:url(#SVGID_1_);}
	.st4{fill:url(#Oval-11_1_);}
	.st5{fill:url(#SVGID_2_);}
	.st6{fill:none;}
	.st7{opacity:0.5;fill:#4EC8E3;}
	.st8{fill:url(#SVGID_3_);}
	.st9{fill:url(#SVGID_4_);}
	.st10{fill:url(#SVGID_5_);}
	.st11{fill:url(#SVGID_6_);}
	.st12{fill:url(#SVGID_7_);}
	.st13{fill:url(#SVGID_8_);}
	.st14{fill:url(#SVGID_9_);}
	.st15{fill:url(#SVGID_10_);}
	.st16{fill:url(#SVGID_11_);}
	.st17{fill:url(#SVGID_12_);}
	.st18{fill:url(#SVGID_13_);}
	.st19{fill:url(#SVGID_14_);}
</style>
<title>Group 12</title>
<desc>Created with Sketch.</desc>
<radialGradient id="Oval-7_1_" cx="200.7388" cy="0.7282" r="0.5" gradientTransform="matrix(555 0 0 555 -110800 200)" gradientUnits="userSpaceOnUse">
	<stop  offset="0" style="stop-color:#4EC8E3"/>
	<stop  offset="0.2" style="stop-color:#4EC8E3;stop-opacity:0.4"/>
	<stop  offset="0.5" style="stop-color:#4EC8E3;stop-opacity:0"/>
	<stop  offset="0.8" style="stop-color:#4EC8E3;stop-opacity:0.3"/>
	<stop  offset="1" style="stop-color:#4EC8E3"/>
</radialGradient>
<circle id="Oval-7_9_" class="st0" cx="610" cy="604.2" r="277.5"/>
<path id="Oval-8-Copy_3_" class="st1" d="M610,731.7c102.2,0,194.7-42.5,277.5-127.5c-82.8-85-175.3-127.5-277.5-127.5
	s-194.7,42.5-277.5,127.5C415.3,689.2,507.8,731.7,610,731.7z"/>
<linearGradient id="Oval-8_1_" gradientUnits="userSpaceOnUse" x1="200.7388" y1="0.4967" x2="200.7388" y2="1.4967" gradientTransform="matrix(555 0 0 255 -110800 350)">
	<stop  offset="0" style="stop-color:#4EC8E3;stop-opacity:0"/>
	<stop  offset="7.000000e-02" style="stop-color:#4EC8E3;stop-opacity:0.16"/>
	<stop  offset="0.17" style="stop-color:#4EC8E3;stop-opacity:0.37"/>
	<stop  offset="0.27" style="stop-color:#4EC8E3;stop-opacity:0.53"/>
	<stop  offset="0.36" style="stop-color:#4EC8E3;stop-opacity:0.65"/>
	<stop  offset="0.44" style="stop-color:#4EC8E3;stop-opacity:0.72"/>
	<stop  offset="0.5" style="stop-color:#4EC8E3;stop-opacity:0.75"/>
	<stop  offset="1" style="stop-color:#4EC8E3;stop-opacity:0"/>
</linearGradient>
<path id="Oval-8_12_" class="st2" d="M610,731.7c102.2,0,194.7-42.5,277.5-127.5c-82.8-85-175.3-127.5-277.5-127.5
	s-194.7,42.5-277.5,127.5C415.3,689.2,507.8,731.7,610,731.7z"/>
<g id="Combined-Shape_23_">
	<linearGradient id="SVGID_1_" gradientUnits="userSpaceOnUse" x1="609.5439" y1="412.6661" x2="609.5439" y2="327.6661">
		<stop  offset="0" style="stop-color:#4EC8E3"/>
		<stop  offset="1" style="stop-color:#FFFFFF"/>
	</linearGradient>
	<path class="st3" d="M525.5,340.6c26.5-8.4,54.7-12.9,84-12.9s57.5,4.5,84,12.9c-6.2,40.8-41.5,72.1-84,72.1
		S531.7,381.4,525.5,340.6L525.5,340.6z"/>
</g>
<linearGradient id="Oval-11_1_" gradientUnits="userSpaceOnUse" x1="201.4746" y1="0.9314" x2="201.4746" y2="1.9314" gradientTransform="matrix(136 0 0 136 -26791 410)">
	<stop  offset="0" style="stop-color:#BFE662"/>
	<stop  offset="1" style="stop-color:#8BC933"/>
</linearGradient>
<circle id="Oval-11_3_" class="st4" cx="609.5" cy="604.7" r="68"/>
<g id="Combined-Shape_19_">
	
		<linearGradient id="SVGID_2_" gradientUnits="userSpaceOnUse" x1="495.9548" y1="3484.447" x2="495.9548" y2="3399.447" gradientTransform="matrix(-1 0 0 -1 1105.4987 4281.1133)">
		<stop  offset="0" style="stop-color:#4EC8E3"/>
		<stop  offset="1" style="stop-color:#FFFFFF"/>
	</linearGradient>
	<path class="st5" d="M693.5,868.8c-26.5,8.4-54.7,12.9-84,12.9s-57.5-4.5-84-12.9c6.2-40.8,41.5-72.1,84-72.1
		S687.3,828,693.5,868.8L693.5,868.8z"/>
</g>
<path id="Oval-8_11_" class="st6" d="M609.5,731.7c102.2,0,194.7-42.5,277.5-127.5c-82.8-85-175.3-127.5-277.5-127.5
	S414.8,519.2,332,604.2C414.8,689.2,507.3,731.7,609.5,731.7z"/>
<ellipse class="st7" cx="611" cy="1001.3" rx="253.6" ry="13.6"/>
<g>
	<linearGradient id="SVGID_3_" gradientUnits="userSpaceOnUse" x1="546.2883" y1="725.9161" x2="546.2888" y2="725.9161">
		<stop  offset="0" style="stop-color:#BFE662"/>
		<stop  offset="1" style="stop-color:#8BC933"/>
	</linearGradient>
	<polygon class="st8" points="546.3,725.9 546.3,725.9 546.3,725.9 	"/>
	<linearGradient id="SVGID_4_" gradientUnits="userSpaceOnUse" x1="673.799" y1="725.9161" x2="673.7995" y2="725.9161">
		<stop  offset="0" style="stop-color:#BFE662"/>
		<stop  offset="1" style="stop-color:#8BC933"/>
	</linearGradient>
	<polygon class="st9" points="673.8,725.9 673.8,725.9 673.8,725.9 	"/>
	<linearGradient id="SVGID_5_" gradientUnits="userSpaceOnUse" x1="673.799" y1="482.4161" x2="673.7995" y2="482.4161">
		<stop  offset="0" style="stop-color:#BFE662"/>
		<stop  offset="1" style="stop-color:#8BC933"/>
	</linearGradient>
	<polygon class="st10" points="673.8,482.4 673.8,482.4 673.8,482.4 	"/>
	<linearGradient id="SVGID_6_" gradientUnits="userSpaceOnUse" x1="546.2883" y1="482.4161" x2="546.2888" y2="482.4161">
		<stop  offset="0" style="stop-color:#BFE662"/>
		<stop  offset="1" style="stop-color:#8BC933"/>
	</linearGradient>
	<polygon class="st11" points="546.3,482.4 546.3,482.4 546.3,482.4 	"/>
	<linearGradient id="SVGID_7_" gradientUnits="userSpaceOnUse" x1="673.799" y1="725.9161" x2="673.799" y2="725.9161">
		<stop  offset="0" style="stop-color:#BFE662"/>
		<stop  offset="1" style="stop-color:#8BC933"/>
	</linearGradient>
	<path class="st12" d="M673.8,725.9"/>
	<linearGradient id="SVGID_8_" gradientUnits="userSpaceOnUse" x1="546.2888" y1="725.9161" x2="546.2888" y2="725.9161">
		<stop  offset="0" style="stop-color:#BFE662"/>
		<stop  offset="1" style="stop-color:#8BC933"/>
	</linearGradient>
	<path class="st13" d="M546.3,725.9"/>
	<linearGradient id="SVGID_9_" gradientUnits="userSpaceOnUse" x1="673.7995" y1="539.3668" x2="759.2498" y2="539.3668">
		<stop  offset="0" style="stop-color:#BFE662"/>
		<stop  offset="1" style="stop-color:#8BC933"/>
	</linearGradient>
	<path class="st14" d="M673.8,482.4c41.6,21.9,70.7,64.4,73.5,113.9h12c-2.2-42.5-22.3-80.4-52.8-106.2"/>
	<linearGradient id="SVGID_10_" gradientUnits="userSpaceOnUse" x1="460.838" y1="539.3668" x2="546.2883" y2="539.3668">
		<stop  offset="0" style="stop-color:#BFE662"/>
		<stop  offset="1" style="stop-color:#8BC933"/>
	</linearGradient>
	<path class="st15" d="M513.7,490.1c-30.6,25.8-50.6,63.7-52.8,106.2h12c2.8-49.5,31.9-92,73.5-113.9"/>
	<linearGradient id="SVGID_11_" gradientUnits="userSpaceOnUse" x1="673.7995" y1="668.9654" x2="759.2498" y2="668.9654">
		<stop  offset="0" style="stop-color:#BFE662"/>
		<stop  offset="1" style="stop-color:#8BC933"/>
	</linearGradient>
	<path class="st16" d="M706.4,718.3C737,692.4,757,654.5,759.2,612h-12c-2.8,49.5-31.9,92-73.5,113.9"/>
	<linearGradient id="SVGID_12_" gradientUnits="userSpaceOnUse" x1="460.838" y1="668.9654" x2="546.2883" y2="668.9654">
		<stop  offset="0" style="stop-color:#BFE662"/>
		<stop  offset="1" style="stop-color:#8BC933"/>
	</linearGradient>
	<path class="st17" d="M546.3,725.9c-41.6-21.9-70.7-64.4-73.5-113.9h-12c2.2,42.5,22.3,80.4,52.8,106.2"/>
	<linearGradient id="SVGID_13_" gradientUnits="userSpaceOnUse" x1="546.2888" y1="482.4161" x2="546.2888" y2="482.4161">
		<stop  offset="0" style="stop-color:#BFE662"/>
		<stop  offset="1" style="stop-color:#8BC933"/>
	</linearGradient>
	<path class="st18" d="M546.3,482.4"/>
	<linearGradient id="SVGID_14_" gradientUnits="userSpaceOnUse" x1="673.799" y1="482.4161" x2="673.799" y2="482.4161">
		<stop  offset="0" style="stop-color:#BFE662"/>
		<stop  offset="1" style="stop-color:#8BC933"/>
	</linearGradient>
	<path class="st19" d="M673.8,482.4"/>
</g>
</svg>
