<?xml version="1.0" encoding="utf-8"?>
<!-- Generator: Adobe Illustrator 19.2.0, SVG Export Plug-In . SVG Version: 6.00 Build 0)  -->
<svg version="1.1" id="Windscribe" xmlns="http://www.w3.org/2000/svg" xmlns:xlink="http://www.w3.org/1999/xlink" x="0px" y="0px"
	 viewBox="0 0 1200 1200" style="enable-background:new 0 0 1200 1200;" xml:space="preserve">
<style type="text/css">
	.st0{fill:url(#SVGID_1_);}
	.st1{fill:#FFFFFF;}
	.st2{fill:url(#SVGID_2_);}
</style>
<linearGradient id="SVGID_1_" gradientUnits="userSpaceOnUse" x1="360.5588" y1="598.3163" x2="849.3428" y2="598.3163">
	<stop  offset="0" style="stop-color:#54D2ED;stop-opacity:0.25"/>
	<stop  offset="3.000000e-02" style="stop-color:#54D2ED;stop-opacity:0.3"/>
	<stop  offset="0.14" style="stop-color:#54D2ED;stop-opacity:0.48"/>
	<stop  offset="0.26" style="stop-color:#54D2ED;stop-opacity:0.64"/>
	<stop  offset="0.39" style="stop-color:#54D2ED;stop-opacity:0.77"/>
	<stop  offset="0.52" style="stop-color:#54D2ED;stop-opacity:0.87"/>
	<stop  offset="0.66" style="stop-color:#54D2ED;stop-opacity:0.94"/>
	<stop  offset="0.81" style="stop-color:#54D2ED;stop-opacity:0.99"/>
	<stop  offset="1" style="stop-color:#54D2ED"/>
</linearGradient>
<path class="st0" d="M778.1,425.8l-172.7-71.9l-173,71.2l-71.9,172.7l71.2,173l172.7,71.9l173-71.2l71.9-172.7L778.1,425.8z"/>
<path class="st1" d="M850.3,354.8L605.6,252.9L360.5,353.8L258.6,598.5l100.9,245.1l244.7,101.9l245.1-100.9l101.9-244.7
	L850.3,354.8z M883.8,550.7l-186.7-44l-43.5-186.6l163.3,68L883.8,550.7z M393.9,387.3l164-67.5L513.7,507l-188,43.9L393.9,387.3z
	 M325.5,646.2l187.3,44.1l43.9,188.1L393,810.3L325.5,646.2z M816,811.1l-164.3,67.7l44.5-188.7l188.6-44L816,811.1z"/>
<path class="st1" d="M850.3,354.8L605.6,252.9L360.5,353.8L258.6,598.5l100.9,245.1l244.7,101.9l245.1-100.9l101.9-244.7
	L850.3,354.8z M816.9,388.1l66.9,162.5l-186.7-44l-43.5-186.6L816.9,388.1z M393.9,387.3l164-67.5L513.7,507l-188,43.9L393.9,387.3z
	 M393,810.3l-67.6-164.1l187.3,44.1l43.9,188.1L393,810.3z M604.3,910.6l-59-252.8l-251.9-59.3l252.8-59l59.3-251.9v-1.2l59,252.8
	l251.9,59.3l-252.8,59l-59.3,251.9V910.6z M816,811.1l-164.3,67.7l44.5-188.7l188.6-44L816,811.1z"/>
<linearGradient id="SVGID_2_" gradientUnits="userSpaceOnUse" x1="258.6272" y1="599.2068" x2="951.2744" y2="599.2068">
	<stop  offset="0" style="stop-color:#8AC831;stop-opacity:0.25"/>
	<stop  offset="3.000000e-02" style="stop-color:#8AC831;stop-opacity:0.29"/>
	<stop  offset="0.16" style="stop-color:#8AC831;stop-opacity:0.48"/>
	<stop  offset="0.31" style="stop-color:#8AC831;stop-opacity:0.63"/>
	<stop  offset="0.46" style="stop-color:#8AC831;stop-opacity:0.75"/>
	<stop  offset="0.61" style="stop-color:#8AC831;stop-opacity:0.83"/>
	<stop  offset="0.79" style="stop-color:#8AC831;stop-opacity:0.88"/>
	<stop  offset="1" style="stop-color:#8AC831;stop-opacity:0.9"/>
</linearGradient>
<path class="st2" d="M850.3,354.8L605.6,252.9L360.5,353.8L258.6,598.5l100.9,245.1l244.7,101.9l245.1-100.9l101.9-244.7
	L850.3,354.8z M816.9,388.1l66.9,162.5l-186.7-44l-43.5-186.6L816.9,388.1z M393.9,387.3l164-67.5L513.7,507l-188,43.9L393.9,387.3z
	 M393,810.3l-67.6-164.1l187.3,44.1l43.9,188.1L393,810.3z M604.3,910.6l-59-252.8l-251.9-59.3l252.8-59l59.3-251.9v-1.2l59,252.8
	l251.9,59.3l-252.8,59l-59.3,251.9V910.6z M816,811.1l-164.3,67.7l44.5-188.7l188.6-44L816,811.1z"/>
<title>Artboard 138</title>
</svg>
