<svg id="Windscribe" xmlns="http://www.w3.org/2000/svg" xmlns:xlink="http://www.w3.org/1999/xlink" viewBox="0 0 1280 1280"><defs><style>.cls-1,.cls-11,.cls-12,.cls-3,.cls-8,.cls-9{fill:none;stroke-linecap:round;stroke-linejoin:round;stroke-width:38.15px;}.cls-1{stroke:url(#linear-gradient);}.cls-2{fill:url(#linear-gradient-2);}.cls-3{stroke:#fff;}.cls-4{fill:#fff;}.cls-5{fill:url(#linear-gradient-3);}.cls-6{fill:#43567f;}.cls-7{fill:url(#linear-gradient-4);}.cls-8{stroke:url(#linear-gradient-5);}.cls-9{stroke:url(#linear-gradient-6);}.cls-10{fill:url(#linear-gradient-7);}.cls-11{stroke:url(#linear-gradient-8);}.cls-12{stroke:url(#linear-gradient-9);}.cls-13{fill:url(#linear-gradient-10);}.cls-14{fill:url(#linear-gradient-11);}.cls-15{fill:url(#linear-gradient-12);}.cls-16{fill:url(#linear-gradient-13);}.cls-17{fill:url(#linear-gradient-14);}.cls-18{fill:url(#linear-gradient-15);}.cls-19{fill:url(#linear-gradient-16);}.cls-20{fill:url(#linear-gradient-17);}.cls-21{fill:url(#linear-gradient-18);}.cls-22{fill:url(#linear-gradient-19);}.cls-23{fill:url(#linear-gradient-20);}.cls-24{fill:url(#linear-gradient-21);}</style><linearGradient id="linear-gradient" x1="-1173.51" y1="333.28" x2="-928.53" y2="333.28" gradientTransform="matrix(1, 0, 0, -1, 1967.53, 787.57)" gradientUnits="userSpaceOnUse"><stop offset="0" stop-color="#54d2ed" stop-opacity="0.5"/><stop offset="0.13" stop-color="#54d2ed" stop-opacity="0.64"/><stop offset="0.28" stop-color="#54d2ed" stop-opacity="0.77"/><stop offset="0.43" stop-color="#54d2ed" stop-opacity="0.87"/><stop offset="0.6" stop-color="#54d2ed" stop-opacity="0.94"/><stop offset="0.78" stop-color="#54d2ed" stop-opacity="0.99"/><stop offset="1" stop-color="#54d2ed"/></linearGradient><linearGradient id="linear-gradient-2" x1="492.31" y1="531.94" x2="746.48" y2="531.94" gradientUnits="userSpaceOnUse"><stop offset="0" stop-color="#4ec8e3" stop-opacity="0.25"/><stop offset="0.03" stop-color="#4ec8e3" stop-opacity="0.32"/><stop offset="0.14" stop-color="#4ec8e3" stop-opacity="0.5"/><stop offset="0.25" stop-color="#4ec8e3" stop-opacity="0.65"/><stop offset="0.37" stop-color="#4ec8e3" stop-opacity="0.78"/><stop offset="0.49" stop-color="#4ec8e3" stop-opacity="0.88"/><stop offset="0.63" stop-color="#4ec8e3" stop-opacity="0.95"/><stop offset="0.78" stop-color="#4ec8e3" stop-opacity="0.99"/><stop offset="1" stop-color="#4ec8e3"/></linearGradient><linearGradient id="linear-gradient-3" x1="-65.78" y1="767.67" x2="286.96" y2="767.67" gradientTransform="translate(508.81)" gradientUnits="userSpaceOnUse"><stop offset="0" stop-color="#8ac831" stop-opacity="0.25"/><stop offset="0.08" stop-color="#8ac831" stop-opacity="0.39"/><stop offset="0.21" stop-color="#8ac831" stop-opacity="0.58"/><stop offset="0.35" stop-color="#8ac831" stop-opacity="0.73"/><stop offset="0.49" stop-color="#8ac831" stop-opacity="0.85"/><stop offset="0.64" stop-color="#8ac831" stop-opacity="0.93"/><stop offset="0.8" stop-color="#8ac831" stop-opacity="0.98"/><stop offset="1" stop-color="#8ac831"/></linearGradient><linearGradient id="linear-gradient-4" x1="587.68" y1="777.82" x2="651.12" y2="777.82" gradientUnits="userSpaceOnUse"><stop offset="0" stop-color="#4ec8e3" stop-opacity="0"/><stop offset="0.09" stop-color="#4ec8e3" stop-opacity="0.14"/><stop offset="0.27" stop-color="#4ec8e3" stop-opacity="0.4"/><stop offset="0.45" stop-color="#4ec8e3" stop-opacity="0.62"/><stop offset="0.61" stop-color="#4ec8e3" stop-opacity="0.78"/><stop offset="0.76" stop-color="#4ec8e3" stop-opacity="0.9"/><stop offset="0.9" stop-color="#4ec8e3" stop-opacity="0.97"/><stop offset="1" stop-color="#4ec8e3"/></linearGradient><linearGradient id="linear-gradient-5" x1="-876.4" y1="333.28" x2="-631.43" y2="333.28" gradientTransform="matrix(1, 0, 0, -1, 1373.31, 787.57)" xlink:href="#linear-gradient"/><linearGradient id="linear-gradient-6" x1="-579.29" y1="333.28" x2="-334.32" y2="333.28" gradientTransform="matrix(1, 0, 0, -1, 779.1, 787.57)" xlink:href="#linear-gradient"/><linearGradient id="linear-gradient-7" x1="492.31" y1="531.94" x2="746.48" y2="531.94" gradientUnits="userSpaceOnUse"><stop offset="0" stop-color="#4ec8e3" stop-opacity="0"/><stop offset="0.04" stop-color="#4ec8e3" stop-opacity="0.1"/><stop offset="0.13" stop-color="#4ec8e3" stop-opacity="0.31"/><stop offset="0.23" stop-color="#4ec8e3" stop-opacity="0.5"/><stop offset="0.33" stop-color="#4ec8e3" stop-opacity="0.65"/><stop offset="0.43" stop-color="#4ec8e3" stop-opacity="0.78"/><stop offset="0.54" stop-color="#4ec8e3" stop-opacity="0.88"/><stop offset="0.67" stop-color="#4ec8e3" stop-opacity="0.95"/><stop offset="0.81" stop-color="#4ec8e3" stop-opacity="0.99"/><stop offset="1" stop-color="#4ec8e3"/></linearGradient><linearGradient id="linear-gradient-8" x1="-1877.31" y1="333.28" x2="-1680.34" y2="333.28" gradientTransform="translate(2215.4 121)" xlink:href="#linear-gradient"/><linearGradient id="linear-gradient-9" x1="-2248.99" y1="333.28" x2="-2052.02" y2="333.28" gradientTransform="translate(2952.72 121)" xlink:href="#linear-gradient"/><linearGradient id="linear-gradient-10" x1="707.14" y1="339.18" x2="731.34" y2="339.18" gradientUnits="userSpaceOnUse"><stop offset="0" stop-color="#8ac831" stop-opacity="0.5"/><stop offset="0.07" stop-color="#8ac831" stop-opacity="0.58"/><stop offset="0.23" stop-color="#8ac831" stop-opacity="0.73"/><stop offset="0.39" stop-color="#8ac831" stop-opacity="0.85"/><stop offset="0.57" stop-color="#8ac831" stop-opacity="0.93"/><stop offset="0.76" stop-color="#8ac831" stop-opacity="0.98"/><stop offset="1" stop-color="#8ac831"/></linearGradient><linearGradient id="linear-gradient-11" x1="821.04" y1="283.71" x2="869.44" y2="283.71" gradientTransform="matrix(1, 0, 0, 1, 0, 0)" xlink:href="#linear-gradient"/><linearGradient id="linear-gradient-12" x1="563.48" y1="1011.32" x2="611.88" y2="1011.32" gradientTransform="matrix(1, 0, 0, 1, 0, 0)" xlink:href="#linear-gradient"/><linearGradient id="linear-gradient-13" x1="861.26" y1="841.1" x2="944.62" y2="841.1" gradientTransform="matrix(1, 0, 0, 1, 0, 0)" xlink:href="#linear-gradient"/><linearGradient id="linear-gradient-14" x1="853.26" y1="620.02" x2="877.46" y2="620.02" gradientTransform="matrix(1, 0, 0, 1, 0, 0)" xlink:href="#linear-gradient"/><linearGradient id="linear-gradient-15" x1="922.6" y1="676.28" x2="975.76" y2="676.28" xlink:href="#linear-gradient-10"/><linearGradient id="linear-gradient-16" x1="270.19" y1="782" x2="294.39" y2="782" xlink:href="#linear-gradient-10"/><linearGradient id="linear-gradient-17" x1="365.07" y1="314.71" x2="389.27" y2="314.71" gradientTransform="matrix(1, 0, 0, 1, 0, 0)" xlink:href="#linear-gradient"/><linearGradient id="linear-gradient-18" x1="320.87" y1="639.98" x2="393.47" y2="639.98" gradientTransform="matrix(1, 0, 0, 1, 0, 0)" xlink:href="#linear-gradient"/><linearGradient id="linear-gradient-19" x1="519.56" y1="278.68" x2="592.16" y2="278.68" xlink:href="#linear-gradient-10"/><linearGradient id="linear-gradient-20" x1="744.38" y1="970.51" x2="768.58" y2="970.51" xlink:href="#linear-gradient-10"/><linearGradient id="linear-gradient-21" x1="355.07" y1="943.31" x2="379.27" y2="943.31" gradientTransform="matrix(1, 0, 0, 1, 0, 0)" xlink:href="#linear-gradient"/></defs><title>Artboard 157</title><rect class="cls-1" x="813.09" y="400.13" width="206.83" height="108.32" rx="54.16" ry="54.16" transform="translate(1833.01 908.57) rotate(-180)"/><path class="cls-2" d="M492.31,562.24v66.47h42.36V562.24a84.82,84.82,0,0,1,84.73-84.73V435.16A127.23,127.23,0,0,0,492.31,562.24Z"/><rect class="cls-3" x="515.98" y="400.13" width="206.83" height="108.32" rx="54.16" ry="54.16" transform="translate(1238.8 908.57) rotate(-180)"/><rect class="cls-4" x="443.03" y="628.72" width="352.74" height="277.92" rx="32.85" ry="32.85"/><rect class="cls-5" x="443.03" y="628.72" width="352.74" height="277.92" rx="32.85" ry="32.85"/><path class="cls-4" d="M619.4,721.26A31.72,31.72,0,0,0,604.52,781v38.49a14.88,14.88,0,0,0,29.75,0V781a31.72,31.72,0,0,0-14.88-59.74Z"/><path class="cls-6" d="M619.4,721.26A31.72,31.72,0,0,0,604.52,781v38.49a14.88,14.88,0,0,0,29.75,0V781a31.72,31.72,0,0,0-14.88-59.74Z"/><path class="cls-7" d="M619.4,721.26A31.72,31.72,0,0,0,604.52,781v38.49a14.88,14.88,0,0,0,29.75,0V781a31.72,31.72,0,0,0-14.88-59.74Z"/><rect class="cls-8" x="515.98" y="400.13" width="206.83" height="108.32" rx="54.16" ry="54.16" transform="translate(1238.8 908.57) rotate(-180)"/><rect class="cls-9" x="218.88" y="400.13" width="206.83" height="108.32" rx="54.16" ry="54.16" transform="translate(644.58 908.57) rotate(-180)"/><path class="cls-10" d="M619.4,435.16v42.36a84.82,84.82,0,0,1,84.73,84.73v66.47h42.36V562.24A127.23,127.23,0,0,0,619.4,435.16Z"/><polyline class="cls-11" points="357.17 454.28 391.34 454.28 515.98 454.28"/><polyline class="cls-12" points="722.81 454.28 825.52 454.28 881.63 454.28"/><circle class="cls-13" cx="719.24" cy="339.18" r="12.1"/><polygon class="cls-14" points="821.04 283.7 839.2 277.65 845.25 259.5 851.29 277.65 869.45 283.7 851.29 289.75 845.25 307.9 839.2 289.75 821.04 283.7"/><polygon class="cls-15" points="563.48 1011.32 581.63 1005.27 587.68 987.12 593.73 1005.27 611.88 1011.32 593.73 1017.37 587.68 1035.52 581.63 1017.37 563.48 1011.32"/><polygon class="cls-16" points="861.26 841.1 892.52 830.68 902.94 799.42 913.36 830.68 944.62 841.1 913.36 851.52 902.94 882.78 892.52 851.52 861.26 841.1"/><circle class="cls-17" cx="865.36" cy="620.02" r="12.1"/><polygon class="cls-18" points="922.61 676.28 942.54 669.63 949.18 649.7 955.83 669.63 975.76 676.28 955.83 682.92 949.18 702.86 942.54 682.92 922.61 676.28"/><circle class="cls-19" cx="282.29" cy="782" r="12.1"/><circle class="cls-20" cx="377.17" cy="314.71" r="12.1"/><polygon class="cls-21" points="320.87 639.98 348.09 630.9 357.17 603.68 366.24 630.9 393.47 639.98 366.24 649.05 357.17 676.28 348.09 649.05 320.87 639.98"/><polygon class="cls-22" points="519.56 278.68 546.78 269.61 555.86 242.38 564.93 269.61 592.16 278.68 564.93 287.75 555.86 314.98 546.78 287.75 519.56 278.68"/><circle class="cls-23" cx="756.48" cy="970.51" r="12.1"/><circle class="cls-24" cx="367.17" cy="943.31" r="12.1"/><circle class="cls-4" cx="1051.12" cy="580.01" r="12.1"/></svg>