<svg id="Windscribe" xmlns="http://www.w3.org/2000/svg" xmlns:xlink="http://www.w3.org/1999/xlink" viewBox="0 0 1200 1200"><defs><style>.cls-1,.cls-11,.cls-12,.cls-3,.cls-8,.cls-9{fill:none;stroke-linecap:round;stroke-linejoin:round;stroke-width:37.01px;}.cls-1{stroke:url(#linear-gradient);}.cls-2{fill:url(#linear-gradient-2);}.cls-3{stroke:#fff;}.cls-4{fill:#fff;}.cls-5{fill:url(#linear-gradient-3);}.cls-6{fill:#43567f;}.cls-7{fill:url(#linear-gradient-4);}.cls-8{stroke:url(#linear-gradient-5);}.cls-9{stroke:url(#linear-gradient-6);}.cls-10{fill:url(#linear-gradient-7);}.cls-11{stroke:url(#linear-gradient-8);}.cls-12{stroke:url(#linear-gradient-9);}</style><linearGradient id="linear-gradient" x1="-2381.25" y1="329.96" x2="-2143.57" y2="329.96" gradientTransform="matrix(1, 0, 0, -1, 3165.51, 780.93)" gradientUnits="userSpaceOnUse"><stop offset="0" stop-color="#54d2ed" stop-opacity="0.5"/><stop offset="0.13" stop-color="#54d2ed" stop-opacity="0.64"/><stop offset="0.28" stop-color="#54d2ed" stop-opacity="0.77"/><stop offset="0.43" stop-color="#54d2ed" stop-opacity="0.87"/><stop offset="0.6" stop-color="#54d2ed" stop-opacity="0.94"/><stop offset="0.78" stop-color="#54d2ed" stop-opacity="0.99"/><stop offset="1" stop-color="#54d2ed"/></linearGradient><linearGradient id="linear-gradient-2" x1="491.56" y1="526.3" x2="738.15" y2="526.3" gradientUnits="userSpaceOnUse"><stop offset="0" stop-color="#4ec8e3" stop-opacity="0.25"/><stop offset="0.03" stop-color="#4ec8e3" stop-opacity="0.32"/><stop offset="0.14" stop-color="#4ec8e3" stop-opacity="0.5"/><stop offset="0.25" stop-color="#4ec8e3" stop-opacity="0.65"/><stop offset="0.37" stop-color="#4ec8e3" stop-opacity="0.78"/><stop offset="0.49" stop-color="#4ec8e3" stop-opacity="0.88"/><stop offset="0.63" stop-color="#4ec8e3" stop-opacity="0.95"/><stop offset="0.78" stop-color="#4ec8e3" stop-opacity="0.99"/><stop offset="1" stop-color="#4ec8e3"/></linearGradient><linearGradient id="linear-gradient-3" x1="-65.07" y1="755.01" x2="277.15" y2="755.01" gradientTransform="translate(508.81)" gradientUnits="userSpaceOnUse"><stop offset="0" stop-color="#8ac831" stop-opacity="0.25"/><stop offset="0.08" stop-color="#8ac831" stop-opacity="0.39"/><stop offset="0.21" stop-color="#8ac831" stop-opacity="0.58"/><stop offset="0.35" stop-color="#8ac831" stop-opacity="0.73"/><stop offset="0.49" stop-color="#8ac831" stop-opacity="0.85"/><stop offset="0.64" stop-color="#8ac831" stop-opacity="0.93"/><stop offset="0.8" stop-color="#8ac831" stop-opacity="0.98"/><stop offset="1" stop-color="#8ac831"/></linearGradient><linearGradient id="linear-gradient-4" x1="584.07" y1="764.85" x2="645.63" y2="764.85" gradientUnits="userSpaceOnUse"><stop offset="0" stop-color="#4ec8e3" stop-opacity="0"/><stop offset="0.09" stop-color="#4ec8e3" stop-opacity="0.14"/><stop offset="0.27" stop-color="#4ec8e3" stop-opacity="0.4"/><stop offset="0.45" stop-color="#4ec8e3" stop-opacity="0.62"/><stop offset="0.61" stop-color="#4ec8e3" stop-opacity="0.78"/><stop offset="0.76" stop-color="#4ec8e3" stop-opacity="0.9"/><stop offset="0.9" stop-color="#4ec8e3" stop-opacity="0.97"/><stop offset="1" stop-color="#4ec8e3"/></linearGradient><linearGradient id="linear-gradient-5" x1="-2093" y1="329.96" x2="-1855.33" y2="329.96" gradientTransform="matrix(1, 0, 0, -1, 2589.01, 780.93)" xlink:href="#linear-gradient"/><linearGradient id="linear-gradient-6" x1="-1804.75" y1="329.96" x2="-1567.08" y2="329.96" gradientTransform="matrix(1, 0, 0, -1, 2012.52, 780.93)" xlink:href="#linear-gradient"/><linearGradient id="linear-gradient-7" x1="491.56" y1="526.3" x2="738.15" y2="526.3" gradientUnits="userSpaceOnUse"><stop offset="0" stop-color="#4ec8e3" stop-opacity="0"/><stop offset="0.04" stop-color="#4ec8e3" stop-opacity="0.1"/><stop offset="0.13" stop-color="#4ec8e3" stop-opacity="0.31"/><stop offset="0.23" stop-color="#4ec8e3" stop-opacity="0.5"/><stop offset="0.33" stop-color="#4ec8e3" stop-opacity="0.65"/><stop offset="0.43" stop-color="#4ec8e3" stop-opacity="0.78"/><stop offset="0.54" stop-color="#4ec8e3" stop-opacity="0.88"/><stop offset="0.67" stop-color="#4ec8e3" stop-opacity="0.95"/><stop offset="0.81" stop-color="#4ec8e3" stop-opacity="0.99"/><stop offset="1" stop-color="#4ec8e3"/></linearGradient><linearGradient id="linear-gradient-8" x1="-1873.47" y1="329.96" x2="-1682.38" y2="329.96" gradientTransform="translate(2215.4 121)" xlink:href="#linear-gradient"/><linearGradient id="linear-gradient-9" x1="-2256.05" y1="329.96" x2="-2064.96" y2="329.96" gradientTransform="translate(2952.72 121)" xlink:href="#linear-gradient"/></defs><title>Artboard 135</title><rect class="cls-1" x="802.77" y="398.42" width="200.66" height="105.09" rx="52.54" ry="52.54" transform="translate(1806.2 901.93) rotate(-180)"/><path class="cls-2" d="M491.56,555.7v64.49h41.09V555.7a82.29,82.29,0,0,1,82.2-82.2v-41.1A123.44,123.44,0,0,0,491.56,555.7Z"/><rect class="cls-3" x="514.52" y="398.42" width="200.66" height="105.09" rx="52.54" ry="52.54" transform="translate(1229.7 901.93) rotate(180)"/><rect class="cls-4" x="443.74" y="620.19" width="342.22" height="269.63" rx="31.87" ry="31.87"/><rect class="cls-5" x="443.74" y="620.19" width="342.22" height="269.63" rx="31.87" ry="31.87"/><path class="cls-4" d="M614.85,710a30.78,30.78,0,0,0-14.43,58v37.34a14.43,14.43,0,0,0,28.87,0V767.94a30.78,30.78,0,0,0-14.43-58Z"/><path class="cls-6" d="M614.85,710a30.78,30.78,0,0,0-14.43,58v37.34a14.43,14.43,0,0,0,28.87,0V767.94a30.78,30.78,0,0,0-14.43-58Z"/><path class="cls-7" d="M614.85,710a30.78,30.78,0,0,0-14.43,58v37.34a14.43,14.43,0,0,0,28.87,0V767.94a30.78,30.78,0,0,0-14.43-58Z"/><rect class="cls-8" x="514.52" y="398.42" width="200.66" height="105.09" rx="52.54" ry="52.54" transform="translate(1229.7 901.93) rotate(180)"/><rect class="cls-9" x="226.27" y="398.42" width="200.66" height="105.09" rx="52.54" ry="52.54" transform="translate(653.21 901.93) rotate(-180)"/><path class="cls-10" d="M614.85,432.41v41.1a82.29,82.29,0,0,1,82.2,82.2v64.49h41.09V555.7A123.43,123.43,0,0,0,614.85,432.41Z"/><polyline class="cls-11" points="360.44 450.96 393.59 450.96 514.52 450.96"/><polyline class="cls-12" points="715.18 450.96 814.83 450.96 869.26 450.96"/></svg>