<svg id="Windscribe" xmlns="http://www.w3.org/2000/svg" xmlns:xlink="http://www.w3.org/1999/xlink" viewBox="0 0 1280 1280"><defs><style>.cls-1{fill:url(#linear-gradient);}.cls-2{fill:url(#linear-gradient-2);}.cls-3{fill:url(#linear-gradient-3);}.cls-4{fill:url(#linear-gradient-4);}.cls-5{fill:url(#linear-gradient-5);}.cls-6{fill:url(#linear-gradient-6);}.cls-7{fill:url(#linear-gradient-7);}.cls-8{fill:url(#linear-gradient-8);}.cls-9{fill:url(#linear-gradient-9);}.cls-10{fill:url(#linear-gradient-10);}.cls-11{fill:url(#linear-gradient-11);}.cls-12{fill:url(#linear-gradient-12);}.cls-13{fill:url(#linear-gradient-13);}.cls-14{fill:url(#linear-gradient-14);}.cls-15{fill:url(#linear-gradient-15);}.cls-16{fill:url(#linear-gradient-16);}.cls-17{fill:#43567f;}.cls-18{fill:url(#linear-gradient-17);}.cls-19{fill:url(#linear-gradient-18);}.cls-20{fill:url(#linear-gradient-19);}.cls-21{fill:#fff;}.cls-22{fill:url(#linear-gradient-20);}.cls-23{fill:url(#linear-gradient-21);}.cls-24{fill:url(#linear-gradient-22);}.cls-25{fill:url(#linear-gradient-23);}.cls-26{fill:url(#linear-gradient-24);}.cls-27{fill:url(#linear-gradient-25);}</style><linearGradient id="linear-gradient" x1="1098.91" y1="874.39" x2="1121.71" y2="874.39" gradientUnits="userSpaceOnUse"><stop offset="0" stop-color="#54d2ed" stop-opacity="0.5"/><stop offset="0.13" stop-color="#54d2ed" stop-opacity="0.64"/><stop offset="0.28" stop-color="#54d2ed" stop-opacity="0.77"/><stop offset="0.43" stop-color="#54d2ed" stop-opacity="0.87"/><stop offset="0.6" stop-color="#54d2ed" stop-opacity="0.94"/><stop offset="0.78" stop-color="#54d2ed" stop-opacity="0.99"/><stop offset="1" stop-color="#54d2ed"/></linearGradient><linearGradient id="linear-gradient-2" x1="783.61" y1="312.83" x2="829.21" y2="312.83" xlink:href="#linear-gradient"/><linearGradient id="linear-gradient-3" x1="742.29" y1="1008.12" x2="812.25" y2="1008.12" gradientUnits="userSpaceOnUse"><stop offset="0" stop-color="#8ac831" stop-opacity="0.5"/><stop offset="0.07" stop-color="#8ac831" stop-opacity="0.58"/><stop offset="0.23" stop-color="#8ac831" stop-opacity="0.73"/><stop offset="0.39" stop-color="#8ac831" stop-opacity="0.85"/><stop offset="0.57" stop-color="#8ac831" stop-opacity="0.93"/><stop offset="0.76" stop-color="#8ac831" stop-opacity="0.98"/><stop offset="1" stop-color="#8ac831"/></linearGradient><linearGradient id="linear-gradient-4" x1="607.69" y1="969.79" x2="630.49" y2="969.79" xlink:href="#linear-gradient-3"/><linearGradient id="linear-gradient-5" x1="1011.13" y1="539.32" x2="1048.24" y2="539.32" xlink:href="#linear-gradient-3"/><linearGradient id="linear-gradient-6" x1="918.08" y1="969.79" x2="973.74" y2="969.79" xlink:href="#linear-gradient"/><linearGradient id="linear-gradient-7" x1="1012.28" y1="341.15" x2="1035.08" y2="341.15" xlink:href="#linear-gradient"/><linearGradient id="linear-gradient-8" x1="892.48" y1="279.06" x2="915.28" y2="279.06" xlink:href="#linear-gradient-3"/><linearGradient id="linear-gradient-9" x1="1056.01" y1="656.09" x2="1124.41" y2="656.09" xlink:href="#linear-gradient-3"/><linearGradient id="linear-gradient-10" x1="217.31" y1="354.36" x2="240.1" y2="354.36" xlink:href="#linear-gradient"/><linearGradient id="linear-gradient-11" x1="448.81" y1="1015.24" x2="471.6" y2="1015.24" xlink:href="#linear-gradient"/><linearGradient id="linear-gradient-12" x1="171.4" y1="747.67" x2="194.19" y2="747.67" xlink:href="#linear-gradient-3"/><linearGradient id="linear-gradient-13" x1="398.01" y1="293.99" x2="453.66" y2="293.99" xlink:href="#linear-gradient"/><linearGradient id="linear-gradient-14" x1="268.03" y1="977.46" x2="323.68" y2="977.46" xlink:href="#linear-gradient-3"/><linearGradient id="linear-gradient-15" x1="200.88" y1="570.86" x2="256.53" y2="570.86" xlink:href="#linear-gradient-3"/><linearGradient id="linear-gradient-16" x1="330.04" y1="593.85" x2="941.09" y2="593.85" gradientUnits="userSpaceOnUse"><stop offset="0" stop-color="#fff"/><stop offset="0.18" stop-color="#cef2fa"/><stop offset="0.36" stop-color="#a3e7f5"/><stop offset="0.54" stop-color="#80def2"/><stop offset="0.72" stop-color="#68d7ef"/><stop offset="0.87" stop-color="#59d3ee"/><stop offset="1" stop-color="#54d2ed"/></linearGradient><linearGradient id="linear-gradient-17" x1="-4183.99" y1="761.14" x2="-3639.91" y2="425.79" gradientTransform="matrix(0, 1, 1, 0, 41.72, 4506.41)" gradientUnits="userSpaceOnUse"><stop offset="0" stop-color="#4ec8e3" stop-opacity="0"/><stop offset="0.05" stop-color="#4ec8e3" stop-opacity="0.14"/><stop offset="0.14" stop-color="#4ec8e3" stop-opacity="0.4"/><stop offset="0.22" stop-color="#4ec8e3" stop-opacity="0.62"/><stop offset="0.31" stop-color="#4ec8e3" stop-opacity="0.78"/><stop offset="0.38" stop-color="#4ec8e3" stop-opacity="0.9"/><stop offset="0.45" stop-color="#4ec8e3" stop-opacity="0.97"/><stop offset="0.5" stop-color="#4ec8e3"/><stop offset="1" stop-color="#4ec8e3" stop-opacity="0"/></linearGradient><linearGradient id="linear-gradient-18" x1="260.21" y1="844.59" x2="1010.93" y2="844.59" gradientUnits="userSpaceOnUse"><stop offset="0" stop-color="#b9e84f"/><stop offset="0.03" stop-color="#b6e64d"/><stop offset="0.39" stop-color="#9ed63e"/><stop offset="0.73" stop-color="#8fcb34"/><stop offset="1" stop-color="#8ac831"/></linearGradient><linearGradient id="linear-gradient-19" x1="273.3" y1="844.59" x2="997.83" y2="844.59" xlink:href="#linear-gradient-18"/><linearGradient id="linear-gradient-20" x1="31.81" y1="400.61" x2="221.71" y2="400.61" gradientTransform="translate(508.81)" gradientUnits="userSpaceOnUse"><stop offset="0" stop-color="#fff"/><stop offset="0.09" stop-color="#eef7e1"/><stop offset="0.26" stop-color="#d0e9ac"/><stop offset="0.43" stop-color="#b7dd80"/><stop offset="0.59" stop-color="#a3d45d"/><stop offset="0.74" stop-color="#95cd45"/><stop offset="0.88" stop-color="#8dc936"/><stop offset="1" stop-color="#8ac831"/></linearGradient><linearGradient id="linear-gradient-21" x1="618.49" y1="406.07" x2="652.65" y2="406.07" gradientUnits="userSpaceOnUse"><stop offset="0" stop-color="#4ec8e3" stop-opacity="0"/><stop offset="0.09" stop-color="#4ec8e3" stop-opacity="0.14"/><stop offset="0.27" stop-color="#4ec8e3" stop-opacity="0.4"/><stop offset="0.45" stop-color="#4ec8e3" stop-opacity="0.62"/><stop offset="0.61" stop-color="#4ec8e3" stop-opacity="0.78"/><stop offset="0.76" stop-color="#4ec8e3" stop-opacity="0.9"/><stop offset="0.9" stop-color="#4ec8e3" stop-opacity="0.97"/><stop offset="1" stop-color="#4ec8e3"/></linearGradient><linearGradient id="linear-gradient-22" x1="567.15" y1="273.7" x2="703.98" y2="273.7" gradientUnits="userSpaceOnUse"><stop offset="0" stop-color="#4ec8e3" stop-opacity="0.25"/><stop offset="0.06" stop-color="#4ec8e3" stop-opacity="0.38"/><stop offset="0.15" stop-color="#4ec8e3" stop-opacity="0.54"/><stop offset="0.24" stop-color="#4ec8e3" stop-opacity="0.68"/><stop offset="0.35" stop-color="#4ec8e3" stop-opacity="0.8"/><stop offset="0.46" stop-color="#4ec8e3" stop-opacity="0.89"/><stop offset="0.59" stop-color="#4ec8e3" stop-opacity="0.95"/><stop offset="0.74" stop-color="#4ec8e3" stop-opacity="0.99"/><stop offset="1" stop-color="#4ec8e3"/></linearGradient><linearGradient id="linear-gradient-23" x1="566.13" y1="645.31" x2="705.01" y2="645.31" gradientUnits="userSpaceOnUse"><stop offset="0" stop-color="#4ec8e3" stop-opacity="0"/><stop offset="0.07" stop-color="#4ec8e3" stop-opacity="0.16"/><stop offset="0.17" stop-color="#4ec8e3" stop-opacity="0.37"/><stop offset="0.27" stop-color="#4ec8e3" stop-opacity="0.53"/><stop offset="0.36" stop-color="#4ec8e3" stop-opacity="0.65"/><stop offset="0.44" stop-color="#4ec8e3" stop-opacity="0.72"/><stop offset="0.5" stop-color="#4ec8e3" stop-opacity="0.75"/><stop offset="1" stop-color="#4ec8e3" stop-opacity="0"/></linearGradient><linearGradient id="linear-gradient-24" x1="529.72" y1="601.37" x2="741.41" y2="601.37" xlink:href="#linear-gradient-23"/><linearGradient id="linear-gradient-25" x1="493.32" y1="557.44" x2="777.82" y2="557.44" xlink:href="#linear-gradient-23"/></defs><title>Artboard 149</title><circle class="cls-1" cx="1110.31" cy="874.39" r="11.4"/><polygon class="cls-2" points="783.61 312.83 800.71 307.13 806.41 290.03 812.11 307.13 829.21 312.83 812.11 318.53 806.41 335.63 800.71 318.53 783.61 312.83"/><polygon class="cls-3" points="742.29 1008.12 768.53 999.38 777.27 973.14 786.02 999.38 812.25 1008.12 786.02 1016.87 777.27 1043.1 768.53 1016.87 742.29 1008.12"/><circle class="cls-4" cx="619.09" cy="969.79" r="11.4"/><polygon class="cls-5" points="1011.13 539.32 1025.05 534.69 1029.69 520.77 1034.32 534.69 1048.24 539.32 1034.32 543.96 1029.69 557.88 1025.05 543.96 1011.13 539.32"/><polygon class="cls-6" points="918.08 969.79 938.95 962.84 945.91 941.97 952.87 962.84 973.74 969.79 952.87 976.75 945.91 997.62 938.95 976.75 918.08 969.79"/><circle class="cls-7" cx="1023.68" cy="341.15" r="11.4"/><circle class="cls-8" cx="903.88" cy="279.06" r="11.4"/><polygon class="cls-9" points="1056.01 656.09 1081.66 647.54 1090.21 621.89 1098.76 647.54 1124.41 656.09 1098.76 664.64 1090.21 690.29 1081.66 664.64 1056.01 656.09"/><circle class="cls-10" cx="228.71" cy="354.36" r="11.4"/><circle class="cls-11" cx="460.2" cy="1015.24" r="11.4"/><circle class="cls-12" cx="182.8" cy="747.67" r="11.4"/><polygon class="cls-13" points="398.01 293.99 418.88 287.03 425.84 266.16 432.79 287.03 453.66 293.99 432.79 300.94 425.84 321.81 418.88 300.94 398.01 293.99"/><polygon class="cls-14" points="268.03 977.46 288.9 970.5 295.85 949.63 302.81 970.5 323.68 977.46 302.81 984.42 295.85 1005.29 288.9 984.42 268.03 977.46"/><polygon class="cls-15" points="200.88 570.86 221.75 563.9 228.71 543.03 235.66 563.9 256.53 570.86 235.66 577.81 228.71 598.68 221.75 577.81 200.88 570.86"/><path class="cls-16" d="M362.47,397.44H908.66a32.43,32.43,0,0,1,32.43,32.43V790.25a0,0,0,0,1,0,0H330a0,0,0,0,1,0,0V429.87a32.43,32.43,0,0,1,32.43-32.43Z"/><path class="cls-17" d="M362.47,397.44H908.66a32.43,32.43,0,0,1,32.43,32.43V790.25a0,0,0,0,1,0,0H330a0,0,0,0,1,0,0V429.87a32.43,32.43,0,0,1,32.43-32.43Z"/><rect class="cls-18" x="468.75" y="320.09" width="333.63" height="547.5" transform="translate(1229.41 -41.72) rotate(90)"/><path class="cls-19" d="M690.13,813v6.55A17.46,17.46,0,0,1,672.67,837h-74.2A17.46,17.46,0,0,1,581,819.5V813H260.21V826a50.25,50.25,0,0,0,50.19,50.19H960.73A50.25,50.25,0,0,0,1010.93,826V813Z"/><path class="cls-20" d="M997.83,826a37.09,37.09,0,0,1-37.1,37.1H310.4A37.1,37.1,0,0,1,273.3,826h309A17.44,17.44,0,0,0,598.47,837h74.2A17.47,17.47,0,0,0,688.85,826Z"/><path class="cls-21" d="M704,325.8h-22.8V290A45.61,45.61,0,0,0,590,290V325.8h-22.8V290A68.42,68.42,0,1,1,704,290Z"/><rect class="cls-21" x="540.62" y="325.8" width="189.9" height="149.62" rx="18.77" ry="18.77"/><rect class="cls-22" x="540.62" y="325.8" width="189.9" height="149.62" rx="18.77" ry="18.77"/><path class="cls-21" d="M635.57,375.62a17.08,17.08,0,0,0-8,32.16V428.5a8,8,0,0,0,16,0V407.78a17.08,17.08,0,0,0-8-32.16Z"/><path class="cls-17" d="M635.57,375.62a17.08,17.08,0,0,0-8,32.16V428.5a8,8,0,0,0,16,0V407.78a17.08,17.08,0,0,0-8-32.16Z"/><path class="cls-23" d="M635.57,375.62a17.08,17.08,0,0,0-8,32.16V428.5a8,8,0,0,0,16,0V407.78a17.08,17.08,0,0,0-8-32.16Z"/><path class="cls-24" d="M704,325.8h-22.8V290A45.61,45.61,0,0,0,590,290V325.8h-22.8V290A68.42,68.42,0,1,1,704,290Z"/><path class="cls-21" d="M694.08,668.33a10.9,10.9,0,0,1-7.73-3.2,71.89,71.89,0,0,0-101.55,0,10.93,10.93,0,0,1-15.46-15.46,93.78,93.78,0,0,1,132.47,0,10.93,10.93,0,0,1-7.73,18.66Z"/><path class="cls-21" d="M730.48,631.93a10.9,10.9,0,0,1-7.73-3.2,123.43,123.43,0,0,0-174.36,0,10.93,10.93,0,1,1-15.46-15.46c56.6-56.6,148.69-56.6,205.28,0a10.93,10.93,0,0,1-7.73,18.66Z"/><path class="cls-21" d="M766.88,595.52a10.9,10.9,0,0,1-7.73-3.2c-68.15-68.15-179-68.15-247.17,0a10.93,10.93,0,0,1-15.46-15.46c76.67-76.67,201.42-76.67,278.09,0a10.93,10.93,0,0,1-7.73,18.66Z"/><path class="cls-25" d="M694.08,668.33a10.9,10.9,0,0,1-7.73-3.2,71.89,71.89,0,0,0-101.55,0,10.93,10.93,0,0,1-15.46-15.46,93.78,93.78,0,0,1,132.47,0,10.93,10.93,0,0,1-7.73,18.66Z"/><path class="cls-26" d="M730.48,631.93a10.9,10.9,0,0,1-7.73-3.2,123.43,123.43,0,0,0-174.36,0,10.93,10.93,0,1,1-15.46-15.46c56.6-56.6,148.69-56.6,205.28,0a10.93,10.93,0,0,1-7.73,18.66Z"/><path class="cls-27" d="M766.88,595.52a10.9,10.9,0,0,1-7.73-3.2c-68.15-68.15-179-68.15-247.17,0a10.93,10.93,0,0,1-15.46-15.46c76.67-76.67,201.42-76.67,278.09,0a10.93,10.93,0,0,1-7.73,18.66Z"/></svg>