<svg id="Windscribe" xmlns="http://www.w3.org/2000/svg" xmlns:xlink="http://www.w3.org/1999/xlink" viewBox="0 0 1200 1200"><defs><style>.cls-1{fill:url(#linear-gradient);}.cls-2{fill:#43567f;}.cls-3{fill:url(#linear-gradient-2);}.cls-4{fill:url(#linear-gradient-3);}.cls-5{fill:url(#linear-gradient-4);}.cls-6{fill:#fff;}.cls-7{fill:url(#linear-gradient-5);}.cls-8{fill:url(#linear-gradient-6);}.cls-9{fill:url(#linear-gradient-7);}.cls-10{fill:url(#linear-gradient-8);}.cls-11{fill:url(#linear-gradient-9);}.cls-12{fill:url(#linear-gradient-10);}</style><linearGradient id="linear-gradient" x1="319.32" y1="559.44" x2="928.27" y2="559.44" gradientUnits="userSpaceOnUse"><stop offset="0" stop-color="#fff"/><stop offset="0.18" stop-color="#cef2fa"/><stop offset="0.36" stop-color="#a3e7f5"/><stop offset="0.54" stop-color="#80def2"/><stop offset="0.72" stop-color="#68d7ef"/><stop offset="0.87" stop-color="#59d3ee"/><stop offset="1" stop-color="#54d2ed"/></linearGradient><linearGradient id="linear-gradient-2" x1="-5396.08" y1="726.15" x2="-4853.87" y2="391.96" gradientTransform="matrix(0, 1, 1, 0, 64.36, 5685.03)" gradientUnits="userSpaceOnUse"><stop offset="0" stop-color="#4ec8e3" stop-opacity="0"/><stop offset="0.05" stop-color="#4ec8e3" stop-opacity="0.14"/><stop offset="0.14" stop-color="#4ec8e3" stop-opacity="0.4"/><stop offset="0.22" stop-color="#4ec8e3" stop-opacity="0.62"/><stop offset="0.31" stop-color="#4ec8e3" stop-opacity="0.78"/><stop offset="0.38" stop-color="#4ec8e3" stop-opacity="0.9"/><stop offset="0.45" stop-color="#4ec8e3" stop-opacity="0.97"/><stop offset="0.5" stop-color="#4ec8e3"/><stop offset="1" stop-color="#4ec8e3" stop-opacity="0"/></linearGradient><linearGradient id="linear-gradient-3" x1="249.72" y1="811.32" x2="997.87" y2="811.32" gradientUnits="userSpaceOnUse"><stop offset="0" stop-color="#b9e84f"/><stop offset="0.03" stop-color="#b6e64d"/><stop offset="0.39" stop-color="#9ed63e"/><stop offset="0.73" stop-color="#8fcb34"/><stop offset="1" stop-color="#8ac831"/></linearGradient><linearGradient id="linear-gradient-4" x1="262.77" y1="811.32" x2="984.82" y2="811.32" xlink:href="#linear-gradient-3"/><linearGradient id="linear-gradient-5" x1="20.36" y1="366.86" x2="209.61" y2="366.86" gradientTransform="translate(508.81)" gradientUnits="userSpaceOnUse"><stop offset="0" stop-color="#fff"/><stop offset="0.09" stop-color="#eef7e1"/><stop offset="0.26" stop-color="#d0e9ac"/><stop offset="0.43" stop-color="#b7dd80"/><stop offset="0.59" stop-color="#a3d45d"/><stop offset="0.74" stop-color="#95cd45"/><stop offset="0.88" stop-color="#8dc936"/><stop offset="1" stop-color="#8ac831"/></linearGradient><linearGradient id="linear-gradient-6" x1="606.78" y1="372.3" x2="640.81" y2="372.3" gradientUnits="userSpaceOnUse"><stop offset="0" stop-color="#4ec8e3" stop-opacity="0"/><stop offset="0.09" stop-color="#4ec8e3" stop-opacity="0.14"/><stop offset="0.27" stop-color="#4ec8e3" stop-opacity="0.4"/><stop offset="0.45" stop-color="#4ec8e3" stop-opacity="0.62"/><stop offset="0.61" stop-color="#4ec8e3" stop-opacity="0.78"/><stop offset="0.76" stop-color="#4ec8e3" stop-opacity="0.9"/><stop offset="0.9" stop-color="#4ec8e3" stop-opacity="0.97"/><stop offset="1" stop-color="#4ec8e3"/></linearGradient><linearGradient id="linear-gradient-7" x1="555.61" y1="240.39" x2="691.98" y2="240.39" gradientUnits="userSpaceOnUse"><stop offset="0" stop-color="#4ec8e3" stop-opacity="0.25"/><stop offset="0.06" stop-color="#4ec8e3" stop-opacity="0.38"/><stop offset="0.15" stop-color="#4ec8e3" stop-opacity="0.54"/><stop offset="0.24" stop-color="#4ec8e3" stop-opacity="0.68"/><stop offset="0.35" stop-color="#4ec8e3" stop-opacity="0.8"/><stop offset="0.46" stop-color="#4ec8e3" stop-opacity="0.89"/><stop offset="0.59" stop-color="#4ec8e3" stop-opacity="0.95"/><stop offset="0.74" stop-color="#4ec8e3" stop-opacity="0.99"/><stop offset="1" stop-color="#4ec8e3"/></linearGradient><linearGradient id="linear-gradient-8" x1="554.59" y1="610.72" x2="693" y2="610.72" gradientUnits="userSpaceOnUse"><stop offset="0" stop-color="#4ec8e3" stop-opacity="0"/><stop offset="0.07" stop-color="#4ec8e3" stop-opacity="0.16"/><stop offset="0.17" stop-color="#4ec8e3" stop-opacity="0.37"/><stop offset="0.27" stop-color="#4ec8e3" stop-opacity="0.53"/><stop offset="0.36" stop-color="#4ec8e3" stop-opacity="0.65"/><stop offset="0.44" stop-color="#4ec8e3" stop-opacity="0.72"/><stop offset="0.5" stop-color="#4ec8e3" stop-opacity="0.75"/><stop offset="1" stop-color="#4ec8e3" stop-opacity="0"/></linearGradient><linearGradient id="linear-gradient-9" x1="518.31" y1="566.94" x2="729.27" y2="566.94" xlink:href="#linear-gradient-8"/><linearGradient id="linear-gradient-10" x1="482.04" y1="523.16" x2="765.55" y2="523.16" xlink:href="#linear-gradient-8"/></defs><title>Artboard 133</title><path class="cls-1" d="M349.77,363.7H897.82a30.45,30.45,0,0,1,30.45,30.45v361a0,0,0,0,1,0,0h-609a0,0,0,0,1,0,0v-361a30.45,30.45,0,0,1,30.45-30.45Z"/><path class="cls-2" d="M349.77,363.7H897.82a30.45,30.45,0,0,1,30.45,30.45v361a0,0,0,0,1,0,0h-609a0,0,0,0,1,0,0v-361a30.45,30.45,0,0,1,30.45-30.45Z"/><rect class="cls-3" x="457.55" y="286.63" width="332.49" height="545.62" transform="translate(1183.23 -64.36) rotate(90)"/><path class="cls-4" d="M678.17,779.79v6.52a17.4,17.4,0,0,1-17.4,17.4H586.82a17.4,17.4,0,0,1-17.4-17.4v-6.52H249.72v13a50.07,50.07,0,0,0,50,50h648.1a50.07,50.07,0,0,0,50-50v-13Z"/><path class="cls-5" d="M984.82,792.84a37,37,0,0,1-37,37H299.74a37,37,0,0,1-37-37H570.69a17.38,17.38,0,0,0,16.13,10.87h73.94a17.41,17.41,0,0,0,16.13-10.87Z"/><path class="cls-6" d="M692,292.31H669.25V256.65a45.46,45.46,0,0,0-90.91,0v35.66H555.61V256.65a68.18,68.18,0,1,1,136.36,0Z"/><rect class="cls-6" x="529.17" y="292.31" width="189.24" height="149.1" rx="17.63" ry="17.63"/><rect class="cls-7" x="529.17" y="292.31" width="189.24" height="149.1" rx="17.63" ry="17.63"/><path class="cls-6" d="M623.79,342a17,17,0,0,0-8,32.05v20.65a8,8,0,1,0,16,0V374a17,17,0,0,0-8-32.05Z"/><path class="cls-2" d="M623.79,342a17,17,0,0,0-8,32.05v20.65a8,8,0,1,0,16,0V374a17,17,0,0,0-8-32.05Z"/><path class="cls-8" d="M623.79,342a17,17,0,0,0-8,32.05v20.65a8,8,0,1,0,16,0V374a17,17,0,0,0-8-32.05Z"/><path class="cls-9" d="M692,292.31H669.25V256.65a45.46,45.46,0,0,0-90.91,0v35.66H555.61V256.65a68.18,68.18,0,1,1,136.36,0Z"/><path class="cls-6" d="M682.1,633.67a10.86,10.86,0,0,1-7.7-3.19,71.64,71.64,0,0,0-101.21,0,10.89,10.89,0,1,1-15.41-15.41,93.46,93.46,0,0,1,132,0,10.89,10.89,0,0,1-7.7,18.6Z"/><path class="cls-6" d="M718.38,597.39a10.86,10.86,0,0,1-7.7-3.19,123,123,0,0,0-173.76,0,10.89,10.89,0,0,1-15.41-15.41c56.4-56.4,148.18-56.4,204.58,0a10.89,10.89,0,0,1-7.7,18.6Z"/><path class="cls-6" d="M754.66,561.11a10.86,10.86,0,0,1-7.7-3.19C679,490,568.55,490,500.63,557.92a10.89,10.89,0,0,1-15.41-15.41c76.41-76.41,200.73-76.41,277.14,0a10.89,10.89,0,0,1-7.7,18.6Z"/><path class="cls-10" d="M682.1,633.67a10.86,10.86,0,0,1-7.7-3.19,71.64,71.64,0,0,0-101.21,0,10.89,10.89,0,1,1-15.41-15.41,93.46,93.46,0,0,1,132,0,10.89,10.89,0,0,1-7.7,18.6Z"/><path class="cls-11" d="M718.38,597.39a10.86,10.86,0,0,1-7.7-3.19,123,123,0,0,0-173.76,0,10.89,10.89,0,0,1-15.41-15.41c56.4-56.4,148.18-56.4,204.58,0a10.89,10.89,0,0,1-7.7,18.6Z"/><path class="cls-12" d="M754.66,561.11a10.86,10.86,0,0,1-7.7-3.19C679,490,568.55,490,500.63,557.92a10.89,10.89,0,0,1-15.41-15.41c76.41-76.41,200.73-76.41,277.14,0a10.89,10.89,0,0,1-7.7,18.6Z"/></svg>