<svg id="Windscribe" xmlns="http://www.w3.org/2000/svg" xmlns:xlink="http://www.w3.org/1999/xlink" viewBox="0 0 1200 1200"><defs><style>.cls-1{fill:url(#linear-gradient);}.cls-2{fill:url(#linear-gradient-2);}.cls-3{fill:url(#linear-gradient-3);}.cls-4{fill:#fff;}.cls-5{fill:url(#linear-gradient-4);}.cls-6{fill:url(#linear-gradient-5);}.cls-7{fill:url(#linear-gradient-6);}.cls-8{fill:url(#linear-gradient-7);}.cls-9{fill:url(#linear-gradient-8);}.cls-10{fill:#43567f;}.cls-11{fill:url(#linear-gradient-9);}.cls-12{fill:url(#linear-gradient-10);}.cls-13{fill:url(#linear-gradient-11);}.cls-14{fill:url(#linear-gradient-12);}.cls-15{fill:url(#linear-gradient-13);}.cls-16{fill:url(#linear-gradient-14);}</style><linearGradient id="linear-gradient" x1="493.61" y1="417.6" x2="911.4" y2="417.6" gradientUnits="userSpaceOnUse"><stop offset="0" stop-color="#54d2ed" stop-opacity="0.5"/><stop offset="0.13" stop-color="#54d2ed" stop-opacity="0.64"/><stop offset="0.28" stop-color="#54d2ed" stop-opacity="0.77"/><stop offset="0.43" stop-color="#54d2ed" stop-opacity="0.87"/><stop offset="0.6" stop-color="#54d2ed" stop-opacity="0.94"/><stop offset="0.78" stop-color="#54d2ed" stop-opacity="0.99"/><stop offset="1" stop-color="#54d2ed"/></linearGradient><linearGradient id="linear-gradient-2" x1="9886.28" y1="521.91" x2="10224.57" y2="313.4" gradientTransform="matrix(-1, 0, 0, 1, 10740.5, 0)" gradientUnits="userSpaceOnUse"><stop offset="0" stop-color="#fff"/><stop offset="0.09" stop-color="#eef7e1"/><stop offset="0.26" stop-color="#d0e9ac"/><stop offset="0.43" stop-color="#b7dd80"/><stop offset="0.59" stop-color="#a3d45d"/><stop offset="0.74" stop-color="#95cd45"/><stop offset="0.88" stop-color="#8dc936"/><stop offset="1" stop-color="#8ac831"/></linearGradient><linearGradient id="linear-gradient-3" x1="1828.06" y1="-2921.5" x2="1855.54" y2="-2921.5" gradientTransform="translate(3802.82 2259.4) rotate(-90)" xlink:href="#linear-gradient-2"/><linearGradient id="linear-gradient-4" x1="4004.91" y1="489.05" x2="4199.28" y2="489.05" gradientTransform="matrix(-1, 0, 0, 1, 4434.41, 0)" xlink:href="#linear-gradient"/><linearGradient id="linear-gradient-5" x1="319.79" y1="626.97" x2="344.83" y2="626.97" gradientTransform="matrix(1, 0, 0, 1, 0, 0)" xlink:href="#linear-gradient-2"/><linearGradient id="linear-gradient-6" x1="309.44" y1="354.7" x2="355.18" y2="354.7" gradientTransform="translate(664.62 709.4) rotate(-180)" xlink:href="#linear-gradient-2"/><linearGradient id="linear-gradient-7" x1="328.02" y1="339.69" x2="336.6" y2="339.69" gradientTransform="matrix(1, 0, 0, 1, 0, 0)" xlink:href="#linear-gradient-2"/><linearGradient id="linear-gradient-8" x1="4024.92" y1="484.76" x2="4179.28" y2="484.76" gradientTransform="matrix(-1, 0, 0, 1, 4434.41, 0)" xlink:href="#linear-gradient-2"/><linearGradient id="linear-gradient-9" x1="18444.05" y1="647.79" x2="18917.78" y2="647.79" gradientTransform="matrix(-1, 0, 0, 1, 19308.88, 0)" gradientUnits="userSpaceOnUse"><stop offset="0" stop-color="#4ec8e3" stop-opacity="0"/><stop offset="0.09" stop-color="#4ec8e3" stop-opacity="0.14"/><stop offset="0.27" stop-color="#4ec8e3" stop-opacity="0.4"/><stop offset="0.45" stop-color="#4ec8e3" stop-opacity="0.62"/><stop offset="0.61" stop-color="#4ec8e3" stop-opacity="0.78"/><stop offset="0.76" stop-color="#4ec8e3" stop-opacity="0.9"/><stop offset="0.9" stop-color="#4ec8e3" stop-opacity="0.97"/><stop offset="1" stop-color="#4ec8e3"/></linearGradient><linearGradient id="linear-gradient-10" x1="411.41" y1="647.79" x2="844.53" y2="647.79" gradientTransform="translate(-19.82 1275.77) rotate(-90)" xlink:href="#linear-gradient"/><linearGradient id="linear-gradient-11" x1="18407.02" y1="869.46" x2="18954.8" y2="869.46" gradientTransform="matrix(-1, 0, 0, 1, 19308.88, 0)" xlink:href="#linear-gradient-2"/><linearGradient id="linear-gradient-12" x1="392.71" y1="851.07" x2="863.26" y2="851.07" gradientTransform="matrix(1, 0, 0, 1, 0, 0)" xlink:href="#linear-gradient-9"/><linearGradient id="linear-gradient-13" x1="562.65" y1="897.69" x2="697.16" y2="897.69" gradientTransform="matrix(1, 0, 0, 1, 0, 0)" xlink:href="#linear-gradient-9"/><linearGradient id="linear-gradient-14" x1="354.08" y1="928.09" x2="901.86" y2="928.09" gradientTransform="matrix(1, 0, 0, 1, 0, 0)" xlink:href="#linear-gradient-9"/></defs><title>Artboard 126</title><path class="cls-1" d="M518.66,280.9H886.35a25,25,0,0,1,25,25V532.83a21.47,21.47,0,0,1-21.47,21.47H515.08a21.47,21.47,0,0,1-21.47-21.47V305.95a25,25,0,0,1,25-25Z"/><rect class="cls-2" x="519.68" y="306.97" width="331.55" height="221.85"/><circle class="cls-3" cx="881.31" cy="417.6" r="13.74"/><polygon class="cls-4" points="585.8 427.7 581.99 427.7 581.99 421.16 578.72 421.16 578.72 414.63 575.45 414.63 575.45 421.16 572.18 421.16 572.18 427.7 568.37 427.7 568.37 401.56 561.84 401.56 561.84 427.7 565.11 427.7 565.11 434.23 574.91 434.23 574.91 427.7 579.26 427.7 579.26 434.23 589.07 434.23 589.07 427.7 592.33 427.7 592.33 401.56 585.8 401.56 585.8 427.7"/><rect class="cls-4" x="596.15" y="401.56" width="6.53" height="32.67"/><polygon class="cls-4" points="629.37 427.7 626.1 427.7 626.1 421.16 622.29 421.16 622.29 414.63 619.56 414.63 619.56 408.09 615.75 408.09 615.75 401.56 613.03 401.56 609.22 401.56 606.49 401.56 606.49 434.23 613.03 434.23 613.03 414.63 615.75 414.63 615.75 421.16 619.56 421.16 619.56 427.7 622.83 427.7 622.83 434.23 629.37 434.23 635.9 434.23 635.9 401.56 629.37 401.56 629.37 427.7"/><path class="cls-4" d="M659.32,401.56h-19.6v32.67h19.6V427.7h3.81v-19.6h-3.81Zm-2.72,26.14H646.25v-19.6h10.35Z"/><polygon class="cls-4" points="696.89 408.09 694.17 408.09 694.17 427.15 696.89 427.15 696.89 433.69 717.59 433.69 717.59 427.15 700.7 427.15 700.7 408.09 717.59 408.09 717.59 401.56 696.89 401.56 696.89 408.09"/><path class="cls-4" d="M741,401.56H721.4v32.67h6.53V421.16h10.35v13.07h6.53V421.16H741v-6.53h3.81v-6.53H741Zm-2.72,13.07H727.93v-6.53h10.35Z"/><path class="cls-4" d="M778.58,401.56H759v32.67h19.6V427.7h3.81v-6.53h-3.81v-6.53h3.81v-6.53h-3.81Zm-2.72,26.14H765.51v-6.53h10.35Zm0-13.07H765.51v-6.53h10.35Z"/><polygon class="cls-4" points="809.08 408.09 809.08 401.56 792.74 401.56 786.2 401.56 786.2 434.23 792.74 434.23 809.08 434.23 809.08 427.7 792.74 427.7 792.74 421.16 803.08 421.16 803.08 414.63 792.74 414.63 792.74 408.09 809.08 408.09"/><polygon class="cls-4" points="666.94 401.56 666.94 408.09 666.94 414.08 666.94 420.62 673.48 420.62 683.82 420.62 683.82 427.7 666.94 427.7 666.94 434.23 683.82 434.23 690.36 434.23 690.36 427.7 690.36 420.62 690.36 414.08 683.82 414.08 673.48 414.08 673.48 408.09 690.36 408.09 690.36 401.56 673.48 401.56 666.94 401.56"/><rect class="cls-4" x="748.63" y="401.56" width="6.53" height="32.67"/><rect class="cls-5" x="235.12" y="323.97" width="194.37" height="330.15" rx="14.29" ry="14.29"/><circle class="cls-6" cx="332.31" cy="626.97" r="12.52"/><rect class="cls-7" x="309.44" y="351.13" width="45.73" height="7.15" rx="3.57" ry="3.57" transform="translate(664.62 709.4) rotate(180)"/><circle class="cls-8" cx="332.31" cy="339.69" r="4.29"/><rect class="cls-4" x="255.14" y="371.14" width="154.35" height="227.24"/><rect class="cls-9" x="255.14" y="371.14" width="154.35" height="227.24"/><path class="cls-10" d="M411.41,495.52H844.53a20.3,20.3,0,0,1,20.3,20.3V776.38a23.69,23.69,0,0,1-23.69,23.69H414.79a23.69,23.69,0,0,1-23.69-23.69V515.83a20.3,20.3,0,0,1,20.3-20.3Z" transform="translate(1255.94 1295.59) rotate(180)"/><path class="cls-11" d="M414.79,495.52H841.15a23.69,23.69,0,0,1,23.69,23.69V779.76a20.3,20.3,0,0,1-20.3,20.3H411.41a20.3,20.3,0,0,1-20.3-20.3V519.21a23.69,23.69,0,0,1,23.69-23.69Z"/><rect class="cls-4" x="496" y="431.23" width="263.94" height="433.12" rx="10.15" ry="10.15" transform="translate(1275.77 19.82) rotate(90)"/><rect class="cls-12" x="496" y="431.23" width="263.94" height="433.12" rx="10.15" ry="10.15" transform="translate(1275.77 19.82) rotate(90)"/><path class="cls-13" d="M884.93,926.52H371a16.92,16.92,0,0,1-15.74-23.12l31.61-80.28a16.92,16.92,0,0,1,15.74-10.72H853.32a16.92,16.92,0,0,1,15.74,10.72l31.61,80.28A16.92,16.92,0,0,1,884.93,926.52Z"/><path class="cls-4" d="M858.52,869.43H397.45A4.74,4.74,0,0,1,393,863l10.2-26a6.77,6.77,0,0,1,6.3-4.29H846.4a6.77,6.77,0,0,1,6.3,4.29l10.23,26A4.74,4.74,0,0,1,858.52,869.43Z"/><path class="cls-14" d="M858.52,869.43H397.45A4.74,4.74,0,0,1,393,863l10.2-26a6.77,6.77,0,0,1,6.3-4.29H846.4a6.77,6.77,0,0,1,6.3,4.29l10.23,26A4.74,4.74,0,0,1,858.52,869.43Z"/><path class="cls-4" d="M694.45,905.64H565.36a2.71,2.71,0,0,1-2.52-3.7l4-10.06a3.38,3.38,0,0,1,3.15-2.14H689.86a3.38,3.38,0,0,1,3.15,2.14l4,10.06A2.71,2.71,0,0,1,694.45,905.64Z"/><path class="cls-15" d="M694.45,905.64H565.36a2.71,2.71,0,0,1-2.52-3.7l4-10.06a3.38,3.38,0,0,1,3.15-2.14H689.86a3.38,3.38,0,0,1,3.15,2.14l4,10.06A2.71,2.71,0,0,1,694.45,905.64Z"/><path class="cls-16" d="M901.86,909.39v20.36h0a16.94,16.94,0,0,1-16.93,17H371a16.94,16.94,0,0,1-16.93-16.91V909.61A16.94,16.94,0,0,0,371,926.52H884.93a16.93,16.93,0,0,0,16.93-17.12Z"/><polygon class="cls-4" points="506.4 659.75 501.75 659.75 501.75 651.78 497.76 651.78 497.76 643.81 493.77 643.81 493.77 651.78 489.79 651.78 489.79 659.75 485.14 659.75 485.14 627.86 477.17 627.86 477.17 659.75 481.15 659.75 481.15 667.73 493.11 667.73 493.11 659.75 498.43 659.75 498.43 667.73 510.38 667.73 510.38 659.75 514.37 659.75 514.37 627.86 506.4 627.86 506.4 659.75"/><rect class="cls-4" x="519.02" y="627.86" width="7.97" height="39.86"/><polygon class="cls-4" points="559.54 659.75 555.56 659.75 555.56 651.78 550.91 651.78 550.91 643.81 547.59 643.81 547.59 635.84 542.94 635.84 542.94 627.86 539.62 627.86 534.96 627.86 531.64 627.86 531.64 667.73 539.62 667.73 539.62 643.81 542.94 643.81 542.94 651.78 547.59 651.78 547.59 659.75 551.57 659.75 551.57 667.73 559.54 667.73 567.52 667.73 567.52 627.86 559.54 627.86 559.54 659.75"/><path class="cls-4" d="M596.08,627.86H572.17v39.86h23.92v-8h4.65V635.84h-4.65Zm-3.32,31.89H580.14V635.84h12.62Z"/><polygon class="cls-4" points="641.92 635.84 638.6 635.84 638.6 659.09 641.92 659.09 641.92 667.06 667.17 667.06 667.17 659.09 646.57 659.09 646.57 635.84 667.17 635.84 667.17 627.86 641.92 627.86 641.92 635.84"/><path class="cls-4" d="M695.74,627.86H671.82v39.86h8V651.78h12.62v15.94h8V651.78h-4.65v-8h4.65v-8h-4.65Zm-3.32,15.94H679.79v-8h12.62Z"/><path class="cls-4" d="M741.57,627.86H717.66v39.86h23.92v-8h4.65v-8h-4.65v-8h4.65v-8h-4.65Zm-3.32,31.89H725.63v-8h12.62Zm0-15.94H725.63v-8h12.62Z"/><polygon class="cls-4" points="778.78 635.84 778.78 627.86 758.85 627.86 750.88 627.86 750.88 667.73 758.85 667.73 778.78 667.73 778.78 659.75 758.85 659.75 758.85 651.78 771.47 651.78 771.47 643.81 758.85 643.81 758.85 635.84 778.78 635.84"/><polygon class="cls-4" points="605.38 627.86 605.38 635.84 605.38 643.14 605.38 651.12 613.36 651.12 625.98 651.12 625.98 659.75 605.38 659.75 605.38 667.73 625.98 667.73 633.95 667.73 633.95 659.75 633.95 651.12 633.95 643.14 625.98 643.14 613.36 643.14 613.36 635.84 633.95 635.84 633.95 627.86 613.36 627.86 605.38 627.86"/><rect class="cls-4" x="705.04" y="627.86" width="7.97" height="39.86"/><polygon class="cls-4" points="285.65 489.35 283.87 489.35 283.87 486.29 282.34 486.29 282.34 483.23 280.81 483.23 280.81 486.29 279.28 486.29 279.28 489.35 277.5 489.35 277.5 477.11 274.44 477.11 274.44 489.35 275.97 489.35 275.97 492.41 280.56 492.41 280.56 489.35 282.6 489.35 282.6 492.41 287.18 492.41 287.18 489.35 288.71 489.35 288.71 477.11 285.65 477.11 285.65 489.35"/><rect class="cls-4" x="290.5" y="477.11" width="3.06" height="15.3"/><polygon class="cls-4" points="306.05 489.35 304.52 489.35 304.52 486.29 302.74 486.29 302.74 483.23 301.46 483.23 301.46 480.17 299.68 480.17 299.68 477.11 298.4 477.11 296.62 477.11 295.34 477.11 295.34 492.41 298.4 492.41 298.4 483.23 299.68 483.23 299.68 486.29 301.46 486.29 301.46 489.35 302.99 489.35 302.99 492.41 306.05 492.41 309.11 492.41 309.11 477.11 306.05 477.11 306.05 489.35"/><path class="cls-4" d="M320.07,477.11h-9.18v15.3h9.18v-3.06h1.78v-9.18h-1.78Zm-1.27,12.24H314v-9.18h4.84Z"/><polygon class="cls-4" points="337.67 480.17 336.39 480.17 336.39 489.09 337.67 489.09 337.67 492.15 347.35 492.15 347.35 489.09 339.45 489.09 339.45 480.17 347.35 480.17 347.35 477.11 337.67 477.11 337.67 480.17"/><path class="cls-4" d="M358.32,477.11h-9.18v15.3h3.06v-6.12H357v6.12h3.06v-6.12h-1.78v-3.06h1.78v-3.06h-1.78ZM357,483.23H352.2v-3.06H357Z"/><path class="cls-4" d="M375.91,477.11h-9.18v15.3h9.18v-3.06h1.78v-3.06h-1.78v-3.06h1.78v-3.06h-1.78Zm-1.27,12.24h-4.84v-3.06h4.84Zm0-6.12h-4.84v-3.06h4.84Z"/><polygon class="cls-4" points="390.19 480.17 390.19 477.11 382.54 477.11 379.48 477.11 379.48 492.41 382.54 492.41 390.19 492.41 390.19 489.35 382.54 489.35 382.54 486.29 387.38 486.29 387.38 483.23 382.54 483.23 382.54 480.17 390.19 480.17"/><polygon class="cls-4" points="323.64 477.11 323.64 480.17 323.64 482.98 323.64 486.04 326.7 486.04 331.55 486.04 331.55 489.35 323.64 489.35 323.64 492.41 331.55 492.41 334.61 492.41 334.61 489.35 334.61 486.04 334.61 482.98 331.55 482.98 326.7 482.98 326.7 480.17 334.61 480.17 334.61 477.11 326.7 477.11 323.64 477.11"/><rect class="cls-4" x="361.89" y="477.11" width="3.06" height="15.3"/></svg>