<svg id="Windscribe" xmlns="http://www.w3.org/2000/svg" xmlns:xlink="http://www.w3.org/1999/xlink" viewBox="0 0 1280 1280"><defs><style>.cls-1{fill:url(#linear-gradient);}.cls-2{fill:url(#linear-gradient-2);}.cls-3{fill:url(#linear-gradient-3);}.cls-4{fill:url(#linear-gradient-4);}.cls-5{fill:url(#linear-gradient-5);}.cls-6{fill:url(#linear-gradient-6);}.cls-7{fill:url(#linear-gradient-7);}.cls-8{fill:url(#linear-gradient-8);}.cls-9{fill:url(#linear-gradient-9);}.cls-10{fill:url(#linear-gradient-10);}.cls-11{fill:url(#linear-gradient-11);}.cls-12{fill:url(#linear-gradient-12);}.cls-13{fill:url(#linear-gradient-13);}.cls-14{fill:url(#linear-gradient-14);}.cls-15{fill:url(#linear-gradient-15);}.cls-16{fill:url(#linear-gradient-16);}.cls-17{fill:#fff;}.cls-18{fill:url(#linear-gradient-17);}.cls-19{fill:url(#linear-gradient-18);}.cls-20{fill:url(#linear-gradient-19);}.cls-21{fill:url(#linear-gradient-20);}.cls-22{fill:url(#linear-gradient-21);}.cls-23{fill:#43567f;}.cls-24{fill:url(#linear-gradient-22);}.cls-25{fill:url(#linear-gradient-23);}.cls-26{fill:url(#linear-gradient-24);}.cls-27{fill:url(#linear-gradient-25);}.cls-28{fill:url(#linear-gradient-26);}.cls-29{fill:url(#linear-gradient-27);}</style><linearGradient id="linear-gradient" x1="1103.99" y1="758.24" x2="1123.99" y2="758.24" gradientUnits="userSpaceOnUse"><stop offset="0" stop-color="#54d2ed" stop-opacity="0.5"/><stop offset="0.13" stop-color="#54d2ed" stop-opacity="0.64"/><stop offset="0.28" stop-color="#54d2ed" stop-opacity="0.77"/><stop offset="0.43" stop-color="#54d2ed" stop-opacity="0.87"/><stop offset="0.6" stop-color="#54d2ed" stop-opacity="0.94"/><stop offset="0.78" stop-color="#54d2ed" stop-opacity="0.99"/><stop offset="1" stop-color="#54d2ed"/></linearGradient><linearGradient id="linear-gradient-2" x1="801.73" y1="209.26" x2="841.73" y2="209.26" gradientUnits="userSpaceOnUse"><stop offset="0" stop-color="#8ac831" stop-opacity="0.5"/><stop offset="0.07" stop-color="#8ac831" stop-opacity="0.58"/><stop offset="0.23" stop-color="#8ac831" stop-opacity="0.73"/><stop offset="0.39" stop-color="#8ac831" stop-opacity="0.85"/><stop offset="0.57" stop-color="#8ac831" stop-opacity="0.93"/><stop offset="0.76" stop-color="#8ac831" stop-opacity="0.98"/><stop offset="1" stop-color="#8ac831"/></linearGradient><linearGradient id="linear-gradient-3" x1="1021.2" y1="355.57" x2="1061.2" y2="355.57" xlink:href="#linear-gradient"/><linearGradient id="linear-gradient-4" x1="981.2" y1="845.47" x2="1061.2" y2="845.47" xlink:href="#linear-gradient-2"/><linearGradient id="linear-gradient-5" x1="1001.2" y1="1012.79" x2="1021.2" y2="1012.79" xlink:href="#linear-gradient"/><linearGradient id="linear-gradient-6" x1="733.45" y1="1074.46" x2="766" y2="1074.46" xlink:href="#linear-gradient-2"/><linearGradient id="linear-gradient-7" x1="1040.71" y1="566.35" x2="1089.53" y2="566.35" xlink:href="#linear-gradient-2"/><linearGradient id="linear-gradient-8" x1="630.17" y1="239.26" x2="650.17" y2="239.26" xlink:href="#linear-gradient-2"/><linearGradient id="linear-gradient-9" x1="367.33" y1="239.26" x2="427.33" y2="239.26" xlink:href="#linear-gradient"/><linearGradient id="linear-gradient-10" x1="292.87" y1="834.57" x2="312.87" y2="834.57" xlink:href="#linear-gradient-2"/><linearGradient id="linear-gradient-11" x1="170.42" y1="387.04" x2="190.42" y2="387.04" xlink:href="#linear-gradient"/><linearGradient id="linear-gradient-12" x1="156.01" y1="667.35" x2="204.83" y2="667.35" xlink:href="#linear-gradient-2"/><linearGradient id="linear-gradient-13" x1="324.51" y1="1037.2" x2="373.34" y2="1037.2" xlink:href="#linear-gradient"/><linearGradient id="linear-gradient-14" x1="531.3" y1="451.91" x2="961.2" y2="451.91" xlink:href="#linear-gradient"/><linearGradient id="linear-gradient-15" x1="9854.25" y1="559.25" x2="10202.35" y2="344.69" gradientTransform="matrix(-1, 0, 0, 1, 10756.61, 0)" gradientUnits="userSpaceOnUse"><stop offset="0" stop-color="#fff"/><stop offset="0.09" stop-color="#eef7e1"/><stop offset="0.26" stop-color="#d0e9ac"/><stop offset="0.43" stop-color="#b7dd80"/><stop offset="0.59" stop-color="#a3d45d"/><stop offset="0.74" stop-color="#95cd45"/><stop offset="0.88" stop-color="#8dc936"/><stop offset="1" stop-color="#8ac831"/></linearGradient><linearGradient id="linear-gradient-16" x1="7895.79" y1="3213.75" x2="7924.06" y2="3213.75" gradientTransform="translate(-2283.5 8361.83) rotate(-90)" xlink:href="#linear-gradient-15"/><linearGradient id="linear-gradient-17" x1="3985.2" y1="525.43" x2="4185.21" y2="525.43" gradientTransform="matrix(-1, 0, 0, 1, 4450.52, 0)" xlink:href="#linear-gradient"/><linearGradient id="linear-gradient-18" x1="352.43" y1="667.35" x2="378.21" y2="667.35" gradientTransform="matrix(1, 0, 0, 1, 0, 0)" xlink:href="#linear-gradient-15"/><linearGradient id="linear-gradient-19" x1="341.79" y1="387.18" x2="388.85" y2="387.18" gradientTransform="translate(730.64 774.37) rotate(-180)" xlink:href="#linear-gradient-15"/><linearGradient id="linear-gradient-20" x1="360.91" y1="371.74" x2="369.73" y2="371.74" gradientTransform="matrix(1, 0, 0, 1, 0, 0)" xlink:href="#linear-gradient-15"/><linearGradient id="linear-gradient-21" x1="4005.79" y1="521.02" x2="4164.62" y2="521.02" gradientTransform="matrix(-1, 0, 0, 1, 4450.53, 0)" xlink:href="#linear-gradient-15"/><linearGradient id="linear-gradient-22" x1="18411.71" y1="688.78" x2="18899.18" y2="688.78" gradientTransform="matrix(-1, 0, 0, 1, 19325, 0)" gradientUnits="userSpaceOnUse"><stop offset="0" stop-color="#4ec8e3" stop-opacity="0"/><stop offset="0.09" stop-color="#4ec8e3" stop-opacity="0.14"/><stop offset="0.27" stop-color="#4ec8e3" stop-opacity="0.4"/><stop offset="0.45" stop-color="#4ec8e3" stop-opacity="0.62"/><stop offset="0.61" stop-color="#4ec8e3" stop-opacity="0.78"/><stop offset="0.76" stop-color="#4ec8e3" stop-opacity="0.9"/><stop offset="0.9" stop-color="#4ec8e3" stop-opacity="0.97"/><stop offset="1" stop-color="#4ec8e3"/></linearGradient><linearGradient id="linear-gradient-23" x1="446.72" y1="688.78" x2="892.4" y2="688.78" gradientTransform="translate(-19.22 1358.34) rotate(-90)" xlink:href="#linear-gradient"/><linearGradient id="linear-gradient-24" x1="18373.61" y1="916.87" x2="18937.27" y2="916.87" gradientTransform="matrix(-1, 0, 0, 1, 19325, 0)" xlink:href="#linear-gradient-15"/><linearGradient id="linear-gradient-25" x1="427.47" y1="897.95" x2="911.67" y2="897.95" gradientTransform="matrix(1, 0, 0, 1, 0, 0)" xlink:href="#linear-gradient-22"/><linearGradient id="linear-gradient-26" x1="602.34" y1="945.92" x2="740.75" y2="945.92" gradientTransform="matrix(1, 0, 0, 1, 0, 0)" xlink:href="#linear-gradient-22"/><linearGradient id="linear-gradient-27" x1="387.73" y1="977.21" x2="951.4" y2="977.21" gradientTransform="matrix(1, 0, 0, 1, 0, 0)" xlink:href="#linear-gradient-22"/></defs><title>Artboard 142</title><circle class="cls-1" cx="1113.99" cy="758.24" r="10"/><polygon class="cls-2" points="801.73 209.26 816.73 204.26 821.73 189.26 826.73 204.26 841.73 209.26 826.73 214.26 821.73 229.26 816.73 214.26 801.73 209.26"/><polygon class="cls-3" points="1021.21 355.56 1036.2 350.56 1041.2 335.56 1046.2 350.56 1061.2 355.56 1046.2 360.56 1041.2 375.56 1036.2 360.56 1021.21 355.56"/><polygon class="cls-4" points="981.21 845.47 1011.21 835.47 1021.21 805.47 1031.2 835.47 1061.2 845.47 1031.2 855.47 1021.21 885.47 1011.21 855.47 981.21 845.47"/><circle class="cls-5" cx="1011.2" cy="1012.79" r="10"/><polygon class="cls-6" points="733.45 1074.46 745.66 1070.39 749.73 1058.19 753.79 1070.39 766 1074.46 753.79 1078.53 749.73 1090.74 745.66 1078.53 733.45 1074.46"/><polygon class="cls-7" points="1040.71 566.35 1059.02 560.25 1065.12 541.94 1071.23 560.25 1089.53 566.35 1071.23 572.46 1065.12 590.76 1059.02 572.46 1040.71 566.35"/><circle class="cls-8" cx="640.17" cy="239.26" r="10"/><polygon class="cls-9" points="367.33 239.26 389.83 231.76 397.33 209.26 404.83 231.76 427.33 239.26 404.83 246.76 397.33 269.26 389.83 246.76 367.33 239.26"/><circle class="cls-10" cx="302.87" cy="834.57" r="10"/><circle class="cls-11" cx="180.42" cy="387.04" r="10"/><polygon class="cls-12" points="156.01 667.35 174.32 661.24 180.42 642.94 186.52 661.24 204.83 667.35 186.52 673.45 180.42 691.76 174.32 673.45 156.01 667.35"/><polygon class="cls-13" points="324.51 1037.2 342.82 1031.1 348.93 1012.79 355.03 1031.1 373.33 1037.2 355.03 1043.3 348.93 1061.61 342.82 1043.3 324.51 1037.2"/><path class="cls-14" d="M557.08,311.24H935.43A25.77,25.77,0,0,1,961.2,337V570.48a22.09,22.09,0,0,1-22.09,22.09H553.4a22.09,22.09,0,0,1-22.09-22.09V337a25.77,25.77,0,0,1,25.77-25.77Z"/><rect class="cls-15" x="558.13" y="338.07" width="341.16" height="228.29"/><circle class="cls-16" cx="930.25" cy="451.91" r="14.13"/><polygon class="cls-17" points="626.16 462.3 622.24 462.3 622.24 455.57 618.88 455.57 618.88 448.85 615.52 448.85 615.52 455.57 612.15 455.57 612.15 462.3 608.23 462.3 608.23 435.4 601.51 435.4 601.51 462.3 604.87 462.3 604.87 469.02 614.96 469.02 614.96 462.3 619.44 462.3 619.44 469.02 629.52 469.02 629.52 462.3 632.89 462.3 632.89 435.4 626.16 435.4 626.16 462.3"/><rect class="cls-17" x="636.81" y="435.4" width="6.72" height="33.62"/><polygon class="cls-17" points="670.99 462.3 667.63 462.3 667.63 455.57 663.71 455.57 663.71 448.85 660.91 448.85 660.91 442.13 656.98 442.13 656.98 435.4 654.18 435.4 650.26 435.4 647.46 435.4 647.46 469.02 654.18 469.02 654.18 448.85 656.98 448.85 656.98 455.57 660.91 455.57 660.91 462.3 664.27 462.3 664.27 469.02 670.99 469.02 677.72 469.02 677.72 435.4 670.99 435.4 670.99 462.3"/><path class="cls-17" d="M701.81,435.4H681.64V469h20.17V462.3h3.92V442.13h-3.92ZM699,462.3H688.36V442.13H699Z"/><polygon class="cls-17" points="740.48 442.13 737.68 442.13 737.68 461.74 740.48 461.74 740.48 468.46 761.77 468.46 761.77 461.74 744.4 461.74 744.4 442.13 761.77 442.13 761.77 435.4 740.48 435.4 740.48 442.13"/><path class="cls-17" d="M785.87,435.4H765.7V469h6.72V455.57h10.65V469h6.72V455.57h-3.92v-6.72h3.92v-6.72h-3.92Zm-2.8,13.45H772.42v-6.72h10.65Z"/><path class="cls-17" d="M824.53,435.4H804.36V469h20.17V462.3h3.92v-6.72h-3.92v-6.72h3.92v-6.72h-3.92Zm-2.8,26.9H811.09v-6.72h10.65Zm0-13.45H811.09v-6.72h10.65Z"/><polygon class="cls-17" points="855.91 442.13 855.91 435.4 839.1 435.4 832.38 435.4 832.38 469.02 839.1 469.02 855.91 469.02 855.91 462.3 839.1 462.3 839.1 455.57 849.75 455.57 849.75 448.85 839.1 448.85 839.1 442.13 855.91 442.13"/><polygon class="cls-17" points="709.66 435.4 709.66 442.13 709.66 448.29 709.66 455.01 716.38 455.01 727.03 455.01 727.03 462.3 709.66 462.3 709.66 469.02 727.03 469.02 733.75 469.02 733.75 462.3 733.75 455.01 733.75 448.29 727.03 448.29 716.38 448.29 716.38 442.13 733.75 442.13 733.75 435.4 716.38 435.4 709.66 435.4"/><rect class="cls-17" x="793.71" y="435.4" width="6.72" height="33.62"/><rect class="cls-18" x="265.32" y="355.57" width="200.01" height="339.72" rx="14.71" ry="14.71"/><circle class="cls-19" cx="365.32" cy="667.35" r="12.89"/><rect class="cls-20" x="341.79" y="383.51" width="47.06" height="7.35" rx="3.68" ry="3.68" transform="translate(730.64 774.37) rotate(180)"/><circle class="cls-21" cx="365.32" cy="371.74" r="4.41"/><rect class="cls-17" x="285.91" y="404.1" width="158.83" height="233.84"/><rect class="cls-22" x="285.91" y="404.1" width="158.83" height="233.84"/><path class="cls-23" d="M446.72,532.09H892.4A20.89,20.89,0,0,1,913.29,553V821.09a24.37,24.37,0,0,1-24.37,24.37H450.2a24.37,24.37,0,0,1-24.37-24.37V553a20.89,20.89,0,0,1,20.89-20.89Z" transform="translate(1339.12 1377.56) rotate(180)"/><path class="cls-24" d="M450.2,532.09H888.92a24.37,24.37,0,0,1,24.37,24.37V824.57a20.89,20.89,0,0,1-20.89,20.89H446.72a20.89,20.89,0,0,1-20.89-20.89V556.47a24.37,24.37,0,0,1,24.37-24.37Z"/><rect class="cls-17" x="533.76" y="465.94" width="271.59" height="445.69" rx="10.45" ry="10.45" transform="translate(1358.34 19.22) rotate(90)"/><rect class="cls-25" x="533.76" y="465.94" width="271.59" height="445.69" rx="10.45" ry="10.45" transform="translate(1358.34 19.22) rotate(90)"/><path class="cls-26" d="M934,975.59H405.15A17.41,17.41,0,0,1,389,951.8l32.53-82.61a17.41,17.41,0,0,1,16.2-11H901.44a17.41,17.41,0,0,1,16.2,11l32.53,82.61A17.41,17.41,0,0,1,934,975.59Z"/><path class="cls-17" d="M906.79,916.85H432.35a4.87,4.87,0,0,1-4.54-6.66l10.5-26.72a7,7,0,0,1,6.48-4.42H894.33a7,7,0,0,1,6.48,4.41l10.52,26.72A4.87,4.87,0,0,1,906.79,916.85Z"/><path class="cls-27" d="M906.79,916.85H432.35a4.87,4.87,0,0,1-4.54-6.66l10.5-26.72a7,7,0,0,1,6.48-4.42H894.33a7,7,0,0,1,6.48,4.41l10.52,26.72A4.87,4.87,0,0,1,906.79,916.85Z"/><path class="cls-17" d="M738,954.1H605.13a2.79,2.79,0,0,1-2.59-3.81l4.08-10.35a3.48,3.48,0,0,1,3.24-2.21H733.24a3.48,3.48,0,0,1,3.24,2.21l4.08,10.35A2.79,2.79,0,0,1,738,954.1Z"/><path class="cls-28" d="M738,954.1H605.13a2.79,2.79,0,0,1-2.59-3.81l4.08-10.35a3.48,3.48,0,0,1,3.24-2.21H733.24a3.48,3.48,0,0,1,3.24,2.21l4.08,10.35A2.79,2.79,0,0,1,738,954.1Z"/><path class="cls-29" d="M951.4,958v21h0A17.43,17.43,0,0,1,934,996.45H405.15A17.43,17.43,0,0,1,387.73,979V958.19a17.43,17.43,0,0,0,17.42,17.4H934A17.42,17.42,0,0,0,951.38,958Z"/><polygon class="cls-17" points="544.46 701.08 539.67 701.08 539.67 692.88 535.57 692.88 535.57 684.68 531.47 684.68 531.47 692.88 527.37 692.88 527.37 701.08 522.58 701.08 522.58 668.27 514.38 668.27 514.38 701.08 518.48 701.08 518.48 709.29 530.79 709.29 530.79 701.08 536.25 701.08 536.25 709.29 548.56 709.29 548.56 701.08 552.66 701.08 552.66 668.27 544.46 668.27 544.46 701.08"/><rect class="cls-17" x="557.45" y="668.27" width="8.2" height="41.02"/><polygon class="cls-17" points="599.15 701.08 595.05 701.08 595.05 692.88 590.26 692.88 590.26 684.68 586.84 684.68 586.84 676.47 582.06 676.47 582.06 668.27 578.64 668.27 573.85 668.27 570.44 668.27 570.44 709.29 578.64 709.29 578.64 684.68 582.06 684.68 582.06 692.88 586.84 692.88 586.84 701.08 590.94 701.08 590.94 709.29 599.15 709.29 607.35 709.29 607.35 668.27 599.15 668.27 599.15 701.08"/><path class="cls-17" d="M636.75,668.27H612.14v41h24.61v-8.2h4.79V676.47h-4.79Zm-3.42,32.81h-13V676.47h13Z"/><polygon class="cls-17" points="683.91 676.47 680.5 676.47 680.5 700.4 683.91 700.4 683.91 708.6 709.89 708.6 709.89 700.4 688.7 700.4 688.7 676.47 709.89 676.47 709.89 668.27 683.91 668.27 683.91 676.47"/><path class="cls-17" d="M739.29,668.27H714.68v41h8.2V692.88h13v16.41h8.2V692.88h-4.79v-8.2h4.79v-8.2h-4.79Zm-3.42,16.41h-13v-8.2h13Z"/><path class="cls-17" d="M786.46,668.27H761.85v41h24.61v-8.2h4.79v-8.2h-4.79v-8.2h4.79v-8.2h-4.79ZM783,701.08h-13v-8.2h13Zm0-16.41h-13v-8.2h13Z"/><polygon class="cls-17" points="824.74 676.47 824.74 668.27 804.23 668.27 796.03 668.27 796.03 709.29 804.23 709.29 824.74 709.29 824.74 701.08 804.23 701.08 804.23 692.88 817.22 692.88 817.22 684.68 804.23 684.68 804.23 676.47 824.74 676.47"/><polygon class="cls-17" points="646.32 668.27 646.32 676.47 646.32 683.99 646.32 692.2 654.52 692.2 667.51 692.2 667.51 701.08 646.32 701.08 646.32 709.29 667.51 709.29 675.71 709.29 675.71 701.08 675.71 692.2 675.71 683.99 667.51 683.99 654.52 683.99 654.52 676.47 675.71 676.47 675.71 668.27 654.52 668.27 646.32 668.27"/><rect class="cls-17" x="748.86" y="668.27" width="8.2" height="41.02"/><polygon class="cls-17" points="317.31 525.74 315.48 525.74 315.48 522.59 313.9 522.59 313.9 519.44 312.33 519.44 312.33 522.59 310.75 522.59 310.75 525.74 308.92 525.74 308.92 513.14 305.77 513.14 305.77 525.74 307.34 525.74 307.34 528.89 312.06 528.89 312.06 525.74 314.16 525.74 314.16 528.89 318.89 528.89 318.89 525.74 320.46 525.74 320.46 513.14 317.31 513.14 317.31 525.74"/><rect class="cls-17" x="322.3" y="513.14" width="3.15" height="15.74"/><polygon class="cls-17" points="338.3 525.74 336.73 525.74 336.73 522.59 334.89 522.59 334.89 519.44 333.58 519.44 333.58 516.29 331.74 516.29 331.74 513.14 330.43 513.14 328.59 513.14 327.28 513.14 327.28 528.89 330.43 528.89 330.43 519.44 331.74 519.44 331.74 522.59 333.58 522.59 333.58 525.74 335.15 525.74 335.15 528.89 338.3 528.89 341.45 528.89 341.45 513.14 338.3 513.14 338.3 525.74"/><path class="cls-17" d="M352.73,513.14h-9.44v15.74h9.44v-3.15h1.84v-9.44h-1.84Zm-1.31,12.59h-5v-9.44h5Z"/><polygon class="cls-17" points="370.83 516.29 369.52 516.29 369.52 525.48 370.83 525.48 370.83 528.62 380.8 528.62 380.8 525.48 372.67 525.48 372.67 516.29 380.8 516.29 380.8 513.14 370.83 513.14 370.83 516.29"/><path class="cls-17" d="M392.08,513.14h-9.44v15.74h3.15v-6.3h5v6.3h3.15v-6.3h-1.84v-3.15h1.84v-3.15h-1.84Zm-1.31,6.3h-5v-3.15h5Z"/><path class="cls-17" d="M410.18,513.14h-9.44v15.74h9.44v-3.15H412v-3.15h-1.84v-3.15H412v-3.15h-1.84Zm-1.31,12.59h-5v-3.15h5Zm0-6.3h-5v-3.15h5Z"/><polygon class="cls-17" points="424.88 516.29 424.88 513.14 417 513.14 413.86 513.14 413.86 528.89 417 528.89 424.88 528.89 424.88 525.74 417 525.74 417 522.59 421.99 522.59 421.99 519.44 417 519.44 417 516.29 424.88 516.29"/><polygon class="cls-17" points="356.4 513.14 356.4 516.29 356.4 519.18 356.4 522.33 359.55 522.33 364.54 522.33 364.54 525.74 356.4 525.74 356.4 528.89 364.54 528.89 367.68 528.89 367.68 525.74 367.68 522.33 367.68 519.18 364.54 519.18 359.55 519.18 359.55 516.29 367.68 516.29 367.68 513.14 359.55 513.14 356.4 513.14"/><rect class="cls-17" x="395.75" y="513.14" width="3.15" height="15.74"/></svg>