<?xml version="1.0" encoding="utf-8"?>
<!-- Generator: Adobe Illustrator 19.2.0, SVG Export Plug-In . SVG Version: 6.00 Build 0)  -->
<svg version="1.1" id="Windscribe" xmlns="http://www.w3.org/2000/svg" xmlns:xlink="http://www.w3.org/1999/xlink" x="0px" y="0px"
	 viewBox="0 0 1200 1200" style="enable-background:new 0 0 1200 1200;" xml:space="preserve">
<style type="text/css">
	.st0{fill:url(#SVGID_1_);}
	.st1{fill:#FFFFFF;}
	.st2{fill:url(#SVGID_2_);}
	.st3{fill:url(#SVGID_3_);}
	.st4{fill:url(#SVGID_4_);}
	.st5{fill:url(#SVGID_5_);}
</style>
<title>Artboard 137</title>
<linearGradient id="SVGID_1_" gradientUnits="userSpaceOnUse" x1="426.6393" y1="711.7477" x2="426.6393" y2="295.1445">
	<stop  offset="0" style="stop-color:#54D2ED;stop-opacity:0"/>
	<stop  offset="6.374343e-02" style="stop-color:#54D2ED;stop-opacity:0.2"/>
	<stop  offset="0.14" style="stop-color:#54D2ED;stop-opacity:0.48"/>
	<stop  offset="0.26" style="stop-color:#54D2ED;stop-opacity:0.64"/>
	<stop  offset="0.39" style="stop-color:#54D2ED;stop-opacity:0.77"/>
	<stop  offset="0.52" style="stop-color:#54D2ED;stop-opacity:0.87"/>
	<stop  offset="0.66" style="stop-color:#54D2ED;stop-opacity:0.94"/>
	<stop  offset="0.81" style="stop-color:#54D2ED;stop-opacity:0.99"/>
	<stop  offset="1" style="stop-color:#54D2ED"/>
</linearGradient>
<path class="st0" d="M609.4,720.4H243.9V467.1c0-94.5,76.6-171.1,171.1-171.1h23.3c94.5,0,171.1,76.6,171.1,171.1V720.4z"/>
<path class="st1" d="M281.8,720.4V478.7c0-79.9,65-144.8,144.8-144.8s144.8,65,144.8,144.8v241.7H281.8z"/>
<linearGradient id="SVGID_2_" gradientUnits="userSpaceOnUse" x1="792.2061" y1="709.4857" x2="792.2061" y2="296.5297">
	<stop  offset="0" style="stop-color:#FFFFFF"/>
	<stop  offset="9.000000e-02" style="stop-color:#EEF7E1"/>
	<stop  offset="0.26" style="stop-color:#D0E9AC"/>
	<stop  offset="0.43" style="stop-color:#B7DD80"/>
	<stop  offset="0.59" style="stop-color:#A3D45D"/>
	<stop  offset="0.74" style="stop-color:#95CD45"/>
	<stop  offset="0.88" style="stop-color:#8DC936"/>
	<stop  offset="1" style="stop-color:#8AC831"/>
</linearGradient>
<path class="st2" d="M975,720.4H609.4V467.1c0-94.5,76.6-171.1,171.1-171.1h23.3c94.5,0,171.1,76.6,171.1,171.1V720.4z"/>
<path class="st1" d="M647.4,720.4V478.7c0-79.9,65-144.8,144.8-144.8S937,398.9,937,478.7v241.7H647.4z"/>
<linearGradient id="SVGID_3_" gradientUnits="userSpaceOnUse" x1="426.6394" y1="340.9576" x2="426.6394" y2="719.4402">
	<stop  offset="3.410054e-03" style="stop-color:#54D2ED;stop-opacity:0.25"/>
	<stop  offset="7.981498e-02" style="stop-color:#54D2ED;stop-opacity:0.3"/>
	<stop  offset="0.1497" style="stop-color:#54D2ED;stop-opacity:0.48"/>
	<stop  offset="0.26" style="stop-color:#54D2ED;stop-opacity:0.64"/>
	<stop  offset="0.39" style="stop-color:#54D2ED;stop-opacity:0.77"/>
	<stop  offset="0.52" style="stop-color:#54D2ED;stop-opacity:0.87"/>
	<stop  offset="0.66" style="stop-color:#54D2ED;stop-opacity:0.94"/>
	<stop  offset="0.81" style="stop-color:#54D2ED;stop-opacity:0.99"/>
	<stop  offset="1" style="stop-color:#54D2ED"/>
</linearGradient>
<path class="st3" d="M281.8,720.4V478.7c0-79.9,65-144.8,144.8-144.8s144.8,65,144.8,144.8v241.7H281.8z"/>
<linearGradient id="SVGID_4_" gradientUnits="userSpaceOnUse" x1="792.2059" y1="336.6348" x2="792.2059" y2="717.9888">
	<stop  offset="0" style="stop-color:#FFFFFF"/>
	<stop  offset="9.000000e-02" style="stop-color:#EEF7E1"/>
	<stop  offset="0.26" style="stop-color:#D0E9AC"/>
	<stop  offset="0.43" style="stop-color:#B7DD80"/>
	<stop  offset="0.59" style="stop-color:#A3D45D"/>
	<stop  offset="0.74" style="stop-color:#95CD45"/>
	<stop  offset="0.88" style="stop-color:#8DC936"/>
	<stop  offset="1" style="stop-color:#8AC831"/>
</linearGradient>
<path class="st4" d="M647.4,720.4V478.7c0-79.9,65-144.8,144.8-144.8S937,398.9,937,478.7v241.7H647.4z"/>
<linearGradient id="SVGID_5_" gradientUnits="userSpaceOnUse" x1="609.4227" y1="721.7589" x2="609.4227" y2="929.7855">
	<stop  offset="0" style="stop-color:#FFFFFF"/>
	<stop  offset="9.000000e-02" style="stop-color:#EEF7E1"/>
	<stop  offset="0.26" style="stop-color:#D0E9AC"/>
	<stop  offset="0.43" style="stop-color:#B7DD80"/>
	<stop  offset="0.59" style="stop-color:#A3D45D"/>
	<stop  offset="0.74" style="stop-color:#95CD45"/>
	<stop  offset="0.88" style="stop-color:#8DC936"/>
	<stop  offset="1" style="stop-color:#8AC831"/>
</linearGradient>
<path class="st5" d="M766.5,721.8v9c0,20.2-11.1,39.3-29.9,51.5l-101.5,65.6c-15.2,9.8-36.1,9.8-51.3,0l-101.5-65.6
	c-18.8-12.2-29.9-31.2-29.9-51.5v-9H396V741c0,25.9,14.2,50.3,38.3,65.9l94.5,61c15.4,10,24.5,25.5,24.5,42.1v0c0,0,0,19.7,0,19.7
	h112.1c0,0,0-19.7,0-19.7l0,0c0-16.6,9.1-32.1,24.5-42.1l94.5-61c24.1-15.6,38.3-40,38.3-65.9v-19.3H766.5z"/>
<polygon class="st1" points="440.3,663.1 407.8,663.1 396,720.4 452.2,720.4 "/>
<polygon class="st1" points="432.9,610.9 415.3,610.9 408.9,642 439.3,642 "/>
<polygon class="st1" points="428.8,576.8 419.4,576.8 416,593.3 432.2,593.3 "/>
<polygon class="st1" points="810.9,663.1 778.4,663.1 766.6,720.4 822.8,720.4 "/>
<polygon class="st1" points="803.5,610.9 785.9,610.9 779.5,642 809.9,642 "/>
<polygon class="st1" points="799.4,576.8 790,576.8 786.6,593.3 802.8,593.3 "/>
</svg>
