<svg id="Windscribe" xmlns="http://www.w3.org/2000/svg" xmlns:xlink="http://www.w3.org/1999/xlink" viewBox="0 0 1200 1200"><defs><style>.cls-1{fill:url(#linear-gradient);}.cls-2,.cls-3{fill:none;}.cls-2{stroke-miterlimit:10;stroke-width:57.13px;stroke:url(#linear-gradient-2);}.cls-3{stroke:#fff;stroke-linecap:round;stroke-linejoin:round;stroke-width:13.71px;}.cls-4{fill:#fff;}.cls-5{fill:#43567f;}.cls-6{fill:url(#linear-gradient-3);}</style><linearGradient id="linear-gradient" x1="361.13" y1="703.44" x2="836.87" y2="703.44" gradientUnits="userSpaceOnUse"><stop offset="0" stop-color="#8ac831" stop-opacity="0.15"/><stop offset="0.01" stop-color="#8ac831" stop-opacity="0.17"/><stop offset="0.13" stop-color="#8ac831" stop-opacity="0.39"/><stop offset="0.25" stop-color="#8ac831" stop-opacity="0.58"/><stop offset="0.38" stop-color="#8ac831" stop-opacity="0.73"/><stop offset="0.51" stop-color="#8ac831" stop-opacity="0.85"/><stop offset="0.65" stop-color="#8ac831" stop-opacity="0.93"/><stop offset="0.81" stop-color="#8ac831" stop-opacity="0.98"/><stop offset="1" stop-color="#8ac831"/></linearGradient><linearGradient id="linear-gradient-2" x1="427.6" y1="385.49" x2="770.4" y2="385.49" gradientUnits="userSpaceOnUse"><stop offset="0" stop-color="#54d2ed" stop-opacity="0.5"/><stop offset="0.13" stop-color="#54d2ed" stop-opacity="0.64"/><stop offset="0.28" stop-color="#54d2ed" stop-opacity="0.77"/><stop offset="0.43" stop-color="#54d2ed" stop-opacity="0.87"/><stop offset="0.6" stop-color="#54d2ed" stop-opacity="0.94"/><stop offset="0.78" stop-color="#54d2ed" stop-opacity="0.99"/><stop offset="1" stop-color="#54d2ed"/></linearGradient><linearGradient id="linear-gradient-3" x1="557.43" y1="747.42" x2="640.57" y2="747.42" gradientUnits="userSpaceOnUse"><stop offset="0" stop-color="#4ec8e3" stop-opacity="0"/><stop offset="0.09" stop-color="#4ec8e3" stop-opacity="0.14"/><stop offset="0.27" stop-color="#4ec8e3" stop-opacity="0.4"/><stop offset="0.45" stop-color="#4ec8e3" stop-opacity="0.62"/><stop offset="0.61" stop-color="#4ec8e3" stop-opacity="0.78"/><stop offset="0.76" stop-color="#4ec8e3" stop-opacity="0.9"/><stop offset="0.9" stop-color="#4ec8e3" stop-opacity="0.97"/><stop offset="1" stop-color="#4ec8e3"/></linearGradient></defs><title>Artboard 129</title><rect class="cls-1" x="361.13" y="516.02" width="475.74" height="374.84" rx="44.31" ry="44.31"/><path class="cls-2" d="M456.16,516V426.37a142.84,142.84,0,1,1,285.68,0V516"/><line class="cls-3" x1="431.45" y1="581.48" x2="431.45" y2="629.91"/><line class="cls-3" x1="523.36" y1="581.48" x2="523.36" y2="629.91"/><line class="cls-3" x1="676.11" y1="581.48" x2="676.11" y2="629.91"/><line class="cls-3" x1="707.16" y1="581.48" x2="707.16" y2="629.91"/><rect class="cls-3" x="461.83" y="581.48" width="31.16" height="48.43" rx="15.58" ry="15.58"/><rect class="cls-3" x="553.73" y="581.48" width="31.16" height="48.43" rx="15.58" ry="15.58"/><rect class="cls-3" x="614.58" y="581.48" width="31.16" height="48.43" rx="15.58" ry="15.58"/><rect class="cls-3" x="737.54" y="581.48" width="31.16" height="48.43" rx="15.58" ry="15.58"/><path class="cls-4" d="M599,673.31a41.57,41.57,0,0,0-19.5,78.29V802a19.5,19.5,0,1,0,39,0V751.6A41.57,41.57,0,0,0,599,673.31Z"/><path class="cls-5" d="M599,673.31a41.57,41.57,0,0,0-19.5,78.29V802a19.5,19.5,0,1,0,39,0V751.6A41.57,41.57,0,0,0,599,673.31Z"/><path class="cls-6" d="M599,673.31a41.57,41.57,0,0,0-19.5,78.29V802a19.5,19.5,0,1,0,39,0V751.6A41.57,41.57,0,0,0,599,673.31Z"/></svg>