<svg id="Windscribe" xmlns="http://www.w3.org/2000/svg" xmlns:xlink="http://www.w3.org/1999/xlink" viewBox="0 0 1280 1280"><defs><style>.cls-1{fill:url(#linear-gradient);}.cls-2{fill:url(#linear-gradient-2);}.cls-3{fill:url(#linear-gradient-3);}.cls-4{fill:url(#linear-gradient-4);}.cls-5{fill:url(#linear-gradient-5);}.cls-6{fill:url(#linear-gradient-6);}.cls-7{fill:url(#linear-gradient-7);}.cls-8{fill:url(#linear-gradient-8);}.cls-9{fill:url(#linear-gradient-9);}.cls-10{fill:url(#linear-gradient-10);}.cls-11{fill:url(#linear-gradient-11);}.cls-12{fill:url(#linear-gradient-12);}.cls-13{fill:url(#linear-gradient-13);}.cls-14{fill:url(#linear-gradient-14);}.cls-15{fill:url(#linear-gradient-15);}.cls-16,.cls-17{fill:none;}.cls-16{stroke-miterlimit:10;stroke-width:53.21px;stroke:url(#linear-gradient-16);}.cls-17{stroke:#fff;stroke-linecap:round;stroke-linejoin:round;stroke-width:12.77px;}.cls-18{fill:#fff;}.cls-19{fill:#43567f;}.cls-20{fill:url(#linear-gradient-17);}</style><linearGradient id="linear-gradient" x1="904.14" y1="644.58" x2="928.53" y2="644.58" gradientUnits="userSpaceOnUse"><stop offset="0" stop-color="#54d2ed" stop-opacity="0.5"/><stop offset="0.13" stop-color="#54d2ed" stop-opacity="0.64"/><stop offset="0.28" stop-color="#54d2ed" stop-opacity="0.77"/><stop offset="0.43" stop-color="#54d2ed" stop-opacity="0.87"/><stop offset="0.6" stop-color="#54d2ed" stop-opacity="0.94"/><stop offset="0.78" stop-color="#54d2ed" stop-opacity="0.99"/><stop offset="1" stop-color="#54d2ed"/></linearGradient><linearGradient id="linear-gradient-2" x1="810.6" y1="218.31" x2="859.38" y2="218.31" xlink:href="#linear-gradient"/><linearGradient id="linear-gradient-3" x1="922.98" y1="825.07" x2="1020.53" y2="825.07" gradientUnits="userSpaceOnUse"><stop offset="0" stop-color="#8ac831" stop-opacity="0.5"/><stop offset="0.07" stop-color="#8ac831" stop-opacity="0.58"/><stop offset="0.23" stop-color="#8ac831" stop-opacity="0.73"/><stop offset="0.39" stop-color="#8ac831" stop-opacity="0.85"/><stop offset="0.57" stop-color="#8ac831" stop-opacity="0.93"/><stop offset="0.76" stop-color="#8ac831" stop-opacity="0.98"/><stop offset="1" stop-color="#8ac831"/></linearGradient><linearGradient id="linear-gradient-4" x1="856.05" y1="1025.58" x2="880.44" y2="1025.58" xlink:href="#linear-gradient"/><linearGradient id="linear-gradient-5" x1="653.04" y1="1012.83" x2="692.73" y2="1012.83" xlink:href="#linear-gradient-3"/><linearGradient id="linear-gradient-6" x1="979.36" y1="505.91" x2="1038.89" y2="505.91" xlink:href="#linear-gradient-3"/><linearGradient id="linear-gradient-7" x1="586.86" y1="468.31" x2="638.58" y2="468.31" xlink:href="#linear-gradient-3"/><linearGradient id="linear-gradient-8" x1="636.46" y1="193.28" x2="660.85" y2="193.28" xlink:href="#linear-gradient-3"/><linearGradient id="linear-gradient-9" x1="355.56" y1="311.55" x2="428.72" y2="311.55" xlink:href="#linear-gradient"/><linearGradient id="linear-gradient-10" x1="251.65" y1="921.23" x2="276.04" y2="921.23" xlink:href="#linear-gradient-3"/><linearGradient id="linear-gradient-11" x1="864.93" y1="391.02" x2="889.31" y2="391.02" xlink:href="#linear-gradient-3"/><linearGradient id="linear-gradient-12" x1="325.76" y1="479.4" x2="350.14" y2="479.4" xlink:href="#linear-gradient"/><linearGradient id="linear-gradient-13" x1="261.14" y1="704.64" x2="320.67" y2="704.64" xlink:href="#linear-gradient-3"/><linearGradient id="linear-gradient-14" x1="417.33" y1="1070.68" x2="476.86" y2="1070.68" xlink:href="#linear-gradient"/><linearGradient id="linear-gradient-15" x1="392.14" y1="739.4" x2="853.69" y2="739.4" gradientUnits="userSpaceOnUse"><stop offset="0" stop-color="#8ac831" stop-opacity="0.15"/><stop offset="0.01" stop-color="#8ac831" stop-opacity="0.17"/><stop offset="0.13" stop-color="#8ac831" stop-opacity="0.39"/><stop offset="0.25" stop-color="#8ac831" stop-opacity="0.58"/><stop offset="0.38" stop-color="#8ac831" stop-opacity="0.73"/><stop offset="0.51" stop-color="#8ac831" stop-opacity="0.85"/><stop offset="0.65" stop-color="#8ac831" stop-opacity="0.93"/><stop offset="0.81" stop-color="#8ac831" stop-opacity="0.98"/><stop offset="1" stop-color="#8ac831"/></linearGradient><linearGradient id="linear-gradient-16" x1="457.73" y1="431.5" x2="788.09" y2="431.5" xlink:href="#linear-gradient"/><linearGradient id="linear-gradient-17" x1="582.58" y1="782.07" x2="663.24" y2="782.07" gradientUnits="userSpaceOnUse"><stop offset="0" stop-color="#4ec8e3" stop-opacity="0"/><stop offset="0.09" stop-color="#4ec8e3" stop-opacity="0.14"/><stop offset="0.27" stop-color="#4ec8e3" stop-opacity="0.4"/><stop offset="0.45" stop-color="#4ec8e3" stop-opacity="0.62"/><stop offset="0.61" stop-color="#4ec8e3" stop-opacity="0.78"/><stop offset="0.76" stop-color="#4ec8e3" stop-opacity="0.9"/><stop offset="0.9" stop-color="#4ec8e3" stop-opacity="0.97"/><stop offset="1" stop-color="#4ec8e3"/></linearGradient></defs><title>Artboard 145</title><circle class="cls-1" cx="916.33" cy="644.58" r="12.19"/><polygon class="cls-2" points="810.6 218.31 828.89 212.22 834.99 193.93 841.09 212.22 859.38 218.31 841.09 224.41 834.99 242.7 828.89 224.41 810.6 218.31"/><polygon class="cls-3" points="922.98 825.07 959.56 812.87 971.76 776.29 983.95 812.87 1020.53 825.07 983.95 837.26 971.76 873.84 959.56 837.26 922.98 825.07"/><circle class="cls-4" cx="868.24" cy="1025.58" r="12.19"/><polygon class="cls-5" points="653.04 1012.83 667.92 1007.87 672.88 992.99 677.85 1007.87 692.73 1012.83 677.85 1017.79 672.88 1032.67 667.92 1017.79 653.04 1012.83"/><polygon class="cls-6" points="979.36 505.91 1001.68 498.47 1009.12 476.14 1016.56 498.47 1038.89 505.91 1016.56 513.35 1009.12 535.67 1001.68 513.35 979.36 505.91"/><polygon class="cls-7" points="586.86 468.31 606.26 461.85 612.72 442.45 619.19 461.85 638.58 468.31 619.19 474.78 612.72 494.17 606.26 474.78 586.86 468.31"/><circle class="cls-8" cx="648.66" cy="193.28" r="12.19"/><polygon class="cls-9" points="355.56 311.55 382.99 302.41 392.14 274.97 401.28 302.41 428.72 311.55 401.28 320.7 392.14 348.13 382.99 320.7 355.56 311.55"/><circle class="cls-10" cx="263.85" cy="921.23" r="12.19"/><circle class="cls-11" cx="877.12" cy="391.02" r="12.19"/><circle class="cls-12" cx="337.95" cy="479.4" r="12.19"/><polygon class="cls-13" points="261.14 704.64 283.46 697.2 290.9 674.87 298.35 697.2 320.67 704.64 298.35 712.08 290.9 734.4 283.46 712.08 261.14 704.64"/><polygon class="cls-14" points="417.33 1070.68 439.66 1063.24 447.1 1040.91 454.54 1063.24 476.86 1070.68 454.54 1078.12 447.1 1100.44 439.66 1078.12 417.33 1070.68"/><rect class="cls-15" x="392.14" y="557.58" width="461.55" height="363.65" rx="41.27" ry="41.27"/><path class="cls-16" d="M484.34,557.58v-87a138.58,138.58,0,1,1,277.15,0v87"/><line class="cls-17" x1="460.36" y1="621.08" x2="460.36" y2="668.07"/><line class="cls-17" x1="549.53" y1="621.08" x2="549.53" y2="668.07"/><line class="cls-17" x1="697.72" y1="621.08" x2="697.72" y2="668.07"/><line class="cls-17" x1="727.85" y1="621.08" x2="727.85" y2="668.07"/><rect class="cls-17" x="489.83" y="621.08" width="30.23" height="46.99" rx="14.51" ry="14.51"/><rect class="cls-17" x="578.99" y="621.08" width="30.23" height="46.99" rx="14.51" ry="14.51"/><rect class="cls-17" x="638.03" y="621.08" width="30.23" height="46.99" rx="14.51" ry="14.51"/><rect class="cls-17" x="757.32" y="621.08" width="30.23" height="46.99" rx="14.51" ry="14.51"/><path class="cls-18" d="M622.91,710.17a40.33,40.33,0,0,0-18.92,76v48.93a18.92,18.92,0,1,0,37.83,0V786.12a40.33,40.33,0,0,0-18.92-76Z"/><path class="cls-19" d="M622.91,710.17a40.33,40.33,0,0,0-18.92,76v48.93a18.92,18.92,0,1,0,37.83,0V786.12a40.33,40.33,0,0,0-18.92-76Z"/><path class="cls-20" d="M622.91,710.17a40.33,40.33,0,0,0-18.92,76v48.93a18.92,18.92,0,1,0,37.83,0V786.12a40.33,40.33,0,0,0-18.92-76Z"/></svg>