<svg id="Windscribe" xmlns="http://www.w3.org/2000/svg" xmlns:xlink="http://www.w3.org/1999/xlink" viewBox="0 0 1280 1280"><defs><style>.cls-1{fill:url(#linear-gradient);}.cls-2{fill:url(#linear-gradient-2);}.cls-3{fill:url(#linear-gradient-3);}.cls-4{fill:url(#linear-gradient-4);}.cls-5{fill:url(#linear-gradient-5);}.cls-6{fill:url(#linear-gradient-6);}.cls-7{fill:url(#linear-gradient-7);}.cls-8{fill:url(#linear-gradient-8);}.cls-9{fill:url(#linear-gradient-9);}.cls-10{fill:url(#linear-gradient-10);}.cls-11{fill:url(#linear-gradient-11);}.cls-12{fill:url(#linear-gradient-12);}.cls-13{fill:url(#linear-gradient-13);}.cls-14{fill:url(#linear-gradient-14);}.cls-15{fill:#fff;}.cls-16{fill:url(#linear-gradient-15);}.cls-17{fill:url(#linear-gradient-16);}.cls-18{fill:url(#linear-gradient-17);}.cls-19{fill:none;stroke:#fff;stroke-linecap:round;stroke-linejoin:round;stroke-width:20px;}.cls-20{fill:url(#linear-gradient-18);}.cls-21{fill:url(#linear-gradient-19);}.cls-22{fill:url(#linear-gradient-20);}</style><linearGradient id="linear-gradient" x1="1108.38" y1="574.77" x2="1131.36" y2="574.77" gradientUnits="userSpaceOnUse"><stop offset="0" stop-color="#54d2ed" stop-opacity="0.5"/><stop offset="0.13" stop-color="#54d2ed" stop-opacity="0.64"/><stop offset="0.28" stop-color="#54d2ed" stop-opacity="0.77"/><stop offset="0.43" stop-color="#54d2ed" stop-opacity="0.87"/><stop offset="0.6" stop-color="#54d2ed" stop-opacity="0.94"/><stop offset="0.78" stop-color="#54d2ed" stop-opacity="0.99"/><stop offset="1" stop-color="#54d2ed"/></linearGradient><linearGradient id="linear-gradient-2" x1="599.59" y1="358.61" x2="645.55" y2="358.61" xlink:href="#linear-gradient"/><linearGradient id="linear-gradient-3" x1="1015.51" y1="797.41" x2="1107.43" y2="797.41" gradientUnits="userSpaceOnUse"><stop offset="0" stop-color="#8ac831" stop-opacity="0.5"/><stop offset="0.07" stop-color="#8ac831" stop-opacity="0.58"/><stop offset="0.23" stop-color="#8ac831" stop-opacity="0.73"/><stop offset="0.39" stop-color="#8ac831" stop-opacity="0.85"/><stop offset="0.57" stop-color="#8ac831" stop-opacity="0.93"/><stop offset="0.76" stop-color="#8ac831" stop-opacity="0.98"/><stop offset="1" stop-color="#8ac831"/></linearGradient><linearGradient id="linear-gradient-4" x1="889.57" y1="907.47" x2="912.55" y2="907.47" xlink:href="#linear-gradient"/><linearGradient id="linear-gradient-5" x1="766.5" y1="988.02" x2="803.9" y2="988.02" xlink:href="#linear-gradient-3"/><linearGradient id="linear-gradient-6" x1="966.15" y1="379.78" x2="1022.24" y2="379.78" xlink:href="#linear-gradient-3"/><linearGradient id="linear-gradient-7" x1="256.77" y1="408.91" x2="279.75" y2="408.91" xlink:href="#linear-gradient-3"/><linearGradient id="linear-gradient-8" x1="848.12" y1="343.84" x2="871.1" y2="343.84" xlink:href="#linear-gradient"/><linearGradient id="linear-gradient-9" x1="378.64" y1="306.38" x2="447.58" y2="306.38" xlink:href="#linear-gradient"/><linearGradient id="linear-gradient-10" x1="370.28" y1="945.8" x2="393.26" y2="945.8" xlink:href="#linear-gradient-3"/><linearGradient id="linear-gradient-11" x1="148.64" y1="627.96" x2="171.62" y2="627.96" xlink:href="#linear-gradient"/><linearGradient id="linear-gradient-12" x1="189.22" y1="830.47" x2="245.32" y2="830.47" xlink:href="#linear-gradient-3"/><linearGradient id="linear-gradient-13" x1="594.52" y1="932.97" x2="650.62" y2="932.97" xlink:href="#linear-gradient"/><linearGradient id="linear-gradient-14" x1="583.15" y1="627.96" x2="1021.24" y2="627.96" gradientUnits="userSpaceOnUse"><stop offset="0" stop-color="#fff"/><stop offset="0.09" stop-color="#eef7e1"/><stop offset="0.26" stop-color="#d0e9ac"/><stop offset="0.43" stop-color="#b7dd80"/><stop offset="0.59" stop-color="#a3d45d"/><stop offset="0.74" stop-color="#95cd45"/><stop offset="0.88" stop-color="#8dc936"/><stop offset="1" stop-color="#8ac831"/></linearGradient><linearGradient id="linear-gradient-15" x1="-2560.14" y1="7798.5" x2="-2219.65" y2="7798.5" gradientTransform="translate(8600.7 3017.86) rotate(90)" xlink:href="#linear-gradient"/><linearGradient id="linear-gradient-16" x1="242.77" y1="627.96" x2="680.86" y2="627.96" xlink:href="#linear-gradient"/><linearGradient id="linear-gradient-17" x1="291.57" y1="627.96" x2="632.06" y2="627.96" xlink:href="#linear-gradient-14"/><linearGradient id="linear-gradient-18" x1="590.21" y1="565.33" x2="771.13" y2="565.33" gradientTransform="translate(-3.12)" gradientUnits="userSpaceOnUse"><stop offset="0" stop-color="#8ac831"/><stop offset="1" stop-color="#8ac831" stop-opacity="0"/></linearGradient><linearGradient id="linear-gradient-19" x1="599.6" y1="684.32" x2="741.09" y2="684.32" gradientTransform="translate(-12.5)" xlink:href="#linear-gradient-18"/><linearGradient id="linear-gradient-20" x1="616.67" y1="624.82" x2="740.75" y2="624.82" gradientTransform="translate(-39)" gradientUnits="userSpaceOnUse"><stop offset="0" stop-color="#6ad8ef" stop-opacity="0"/><stop offset="0.16" stop-color="#6ad8ef" stop-opacity="0.26"/><stop offset="0.32" stop-color="#6ad8ef" stop-opacity="0.49"/><stop offset="0.48" stop-color="#69d8ef" stop-opacity="0.67"/><stop offset="0.63" stop-color="#69d8ef" stop-opacity="0.81"/><stop offset="0.77" stop-color="#69d8ef" stop-opacity="0.92"/><stop offset="0.89" stop-color="#69d8ef" stop-opacity="0.98"/><stop offset="1" stop-color="#69d8ef"/></linearGradient></defs><title>Artboard 154</title><circle class="cls-1" cx="1119.87" cy="574.77" r="11.49"/><polygon class="cls-2" points="599.59 358.61 616.83 352.86 622.57 335.63 628.32 352.86 645.55 358.61 628.32 364.35 622.57 381.58 616.83 364.35 599.59 358.61"/><polygon class="cls-3" points="1015.51 797.41 1049.98 785.92 1061.47 751.45 1072.96 785.92 1107.43 797.41 1072.96 808.89 1061.47 843.37 1049.98 808.89 1015.51 797.41"/><circle class="cls-4" cx="901.06" cy="907.47" r="11.49"/><polygon class="cls-5" points="766.5 988.02 780.52 983.35 785.2 969.32 789.87 983.35 803.9 988.02 789.87 992.69 785.2 1006.72 780.52 992.69 766.5 988.02"/><polygon class="cls-6" points="966.15 379.78 987.18 372.77 994.2 351.73 1001.21 372.77 1022.24 379.78 1001.21 386.79 994.2 407.83 987.18 386.79 966.15 379.78"/><circle class="cls-7" cx="268.26" cy="408.91" r="11.49"/><circle class="cls-8" cx="859.61" cy="343.84" r="11.49"/><polygon class="cls-9" points="378.64 306.38 404.49 297.76 413.11 271.91 421.72 297.76 447.58 306.38 421.72 315 413.11 340.85 404.49 315 378.64 306.38"/><circle class="cls-10" cx="381.77" cy="945.8" r="11.49"/><circle class="cls-11" cx="160.13" cy="627.96" r="11.49"/><polygon class="cls-12" points="189.22 830.47 210.26 823.46 217.27 802.42 224.28 823.46 245.32 830.47 224.28 837.48 217.27 858.52 210.26 837.48 189.22 830.47"/><polygon class="cls-13" points="594.52 932.97 615.56 925.96 622.57 904.92 629.58 925.96 650.62 932.97 629.58 939.98 622.57 961.02 615.56 939.98 594.52 932.97"/><circle class="cls-14" cx="802.2" cy="627.96" r="219.04"/><circle class="cls-15" cx="802.2" cy="627.96" r="170.25"/><circle class="cls-16" cx="802.2" cy="627.96" r="170.25"/><circle class="cls-17" cx="461.81" cy="627.96" r="219.04"/><circle class="cls-18" cx="461.81" cy="627.96" r="170.25"/><polyline class="cls-19" points="544.28 627.96 461.81 627.96 461.81 517.69"/><polyline class="cls-19" points="802.2 710.43 802.2 627.96 880.17 549.99"/><rect class="cls-20" x="587.1" y="552.86" width="180.91" height="24.93" rx="11.93" ry="11.93"/><rect class="cls-21" x="587.1" y="671.86" width="141.49" height="24.93" rx="11.93" ry="11.93"/><rect class="cls-22" x="577.67" y="612.36" width="124.08" height="24.93" rx="11.17" ry="11.17"/></svg>