<svg id="Windscribe" xmlns="http://www.w3.org/2000/svg" xmlns:xlink="http://www.w3.org/1999/xlink" viewBox="0 0 1200 1200"><defs><style>.cls-1,.cls-4{fill:none;stroke-miterlimit:10;stroke-width:25.74px;}.cls-1{stroke:url(#linear-gradient);}.cls-2{fill:url(#linear-gradient-2);}.cls-3{fill:url(#linear-gradient-3);}.cls-4{stroke:url(#linear-gradient-4);}.cls-5{font-size:143.47px;fill:#fff;font-family:CeraRoundProDEMO-Black, CeraRoundProDEMO Black;}</style><linearGradient id="linear-gradient" x1="484.27" y1="-1399.17" x2="715.32" y2="-1630.22" gradientTransform="translate(1332.92 1722.04) rotate(-58.71)" gradientUnits="userSpaceOnUse"><stop offset="0" stop-color="#54d2ed" stop-opacity="0.5"/><stop offset="0.13" stop-color="#54d2ed" stop-opacity="0.64"/><stop offset="0.28" stop-color="#54d2ed" stop-opacity="0.77"/><stop offset="0.43" stop-color="#54d2ed" stop-opacity="0.87"/><stop offset="0.6" stop-color="#54d2ed" stop-opacity="0.94"/><stop offset="0.78" stop-color="#54d2ed" stop-opacity="0.99"/><stop offset="1" stop-color="#54d2ed"/></linearGradient><linearGradient id="linear-gradient-2" x1="49.06" y1="-1195.85" x2="699.12" y2="-1195.85" xlink:href="#linear-gradient"/><linearGradient id="linear-gradient-3" x1="1144.6" y1="1296.35" x2="1756.42" y2="1296.35" gradientTransform="translate(23.49 -1218.75) rotate(31.29)" gradientUnits="userSpaceOnUse"><stop offset="0" stop-color="#fff"/><stop offset="0.09" stop-color="#eef7e1"/><stop offset="0.26" stop-color="#d0e9ac"/><stop offset="0.43" stop-color="#b7dd80"/><stop offset="0.59" stop-color="#a3d45d"/><stop offset="0.74" stop-color="#95cd45"/><stop offset="0.88" stop-color="#8dc936"/><stop offset="1" stop-color="#8ac831"/></linearGradient><linearGradient id="linear-gradient-4" x1="546.9" y1="-1336.54" x2="777.95" y2="-1567.59" xlink:href="#linear-gradient"/></defs><title>Artboard 130</title><path class="cls-1" d="M428.76,558.51c-40.62,9.91-89.51-47.52-109.21-128.28S316.8,276,357.42,266.08"/><path class="cls-2" d="M475.82,402.28,332.54,452.84A44.89,44.89,0,0,0,303,501.4l21.1,150.47A44.89,44.89,0,0,0,345.26,684L747.54,928.5a44.9,44.9,0,0,0,61.68-15l122.18-201a44.9,44.9,0,0,0-15-61.68L514.07,406.24A44.89,44.89,0,0,0,475.82,402.28Zm-7.63,166.26A36.49,36.49,0,1,1,456,518.41,36.48,36.48,0,0,1,468.19,568.54Z"/><path class="cls-3" d="M356.91,664.82a22.35,22.35,0,0,1-10.56-16.06l-21.1-150.47A22.51,22.51,0,0,1,340,474l143.28-50.56a22.35,22.35,0,0,1,19.12,2L904.7,669.93a22.47,22.47,0,0,1,7.52,30.84L790,901.79a22.47,22.47,0,0,1-30.84,7.52Zm110.7-165.58a58.93,58.93,0,1,0,19.75,81A59,59,0,0,0,467.62,499.23Z"/><path class="cls-4" d="M357.42,266.08c40.62-9.91,89.51,47.52,109.21,128.28s2.74,154.25-37.87,164.16"/><text class="cls-5" transform="matrix(0.85, 0.52, -0.52, 0.85, 498.19, 642.38)">FREE</text></svg>