<svg id="Windscribe" xmlns="http://www.w3.org/2000/svg" xmlns:xlink="http://www.w3.org/1999/xlink" viewBox="0 0 1280 1280"><defs><style>.cls-1{fill:url(#linear-gradient);}.cls-2{fill:url(#linear-gradient-2);}.cls-3{fill:url(#linear-gradient-3);}.cls-4{fill:url(#linear-gradient-4);}.cls-5{fill:url(#linear-gradient-5);}.cls-6{fill:url(#linear-gradient-6);}.cls-7{fill:url(#linear-gradient-7);}.cls-8{fill:url(#linear-gradient-8);}.cls-9{fill:url(#linear-gradient-9);}.cls-10{fill:url(#linear-gradient-10);}.cls-11{fill:url(#linear-gradient-11);}.cls-12{fill:url(#linear-gradient-12);}.cls-13{fill:url(#linear-gradient-13);}.cls-14,.cls-17{fill:none;stroke-miterlimit:10;stroke-width:25px;}.cls-14{stroke:url(#linear-gradient-14);}.cls-15{fill:url(#linear-gradient-15);}.cls-16{fill:url(#linear-gradient-16);}.cls-17{stroke:url(#linear-gradient-17);}.cls-18{fill:#fff;}</style><linearGradient id="linear-gradient" x1="1003.51" y1="685.68" x2="1023.91" y2="685.68" gradientUnits="userSpaceOnUse"><stop offset="0" stop-color="#54d2ed" stop-opacity="0.5"/><stop offset="0.13" stop-color="#54d2ed" stop-opacity="0.64"/><stop offset="0.28" stop-color="#54d2ed" stop-opacity="0.77"/><stop offset="0.43" stop-color="#54d2ed" stop-opacity="0.87"/><stop offset="0.6" stop-color="#54d2ed" stop-opacity="0.94"/><stop offset="0.78" stop-color="#54d2ed" stop-opacity="0.99"/><stop offset="1" stop-color="#54d2ed"/></linearGradient><linearGradient id="linear-gradient-2" x1="822.72" y1="401.88" x2="863.52" y2="401.88" xlink:href="#linear-gradient"/><linearGradient id="linear-gradient-3" x1="881.74" y1="541.25" x2="963.34" y2="541.25" gradientUnits="userSpaceOnUse"><stop offset="0" stop-color="#8ac831" stop-opacity="0.5"/><stop offset="0.07" stop-color="#8ac831" stop-opacity="0.58"/><stop offset="0.23" stop-color="#8ac831" stop-opacity="0.73"/><stop offset="0.39" stop-color="#8ac831" stop-opacity="0.85"/><stop offset="0.57" stop-color="#8ac831" stop-opacity="0.93"/><stop offset="0.76" stop-color="#8ac831" stop-opacity="0.98"/><stop offset="1" stop-color="#8ac831"/></linearGradient><linearGradient id="linear-gradient-4" x1="881.74" y1="930.39" x2="902.14" y2="930.39" xlink:href="#linear-gradient"/><linearGradient id="linear-gradient-5" x1="650.19" y1="978.18" x2="683.38" y2="978.18" xlink:href="#linear-gradient-3"/><linearGradient id="linear-gradient-6" x1="999.01" y1="825.73" x2="1048.8" y2="825.73" xlink:href="#linear-gradient-3"/><linearGradient id="linear-gradient-7" x1="687.16" y1="442.67" x2="707.55" y2="442.67" xlink:href="#linear-gradient-3"/><linearGradient id="linear-gradient-8" x1="547.29" y1="308.6" x2="608.49" y2="308.6" xlink:href="#linear-gradient"/><linearGradient id="linear-gradient-9" x1="270.79" y1="796.38" x2="291.19" y2="796.38" xlink:href="#linear-gradient-3"/><linearGradient id="linear-gradient-10" x1="414.77" y1="831.43" x2="435.17" y2="831.43" xlink:href="#linear-gradient"/><linearGradient id="linear-gradient-11" x1="380.07" y1="371.12" x2="400.47" y2="371.12" xlink:href="#linear-gradient-3"/><linearGradient id="linear-gradient-12" x1="231.2" y1="606.95" x2="280.99" y2="606.95" xlink:href="#linear-gradient-3"/><linearGradient id="linear-gradient-13" x1="508.91" y1="978.18" x2="558.7" y2="978.18" xlink:href="#linear-gradient"/><linearGradient id="linear-gradient-14" x1="5862.28" y1="1247.38" x2="6086.66" y2="1023" gradientTransform="translate(-3705.15 4953.13) rotate(-58.71)" xlink:href="#linear-gradient"/><linearGradient id="linear-gradient-15" x1="5439.62" y1="1444.84" x2="6070.92" y2="1444.84" gradientTransform="translate(-3705.15 4953.13) rotate(-58.71)" xlink:href="#linear-gradient"/><linearGradient id="linear-gradient-16" x1="-1946.86" y1="2367.62" x2="-1352.7" y2="2367.62" gradientTransform="translate(3240.17 -515.84) rotate(31.29)" gradientUnits="userSpaceOnUse"><stop offset="0" stop-color="#fff"/><stop offset="0.09" stop-color="#eef7e1"/><stop offset="0.26" stop-color="#d0e9ac"/><stop offset="0.43" stop-color="#b7dd80"/><stop offset="0.59" stop-color="#a3d45d"/><stop offset="0.74" stop-color="#95cd45"/><stop offset="0.88" stop-color="#8dc936"/><stop offset="1" stop-color="#8ac831"/></linearGradient><linearGradient id="linear-gradient-17" x1="5923.1" y1="1308.2" x2="6147.48" y2="1083.82" gradientTransform="translate(-3705.15 4953.13) rotate(-58.71)" xlink:href="#linear-gradient"/></defs><title>Artboard 146</title><circle class="cls-1" cx="1013.71" cy="685.68" r="10.2"/><polygon class="cls-2" points="822.73 401.88 838.02 396.78 843.12 381.48 848.22 396.78 863.52 401.88 848.22 406.98 843.12 422.27 838.02 406.98 822.73 401.88"/><polygon class="cls-3" points="881.74 541.25 912.34 531.06 922.54 500.46 932.74 531.06 963.34 541.25 932.74 551.45 922.54 582.05 912.34 551.45 881.74 541.25"/><circle class="cls-4" cx="891.94" cy="930.39" r="10.2"/><polygon class="cls-5" points="650.19 978.18 662.63 974.03 666.78 961.59 670.93 974.03 683.38 978.18 670.93 982.33 666.78 994.78 662.63 982.33 650.19 978.18"/><polygon class="cls-6" points="999.01 825.73 1017.68 819.5 1023.9 800.83 1030.13 819.5 1048.8 825.73 1030.13 831.95 1023.9 850.62 1017.68 831.95 999.01 825.73"/><circle class="cls-7" cx="697.36" cy="442.67" r="10.2"/><polygon class="cls-8" points="547.29 308.6 570.24 300.95 577.89 278 585.54 300.95 608.49 308.6 585.54 316.25 577.89 339.19 570.24 316.25 547.29 308.6"/><circle class="cls-9" cx="280.99" cy="796.38" r="10.2"/><circle class="cls-10" cx="424.97" cy="831.43" r="10.2"/><circle class="cls-11" cx="390.27" cy="371.12" r="10.2"/><polygon class="cls-12" points="231.2 606.95 249.87 600.72 256.09 582.05 262.32 600.72 280.99 606.95 262.32 613.17 256.09 631.84 249.87 613.17 231.2 606.95"/><polygon class="cls-13" points="508.91 978.18 527.58 971.96 533.8 953.29 540.03 971.96 558.7 978.18 540.03 984.41 533.8 1003.08 527.58 984.41 508.91 978.18"/><path class="cls-14" d="M444.34,569.07c-39.44,9.62-86.93-46.15-106.06-124.57s-2.66-149.8,36.78-159.42"/><path class="cls-15" d="M490,417.35,350.9,466.45a43.59,43.59,0,0,0-28.67,47.17l20.49,146.13a43.59,43.59,0,0,0,20.53,31.2L753.93,928.39a43.6,43.6,0,0,0,59.9-14.61L932.49,718.55a43.6,43.6,0,0,0-14.61-59.9L527.2,421.2A43.59,43.59,0,0,0,490,417.35Zm-7.41,161.46a35.43,35.43,0,1,1-11.87-48.68A35.43,35.43,0,0,1,482.64,578.81Z"/><path class="cls-16" d="M374.57,672.31a21.71,21.71,0,0,1-10.26-15.59L343.82,510.59A21.86,21.86,0,0,1,358.15,487L497.3,437.9a21.71,21.71,0,0,1,18.57,1.92L906.55,677.28a21.82,21.82,0,0,1,7.31,30L795.2,902.45a21.82,21.82,0,0,1-30,7.31ZM482.08,511.51a57.23,57.23,0,1,0,19.18,78.63A57.3,57.3,0,0,0,482.08,511.51Z"/><path class="cls-17" d="M375.06,285.08c39.44-9.62,86.93,46.15,106.06,124.57s2.66,149.8-36.78,159.42"/><path class="cls-18" d="M524.89,646.25l36-59.29a11.79,11.79,0,0,1,16.65-4.06L612.35,604c5.48,3.33,7,9.65,3.83,14.88a10.66,10.66,0,0,1-15,3.57l-24.65-15-9.12,15,18.46,11.22c5.48,3.33,7,9.65,3.83,14.88a10.66,10.66,0,0,1-15,3.57L556.16,641,545.37,658.7c-3.62,6-10.58,7.75-16.54,4.13S521.28,652.21,524.89,646.25Z"/><path class="cls-18" d="M652.47,725.26c-3,5-10.17,6.54-15.29,3.43A12.23,12.23,0,0,1,631.13,718l-1.22-29.11-.36-.22-10.36-6.3-9.41,15.48a12,12,0,1,1-20.48-12.45l36-59.29A11.79,11.79,0,0,1,642,622l20.48,12.45c18,10.93,23.7,29.41,14,45.36a30.13,30.13,0,0,1-23.55,14.87l1.46,20.94A16.24,16.24,0,0,1,652.47,725.26ZM630,664.51l10.48,6.37c5.71,3.47,11.65,2,15-3.57s1.88-11.41-3.83-14.88l-10.48-6.37Z"/><path class="cls-18" d="M667.69,731.08l35.17-57.86a11.79,11.79,0,0,1,16.65-4.06l36,21.85c5.48,3.33,7,9.65,3.83,14.88a10.66,10.66,0,0,1-15.05,3.57l-25.84-15.7-6.58,10.83,16.43,10a10,10,0,1,1-10.42,17.15l-16.43-10-8.32,13.69L720.35,752c5.48,3.33,7,9.65,3.83,14.88a10.66,10.66,0,0,1-15.05,3.57l-37.39-22.72A11.79,11.79,0,0,1,667.69,731.08Z"/><path class="cls-18" d="M736.27,772.76l35.17-57.86a11.79,11.79,0,0,1,16.65-4.06l36,21.85c5.48,3.33,7,9.65,3.83,14.88a10.66,10.66,0,0,1-15.05,3.57L787,735.44l-6.58,10.83,16.43,10a10,10,0,1,1-10.42,17.15l-16.43-10-8.32,13.69,27.27,16.57c5.48,3.33,7,9.65,3.83,14.88a10.66,10.66,0,0,1-15.05,3.57l-37.39-22.72A11.79,11.79,0,0,1,736.27,772.76Z"/></svg>