<svg id="Layer_1" data-name="Layer 1" xmlns="http://www.w3.org/2000/svg" xmlns:xlink="http://www.w3.org/1999/xlink" viewBox="0 0 1200 1200"><defs><style>.cls-1{fill:#fff;}.cls-2{fill:url(#linear-gradient);}.cls-3{fill:url(#linear-gradient-2);}.cls-4{fill:url(#linear-gradient-3);}.cls-5{fill:url(#linear-gradient-4);}.cls-6{fill:url(#linear-gradient-5);}.cls-7{fill:url(#linear-gradient-6);}.cls-8{fill:url(#linear-gradient-7);}.cls-9{fill:url(#linear-gradient-8);}.cls-10{fill:url(#linear-gradient-9);}</style><linearGradient id="linear-gradient" x1="4195.03" y1="597.72" x2="5018.82" y2="597.72" gradientTransform="matrix(-1, 0, 0, 1, 5209, 0)" gradientUnits="userSpaceOnUse"><stop offset="0" stop-color="#8ac831" stop-opacity="0.5"/><stop offset="0.07" stop-color="#8ac831" stop-opacity="0.58"/><stop offset="0.23" stop-color="#8ac831" stop-opacity="0.73"/><stop offset="0.39" stop-color="#8ac831" stop-opacity="0.85"/><stop offset="0.57" stop-color="#8ac831" stop-opacity="0.93"/><stop offset="0.76" stop-color="#8ac831" stop-opacity="0.98"/><stop offset="1" stop-color="#8ac831"/></linearGradient><linearGradient id="linear-gradient-2" x1="4195.03" y1="589.32" x2="5018.82" y2="589.32" xlink:href="#linear-gradient"/><linearGradient id="linear-gradient-3" x1="4195.03" y1="586.59" x2="5018.82" y2="586.59" xlink:href="#linear-gradient"/><linearGradient id="linear-gradient-4" x1="4195.03" y1="584.57" x2="5018.82" y2="584.57" xlink:href="#linear-gradient"/><linearGradient id="linear-gradient-5" x1="4195.03" y1="577.65" x2="5018.82" y2="577.65" xlink:href="#linear-gradient"/><linearGradient id="linear-gradient-6" x1="4195.03" y1="585.44" x2="5018.82" y2="585.44" xlink:href="#linear-gradient"/><linearGradient id="linear-gradient-7" x1="4195.03" y1="589.09" x2="5018.82" y2="589.09" xlink:href="#linear-gradient"/><linearGradient id="linear-gradient-8" x1="4195.03" y1="592.3" x2="5018.82" y2="592.3" xlink:href="#linear-gradient"/><linearGradient id="linear-gradient-9" x1="4195.03" y1="600" x2="5018.82" y2="600" xlink:href="#linear-gradient"/></defs><title>windflix</title><path class="cls-1" d="M679.22,572.43l-.08-58.09,21.19.07q0-6.25,0-12.5l-38,0q.08,76,.17,152.06,8.42.19,16.84.43,0-34.75-.09-69.5,10.6.17,21.21.38,0-6.25,0-12.5Q689.82,572.57,679.22,572.43Z"/><path class="cls-1" d="M282.77,639.28l-2.43.23q-5-68.16-10-137.24l-24.1.06q-5.19,70.29-10.35,141.62l-2.43.26q-5-70.38-10.11-141.82l-15.82,0q6.32,89.18,12.57,176.65,14.54-2,29.09-3.82,4.32-61.12,8.66-121.51l1.22,0q3.93,60,7.84,119.38,14.56-1.74,29.14-3.33,6.49-84.46,13-167.58l-15.82,0Q288,570.29,282.77,639.28Z"/><path class="cls-1" d="M774.67,645.9q-.18-72-.35-143.92L758,502l.36,155.76q19,1.07,38,2.41,0-6.45,0-12.91Q785.52,646.52,774.67,645.9Z"/><path class="cls-1" d="M577.6,501.87H553.74q-.06,75.88-.12,151.76,15.13-.25,30.27-.34c12.94-.07,20.75-8.89,20.75-23.52q0-52.83,0-105.66C604.63,509.49,595.38,501.87,577.6,501.87Zm10.2,128.54c0,7.83-3.18,10.51-12.21,10.58l-7.08.06q0-63.41.07-126.81h9c7.3.82,10.23,3.91,10.23,10.91Q587.81,577.78,587.8,630.41Z"/><path class="cls-1" d="M479.25,624.65q-6.83-61.12-13.64-122.71l-26.29,0q-.18,78-.37,155.91,7.8-.45,15.61-.85.14-63.93.28-127.86,7,63.86,14.11,127.15,12.8-.6,25.61-1.08.13-76.66.27-153.32H479.49Q479.37,563.28,479.25,624.65Z"/><path class="cls-1" d="M364.16,663.17q7.91-.67,15.83-1.29.21-79.92.42-159.84l-15.83,0Q364.37,582.62,364.16,663.17Z"/><path class="cls-1" d="M845.16,502.09q.21,81,.41,161.93,7.91.69,15.82,1.43-.2-81.67-.4-163.33Z"/><path class="cls-1" d="M959.34,502.33q-5.45,31.12-10.88,61.76L947,564q-5.51-31.11-11-61.75l-16.31,0q7.13,38.25,14.24,77.24-7.22,46.46-14.42,92,8.13.93,16.26,1.91,5.77-38.06,11.55-76.74l1,.07q5.39,39.48,10.77,79.57,8.12,1,16.24,2.14-7.3-49.37-14.64-97.67,7.49-38.77,15-78.4Z"/><path class="cls-1" d="M313,498.78H289.85l-1.25,15.58q-7.41-7.71-14.82-15.58H242.86l-1.23,16.09q-7.41-8-14.83-16.09H203.66q6.57,93.12,13.08,184.37,8.84,6.83,17.67,13.51,17.2-2.51,34.43-4.78l.75-11.23q5.82,4.85,11.63,9.63,17.23-2.19,34.49-4.13,6.76-86.2,13.54-171Q321.11,507,313,498.78Zm-16.9,171q-14.58,1.59-29.14,3.33Q263,613.71,259.09,553.7l-1.22,0q-4.34,60.39-8.66,121.51-14.55,1.83-29.09,3.82-6.26-87.48-12.57-176.65l15.82,0q5.07,71.45,10.11,141.82l2.43-.26q5.16-71.34,10.35-141.62l24.1-.06q5,69.09,10,137.24l2.43-.23q5.23-69,10.48-137.07l15.82,0Q302.56,585.3,296.07,669.75Z"/><path class="cls-2" d="M313,498.78H289.85l-1.25,15.58q-7.41-7.71-14.82-15.58H242.86l-1.23,16.09q-7.41-8-14.83-16.09H203.66q6.57,93.12,13.08,184.37,8.84,6.83,17.67,13.51,17.2-2.51,34.43-4.78l.75-11.23q5.82,4.85,11.63,9.63,17.23-2.19,34.49-4.13,6.76-86.2,13.54-171Q321.11,507,313,498.78Zm-16.9,171q-14.58,1.59-29.14,3.33Q263,613.71,259.09,553.7l-1.22,0q-4.34,60.39-8.66,121.51-14.55,1.83-29.09,3.82-6.26-87.48-12.57-176.65l15.82,0q5.07,71.45,10.11,141.82l2.43-.26q5.16-71.34,10.35-141.62l24.1-.06q5,69.09,10,137.24l2.43-.23q5.23-69,10.48-137.07l15.82,0Q302.56,585.3,296.07,669.75Z"/><path class="cls-1" d="M360.93,498.78q-.22,84-.43,168,8.86,6.58,17.73,13.09,10.84-1,21.68-1.81.21-81.77.42-163.55-8.14-7.81-16.27-15.73ZM380,661.88q-7.91.62-15.83,1.29.21-80.55.42-161.11l15.83,0Q380.19,582,380,661.88Z"/><path class="cls-3" d="M360.93,498.78q-.22,84-.43,168,8.86,6.58,17.73,13.09,10.84-1,21.68-1.81.21-81.77.42-163.55-8.14-7.81-16.27-15.73ZM380,661.88q-7.91.62-15.83,1.29.21-80.55.42-161.11l15.83,0Q380.19,582,380,661.88Z"/><path class="cls-1" d="M475.84,498.78q0,4.19,0,8.39l-8.5-8.39H435.67q-.19,81.25-.39,162.49,8.88,6.58,17.77,13.13,10.73-.62,21.47-1.16,0-4.82,0-9.65L485,672.75q14.76-.67,29.53-1.17.12-79.24.23-158.47-8.27-7.14-16.53-14.33Zm18.72,156.45q-12.81.48-25.61,1.08Q461.88,593,454.84,529.16q-.14,63.93-.28,127.86-7.8.4-15.61.85.18-78,.37-155.91l26.29,0q6.81,61.6,13.64,122.71.12-61.36.24-122.73h15.34Q494.69,578.57,494.56,655.23Z"/><path class="cls-4" d="M475.84,498.78q0,4.19,0,8.39l-8.5-8.39H435.67q-.19,81.25-.39,162.49,8.88,6.58,17.77,13.13,10.73-.62,21.47-1.16,0-4.82,0-9.65L485,672.75q14.76-.67,29.53-1.17.12-79.24.23-158.47-8.27-7.14-16.53-14.33Zm18.72,156.45q-12.81.48-25.61,1.08Q461.88,593,454.84,529.16q-.14,63.93-.28,127.86-7.8.4-15.61.85.18-78,.37-155.91l26.29,0q6.81,61.6,13.64,122.71.12-61.36.24-122.73h15.34Q494.69,578.57,494.56,655.23Z"/><path class="cls-1" d="M617.05,517.74c-15.35-15.46-22.65-19-39.45-19H550.09q-.07,79-.14,158l16.35,13.57q15.75-.21,31.5-.22c15.39,0,26.86-11,26.85-25.85q0-54.1,0-108.21C624.6,528,622.41,522.48,617.05,517.74ZM583.89,653.3q-15.14.09-30.27.34.06-75.88.12-151.76H577.6c17.77,0,27,7.62,27,22.24q0,52.83,0,105.66C604.64,644.41,596.83,653.23,583.89,653.3Z"/><path class="cls-5" d="M617.05,517.74c-15.35-15.46-22.65-19-39.45-19H550.09q-.07,79-.14,158l16.35,13.57q15.75-.21,31.5-.22c15.39,0,26.86-11,26.85-25.85q0-54.1,0-108.21C624.6,528,622.41,522.48,617.05,517.74ZM583.89,653.3q-15.14.09-30.27.34.06-75.88.12-151.76H577.6c17.77,0,27,7.62,27,22.24q0,52.83,0,105.66C604.64,644.41,596.83,653.23,583.89,653.3Z"/><path class="cls-1" d="M577.6,514.24h-9q0,63.41-.07,126.81l7.08-.06c9-.07,12.21-2.75,12.21-10.58q0-52.63,0-105.27C587.83,518.14,584.9,515.06,577.6,514.24Z"/><path class="cls-6" d="M577.6,514.24h-9q0,63.41-.07,126.81l7.08-.06c9-.07,12.21-2.75,12.21-10.58q0-52.63,0-105.27C587.83,518.14,584.9,515.06,577.6,514.24Z"/><path class="cls-1" d="M720.43,585.27q-8.18-7.84-16.36-15.58l-4.87-.08q0-19.06-.06-38.12l21.19.17q0-8.8,0-17.59-8.17-7.68-16.34-15.29H658.67q.08,79.1.16,158.19,8.92,7.12,17.84,14.33,11.35.34,22.7.79-.06-34.89-.12-69.78,10.61.25,21.21.55Q720.45,594.06,720.43,585.27Zm-41.19-.39q0,34.75.09,69.5-8.42-.24-16.84-.43-.08-76-.17-152.06l38,0q0,6.25,0,12.5l-21.19-.07.08,58.09q10.6.14,21.2.32,0,6.25,0,12.5Q689.84,585,679.24,584.88Z"/><path class="cls-7" d="M720.43,585.27q-8.18-7.84-16.36-15.58l-4.87-.08q0-19.06-.06-38.12l21.19.17q0-8.8,0-17.59-8.17-7.68-16.34-15.29H658.67q.08,79.1.16,158.19,8.92,7.12,17.84,14.33,11.35.34,22.7.79-.06-34.89-.12-69.78,10.61.25,21.21.55Q720.45,594.06,720.43,585.27Zm-41.19-.39q0,34.75.09,69.5-8.42-.24-16.84-.43-.08-76-.17-152.06l38,0q0,6.25,0,12.5l-21.19-.07.08,58.09q10.6.14,21.2.32,0,6.25,0,12.5Q689.84,585,679.24,584.88Z"/><path class="cls-1" d="M800,644.23l-5.36-.34q-.17-64.71-.33-129.41-8.18-7.9-16.35-15.69H754.35q.19,81,.37,161.91,8.92,7.59,17.83,15.33,21.94,1.5,43.86,3.38,0-9.12,0-18.24Q808.19,652.61,800,644.23Zm-41.63,13.5L758,502l16.31,0q.18,72,.35,143.92,10.85.62,21.69,1.32,0,6.45,0,12.91Q777.39,658.8,758.37,657.72Z"/><path class="cls-8" d="M800,644.23l-5.36-.34q-.17-64.71-.33-129.41-8.18-7.9-16.35-15.69H754.35q.19,81,.37,161.91,8.92,7.59,17.83,15.33,21.94,1.5,43.86,3.38,0-9.12,0-18.24Q808.19,652.61,800,644.23Zm-41.63,13.5L758,502l16.31,0q.18,72,.35,143.92,10.85.62,21.69,1.32,0,6.45,0,12.91Q777.39,658.8,758.37,657.72Z"/><path class="cls-1" d="M864.63,498.78H841.5q.22,84.11.43,168.21,8.9,8.15,17.8,16.5,10.82,1.12,21.64,2.32-.2-85.31-.39-170.62Q872.81,506.91,864.63,498.78ZM845.58,664q-.21-81-.41-161.93l15.83,0q.2,81.67.4,163.33Q853.49,664.71,845.58,664Z"/><path class="cls-9" d="M864.63,498.78H841.5q.22,84.11.43,168.21,8.9,8.15,17.8,16.5,10.82,1.12,21.64,2.32-.2-85.31-.39-170.62Q872.81,506.91,864.63,498.78ZM845.58,664q-.21-81-.41-161.93l15.83,0q.2,81.67.4,163.33Q853.49,664.71,845.58,664Z"/><path class="cls-1" d="M980.27,498.78h-24.1l-2.66,15.33q-7.19-7.74-14.38-15.33H915.27q7.5,40,15,80.73-7.46,48-14.89,95,8.88,8.72,17.75,17.67,11.16,1.48,22.31,3.06l2.17-15.06q7.89,8.72,15.76,17.66,11.14,1.66,22.27,3.42-7.5-51.8-15.05-102.38,7.87-40.65,15.78-82.28Q988.31,507.56,980.27,498.78Zm-5,179.67q-8.12-1.1-16.24-2.14-5.37-40.1-10.77-79.57l-1-.07q-5.78,38.68-11.55,76.74-8.13-1-16.26-1.91,7.2-45.57,14.42-92-7.11-39-14.24-77.24l16.31,0q5.52,30.64,11,61.75l1.46.07q5.43-30.64,10.88-61.76l16.31,0q-7.52,39.64-15,78.4Q968,629.09,975.27,678.45Z"/><path class="cls-10" d="M980.27,498.78h-24.1l-2.66,15.33q-7.19-7.74-14.38-15.33H915.27q7.5,40,15,80.73-7.46,48-14.89,95,8.88,8.72,17.75,17.67,11.16,1.48,22.31,3.06l2.17-15.06q7.89,8.72,15.76,17.66,11.14,1.66,22.27,3.42-7.5-51.8-15.05-102.38,7.87-40.65,15.78-82.28Q988.31,507.56,980.27,498.78Zm-5,179.67q-8.12-1.1-16.24-2.14-5.37-40.1-10.77-79.57l-1-.07q-5.78,38.68-11.55,76.74-8.13-1-16.26-1.91,7.2-45.57,14.42-92-7.11-39-14.24-77.24l16.31,0q5.52,30.64,11,61.75l1.46.07q5.43-30.64,10.88-61.76l16.31,0q-7.52,39.64-15,78.4Q968,629.09,975.27,678.45Z"/></svg>