<svg id="Layer_1" data-name="Layer 1" xmlns="http://www.w3.org/2000/svg" xmlns:xlink="http://www.w3.org/1999/xlink" viewBox="0 0 1200 1200"><defs><style>.cls-1{fill:#fff;}.cls-2{fill:url(#linear-gradient);}.cls-3{fill:url(#linear-gradient-2);}.cls-4{fill:url(#linear-gradient-3);}.cls-5{fill:url(#linear-gradient-4);}.cls-6{fill:url(#linear-gradient-5);}.cls-7{fill:url(#linear-gradient-6);}.cls-8{fill:url(#linear-gradient-7);}.cls-9{fill:url(#linear-gradient-8);}.cls-10{fill:url(#linear-gradient-9);}.cls-11{fill:url(#linear-gradient-10);}.cls-12{fill:url(#linear-gradient-11);}.cls-13{fill:url(#linear-gradient-12);}.cls-14{fill:url(#linear-gradient-13);}.cls-15{fill:url(#linear-gradient-14);}.cls-16{fill:url(#linear-gradient-15);}.cls-17{fill:url(#linear-gradient-16);}.cls-18{fill:url(#linear-gradient-17);}.cls-19{fill:url(#linear-gradient-18);}.cls-20{fill:url(#linear-gradient-19);}.cls-21{fill:url(#linear-gradient-20);}.cls-22{fill:url(#linear-gradient-21);}.cls-23{fill:url(#linear-gradient-22);}</style><linearGradient id="linear-gradient" x1="4195.03" y1="603.45" x2="5018.82" y2="603.45" gradientTransform="matrix(-1, 0, 0, 1, 5209, 0)" gradientUnits="userSpaceOnUse"><stop offset="0" stop-color="#8ac831" stop-opacity="0.5"/><stop offset="0.07" stop-color="#8ac831" stop-opacity="0.58"/><stop offset="0.23" stop-color="#8ac831" stop-opacity="0.73"/><stop offset="0.39" stop-color="#8ac831" stop-opacity="0.85"/><stop offset="0.57" stop-color="#8ac831" stop-opacity="0.93"/><stop offset="0.76" stop-color="#8ac831" stop-opacity="0.98"/><stop offset="1" stop-color="#8ac831"/></linearGradient><linearGradient id="linear-gradient-2" x1="4195.03" y1="595.05" x2="5018.82" y2="595.05" xlink:href="#linear-gradient"/><linearGradient id="linear-gradient-3" x1="4195.03" y1="592.32" x2="5018.82" y2="592.32" xlink:href="#linear-gradient"/><linearGradient id="linear-gradient-4" x1="4195.03" y1="590.3" x2="5018.82" y2="590.3" xlink:href="#linear-gradient"/><linearGradient id="linear-gradient-5" x1="4195.03" y1="583.38" x2="5018.82" y2="583.38" xlink:href="#linear-gradient"/><linearGradient id="linear-gradient-6" x1="4195.03" y1="591.17" x2="5018.82" y2="591.17" xlink:href="#linear-gradient"/><linearGradient id="linear-gradient-7" x1="4195.03" y1="594.82" x2="5018.82" y2="594.82" xlink:href="#linear-gradient"/><linearGradient id="linear-gradient-8" x1="4195.03" y1="598.03" x2="5018.82" y2="598.03" xlink:href="#linear-gradient"/><linearGradient id="linear-gradient-9" x1="4195.03" y1="605.73" x2="5018.82" y2="605.73" xlink:href="#linear-gradient"/><linearGradient id="linear-gradient-10" x1="544.75" y1="750.93" x2="562.49" y2="750.93" gradientUnits="userSpaceOnUse"><stop offset="0" stop-color="#54d2ed" stop-opacity="0.5"/><stop offset="0.13" stop-color="#54d2ed" stop-opacity="0.64"/><stop offset="0.28" stop-color="#54d2ed" stop-opacity="0.77"/><stop offset="0.43" stop-color="#54d2ed" stop-opacity="0.87"/><stop offset="0.6" stop-color="#54d2ed" stop-opacity="0.94"/><stop offset="0.78" stop-color="#54d2ed" stop-opacity="0.99"/><stop offset="1" stop-color="#54d2ed"/></linearGradient><linearGradient id="linear-gradient-11" x1="778.69" y1="377.36" x2="796.43" y2="377.36" xlink:href="#linear-gradient-10"/><linearGradient id="linear-gradient-12" x1="614.35" y1="415.86" x2="649.84" y2="415.86" gradientTransform="matrix(1, 0, 0, 1, 0, 0)" xlink:href="#linear-gradient"/><linearGradient id="linear-gradient-13" x1="474.77" y1="829.2" x2="514.88" y2="829.2" xlink:href="#linear-gradient-10"/><linearGradient id="linear-gradient-14" x1="910.6" y1="768.68" x2="928.35" y2="768.68" xlink:href="#linear-gradient-10"/><linearGradient id="linear-gradient-15" x1="706.03" y1="762.54" x2="734.91" y2="762.54" gradientTransform="matrix(1, 0, 0, 1, 0, 0)" xlink:href="#linear-gradient"/><linearGradient id="linear-gradient-16" x1="925.31" y1="442.48" x2="968.63" y2="442.48" gradientTransform="matrix(1, 0, 0, 1, 0, 0)" xlink:href="#linear-gradient"/><linearGradient id="linear-gradient-17" x1="527.04" y1="359.62" x2="544.79" y2="359.62" gradientTransform="matrix(1, 0, 0, 1, 0, 0)" xlink:href="#linear-gradient"/><linearGradient id="linear-gradient-18" x1="379.73" y1="415.86" x2="432.97" y2="415.86" xlink:href="#linear-gradient-10"/><linearGradient id="linear-gradient-19" x1="379.69" y1="784.2" x2="397.43" y2="784.2" gradientTransform="matrix(1, 0, 0, 1, 0, 0)" xlink:href="#linear-gradient"/><linearGradient id="linear-gradient-20" x1="230.48" y1="424.73" x2="248.22" y2="424.73" xlink:href="#linear-gradient-10"/><linearGradient id="linear-gradient-21" x1="236.65" y1="777.55" x2="279.97" y2="777.55" gradientTransform="matrix(1, 0, 0, 1, 0, 0)" xlink:href="#linear-gradient"/><linearGradient id="linear-gradient-22" x1="804.76" y1="817.94" x2="848.08" y2="817.94" xlink:href="#linear-gradient-10"/></defs><title>windflix-stars</title><path class="cls-1" d="M679.22,578.16l-.08-58.09,21.19.07q0-6.25,0-12.5l-38,0q.08,76,.17,152.06,8.42.19,16.84.43,0-34.75-.09-69.5,10.6.17,21.21.38,0-6.25,0-12.5Q689.82,578.3,679.22,578.16Z"/><path class="cls-1" d="M282.77,645l-2.43.23q-5-68.16-10-137.24l-24.1.06q-5.19,70.29-10.35,141.62l-2.43.26q-5-70.38-10.11-141.82l-15.82,0q6.32,89.18,12.57,176.65,14.54-2,29.09-3.82,4.32-61.12,8.66-121.51l1.22,0q3.93,60,7.84,119.38,14.56-1.74,29.14-3.33,6.49-84.46,13-167.58l-15.82,0Q288,576,282.77,645Z"/><path class="cls-1" d="M774.67,651.63q-.18-72-.35-143.92l-16.31,0,.36,155.76q19,1.07,38,2.41,0-6.45,0-12.91Q785.52,652.25,774.67,651.63Z"/><path class="cls-1" d="M577.6,507.6H553.74q-.06,75.88-.12,151.76,15.13-.25,30.27-.34c12.94-.07,20.75-8.89,20.75-23.52q0-52.83,0-105.66C604.63,515.22,595.38,507.6,577.6,507.6Zm10.2,128.54c0,7.83-3.18,10.51-12.21,10.58l-7.08.06q0-63.41.07-126.81h9c7.3.82,10.23,3.91,10.23,10.91Q587.81,583.51,587.8,636.14Z"/><path class="cls-1" d="M479.25,630.38q-6.83-61.12-13.64-122.71l-26.29,0q-.18,78-.37,155.91,7.8-.45,15.61-.85.14-63.93.28-127.86,7,63.86,14.11,127.15,12.8-.6,25.61-1.08.13-76.66.27-153.32H479.49Q479.37,569,479.25,630.38Z"/><path class="cls-1" d="M364.16,668.9q7.91-.67,15.83-1.29.21-79.92.42-159.84l-15.83,0Q364.37,588.35,364.16,668.9Z"/><path class="cls-1" d="M845.16,507.81q.21,81,.41,161.93,7.91.69,15.82,1.43-.2-81.67-.4-163.33Z"/><path class="cls-1" d="M959.34,508.06q-5.45,31.12-10.88,61.76l-1.46-.07q-5.51-31.11-11-61.75l-16.31,0q7.13,38.25,14.24,77.24-7.22,46.46-14.42,92,8.13.93,16.26,1.91,5.77-38.06,11.55-76.74l1,.07Q953.65,641.94,959,682q8.12,1,16.24,2.14-7.3-49.37-14.64-97.67,7.49-38.77,15-78.4Z"/><path class="cls-1" d="M313,504.51H289.85l-1.25,15.58q-7.41-7.71-14.82-15.58H242.86l-1.23,16.09q-7.41-8-14.83-16.09H203.66q6.57,93.12,13.08,184.37,8.84,6.83,17.67,13.51,17.2-2.51,34.43-4.78l.75-11.23q5.82,4.85,11.63,9.63,17.23-2.19,34.49-4.13,6.76-86.2,13.54-171Q321.11,512.74,313,504.51Zm-16.9,171q-14.58,1.59-29.14,3.33-3.91-59.36-7.84-119.38l-1.22,0q-4.34,60.39-8.66,121.51-14.55,1.83-29.09,3.82-6.26-87.48-12.57-176.65l15.82,0q5.07,71.45,10.11,141.82l2.43-.26q5.16-71.34,10.35-141.62l24.1-.06q5,69.09,10,137.24l2.43-.23q5.23-69,10.48-137.07l15.82,0Q302.56,591,296.07,675.48Z"/><path class="cls-2" d="M313,504.51H289.85l-1.25,15.58q-7.41-7.71-14.82-15.58H242.86l-1.23,16.09q-7.41-8-14.83-16.09H203.66q6.57,93.12,13.08,184.37,8.84,6.83,17.67,13.51,17.2-2.51,34.43-4.78l.75-11.23q5.82,4.85,11.63,9.63,17.23-2.19,34.49-4.13,6.76-86.2,13.54-171Q321.11,512.74,313,504.51Zm-16.9,171q-14.58,1.59-29.14,3.33-3.91-59.36-7.84-119.38l-1.22,0q-4.34,60.39-8.66,121.51-14.55,1.83-29.09,3.82-6.26-87.48-12.57-176.65l15.82,0q5.07,71.45,10.11,141.82l2.43-.26q5.16-71.34,10.35-141.62l24.1-.06q5,69.09,10,137.24l2.43-.23q5.23-69,10.48-137.07l15.82,0Q302.56,591,296.07,675.48Z"/><path class="cls-1" d="M360.93,504.51q-.22,84-.43,168,8.86,6.58,17.73,13.09,10.84-1,21.68-1.81.21-81.77.42-163.55-8.14-7.81-16.27-15.73ZM380,667.61q-7.91.62-15.83,1.29.21-80.55.42-161.11l15.83,0Q380.19,587.69,380,667.61Z"/><path class="cls-3" d="M360.93,504.51q-.22,84-.43,168,8.86,6.58,17.73,13.09,10.84-1,21.68-1.81.21-81.77.42-163.55-8.14-7.81-16.27-15.73ZM380,667.61q-7.91.62-15.83,1.29.21-80.55.42-161.11l15.83,0Q380.19,587.69,380,667.61Z"/><path class="cls-1" d="M475.84,504.51q0,4.19,0,8.39l-8.5-8.39H435.67q-.19,81.25-.39,162.49,8.88,6.58,17.77,13.13,10.73-.62,21.47-1.16,0-4.82,0-9.65L485,678.48q14.76-.67,29.53-1.17.12-79.24.23-158.47-8.27-7.14-16.53-14.33ZM494.56,661q-12.81.48-25.61,1.08-7.06-63.31-14.11-127.15-.14,63.93-.28,127.86-7.8.4-15.61.85.18-78,.37-155.91l26.29,0q6.81,61.6,13.64,122.71.12-61.36.24-122.73h15.34Q494.69,584.3,494.56,661Z"/><path class="cls-4" d="M475.84,504.51q0,4.19,0,8.39l-8.5-8.39H435.67q-.19,81.25-.39,162.49,8.88,6.58,17.77,13.13,10.73-.62,21.47-1.16,0-4.82,0-9.65L485,678.48q14.76-.67,29.53-1.17.12-79.24.23-158.47-8.27-7.14-16.53-14.33ZM494.56,661q-12.81.48-25.61,1.08-7.06-63.31-14.11-127.15-.14,63.93-.28,127.86-7.8.4-15.61.85.18-78,.37-155.91l26.29,0q6.81,61.6,13.64,122.71.12-61.36.24-122.73h15.34Q494.69,584.3,494.56,661Z"/><path class="cls-1" d="M617.05,523.46c-15.35-15.46-22.65-19-39.45-19H550.09q-.07,79-.14,158L566.3,676.1q15.75-.21,31.5-.22c15.39,0,26.86-11,26.85-25.85q0-54.1,0-108.21C624.6,533.78,622.41,528.21,617.05,523.46ZM583.89,659q-15.14.09-30.27.34.06-75.88.12-151.76H577.6c17.77,0,27,7.62,27,22.24q0,52.83,0,105.66C604.64,650.14,596.83,659,583.89,659Z"/><path class="cls-5" d="M617.05,523.46c-15.35-15.46-22.65-19-39.45-19H550.09q-.07,79-.14,158L566.3,676.1q15.75-.21,31.5-.22c15.39,0,26.86-11,26.85-25.85q0-54.1,0-108.21C624.6,533.78,622.41,528.21,617.05,523.46ZM583.89,659q-15.14.09-30.27.34.06-75.88.12-151.76H577.6c17.77,0,27,7.62,27,22.24q0,52.83,0,105.66C604.64,650.14,596.83,659,583.89,659Z"/><path class="cls-1" d="M577.6,520h-9q0,63.41-.07,126.81l7.08-.06c9-.07,12.21-2.75,12.21-10.58q0-52.63,0-105.27C587.83,523.87,584.9,520.79,577.6,520Z"/><path class="cls-6" d="M577.6,520h-9q0,63.41-.07,126.81l7.08-.06c9-.07,12.21-2.75,12.21-10.58q0-52.63,0-105.27C587.83,523.87,584.9,520.79,577.6,520Z"/><path class="cls-1" d="M720.43,591q-8.18-7.84-16.36-15.58l-4.87-.08q0-19.06-.06-38.12l21.19.17q0-8.8,0-17.59-8.17-7.68-16.34-15.29H658.67q.08,79.1.16,158.19,8.92,7.12,17.84,14.33,11.35.34,22.7.79-.06-34.89-.12-69.78,10.61.25,21.21.55Q720.45,599.79,720.43,591Zm-41.19-.39q0,34.75.09,69.5-8.42-.24-16.84-.43-.08-76-.17-152.06l38,0q0,6.25,0,12.5l-21.19-.07.08,58.09q10.6.14,21.2.32,0,6.25,0,12.5Q689.84,590.77,679.24,590.6Z"/><path class="cls-7" d="M720.43,591q-8.18-7.84-16.36-15.58l-4.87-.08q0-19.06-.06-38.12l21.19.17q0-8.8,0-17.59-8.17-7.68-16.34-15.29H658.67q.08,79.1.16,158.19,8.92,7.12,17.84,14.33,11.35.34,22.7.79-.06-34.89-.12-69.78,10.61.25,21.21.55Q720.45,599.79,720.43,591Zm-41.19-.39q0,34.75.09,69.5-8.42-.24-16.84-.43-.08-76-.17-152.06l38,0q0,6.25,0,12.5l-21.19-.07.08,58.09q10.6.14,21.2.32,0,6.25,0,12.5Q689.84,590.77,679.24,590.6Z"/><path class="cls-1" d="M800,650l-5.36-.34q-.17-64.71-.33-129.41-8.18-7.9-16.35-15.69H754.35q.19,81,.37,161.91,8.92,7.59,17.83,15.33,21.94,1.5,43.86,3.38,0-9.12,0-18.24Q808.19,658.34,800,650Zm-41.63,13.5L758,507.69l16.31,0q.18,72,.35,143.92,10.85.62,21.69,1.32,0,6.45,0,12.91Q777.39,664.53,758.37,663.45Z"/><path class="cls-8" d="M800,650l-5.36-.34q-.17-64.71-.33-129.41-8.18-7.9-16.35-15.69H754.35q.19,81,.37,161.91,8.92,7.59,17.83,15.33,21.94,1.5,43.86,3.38,0-9.12,0-18.24Q808.19,658.34,800,650Zm-41.63,13.5L758,507.69l16.31,0q.18,72,.35,143.92,10.85.62,21.69,1.32,0,6.45,0,12.91Q777.39,664.53,758.37,663.45Z"/><path class="cls-1" d="M864.63,504.51H841.5q.22,84.11.43,168.21,8.9,8.15,17.8,16.5,10.82,1.12,21.64,2.32-.2-85.31-.39-170.62Q872.81,512.63,864.63,504.51ZM845.58,669.74q-.21-81-.41-161.93l15.83,0q.2,81.67.4,163.33Q853.49,670.43,845.58,669.74Z"/><path class="cls-9" d="M864.63,504.51H841.5q.22,84.11.43,168.21,8.9,8.15,17.8,16.5,10.82,1.12,21.64,2.32-.2-85.31-.39-170.62Q872.81,512.63,864.63,504.51ZM845.58,669.74q-.21-81-.41-161.93l15.83,0q.2,81.67.4,163.33Q853.49,670.43,845.58,669.74Z"/><path class="cls-1" d="M980.27,504.51h-24.1l-2.66,15.33q-7.19-7.74-14.38-15.33H915.27q7.5,40,15,80.73-7.46,48-14.89,95,8.88,8.72,17.75,17.67,11.16,1.48,22.31,3.06l2.17-15.06q7.89,8.72,15.76,17.66,11.14,1.66,22.27,3.42-7.5-51.8-15.05-102.38,7.87-40.65,15.78-82.28Q988.31,513.28,980.27,504.51Zm-5,179.67q-8.12-1.1-16.24-2.14-5.37-40.1-10.77-79.57l-1-.07q-5.78,38.68-11.55,76.74-8.13-1-16.26-1.91,7.2-45.57,14.42-92-7.11-39-14.24-77.24L936,508q5.52,30.64,11,61.75l1.46.07q5.43-30.64,10.88-61.76l16.31,0q-7.52,39.64-15,78.4Q968,634.82,975.27,684.18Z"/><path class="cls-10" d="M980.27,504.51h-24.1l-2.66,15.33q-7.19-7.74-14.38-15.33H915.27q7.5,40,15,80.73-7.46,48-14.89,95,8.88,8.72,17.75,17.67,11.16,1.48,22.31,3.06l2.17-15.06q7.89,8.72,15.76,17.66,11.14,1.66,22.27,3.42-7.5-51.8-15.05-102.38,7.87-40.65,15.78-82.28Q988.31,513.28,980.27,504.51Zm-5,179.67q-8.12-1.1-16.24-2.14-5.37-40.1-10.77-79.57l-1-.07q-5.78,38.68-11.55,76.74-8.13-1-16.26-1.91,7.2-45.57,14.42-92-7.11-39-14.24-77.24L936,508q5.52,30.64,11,61.75l1.46.07q5.43-30.64,10.88-61.76l16.31,0q-7.52,39.64-15,78.4Q968,634.82,975.27,684.18Z"/><circle class="cls-11" cx="553.62" cy="750.93" r="8.87"/><circle class="cls-12" cx="787.56" cy="377.36" r="8.87"/><polygon class="cls-13" points="614.35 415.86 627.66 411.42 632.1 398.11 636.53 411.42 649.84 415.86 636.53 420.29 632.1 433.6 627.66 420.29 614.35 415.86"/><polygon class="cls-14" points="474.77 829.2 489.81 824.19 494.83 809.15 499.84 824.19 514.88 829.2 499.84 834.22 494.83 849.26 489.81 834.22 474.77 829.2"/><circle class="cls-15" cx="919.48" cy="768.68" r="8.87"/><polygon class="cls-16" points="706.03 762.54 716.86 758.93 720.47 748.1 724.08 758.93 734.91 762.54 724.08 766.15 720.47 776.98 716.86 766.15 706.03 762.54"/><polygon class="cls-17" points="925.31 442.48 941.56 437.06 946.97 420.82 952.39 437.06 968.63 442.48 952.39 447.89 946.97 464.14 941.56 447.89 925.31 442.48"/><circle class="cls-18" cx="535.91" cy="359.62" r="8.87"/><polygon class="cls-19" points="379.73 415.86 399.69 409.2 406.35 389.24 413 409.2 432.97 415.86 413 422.51 406.35 442.48 399.69 422.51 379.73 415.86"/><circle class="cls-20" cx="388.56" cy="784.2" r="8.87"/><circle class="cls-21" cx="239.35" cy="424.73" r="8.87"/><polygon class="cls-22" points="236.65 777.55 252.9 772.14 258.31 755.89 263.73 772.14 279.97 777.55 263.73 782.97 258.31 799.21 252.9 782.97 236.65 777.55"/><polygon class="cls-23" points="804.76 817.94 821.01 812.53 826.42 796.28 831.84 812.53 848.08 817.94 831.84 823.36 826.42 839.6 821.01 823.36 804.76 817.94"/></svg>